<svg xmlns="http://www.w3.org/2000/svg" xmlns:xlink="http://www.w3.org/1999/xlink" width="125.62" height="133.74" viewBox="0 0 125.62 133.74"><defs><style>.cls-1{fill:#481759;}.cls-1,.cls-2{fill-rule:evenodd;}.cls-2{fill:url(#GradientFill_2);}</style><linearGradient id="GradientFill_2" x1="0.29" y1="66" x2="125.38" y2="66" gradientUnits="userSpaceOnUse"><stop offset="0" stop-color="#b383b9"/><stop offset="1" stop-color="#481759"/></linearGradient></defs><g id="Layer_2" data-name="Layer 2"><g id="Free_Fridge_Magnets_Vectors" data-name="Free Fridge Magnets Vectors"><polygon class="cls-1" points="1.43 106.18 4.94 109.99 5.37 110.4 5.84 110.75 6.36 111.05 6.92 111.27 7.53 111.44 25.22 115.15 25.97 115.25 26.7 115.24 27.41 115.12 28.09 114.9 28.73 114.58 29.31 114.17 29.84 113.66 30.3 113.06 38.68 100.37 39.13 99.77 39.66 99.26 40.25 98.84 40.89 98.52 41.56 98.3 42.27 98.19 43.01 98.18 43.76 98.28 84.41 106.81 85.14 107.02 85.81 107.32 86.41 107.72 86.94 108.2 87.4 108.75 87.77 109.37 88.05 110.06 88.22 110.79 90.67 125.7 90.85 126.43 91.13 127.12 91.5 127.74 91.95 128.29 92.49 128.77 93.09 129.17 93.76 129.47 94.49 129.68 113.31 133.63 113.92 133.72 114.53 133.74 115.12 133.68 115.69 133.56 121.81 131.78 121.18 131.93 120.54 131.99 119.88 131.97 119.22 131.87 98.76 127.58 97.97 127.35 97.24 127.02 96.58 126.59 96 126.07 95.51 125.46 95.11 124.79 94.81 124.04 94.61 123.24 91.95 107.05 91.76 106.24 91.46 105.5 91.06 104.83 90.56 104.22 89.98 103.7 89.32 103.27 88.59 102.94 87.8 102.71 43.62 93.44 42.8 93.33 42.01 93.34 41.24 93.47 40.5 93.71 39.81 94.06 39.17 94.51 38.59 95.06 38.09 95.71 28.99 109.51 28.49 110.16 27.92 110.71 27.28 111.16 26.59 111.51 25.85 111.75 25.08 111.88 24.28 111.89 23.47 111.78 4.24 107.75 3.58 107.57 2.97 107.32 2.4 107 1.89 106.62 1.43 106.18"/><polygon class="cls-1" points="56.96 67.8 56.03 74.69 56.12 74.11 56.29 73.55 56.52 73 56.83 72.47 70.11 52.3 70.57 51.7 71.1 51.19 71.69 50.77 72.33 50.45 73.01 50.23 73.72 50.11 74.46 50.1 75.2 50.2 75.93 50.42 76.6 50.72 77.2 51.12 77.73 51.6 78.19 52.15 78.56 52.78 78.83 53.46 79.01 54.2 82.88 77.97 82.95 78.58 82.94 79.17 82.86 79.75 82.71 80.31 82.49 80.85 85.72 74.5 85.96 73.91 86.12 73.3 86.21 72.67 86.22 72.03 86.15 71.36 81.93 45.52 81.74 44.73 81.44 43.98 81.05 43.31 80.55 42.7 79.97 42.18 79.32 41.75 78.59 41.42 77.8 41.19 76.99 41.08 76.19 41.08 75.41 41.21 74.67 41.45 73.98 41.8 73.33 42.25 72.76 42.81 72.26 43.46 57.83 65.39 57.49 65.97 57.24 66.56 57.06 67.18 56.96 67.8"/><path class="cls-2" d="M92,107l2.67,16.2a5.22,5.22,0,0,0,4.14,4.34l20.46,4.29a5.32,5.32,0,0,0,6.3-6.21L102.89,9.3a5.21,5.21,0,0,0-4.12-4.19L75,.12a5.21,5.21,0,0,0-5.43,2.14L1,99.49a5.15,5.15,0,0,0-.6,5,5.15,5.15,0,0,0,3.85,3.26l19.23,4A5.22,5.22,0,0,0,29,109.51l9.1-13.8a5.24,5.24,0,0,1,5.53-2.27l44.18,9.27A5.22,5.22,0,0,1,92,107ZM79.82,77.42,61.17,73.5a5.31,5.31,0,0,1-3.34-8.11L72.26,43.46a5.31,5.31,0,0,1,9.67,2.07l4.22,25.84a5.31,5.31,0,0,1-6.33,6Z"/></g></g></svg>