<svg xmlns="http://www.w3.org/2000/svg" xmlns:xlink="http://www.w3.org/1999/xlink" width="278.38" height="140.89" viewBox="0 0 278.38 140.89"><defs><style>.cls-1{fill:#481759;}.cls-1,.cls-2,.cls-3,.cls-4,.cls-5,.cls-6,.cls-7,.cls-8{fill-rule:evenodd;}.cls-2{fill:url(#GradientFill_2);}.cls-3{fill:#f6911e;}.cls-4{fill:#f0ad56;}.cls-5{fill:url(#GradientFill_3);}.cls-6{fill:#228749;}.cls-7{fill:#86c446;}.cls-8{fill:url(#GradientFill_4);}</style><linearGradient id="GradientFill_2" x1="-27.87" y1="74.77" x2="97.23" y2="74.77" gradientTransform="translate(-27.06 24.95) rotate(-28.14)" gradientUnits="userSpaceOnUse"><stop offset="0" stop-color="#b383b9"/><stop offset="1" stop-color="#481759"/></linearGradient><linearGradient id="GradientFill_3" x1="79.38" y1="60.27" x2="201.75" y2="60.27" gradientUnits="userSpaceOnUse"><stop offset="0" stop-color="#f7973a"/><stop offset="1" stop-color="#f6911e"/></linearGradient><linearGradient id="GradientFill_4" x1="30.08" y1="61.94" x2="415.59" y2="61.94" gradientUnits="userSpaceOnUse"><stop offset="0" stop-color="#86c446"/><stop offset="1" stop-color="#228749"/></linearGradient></defs><g id="Layer_2" data-name="Layer 2"><g id="Free_Fridge_Magnets_Vectors" data-name="Free Fridge Magnets Vectors"><polygon class="cls-1" points="3.58 138.92 8.48 140.63 9.05 140.79 9.63 140.88 10.23 140.89 10.84 140.82 11.44 140.68 28.8 135.61 29.5 135.35 30.14 135 30.72 134.56 31.21 134.04 31.62 133.46 31.94 132.81 32.17 132.12 32.29 131.37 33.69 116.23 33.81 115.49 34.04 114.79 34.36 114.14 34.77 113.56 35.27 113.05 35.84 112.61 36.48 112.25 37.18 111.99 77.05 100.34 77.8 100.18 78.53 100.14 79.25 100.2 79.95 100.37 80.61 100.64 81.23 101.02 81.8 101.49 82.3 102.06 91.49 114.04 91.99 114.61 92.56 115.08 93.18 115.45 93.84 115.73 94.54 115.9 95.26 115.96 96 115.92 96.74 115.76 115.19 110.37 115.78 110.16 116.32 109.89 116.81 109.56 117.25 109.17 121.81 104.73 121.33 105.15 120.79 105.51 120.21 105.8 119.57 106.03 99.51 111.89 98.7 112.06 97.91 112.11 97.12 112.04 96.36 111.86 95.64 111.56 94.97 111.15 94.36 110.64 93.81 110.02 83.82 96.99 83.27 96.38 82.66 95.86 81.98 95.46 81.26 95.16 80.51 94.97 79.72 94.91 78.92 94.95 78.12 95.13 34.78 107.79 34.01 108.08 33.32 108.46 32.7 108.94 32.16 109.5 31.71 110.13 31.36 110.83 31.12 111.59 30.98 112.4 29.46 128.86 29.33 129.67 29.08 130.43 28.73 131.13 28.29 131.76 27.75 132.32 27.13 132.79 26.43 133.18 25.66 133.47 6.8 138.98 6.14 139.13 5.48 139.2 4.83 139.19 4.2 139.09 3.58 138.92"/><polygon class="cls-1" points="34.46 78.89 36.89 85.4 36.7 84.85 36.58 84.28 36.52 83.68 36.55 83.07 38.74 59.02 38.86 58.27 39.09 57.57 39.41 56.92 39.82 56.34 40.32 55.82 40.89 55.38 41.54 55.03 42.25 54.77 42.99 54.61 43.72 54.57 44.44 54.63 45.14 54.81 45.8 55.08 46.42 55.46 46.98 55.93 47.48 56.49 62.11 75.63 62.45 76.14 62.73 76.67 62.93 77.21 63.06 77.78 63.13 78.35 62.98 71.23 62.91 70.6 62.77 69.99 62.55 69.39 62.25 68.82 61.88 68.27 45.97 47.47 45.43 46.85 44.81 46.34 44.14 45.93 43.42 45.63 42.67 45.45 41.89 45.38 41.09 45.42 40.28 45.59 39.51 45.88 38.81 46.26 38.19 46.74 37.65 47.3 37.2 47.94 36.85 48.64 36.6 49.4 36.47 50.21 34.09 76.35 34.06 77.02 34.12 77.67 34.25 78.29 34.46 78.89"/><path class="cls-2" d="M83.82,97l10,13a5.22,5.22,0,0,0,5.7,1.87L119.57,106a5.31,5.31,0,0,0,2.63-8.45L47.37,5.64a5.23,5.23,0,0,0-5.61-1.75L18.42,10.71a5.23,5.23,0,0,0-3.78,4.45L0,133.23a5.2,5.2,0,0,0,1.83,4.7,5.2,5.2,0,0,0,4.93,1l18.86-5.51a5.22,5.22,0,0,0,3.8-4.61L31,112.4a5.23,5.23,0,0,1,3.8-4.61L78.12,95.13A5.22,5.22,0,0,1,83.82,97ZM59.15,76.59,40.86,81.93a5.31,5.31,0,0,1-6.77-5.58l2.38-26.14A5.3,5.3,0,0,1,46,47.47l15.91,20.8a5.32,5.32,0,0,1-2.73,8.32Z"/><polygon class="cls-3" points="88.87 2.44 81.56 14.95 81.1 15.78 80.82 16.69 80.72 17.68 80.72 118.62 80.82 119.61 81.1 120.52 81.56 121.35 82.15 122.08 82.88 122.67 83.7 123.12 84.62 123.41 85.6 123.51 134.97 123.51 137.39 123.47 139.75 123.37 142.05 123.2 144.29 122.96 146.47 122.66 148.59 122.29 150.64 121.86 163.96 118.65 161.73 119.12 159.43 119.52 157.06 119.85 154.63 120.11 152.12 120.29 149.56 120.41 146.93 120.44 93.27 120.44 92.2 120.33 91.21 120.02 90.31 119.53 89.52 118.89 88.87 118.1 88.38 117.2 88.07 116.2 87.96 115.13 87.96 5.41 88.07 4.34 88.38 3.34 88.87 2.44"/><polygon class="cls-4" points="119.95 25.04 110.15 35.73 110.87 35.14 111.7 34.69 112.62 34.4 113.6 34.3 131.49 34.3 133 34.35 134.43 34.49 135.78 34.73 137.06 35.06 138.25 35.47 139.36 35.98 140.37 36.57 141.3 37.25 142.12 38.01 142.85 38.85 143.47 39.77 143.99 40.77 144.4 41.85 144.69 43.01 144.87 44.23 144.94 45.53 144.87 46.83 144.69 48.07 144.4 49.24 143.99 50.34 143.47 51.36 142.85 52.31 142.12 53.18 141.3 53.97 140.37 54.68 152.8 45.63 153.81 44.86 154.7 44 155.49 43.06 156.17 42.02 156.73 40.91 157.18 39.72 157.5 38.45 157.69 37.1 157.76 35.69 157.69 34.27 157.5 32.94 157.18 31.69 156.73 30.52 156.17 29.43 155.49 28.42 154.7 27.51 153.81 26.68 152.8 25.94 151.7 25.3 150.5 24.75 149.2 24.3 147.82 23.94 146.34 23.68 144.78 23.53 143.15 23.48 123.7 23.48 122.63 23.59 121.64 23.9 120.73 24.39 119.95 25.04"/><polygon class="cls-4" points="120.73 71.15 110.87 78.16 111.7 77.71 112.62 77.42 113.6 77.32 131.49 77.32 132.46 77.34 133.4 77.38 134.32 77.44 135.22 77.53 136.08 77.65 136.93 77.8 137.75 77.96 138.54 78.16 139.3 78.37 140.04 78.61 140.75 78.88 141.43 79.17 142.09 79.48 142.71 79.81 143.3 80.17 143.87 80.55 144.4 80.95 144.9 81.37 145.37 81.81 145.81 82.27 146.22 82.76 146.59 83.26 146.93 83.79 147.24 84.33 147.51 84.89 147.75 85.47 147.95 86.07 148.12 86.69 148.25 87.33 148.34 87.98 148.4 88.66 148.41 89.34 148.4 90.08 148.34 90.79 148.25 91.48 148.12 92.15 147.95 92.8 147.75 93.43 147.51 94.04 147.24 94.63 146.93 95.2 146.59 95.75 146.22 96.27 145.81 96.77 145.37 97.25 144.9 97.71 144.4 98.14 143.87 98.56 143.3 98.95 142.71 99.31 142.09 99.65 141.43 99.97 140.75 100.27 153.21 95.18 153.95 94.86 154.66 94.51 155.34 94.14 155.99 93.75 156.6 93.32 157.18 92.88 157.73 92.4 158.24 91.9 158.71 91.38 159.16 90.84 159.56 90.27 159.93 89.67 160.26 89.06 160.56 88.42 160.82 87.75 161.04 87.07 161.22 86.36 161.36 85.63 161.46 84.88 161.52 84.1 161.54 83.31 161.52 82.56 161.46 81.83 161.36 81.12 161.22 80.43 161.04 79.75 160.82 79.1 160.56 78.47 160.26 77.86 159.93 77.27 159.56 76.7 159.16 76.15 158.71 75.62 158.24 75.12 157.73 74.64 157.18 74.18 156.6 73.74 155.99 73.33 155.34 72.95 154.66 72.58 153.95 72.25 153.21 71.93 152.44 71.64 151.64 71.38 150.81 71.15 149.95 70.94 149.06 70.75 148.14 70.6 147.19 70.47 146.22 70.37 145.22 70.3 144.2 70.26 143.15 70.24 123.7 70.24 122.63 70.35 121.64 70.66 120.73 71.15"/><path class="cls-5" d="M88,5.41V115.13a5.31,5.31,0,0,0,5.31,5.31h53.66c28.37,0,46.25-12.89,46.25-33.35,0-11.63-5.32-21.17-14.27-26.5a5.31,5.31,0,0,1-.46-8.81,26.36,26.36,0,0,0,10.6-21.6C189.05,11.79,171.86.1,144.87.1H93.27A5.31,5.31,0,0,0,88,5.41ZM123.7,23.48h19.45c8.94,0,14.61,4.47,14.61,12.21s-5.67,12.55-14.61,12.55H123.7a5.33,5.33,0,0,1-5.31-5.31V28.79a5.32,5.32,0,0,1,5.31-5.31Zm0,46.76h19.45c11.34,0,18.39,5,18.39,13.07,0,8.59-7,13.58-18.39,13.58H123.7a5.33,5.33,0,0,1-5.31-5.31v-16A5.33,5.33,0,0,1,123.7,70.24Z"/><polygon class="cls-6" points="180.33 99.25 183.76 103.94 185.47 106.09 187.28 108.16 189.19 110.14 191.21 112.01 193.31 113.79 195.52 115.47 197.81 117.04 200.18 118.51 202.65 119.86 205.19 121.1 207.81 122.22 210.5 123.22 213.27 124.1 216.1 124.85 219 125.47 221.96 125.96 224.98 126.31 228.06 126.53 231.19 126.6 232.47 126.58 233.76 126.53 235.04 126.45 236.34 126.34 237.63 126.2 238.92 126.02 240.22 125.82 241.51 125.58 242.81 125.32 244.1 125.03 245.39 124.71 246.68 124.36 247.96 123.98 249.24 123.58 250.52 123.15 251.78 122.69 253.05 122.21 254.3 121.7 255.55 121.16 256.79 120.6 258.02 120.02 259.23 119.41 260.44 118.78 261.64 118.13 262.82 117.45 263.99 116.75 265.15 116.03 266.29 115.28 267.42 114.52 268.52 113.73 269.62 112.93 270.69 112.1 271.04 111.82 271.36 111.53 275.54 107.51 275.19 107.83 274.82 108.13 273.65 109.03 272.47 109.9 271.26 110.76 270.03 111.59 268.79 112.39 267.54 113.18 266.26 113.94 264.98 114.68 263.68 115.39 262.37 116.07 261.04 116.73 259.71 117.37 258.36 117.98 257 118.56 255.64 119.11 254.27 119.64 252.89 120.14 251.5 120.6 250.11 121.04 248.72 121.45 247.32 121.83 245.92 122.18 244.51 122.5 243.1 122.78 241.7 123.04 240.29 123.26 238.88 123.45 237.48 123.61 236.07 123.73 234.68 123.81 233.28 123.87 231.89 123.89 228.48 123.81 225.14 123.57 221.85 123.19 218.63 122.66 215.48 121.98 212.4 121.17 209.4 120.22 206.47 119.13 203.62 117.91 200.86 116.56 198.18 115.09 195.6 113.5 193.11 111.79 190.71 109.97 188.42 108.03 186.23 105.99 184.15 103.85 182.18 101.6 180.33 99.25"/><polygon class="cls-7" points="201.09 71.91 202.86 78.78 202.45 77.2 202.11 75.59 201.85 73.94 201.66 72.26 201.54 70.55 201.5 68.81 201.54 67.1 201.66 65.42 201.85 63.77 202.11 62.15 202.45 60.56 202.86 59.01 203.33 57.48 203.88 56.01 204.48 54.56 205.16 53.16 205.89 51.8 206.68 50.49 207.53 49.23 208.44 48.01 209.41 46.84 210.42 45.73 211.49 44.66 212.61 43.66 213.78 42.71 215 41.82 216.26 40.99 217.56 40.23 218.91 39.52 220.29 38.89 221.72 38.32 223.18 37.83 224.68 37.4 226.21 37.05 227.77 36.77 229.36 36.57 230.98 36.45 232.63 36.41 233.34 36.42 234.06 36.45 234.77 36.49 235.49 36.56 236.21 36.64 236.93 36.74 237.66 36.87 238.38 37 239.1 37.16 239.83 37.33 240.55 37.52 241.27 37.73 242 37.96 242.72 38.2 243.44 38.46 244.15 38.73 244.87 39.02 245.58 39.33 246.28 39.65 246.99 39.99 247.69 40.34 248.38 40.71 249.07 41.1 249.76 41.5 250.44 41.91 251.11 42.34 251.78 42.78 252.44 43.24 253.1 43.71 253.74 44.2 254.38 44.69 255.01 45.21 255.68 45.7 256.37 46.12 257.1 46.46 257.84 46.72 258.6 46.91 259.37 47.03 260.15 47.07 260.93 47.04 261.7 46.93 262.45 46.75 263.19 46.5 263.91 46.18 264.6 45.79 265.25 45.32 265.86 44.79 266.42 44.19 272.04 37.53 272.31 37.2 272.56 36.85 272.79 36.5 273 36.15 273.19 35.78 273.36 35.41 277.72 24.77 277.53 25.18 277.33 25.57 277.1 25.96 276.85 26.34 276.58 26.71 276.29 27.07 270.18 34.31 269.57 34.96 268.9 35.54 268.19 36.05 267.45 36.48 266.67 36.83 265.87 37.1 265.04 37.29 264.21 37.41 263.36 37.44 262.52 37.4 261.68 37.27 260.85 37.06 260.04 36.78 259.25 36.41 258.5 35.95 257.78 35.42 257.09 34.86 256.4 34.32 255.69 33.79 254.98 33.28 254.26 32.78 253.54 32.3 252.81 31.84 252.07 31.39 251.32 30.95 250.57 30.53 249.81 30.13 249.06 29.75 248.29 29.38 247.52 29.03 246.75 28.7 245.97 28.38 245.19 28.08 244.41 27.8 243.63 27.54 242.85 27.29 242.06 27.07 241.27 26.86 240.49 26.67 239.7 26.5 238.91 26.35 238.13 26.22 237.34 26.11 236.56 26.02 235.78 25.95 235 25.89 234.22 25.86 233.45 25.85 231.66 25.9 229.9 26.03 228.16 26.25 226.47 26.55 224.8 26.93 223.18 27.39 221.59 27.93 220.04 28.55 218.53 29.24 217.07 30 215.65 30.84 214.28 31.74 212.96 32.7 211.69 33.73 210.47 34.83 209.31 35.98 208.21 37.19 207.16 38.46 206.17 39.79 205.24 41.16 204.38 42.59 203.58 44.06 202.86 45.59 202.19 47.15 201.61 48.76 201.09 50.41 200.65 52.1 200.28 53.83 199.99 55.6 199.78 57.39 199.66 59.22 199.62 61.08 199.66 62.96 199.78 64.82 199.99 66.65 200.28 68.44 200.65 70.19 201.09 71.91"/><path class="cls-8" d="M232.93,0C196,0,168,26.37,168,61.42c0,35.57,27.24,62.46,63.85,62.46,14.8,0,30.56-6.07,42.93-15.75a8.86,8.86,0,0,0,1-13l-6-6.33a8.82,8.82,0,0,0-11.72-1c-7.61,5.67-16.6,9.09-24.64,9.09-19.26,0-33.83-15.44-33.83-35.74,0-20,14.57-35.23,33.83-35.23,8.22,0,17.06,3.55,24.33,9.57a8.87,8.87,0,0,0,12.4-1.11l6.11-7.24a8.55,8.55,0,0,0,2-6.68,8.55,8.55,0,0,0-3.45-6.07A71.14,71.14,0,0,0,232.93,0Z"/></g></g></svg>