<svg xmlns="http://www.w3.org/2000/svg" width="416.02" height="441.51" viewBox="0 0 416.02 441.51"><defs><style>.cls-1{fill:#eec645;}.cls-2{fill:#eae154;}.cls-3{fill:#745032;}</style></defs><g id="Layer_2" data-name="Layer 2"><g id="Capa_3" data-name="Capa 3"><path class="cls-1" d="M416,129.33l-.15-3.15c-.22-4.16-.4-8.2-.73-12.15q-.22-3-.45-5.83c-.05-1-.19-1.91-.33-2.86s-.26-1.9-.4-2.83c-.52-3.75-1-7.37-1.65-10.88-.3-1.74-.58-3.46-.87-5.16s-.73-3.36-1.09-5-.77-3.24-1.14-4.82-.8-3.11-1.19-4.63c-.77-3-1.58-5.91-2.37-8.67-1.79-5.67-3.64-10.78-5.36-15.3-.85-2.26-1.74-4.37-2.53-6.35-.22-.47-.44-.94-.66-1.39V3.73A3.73,3.73,0,0,0,393.35,0H381.13a3.73,3.73,0,0,0-3.73,3.73V35.92l0,.08c0,.12,0,.24,0,.36v5.43h.81c.1.71.21,1.41.31,2.13.16,1.07.32,2.14.38,3.21q.25,3.24.52,6.54c.38,4.43.6,9,.85,13.64l.18,3.53c0,1.18,0,2.35,0,3.54,0,2.36,0,4.77-.09,7.19-.1,4.85-.23,9.82-.49,14.87q-.66,7.5-1.53,15.31c-.31,2.59-.59,5.23-.94,7.87s-.86,5.25-1.32,7.9q-1.44,8-3.13,16.14c-1.21,5.42-2.75,10.81-4.24,16.33l-2.35,8.29c-.37,1.4-.89,2.75-1.35,4.12s-.95,2.74-1.42,4.12c-1.93,5.5-3.93,11.07-6,16.65a368.79,368.79,0,0,1-34.67,65.25,392.57,392.57,0,0,1-49.54,59.09c-4.78,4.41-9.55,8.83-14.42,13.13-2.43,2.17-4.82,4.36-7.41,6.34l-11.19,8.94-4,3.06c-.67.51-1.32,1-2,1.53l-2,1.4-4,2.78c-2.64,1.85-5.32,3.67-8,5.47s-5.29,3.66-8,5.33c-5.5,3.35-11,6.6-16.52,9.8l-4.14,2.36-4.23,2.2-8.47,4.27c-5.65,2.81-11.23,5.61-17,7.93s-11.44,4.77-17.11,7c-5.78,2-11.54,4-17.23,5.86-2.86.9-5.66,1.88-8.53,2.68l-8.58,2.28c-5.71,1.43-11.29,2.93-16.9,4.09s-11.22,2.11-16.71,3c-2.74.46-5.45,1-8.18,1.29s-5.46.62-8.14.9q-8.09.85-15.85,1.48c-2.61.15-5.22.21-7.78.29s-5.11.14-7.62.18-5,.07-7.45.08c-1.22,0-2.44,0-3.65,0l-3.66-.18L12.15,421c1.43.69,2.93,1.42,4.54,2.15,2,.79,4.08,1.69,6.32,2.54s4.62,1.79,7.12,2.67,5.16,1.85,7.93,2.73l4.24,1.21,4.44,1.18,4.63,1.2,4.82,1.15c1.64.36,3.32.84,5,1.09l5.17.88c3.51.62,7.13,1.13,10.88,1.67,1.87.25,3.79.59,5.7.72l5.83.46c4,.34,8,.51,12.16.74l3.14.16c1.05,0,2.1,0,3.15,0,2.11,0,4.25,0,6.41-.08s4.35-.08,6.56-.16,4.46-.12,6.7-.26q6.69-.56,13.64-1.31c2.32-.26,4.66-.51,7-.81s4.68-.74,7-1.14q7.08-1.25,14.38-2.7c4.84-1,9.64-2.38,14.56-3.65l7.39-2c2.46-.72,4.87-1.59,7.34-2.39,4.9-1.67,9.86-3.4,14.84-5.22,4.87-2,9.79-4.09,14.72-6.26s9.8-4.56,14.66-7.06l7.29-3.81,3.64-2,3.57-2.11c4.73-2.85,9.49-5.74,14.22-8.72,2.37-1.49,4.62-3.15,6.93-4.75s4.6-3.23,6.88-4.88l3.43-2.48,1.72-1.24c.59-.43,1.14-.91,1.72-1.36l3.46-2.73,9.64-8c2.23-1.77,4.29-3.72,6.38-5.65,4.19-3.84,8.3-7.77,12.42-11.7a347.81,347.81,0,0,0,42.65-52.64,332.24,332.24,0,0,0,29.85-58.13c1.82-5,3.54-9.93,5.21-14.84.41-1.22.81-2.45,1.22-3.67s.85-2.42,1.16-3.67c.68-2.47,1.36-4.94,2-7.39,1.28-4.91,2.6-9.71,3.65-14.54s1.86-9.66,2.69-14.38c.4-2.37.84-4.69,1.14-7s.54-4.7.81-7q.75-6.95,1.31-13.64c.23-4.5.34-8.93.42-13.25.06-2.16.06-4.3.08-6.41C416,131.42,416,130.37,416,129.33Z"/><path class="cls-2" d="M380.45,70.84l-.18-3.53c-.25-4.67-.47-9.21-.85-13.64q-.27-3.3-.52-6.54c-.06-1.07-.22-2.14-.38-3.21s-.31-2.13-.46-3.18c-.24-1.61-.47-3.18-.71-4.74-.89,1.58-1.85,3.28-2.86,5.09s-2.23,3.58-3.43,5.53c-2.37,3.85-4.89,8-7.49,12.44-1.43,2.26-2.91,4.59-4.36,7L357,69.7l-2.22,3.74c-3,5-6.57,10.26-9.85,15.7-.85,1.36-1.67,2.73-2.56,4.1l-2.75,4.13c-1.87,2.76-3.64,5.59-5.47,8.44L332.73,108l-1.48,2.13q-1.47,2.13-3,4.3c-2,2.88-3.9,5.8-5.86,8.75q-3.17,4.34-6.26,8.78c-1,1.48-2.07,3-3.07,4.46s-2.2,2.94-3.27,4.43q-3.3,4.42-6.5,8.94c-.51.77-1.08,1.51-1.67,2.24s-1.15,1.47-1.73,2.21l-3.41,4.47-3.35,4.52c-1.12,1.5-2.36,2.95-3.53,4.44-2.37,3-4.71,5.95-7,9q-1.87,2.19-3.69,4.41c-1.22,1.48-2.44,3-3.63,4.45l-1.79,2.25c-.59.75-1.2,1.5-1.84,2.22l-3.79,4.38-3.71,4.43L262.36,201l-1.95,2.15c-2.59,2.89-5.16,5.8-7.65,8.77-10.48,11.5-21.16,22.89-32.15,34-2.83,2.7-5.66,5.39-8.41,8.16l-2.07,2.08c-.68.7-1.44,1.32-2.14,2l-4.29,4-4.22,4.05c-.7.69-1.42,1.34-2.15,2l-2.19,1.94c-2.91,2.56-5.74,5.26-8.62,7.86-11.66,10.26-23.49,20.14-35.31,29.82q-4.54,3.44-9,7c-1.49,1.17-2.93,2.43-4.45,3.53l-4.51,3.35-4.46,3.41c-1.5,1.11-2.92,2.37-4.45,3.39q-4.52,3.21-8.94,6.49c-1.49,1.07-2.93,2.26-4.42,3.28s-3,2-4.46,3.07q-4.44,3.09-8.78,6.26c-2.94,2-5.86,3.88-8.74,5.86-1.44,1-2.87,2-4.29,3-.72.49-1.43,1-2.13,1.48l-2.14,1.38c-2.85,1.85-5.68,3.6-8.44,5.48l-4.12,2.76c-1.37.9-2.74,1.7-4.09,2.56-2.72,1.7-5.39,3.33-8,5s-5.17,3.36-7.7,4.84l-3.74,2.23-3.65,2.25-3.55,2.19-3.44,2.19c-4.54,2.62-8.79,5.16-12.68,7.53-1.95,1.17-3.8,2.36-5.57,3.44l-3.12,1.83a8.17,8.17,0,0,1,4,7V413a8.19,8.19,0,0,1-5,7.53l.86.42,2.35.12,3.66.18c1.21,0,2.43,0,3.65,0,2.46,0,4.94,0,7.45-.08s5.05-.09,7.62-.18,5.17-.14,7.78-.29q7.77-.63,15.85-1.48c2.68-.28,5.41-.57,8.14-.9s5.44-.83,8.18-1.29q8.24-1.38,16.71-3c5.61-1.16,11.19-2.66,16.9-4.09l8.58-2.28c2.87-.8,5.67-1.78,8.53-2.68,5.69-1.88,11.45-3.82,17.23-5.86q8.5-3.39,17.11-7c5.79-2.32,11.37-5.12,17-7.93l8.47-4.27,4.23-2.2,4.14-2.36c5.49-3.2,11-6.45,16.52-9.8,2.75-1.67,5.36-3.54,8-5.33s5.35-3.62,8-5.47l4-2.78,2-1.4c.69-.49,1.34-1,2-1.53l4-3.06L251.5,337c2.59-2,5-4.17,7.41-6.34,4.87-4.3,9.64-8.72,14.42-13.13a392.57,392.57,0,0,0,49.54-59.09,368.79,368.79,0,0,0,34.67-65.25c2.12-5.58,4.12-11.15,6-16.65.47-1.38,1-2.75,1.42-4.12s1-2.72,1.35-4.12l2.35-8.29c1.49-5.52,3-10.91,4.24-16.33s2.17-10.84,3.13-16.14c.46-2.65,1-5.27,1.32-7.9s.63-5.28.94-7.87q.87-7.8,1.53-15.31c.26-5,.39-10,.49-14.87.06-2.42.07-4.83.09-7.19C380.45,73.19,380.48,72,380.45,70.84Z"/><path class="cls-3" d="M16.33,413v-4.46a8.17,8.17,0,0,0-4-7l-1.87,1.08-4.35,2.62-3.66,2.27-.23.14a4.78,4.78,0,0,0,.23,8.26l.14.08,3.86,2.09c1.43.75,3,1.52,4.69,2.38l.11,0A8.19,8.19,0,0,0,16.33,413Z"/></g></g></svg>