<svg xmlns="http://www.w3.org/2000/svg" xmlns:xlink="http://www.w3.org/1999/xlink" width="110.34" height="126.6" viewBox="0 0 110.34 126.6"><defs><style>.cls-1{fill:#228749;}.cls-1,.cls-2,.cls-3{fill-rule:evenodd;}.cls-2{fill:#86c446;}.cls-3{fill:url(#GradientFill_4);}</style><linearGradient id="GradientFill_4" x1="-137.96" y1="61.94" x2="247.55" y2="61.94" gradientUnits="userSpaceOnUse"><stop offset="0" stop-color="#86c446"/><stop offset="1" stop-color="#228749"/></linearGradient></defs><g id="Layer_2" data-name="Layer 2"><g id="Free_Fridge_Magnets_Vectors" data-name="Free Fridge Magnets Vectors"><polygon class="cls-1" points="12.29 99.25 15.72 103.94 17.43 106.09 19.24 108.16 21.16 110.14 23.17 112.01 25.28 113.79 27.48 115.47 29.77 117.04 32.15 118.51 34.61 119.86 37.15 121.1 39.77 122.22 42.46 123.22 45.23 124.1 48.06 124.85 50.96 125.47 53.92 125.96 56.95 126.31 60.02 126.53 63.16 126.6 64.44 126.58 65.72 126.53 67.01 126.45 68.3 126.34 69.59 126.2 70.89 126.02 72.18 125.82 73.48 125.58 74.77 125.32 76.06 125.03 77.35 124.71 78.64 124.36 79.92 123.98 81.2 123.58 82.48 123.15 83.75 122.69 85.01 122.21 86.27 121.7 87.51 121.16 88.75 120.6 89.98 120.02 91.2 119.41 92.4 118.78 93.6 118.13 94.78 117.45 95.95 116.75 97.11 116.03 98.25 115.28 99.38 114.52 100.49 113.73 101.58 112.93 102.66 112.1 103 111.82 103.32 111.53 107.51 107.51 107.16 107.83 106.79 108.13 105.62 109.03 104.43 109.9 103.22 110.76 102 111.59 100.76 112.39 99.5 113.18 98.23 113.94 96.94 114.68 95.64 115.39 94.33 116.07 93 116.73 91.67 117.37 90.32 117.98 88.97 118.56 87.6 119.11 86.23 119.64 84.85 120.14 83.47 120.6 82.08 121.04 80.68 121.45 79.28 121.83 77.88 122.18 76.47 122.5 75.07 122.78 73.66 123.04 72.25 123.26 70.84 123.45 69.44 123.61 68.04 123.73 66.64 123.81 65.24 123.87 63.85 123.89 60.45 123.81 57.1 123.57 53.82 123.19 50.6 122.66 47.44 121.98 44.36 121.17 41.36 120.22 38.43 119.13 35.58 117.91 32.82 116.56 30.14 115.09 27.56 113.5 25.07 111.79 22.68 109.97 20.39 108.03 18.2 105.99 16.12 103.85 14.14 101.6 12.29 99.25"/><polygon class="cls-2" points="33.05 71.91 34.82 78.78 34.41 77.2 34.08 75.59 33.81 73.94 33.62 72.26 33.51 70.55 33.47 68.81 33.51 67.1 33.62 65.42 33.81 63.77 34.08 62.15 34.41 60.56 34.82 59.01 35.3 57.48 35.84 56.01 36.45 54.56 37.12 53.16 37.85 51.8 38.64 50.49 39.5 49.23 40.4 48.01 41.37 46.84 42.39 45.73 43.45 44.66 44.58 43.66 45.74 42.71 46.96 41.82 48.22 40.99 49.52 40.23 50.87 39.52 52.26 38.89 53.68 38.32 55.14 37.83 56.64 37.4 58.17 37.05 59.73 36.77 61.32 36.57 62.95 36.45 64.59 36.41 65.31 36.42 66.02 36.45 66.73 36.49 67.45 36.56 68.17 36.64 68.9 36.74 69.62 36.87 70.34 37 71.07 37.16 71.79 37.33 72.52 37.52 73.24 37.73 73.96 37.96 74.68 38.2 75.4 38.46 76.11 38.73 76.83 39.02 77.54 39.33 78.25 39.65 78.95 39.99 79.65 40.34 80.35 40.71 81.04 41.1 81.72 41.5 82.4 41.91 83.08 42.34 83.74 42.78 84.4 43.24 85.06 43.71 85.71 44.2 86.34 44.69 86.98 45.21 87.64 45.7 88.33 46.12 89.06 46.46 89.8 46.72 90.56 46.91 91.34 47.03 92.11 47.07 92.89 47.04 93.66 46.93 94.42 46.75 95.16 46.5 95.87 46.18 96.56 45.79 97.21 45.32 97.82 44.79 98.39 44.19 104 37.53 104.27 37.2 104.52 36.85 104.75 36.5 104.96 36.15 105.15 35.78 105.32 35.41 109.68 24.77 109.5 25.18 109.29 25.57 109.06 25.96 108.81 26.34 108.54 26.71 108.25 27.07 102.14 34.31 101.53 34.96 100.87 35.54 100.16 36.05 99.41 36.48 98.63 36.83 97.83 37.1 97.01 37.29 96.17 37.41 95.33 37.44 94.48 37.4 93.64 37.27 92.81 37.06 92 36.78 91.22 36.41 90.46 35.95 89.74 35.42 89.06 34.86 88.36 34.32 87.66 33.79 86.95 33.28 86.23 32.78 85.5 32.3 84.77 31.84 84.03 31.39 83.28 30.95 82.53 30.53 81.78 30.13 81.02 29.75 80.25 29.38 79.48 29.03 78.71 28.7 77.94 28.38 77.16 28.08 76.38 27.8 75.59 27.54 74.81 27.29 74.02 27.07 73.24 26.86 72.45 26.67 71.66 26.5 70.88 26.35 70.09 26.22 69.31 26.11 68.52 26.02 67.74 25.95 66.96 25.89 66.19 25.86 65.41 25.85 63.62 25.9 61.86 26.03 60.13 26.25 58.43 26.55 56.77 26.93 55.14 27.39 53.55 27.93 52 28.55 50.49 29.24 49.03 30 47.61 30.84 46.24 31.74 44.92 32.7 43.65 33.73 42.44 34.83 41.27 35.98 40.17 37.19 39.12 38.46 38.13 39.79 37.21 41.16 36.34 42.59 35.55 44.06 34.82 45.59 34.16 47.15 33.57 48.76 33.05 50.41 32.61 52.1 32.24 53.83 31.95 55.6 31.75 57.39 31.62 59.22 31.58 61.08 31.62 62.96 31.75 64.82 31.95 66.65 32.24 68.44 32.61 70.19 33.05 71.91"/><path class="cls-3" d="M64.89,0C27.94,0,0,26.37,0,61.42,0,97,27.24,123.88,63.85,123.88c14.81,0,30.57-6.07,42.94-15.75a8.85,8.85,0,0,0,1-13l-6-6.33a8.81,8.81,0,0,0-11.71-1c-7.61,5.67-16.61,9.09-24.65,9.09-19.26,0-33.83-15.44-33.83-35.74,0-20,14.57-35.23,33.83-35.23,8.23,0,17.06,3.55,24.33,9.57a8.87,8.87,0,0,0,12.4-1.11l6.11-7.24a8.55,8.55,0,0,0,2-6.68,8.55,8.55,0,0,0-3.45-6.07A71.14,71.14,0,0,0,64.89,0Z"/></g></g></svg>