<svg xmlns="http://www.w3.org/2000/svg" width="365.96" height="511.53" viewBox="0 0 365.96 511.53"><defs><style>.cls-1{fill:#d72630;}.cls-2{fill:#fff;}.cls-3{fill:#8ab03e;}</style></defs><g id="Layer_2" data-name="Layer 2"><g id="Capa_3" data-name="Capa 3"><path class="cls-1" d="M366,260.76c0-86.67-81.93-156.92-183-156.92S0,174.09,0,260.76,81.92,511.53,183,511.53,366,347.42,366,260.76Z"/><circle class="cls-2" cx="122.37" cy="301.58" r="12.09"/><circle class="cls-2" cx="182.98" cy="253.23" r="12.09"/><circle class="cls-2" cx="195.06" cy="354.77" r="12.09"/><circle class="cls-2" cx="256.15" cy="265.32" r="12.09"/><circle class="cls-2" cx="134.46" cy="406.44" r="12.09"/><circle class="cls-2" cx="190.31" cy="467.82" r="12.09"/><circle class="cls-2" cx="250.31" cy="406.44" r="12.09"/><circle class="cls-2" cx="331.53" cy="241.15" r="12.09"/><circle class="cls-2" cx="296.55" cy="331.86" r="12.09"/><circle class="cls-2" cx="71.96" cy="366.86" r="12.09"/><circle class="cls-2" cx="34.43" cy="265.32" r="12.09"/><circle class="cls-2" cx="96.13" cy="224.17" r="12.09"/><path class="cls-3" d="M324.67,137.16S310.06,95.84,276,80.45c-26.07-11.77-56-5-68.61-1.1a38.34,38.34,0,0,0-12.31-9.66V12.09A12.12,12.12,0,0,0,183,0h0a12.12,12.12,0,0,0-12.09,12.09V66.48a38.07,38.07,0,0,0-23.25,14.68c-11.76-1.49-44.49-3.63-69.16,13.71-30.59,21.5-37.19,64.83-37.19,64.83s22.43,4.42,46.42-1.23a123.83,123.83,0,0,0-2.19,42.67s43.57-4.81,66.31-34.5l.25-.33c2.58,35.08,31.45,62.75,31.45,62.75s30.78-29.5,31.62-66.2a83,83,0,0,0,9.59,11.26c31.58,30.86,83.31,29.14,83.31,29.14s.31-30.81-14.06-59.07A123.51,123.51,0,0,0,324.67,137.16Z"/></g></g></svg>