<svg xmlns="http://www.w3.org/2000/svg" xmlns:xlink="http://www.w3.org/1999/xlink" width="124.4" height="132.92" viewBox="0 0 124.4 132.92"><defs><style>.cls-1{fill:#9eceee;}.cls-1,.cls-2,.cls-3{fill-rule:evenodd;}.cls-2{fill:#2790cf;}.cls-3{fill:url(#GradientFill_5);}</style><linearGradient id="GradientFill_5" x1="9.87" y1="66.61" x2="116.42" y2="57.29" gradientUnits="userSpaceOnUse"><stop offset="0" stop-color="#2790cf"/><stop offset="1" stop-color="#9eceee"/></linearGradient></defs><g id="Layer_2" data-name="Layer 2"><g id="Free_Fridge_Magnets_Vectors" data-name="Free Fridge Magnets Vectors"><polygon class="cls-1" points="0.18 13.66 0 27.56 0.04 28.39 9.79 125.59 9.92 126.41 10.12 127.2 10.4 127.96 10.75 128.68 11.16 129.35 11.63 129.98 12.16 130.55 12.74 131.08 13.37 131.54 14.04 131.95 14.75 132.29 15.49 132.56 16.26 132.76 17.06 132.88 17.87 132.92 18.7 132.88 58.23 128.91 61.61 128.51 64.9 127.97 68.11 127.32 71.23 126.54 74.26 125.64 77.2 124.63 80.04 123.5 82.79 122.27 85.44 120.92 87.99 119.47 90.43 117.91 92.77 116.26 101.02 110.07 98.48 111.87 95.82 113.56 93.05 115.14 90.17 116.6 87.19 117.94 84.1 119.17 80.9 120.27 77.61 121.25 74.22 122.09 70.73 122.8 67.15 123.38 63.48 123.83 20.51 128.14 19.61 128.18 18.73 128.13 17.86 128 17.02 127.79 16.22 127.49 15.45 127.12 14.72 126.68 14.03 126.18 13.4 125.61 12.83 124.98 12.31 124.3 11.86 123.57 11.48 122.79 11.18 121.97 10.96 121.11 10.83 120.22 0.23 14.56 0.18 13.66"/><polygon class="cls-2" points="34.22 33.77 31.31 46.06 31.51 45.29 31.78 44.55 32.12 43.84 32.52 43.17 32.99 42.54 33.51 41.96 34.09 41.43 34.72 40.95 35.39 40.54 36.11 40.19 36.86 39.91 37.65 39.71 38.47 39.59 49.65 38.47 51.36 38.34 53.04 38.29 54.7 38.32 56.33 38.43 57.93 38.63 59.51 38.89 61.05 39.24 62.56 39.66 64.03 40.16 65.47 40.72 66.87 41.36 68.24 42.07 69.56 42.85 70.83 43.7 72.07 44.61 73.26 45.59 74.39 46.63 75.49 47.74 76.52 48.9 77.51 50.13 78.44 51.42 79.32 52.77 80.14 54.17 80.9 55.63 81.6 57.14 82.23 58.71 82.8 60.32 83.31 61.99 83.75 63.71 84.12 65.48 84.42 67.3 84.64 69.16 84.79 71.01 84.86 72.83 84.86 74.62 84.78 76.38 84.63 78.09 84.41 79.78 84.12 81.42 83.76 83.03 83.33 84.59 82.84 86.11 82.28 87.59 81.65 89.02 80.97 90.4 80.22 91.73 79.41 93.02 78.55 94.25 77.62 95.43 84.56 87.43 85.56 86.15 86.5 84.81 87.38 83.42 88.19 81.97 88.94 80.46 89.61 78.91 90.22 77.3 90.76 75.65 91.23 73.95 91.62 72.21 91.93 70.42 92.17 68.59 92.34 66.72 92.42 64.81 92.42 62.87 92.34 60.89 92.18 58.87 91.94 56.85 91.61 54.88 91.21 52.96 90.74 51.09 90.19 49.27 89.56 47.51 88.87 45.81 88.11 44.17 87.29 42.58 86.4 41.06 85.45 39.59 84.43 38.19 83.36 36.86 82.23 35.59 81.05 34.39 79.81 33.26 78.52 32.19 77.18 31.2 75.79 30.28 74.35 29.43 72.87 28.66 71.35 27.97 69.78 27.35 68.18 26.81 66.54 26.36 64.86 25.98 63.15 25.69 61.41 25.48 59.64 25.36 57.84 25.32 56.01 25.37 54.15 25.51 42 26.73 41.11 26.87 40.25 27.09 39.43 27.39 38.65 27.77 37.92 28.22 37.24 28.73 36.61 29.31 36.04 29.94 35.53 30.62 35.09 31.35 34.73 32.12 34.43 32.93 34.22 33.77"/><path class="cls-3" d="M.23,14.56l10.6,105.66a8.86,8.86,0,0,0,9.68,7.92l43-4.31C103.1,119.85,127.7,92,124,55.5,120.36,18.87,91.09-3.45,52.35.44L8.15,4.87A8.87,8.87,0,0,0,.23,14.56ZM42,26.73l12.15-1.22c19.9-2,35.84,11.53,38,33.36C94.36,80.53,82.1,96.7,62.91,98.63L49.35,100a8.87,8.87,0,0,1-9.69-7.92L34.08,36.42A8.87,8.87,0,0,1,42,26.73Z"/></g></g></svg>