<svg xmlns="http://www.w3.org/2000/svg" xmlns:xlink="http://www.w3.org/1999/xlink" width="127.99" height="138.08" viewBox="0 0 127.99 138.08"><defs><style>.cls-1{fill:#f05651;}.cls-1,.cls-2,.cls-3,.cls-4{fill-rule:evenodd;}.cls-2{fill:#e31c44;}.cls-3{fill:#f6911e;}.cls-4{fill:url(#GradientFill_6);}</style><linearGradient id="GradientFill_6" x1="-9.95" y1="69.04" x2="146.63" y2="69.04" gradientUnits="userSpaceOnUse"><stop offset="0" stop-color="#e31c44"/><stop offset="1" stop-color="#f05651"/></linearGradient></defs><g id="Layer_2" data-name="Layer 2"><g id="Free_Fridge_Magnets_Vectors" data-name="Free Fridge Magnets Vectors"><polygon class="cls-1" points="11.81 18.65 2.86 26.6 2.29 27.14 1.77 27.73 1.32 28.37 0.92 29.05 0.59 29.76 0.34 30.5 0.15 31.26 0.03 32.05 0 32.86 0.05 33.67 0.18 34.49 20.55 130.04 20.77 130.84 21.05 131.6 21.41 132.32 21.84 133 22.32 133.62 22.86 134.19 23.45 134.71 24.09 135.16 24.76 135.56 25.47 135.89 26.21 136.15 26.98 136.33 38.03 137.92 37.19 137.72 36.39 137.44 35.61 137.08 34.88 136.65 34.19 136.16 33.55 135.6 32.96 134.98 32.44 134.3 31.98 133.56 31.58 132.78 31.27 131.95 31.04 131.08 8.89 27.23 8.75 26.34 8.7 25.45 8.74 24.57 8.86 23.72 9.06 22.88 9.35 22.08 9.7 21.3 10.13 20.57 10.63 19.88 11.19 19.24 11.81 18.65"/><polygon class="cls-2" points="116.71 96.58 99.37 98.29 98.55 98.42 53.8 107.97 52.98 108.1 66.29 107.23 67.18 107.09 115.82 96.72 116.71 96.58"/><polygon class="cls-3" points="61.98 82.68 49.01 85.51 86.28 77.57 102.48 74.05 61.98 82.68"/><polygon class="cls-1" points="49.19 35.33 37.26 41.95 37.98 41.59 38.74 41.3 39.54 41.08 82.54 31.92 83.34 31.7 84.1 31.41 100.12 23.88 99.29 24.19 98.41 24.43 51.68 34.39 50.81 34.62 49.98 34.94 49.19 35.33"/><path class="cls-4" d="M105.22,13.93,103.75,7A8.87,8.87,0,0,0,93.25.2L15.7,16.73a8.87,8.87,0,0,0-6.81,10.5L31,131.08a8.86,8.86,0,0,0,10.5,6.81L121,121a8.86,8.86,0,0,0,6.81-10.5l-1.47-6.92a8.87,8.87,0,0,0-10.5-6.81L67.18,107.09a8.87,8.87,0,0,1-10.5-6.81l-1.51-7.1A8.86,8.86,0,0,1,62,82.68l40.5-8.63a8.87,8.87,0,0,0,6.81-10.5l-1.48-6.93a8.86,8.86,0,0,0-10.5-6.8l-40.5,8.63a8.86,8.86,0,0,1-10.5-6.81l-1.44-6.75a8.86,8.86,0,0,1,6.81-10.5l46.73-10A8.87,8.87,0,0,0,105.22,13.93Z"/></g></g></svg>