<svg xmlns="http://www.w3.org/2000/svg" width="381.21" height="431.41" viewBox="0 0 381.21 431.41"><defs><style>.cls-1{fill:#d1d644;}.cls-2{fill:#8ab03e;}.cls-3{fill:#85542b;}</style></defs><g id="Layer_2" data-name="Layer 2"><g id="Capa_3" data-name="Capa 3"><path class="cls-1" d="M254.14,68.74c-23.15,0-44.85,7.86-63.54,21.57-18.69-13.71-40.39-21.57-63.53-21.57C56.89,68.74,0,140.9,0,229.91s73.21,201.5,190.6,201.5c120.13,0,190.61-112.49,190.61-201.5S324.32,68.74,254.14,68.74Z"/><path class="cls-2" d="M277.37,85.72c35.44-20.94,41.56-76.17,41.56-76.17s-51.33-21.27-86.77-.33S190.6,85.39,190.6,85.39,241.93,106.67,277.37,85.72Z"/><rect class="cls-3" x="182.98" y="47.47" width="15.25" height="73.58" rx="7.62"/></g></g></svg>