<svg xmlns="http://www.w3.org/2000/svg" xmlns:xlink="http://www.w3.org/1999/xlink" width="101.46" height="133.04" viewBox="0 0 101.46 133.04"><defs><style>.cls-1{fill:#f8df45;}.cls-1,.cls-2{fill-rule:evenodd;}.cls-2{fill:url(#GradientFill_7);}</style><linearGradient id="GradientFill_7" x1="3.08" y1="66.52" x2="105.13" y2="66.52" gradientUnits="userSpaceOnUse"><stop offset="0" stop-color="#f1ee86"/><stop offset="1" stop-color="#f8df45"/></linearGradient></defs><g id="Layer_2" data-name="Layer 2"><g id="Free_Fridge_Magnets_Vectors" data-name="Free Fridge Magnets Vectors"><polygon class="cls-1" points="9.7 12.42 2.71 18.75 2.15 19.3 1.65 19.9 1.21 20.54 0.83 21.23 0.52 21.95 0.27 22.7 0.1 23.48 0.01 24.28 0 25.09 0.07 25.92 13.46 122.69 13.61 123.51 13.85 124.29 14.15 125.04 14.53 125.74 14.96 126.4 15.46 127.01 16.01 127.56 16.61 128.06 17.26 128.5 17.94 128.88 18.66 129.2 27.04 132.48 26.25 132.14 25.51 131.72 24.81 131.24 24.16 130.7 23.56 130.09 23.02 129.43 22.54 128.72 22.13 127.95 21.8 127.14 21.55 126.3 21.38 125.41 6.83 20.22 6.75 19.32 6.76 18.43 6.87 17.56 7.05 16.72 7.31 15.9 7.65 15.12 8.07 14.37 8.55 13.67 9.09 13.02 9.7 12.42"/><polygon class="cls-1" points="46.44 31.23 36.51 36.05 37.25 35.74 38.04 35.51 38.85 35.35 77.72 29.98 78.54 29.82 79.32 29.59 92.97 24.2 92.12 24.46 91.23 24.63 48.98 30.47 48.09 30.64 47.24 30.89 46.44 31.23"/><path class="cls-2" d="M98.79,14.65l-1-7a8.88,8.88,0,0,0-10-7.56L14.38,10.24a8.87,8.87,0,0,0-7.55,10L21.38,125.41a8.87,8.87,0,0,0,10,7.55L45,131.07a8.86,8.86,0,0,0,7.55-10l-3.83-27.7a8.88,8.88,0,0,1,7.56-10l37.51-5.19a8.86,8.86,0,0,0,7.56-10l-1-7a8.87,8.87,0,0,0-10-7.55L52.91,58.87a8.86,8.86,0,0,1-10-7.55l-1.5-10.87a8.87,8.87,0,0,1,7.55-10l42.25-5.84A8.88,8.88,0,0,0,98.79,14.65Z"/></g></g></svg>