<svg xmlns="http://www.w3.org/2000/svg" width="469.38" height="501.36" viewBox="0 0 469.38 501.36"><defs><style>.cls-1{fill:#8ab03e;}.cls-2{fill:#614e7e;}.cls-3{fill:#443a69;}</style></defs><g id="Layer_2" data-name="Layer 2"><g id="Capa_3" data-name="Capa 3"><path class="cls-1" d="M410.69,41.69S342.19,30.19,307,65.34a75.43,75.43,0,0,0-15.8,23.92C290.67,39.89,234.69,0,234.69,0s-56,39.89-56.56,89.26a75.57,75.57,0,0,0-15.79-23.92C127.19,30.19,58.69,41.69,58.69,41.69s-11.5,68.5,23.65,103.65S186,169,186,169a183.1,183.1,0,0,0,.87-44.14C202.74,157.27,234.69,180,234.69,180s31.95-22.76,47.82-55.18a182.77,182.77,0,0,0,.88,44.14s68.49,11.5,103.65-23.65S410.69,41.69,410.69,41.69Z"/><path class="cls-2" d="M469.38,234.56A42.43,42.43,0,0,0,427,192.14a43.65,43.65,0,0,0-4.88.29,42.41,42.41,0,1,0-65.7-53.63v-.21A42.42,42.42,0,1,0,272,144.83a42.41,42.41,0,0,0-66.61-10.44c0-.65.05-1.3.05-1.95a42.43,42.43,0,1,0-82.49,13.93,42.43,42.43,0,1,0-69.46,47.24A42.42,42.42,0,1,0,42.42,277c.76,0,1.52,0,2.28-.07a42.42,42.42,0,0,0,43.5,70.5,42.41,42.41,0,0,0,56.59,55.18,42.43,42.43,0,0,0,40.08,56.33,43.08,43.08,0,0,0,7.41-.65c0,.22,0,.43,0,.65a42.42,42.42,0,1,0,84.84,0,40.86,40.86,0,0,0-.22-4.3A42.43,42.43,0,0,0,336.34,405a42.41,42.41,0,0,0,47.84-61.88,42.42,42.42,0,0,0,51.51-67A42.43,42.43,0,0,0,469.38,234.56Z"/><circle class="cls-3" cx="110.67" cy="212.95" r="24.53"/><circle class="cls-3" cx="265.54" cy="272.49" r="24.53"/><circle class="cls-3" cx="159.72" cy="307.95" r="24.53"/><circle class="cls-3" cx="315.92" cy="342.33" r="24.53"/><circle class="cls-3" cx="219.41" cy="382.8" r="24.53"/><circle class="cls-3" cx="371.37" cy="247.97" r="24.53"/><circle class="cls-3" cx="322.31" cy="175.98" r="24.53"/><circle class="cls-3" cx="205.04" cy="200.51" r="24.53"/></g></g></svg>