<svg xmlns="http://www.w3.org/2000/svg" xmlns:xlink="http://www.w3.org/1999/xlink" width="132.5" height="136.99" viewBox="0 0 132.5 136.99"><defs><style>.cls-1{fill:#f1ee86;}.cls-1,.cls-2{fill-rule:evenodd;}.cls-2{fill:url(#GradientFill_7);}</style><linearGradient id="GradientFill_7" x1="10.9" y1="76.53" x2="125.17" y2="60.47" gradientUnits="userSpaceOnUse"><stop offset="0" stop-color="#f1ee86"/><stop offset="1" stop-color="#f8df45"/></linearGradient></defs><g id="Layer_2" data-name="Layer 2"><g id="Free_Fridge_Magnets_Vectors" data-name="Free Fridge Magnets Vectors"><polygon class="cls-1" points="92.13 2.31 81.48 5.32 80.7 5.56 79.96 5.87 79.26 6.25 78.61 6.7 78 7.2 77.45 7.76 76.96 8.37 76.52 9.01 76.15 9.71 75.85 10.43 75.61 11.18 75.45 11.96 75.37 12.76 75.36 13.58 75.45 14.41 79.97 44.68 80.05 45.51 80.05 46.33 79.96 47.13 79.8 47.91 79.56 48.66 79.26 49.38 78.89 50.07 78.45 50.72 77.96 51.33 77.41 51.89 76.81 52.39 76.15 52.83 75.45 53.22 74.71 53.53 73.93 53.77 73.12 53.94 42.52 58.51 41.69 58.59 40.88 58.58 40.08 58.5 39.3 58.34 46.27 59.95 47.12 60.12 47.99 60.21 48.88 60.22 49.78 60.13 83.04 55.16 83.92 54.98 84.77 54.72 85.58 54.38 86.33 53.96 87.05 53.48 87.7 52.93 88.3 52.33 88.84 51.67 89.31 50.96 89.71 50.21 90.05 49.43 90.3 48.61 90.48 47.76 90.57 46.89 90.57 46 90.48 45.1 85.57 12.2 85.48 11.3 85.48 10.41 85.58 9.54 85.75 8.69 86 7.87 86.34 7.08 86.74 6.33 87.21 5.63 87.75 4.97 88.35 4.37 89 3.82 89.72 3.33 90.47 2.92 91.28 2.58 92.13 2.31"/><polygon class="cls-1" points="8.56 15.15 4.6 17.13 3.9 17.51 3.24 17.95 2.64 18.46 2.09 19.01 1.59 19.62 1.16 20.27 0.79 20.96 0.48 21.68 0.25 22.44 0.09 23.22 0 24.02 0 24.83 0.08 25.66 14.51 122.28 14.67 123.1 14.91 123.88 15.23 124.62 15.61 125.31 20.53 132.75 20.11 131.99 19.77 131.18 19.51 130.34 19.33 129.45 3.65 24.43 3.56 23.53 3.56 22.64 3.66 21.77 3.83 20.92 4.09 20.1 4.42 19.32 4.82 18.57 5.3 17.86 5.83 17.2 6.43 16.6 7.09 16.05 7.8 15.57 8.56 15.15"/><polygon class="cls-1" points="90.2 79.85 79.71 76.65 80.46 76.88 81.19 77.19 81.88 77.56 82.53 77.99 83.13 78.49 83.69 79.04 84.19 79.64 84.64 80.3 85.02 80.99 85.33 81.73 85.57 82.51 85.74 83.33 89.87 111.03 90.04 111.84 90.28 112.62 90.59 113.36 90.98 114.06 91.42 114.72 91.92 115.32 92.48 115.87 93.09 116.36 93.73 116.8 105.45 123.49 104.74 123.02 104.08 122.48 103.48 121.88 102.93 121.22 102.45 120.52 102.03 119.76 101.69 118.95 101.43 118.1 101.25 117.22 96.75 87.11 96.58 86.22 96.31 85.38 95.97 84.57 95.56 83.81 95.07 83.1 94.53 82.45 93.92 81.85 93.26 81.31 92.56 80.84 91.81 80.43 91.02 80.1 90.2 79.85"/><path class="cls-2" d="M132.41,112.57l-15.69-105a8.85,8.85,0,0,0-10-7.44L93,2.14A8.86,8.86,0,0,0,85.57,12.2l4.91,32.9A8.86,8.86,0,0,1,83,55.16l-33.26,5a8.87,8.87,0,0,1-10.06-7.45l-4.91-32.9a8.86,8.86,0,0,0-10.06-7.45l-13.65,2A8.87,8.87,0,0,0,3.65,24.43l15.68,105a8.87,8.87,0,0,0,10.06,7.45l13.65-2a8.86,8.86,0,0,0,7.45-10.06L46,94.69a8.87,8.87,0,0,1,7.45-10.06l33.26-5a8.85,8.85,0,0,1,10,7.44l4.5,30.11a8.86,8.86,0,0,0,10.06,7.44l13.65-2A8.86,8.86,0,0,0,132.41,112.57Z"/></g></g></svg>