<svg xmlns="http://www.w3.org/2000/svg" xmlns:xlink="http://www.w3.org/1999/xlink" width="56.05" height="126.45" viewBox="0 0 56.05 126.45"><defs><style>.cls-1{fill:#f05651;fill-rule:evenodd;}.cls-2{fill:url(#GradientFill_6);}</style><linearGradient id="GradientFill_6" x1="9.05" y1="62.27" x2="52.09" y2="66.03" gradientTransform="translate(87.93 22.21) rotate(79.31)" gradientUnits="userSpaceOnUse"><stop offset="0" stop-color="#e31c44"/><stop offset="1" stop-color="#f05651"/></linearGradient></defs><g id="Layer_2" data-name="Layer 2"><g id="Free_Fridge_Magnets_Vectors" data-name="Free Fridge Magnets Vectors"><polygon class="cls-1" points="48.85 4.56 40.26 2.5 27.78 0.14 26.95 0.03 26.14 0 25.34 0.05 24.55 0.18 23.79 0.39 23.05 0.67 22.35 1.01 21.68 1.42 21.06 1.89 20.48 2.42 19.95 3 19.49 3.64 19.08 4.32 18.73 5.05 18.46 5.82 18.27 6.63 0.14 102.63 0.03 103.45 0 104.27 0.05 105.07 0.18 105.85 0.39 106.62 0.67 107.35 5.81 118.53 5.51 117.73 5.29 116.91 5.14 116.05 5.09 115.18 5.12 114.29 5.24 113.4 24.94 9.05 25.16 8.18 25.45 7.34 25.82 6.55 26.27 5.8 26.78 5.11 27.35 4.48 27.98 3.9 28.66 3.39 29.38 2.95 30.14 2.57 30.94 2.27 31.77 2.05 32.63 1.91 33.5 1.85 34.38 1.88 35.28 2 48.85 4.56"/><rect class="cls-2" x="-31.37" y="48.4" width="123.88" height="31.5" rx="8.85" transform="translate(-38.14 82.28) rotate(-79.31)"/></g></g></svg>