<svg xmlns="http://www.w3.org/2000/svg" xmlns:xlink="http://www.w3.org/1999/xlink" width="84.95" height="127.99" viewBox="0 0 84.95 127.99"><defs><style>.cls-1{fill:#2790cf;}.cls-1,.cls-2,.cls-3{fill-rule:evenodd;}.cls-2{fill:#9eceee;}.cls-3{fill:url(#GradientFill_5);}</style><linearGradient id="GradientFill_5" x1="-62.1" y1="68.11" x2="146.19" y2="60.83" gradientUnits="userSpaceOnUse"><stop offset="0" stop-color="#2790cf"/><stop offset="1" stop-color="#9eceee"/></linearGradient></defs><g id="Layer_2" data-name="Layer 2"><g id="Free_Fridge_Magnets_Vectors" data-name="Free Fridge Magnets Vectors"><polygon class="cls-1" points="6.04 8.95 2.15 15.58 1.79 16.29 1.5 17.02 1.29 17.79 1.15 18.58 1.09 19.39 1.11 20.23 1.68 27.37 1.79 28.19 1.98 28.99 2.24 29.75 2.57 30.47 2.97 31.15 3.43 31.79 3.94 32.38 4.51 32.91 5.13 33.39 5.79 33.81 6.5 34.16 7.23 34.45 8 34.67 8.79 34.8 9.61 34.87 10.44 34.84 33.16 33.04 33.99 33.02 34.81 33.08 35.6 33.22 36.37 33.43 37.1 33.72 37.8 34.08 38.47 34.49 39.08 34.97 39.65 35.51 40.17 36.09 40.63 36.73 41.03 37.41 41.36 38.14 41.62 38.9 41.81 39.69 41.92 40.52 45.46 85.32 45.54 87 45.51 88.59 45.37 90.08 45.11 91.47 44.76 92.75 44.29 93.94 43.73 95.03 43.06 96.02 42.3 96.91 41.44 97.69 40.49 98.37 39.44 98.95 38.31 99.43 37.09 99.8 35.78 100.07 34.39 100.24 33.92 100.27 33.45 100.29 32.96 100.29 32.47 100.28 31.96 100.26 31.45 100.22 30.94 100.17 37.34 100.9 37.9 100.95 38.45 100.99 39 101.01 39.54 101.02 40.07 101.02 40.59 101 41.1 100.97 42.6 100.79 44.02 100.5 45.35 100.09 46.59 99.57 47.72 98.94 48.76 98.2 49.69 97.35 50.52 96.38 51.24 95.31 51.85 94.13 52.36 92.83 52.75 91.43 53.02 89.92 53.18 88.31 53.21 86.58 53.13 84.75 49.27 36.05 49.16 35.16 48.96 34.29 48.67 33.47 48.31 32.68 47.88 31.94 47.38 31.25 46.81 30.61 46.19 30.03 45.52 29.51 44.8 29.05 44.04 28.67 43.24 28.36 42.41 28.12 41.55 27.97 40.66 27.91 39.76 27.93 15.06 29.89 14.15 29.91 13.27 29.85 12.41 29.69 11.57 29.46 10.77 29.15 10.01 28.77 9.29 28.31 8.62 27.79 8 27.21 7.44 26.57 6.94 25.88 6.5 25.13 6.14 24.35 5.86 23.52 5.65 22.66 5.54 21.76 4.92 14 4.9 13.1 4.96 12.21 5.11 11.35 5.35 10.52 5.66 9.71 6.04 8.95"/><polygon class="cls-2" points="16.86 93.46 12.1 93.33 11.69 93.34 11.28 93.37 10.87 93.42 10.45 93.49 10.04 93.58 9.62 93.69 9.22 93.82 8.84 93.97 8.46 94.13 8.1 94.31 7.75 94.51 7.41 94.72 7.08 94.95 6.77 95.2 6.47 95.47 6.18 95.75 5.9 96.05 5.64 96.36 5.39 96.7 5.16 97.04 4.94 97.41 1.1 104.03 0.75 104.71 0.47 105.41 0.25 106.11 0.1 106.83 0.02 107.55 0 108.27 0.04 108.99 0.15 109.69 0.32 110.39 0.56 111.07 0.85 111.73 1.2 112.36 1.61 112.97 2.08 113.54 2.6 114.07 3.19 114.56 4.12 115.27 5.07 115.95 6.02 116.61 6.99 117.24 7.96 117.85 8.95 118.44 9.95 119 10.96 119.55 15.62 121.95 14.52 121.37 13.44 120.75 12.37 120.11 11.31 119.45 10.26 118.76 9.22 118.04 8.19 117.31 7.18 116.54 6.54 116.01 5.97 115.43 5.46 114.81 5.01 114.15 4.63 113.46 4.31 112.74 4.06 112 3.88 111.25 3.76 110.48 3.71 109.7 3.73 108.91 3.82 108.13 3.99 107.35 4.22 106.58 4.53 105.83 4.91 105.09 9.08 97.89 9.32 97.5 9.57 97.12 9.85 96.76 10.13 96.42 10.43 96.09 10.74 95.78 11.07 95.5 11.41 95.23 11.76 94.97 12.13 94.74 12.51 94.53 12.91 94.33 13.32 94.15 13.74 93.99 14.17 93.85 14.62 93.73 15.07 93.63 15.53 93.55 15.97 93.5 16.42 93.47 16.86 93.46"/><path class="cls-3" d="M69.33,0,13.05,4.48A8.87,8.87,0,0,0,4.92,14l.62,7.76a8.87,8.87,0,0,0,9.52,8.13l24.7-2a8.88,8.88,0,0,1,9.52,8.12l3.85,48.7c.79,10.06-3.74,15.56-12,16.22-5.39.42-12.44-1.58-19.64-6.12a8.55,8.55,0,0,0-6.84-1.12,8.57,8.57,0,0,0-5.54,4.16l-4.17,7.2a8.81,8.81,0,0,0,2.27,11.45,53.77,53.77,0,0,0,38.17,11.25C71.63,125.71,86.84,109.24,84.76,83L78.85,8.15A8.86,8.86,0,0,0,69.33,0Z"/></g></g></svg>