<svg xmlns="http://www.w3.org/2000/svg" width="542.99" height="271.5" viewBox="0 0 542.99 271.5"><defs><style>.cls-1{fill:#8ab03e;}.cls-2{fill:#d72630;}.cls-3{fill:#2a2023;}</style></defs><g id="Layer_2" data-name="Layer 2"><g id="Capa_3" data-name="Capa 3"><path class="cls-1" d="M0,0C0,149.94,121.55,271.5,271.5,271.5S543,149.94,543,0Z"/><path class="cls-2" d="M32.08.48c0,132.22,107.19,239.41,239.42,239.41S510.91,132.7,510.91.48Z"/><path class="cls-3" d="M282.76,124.83c0-6.22-5-20.55-11.26-20.55s-11.27,14.33-11.27,20.55a11.27,11.27,0,1,0,22.53,0Z"/><path class="cls-3" d="M360.67,49.41C358.44,43.6,348.6,32,342.8,34.25s-5.39,17.41-3.17,23.22a11.27,11.27,0,1,0,21-8.06Z"/><path class="cls-3" d="M438.08,45.26c-3.76-4.95-16.45-13.31-21.4-9.55s-.3,18.23,3.46,23.18a11.27,11.27,0,1,0,17.94-13.63Z"/><path class="cls-3" d="M380.45,135.82c-2.22-5.81-12.06-17.39-17.87-15.16s-5.39,17.41-3.16,23.22a11.26,11.26,0,1,0,21-8.06Z"/><path class="cls-3" d="M172.9,49.41C175.13,43.6,185,32,190.78,34.25s5.39,17.41,3.16,23.22a11.27,11.27,0,0,1-21-8.06Z"/><path class="cls-3" d="M95.49,45.26c3.77-4.95,16.45-13.31,21.41-9.55s.3,18.23-3.47,23.18A11.27,11.27,0,1,1,95.49,45.26Z"/><path class="cls-3" d="M153.12,135.82c2.23-5.81,12.07-17.39,17.88-15.16s5.39,17.41,3.16,23.22a11.27,11.27,0,0,1-21-8.06Z"/><path class="cls-3" d="M282.76,52.08c0-6.22-5-20.55-11.26-20.55s-11.27,14.33-11.27,20.55a11.27,11.27,0,0,0,22.53,0Z"/><path class="cls-3" d="M282.76,186c0-6.23-5-20.56-11.26-20.56S260.23,179.76,260.23,186a11.27,11.27,0,0,0,22.53,0Z"/></g></g></svg>