<svg xmlns="http://www.w3.org/2000/svg" xmlns:xlink="http://www.w3.org/1999/xlink" width="86.4" height="123.88" viewBox="0 0 86.4 123.88"><defs><style>.cls-1{fill:#f8df45;}.cls-1,.cls-2{fill-rule:evenodd;}.cls-2{fill:url(#GradientFill_7);}</style><linearGradient id="GradientFill_7" x1="-70.14" y1="61.94" x2="154.19" y2="61.94" gradientUnits="userSpaceOnUse"><stop offset="0" stop-color="#f1ee86"/><stop offset="1" stop-color="#f8df45"/></linearGradient></defs><g id="Layer_2" data-name="Layer 2"><g id="Free_Fridge_Magnets_Vectors" data-name="Free Fridge Magnets Vectors"><polygon class="cls-1" points="82.55 119.98 85.01 116.51 85.42 115.83 85.76 115.12 86.03 114.38 86.23 113.6 86.36 112.79 86.4 111.96 86.4 103.98 86.36 103.15 86.23 102.34 86.03 101.56 85.76 100.82 85.42 100.11 85.01 99.44 84.54 98.81 84.01 98.23 83.43 97.7 82.81 97.23 82.14 96.83 81.42 96.48 80.68 96.21 79.9 96.01 79.09 95.88 78.26 95.84 46.18 95.84 45.35 95.8 44.55 95.68 43.77 95.47 43.02 95.2 42.31 94.86 41.64 94.45 41.01 93.98 40.43 93.45 39.91 92.87 39.44 92.25 39.03 91.58 38.68 90.86 38.41 90.12 38.21 89.34 38.09 88.53 38.04 87.7 38.04 14.27 38 13.44 37.88 12.63 37.68 11.85 37.4 11.11 37.06 10.39 36.65 9.72 36.18 9.1 35.65 8.52 35.08 7.99 28.28 2.02 28.91 2.6 29.48 3.23 29.99 3.91 30.43 4.64 30.8 5.41 31.1 6.22 31.32 7.07 31.46 7.95 31.5 8.85 31.5 88.67 31.55 89.57 31.68 90.45 31.9 91.29 32.2 92.11 32.57 92.88 33.02 93.61 33.53 94.29 34.1 94.92 34.73 95.49 35.41 96 36.14 96.44 36.91 96.82 37.73 97.12 38.57 97.33 39.45 97.47 40.35 97.52 75.22 97.52 76.12 97.56 77 97.69 77.84 97.91 78.66 98.21 79.43 98.59 80.16 99.03 80.84 99.54 81.47 100.11 82.04 100.74 82.55 101.42 82.99 102.15 83.37 102.92 83.67 103.74 83.89 104.58 84.02 105.46 84.06 106.36 84.06 115.04 84.02 115.94 83.89 116.81 83.67 117.66 83.37 118.47 82.99 119.25 82.55 119.98"/><path class="cls-2" d="M31.5,88.67V8.85A8.86,8.86,0,0,0,22.65,0H8.85A8.87,8.87,0,0,0,0,8.85V115a8.86,8.86,0,0,0,8.85,8.84H75.22A8.86,8.86,0,0,0,84.07,115v-8.68a8.87,8.87,0,0,0-8.85-8.85H40.35A8.86,8.86,0,0,1,31.5,88.67Z"/></g></g></svg>