<svg xmlns="http://www.w3.org/2000/svg" width="469.27" height="324.05" viewBox="0 0 469.27 324.05"><defs><style>.cls-1{fill:#ede04c;}.cls-2{fill:#f4ea93;}</style></defs><g id="Layer_2" data-name="Layer 2"><g id="Capa_3" data-name="Capa 3"><path class="cls-1" d="M426.49,117.13C402.51,49.49,325.69,0,234.63,0S66.76,49.49,42.78,117.13A45.09,45.09,0,0,0,0,162H0a45.09,45.09,0,0,0,42.78,44.89c24,67.65,100.79,117.14,191.85,117.14s167.88-49.49,191.86-117.14A45.09,45.09,0,0,0,469.27,162h0A45.09,45.09,0,0,0,426.49,117.13Z"/><circle class="cls-2" cx="289.77" cy="267.49" r="15.56"/><circle class="cls-2" cx="305.38" cy="212.74" r="15.56"/><circle class="cls-2" cx="367.64" cy="235.05" r="15.56"/><circle class="cls-2" cx="219.07" cy="272.93" r="15.56"/></g></g></svg>