<svg xmlns="http://www.w3.org/2000/svg" xmlns:xlink="http://www.w3.org/1999/xlink" width="142.77" height="134.2" viewBox="0 0 142.77 134.2"><defs><style>.cls-1{fill:#f6911e;}.cls-1,.cls-2,.cls-3{fill-rule:evenodd;}.cls-2{fill:#f0ad56;}.cls-3{fill:url(#GradientFill_8);}</style><linearGradient id="GradientFill_8" x1="3.03" y1="73.19" x2="139.74" y2="63.63" gradientUnits="userSpaceOnUse"><stop offset="0" stop-color="#f7973a"/><stop offset="1" stop-color="#f0ad56"/></linearGradient></defs><g id="Layer_2" data-name="Layer 2"><g id="Free_Fridge_Magnets_Vectors" data-name="Free Fridge Magnets Vectors"><polygon class="cls-1" points="131.41 3.82 126.52 1.1 125.83 0.74 125.09 0.45 124.33 0.22 123.54 0.07 122.72 0 121.89 0.01 103.7 1.21 103.09 1.27 102.51 1.37 101.93 1.51 101.38 1.69 100.84 1.9 100.33 2.15 99.84 2.44 99.37 2.76 98.92 3.12 98.51 3.5 98.11 3.92 97.75 4.37 97.42 4.85 97.12 5.36 96.85 5.89 96.62 6.45 78.4 54.6 78.16 55.16 77.89 55.7 77.59 56.2 77.26 56.68 76.9 57.13 76.51 57.55 76.09 57.94 75.64 58.29 75.18 58.61 74.68 58.9 74.17 59.15 73.63 59.37 73.08 59.55 72.51 59.69 71.92 59.79 71.32 59.85 70.71 59.87 70.11 59.84 69.53 59.78 68.96 59.67 68.4 59.53 67.86 59.35 67.33 59.13 66.82 58.87 66.34 58.58 65.87 58.25 65.43 57.88 65.01 57.49 64.62 57.06 64.25 56.59 63.92 56.1 63.61 55.58 39.24 10.21 38.93 9.69 38.6 9.19 38.23 8.73 37.84 8.3 37.42 7.9 36.98 7.54 36.51 7.21 36.03 6.92 35.52 6.66 34.99 6.44 34.45 6.26 33.89 6.11 33.32 6.01 32.74 5.94 32.14 5.92 31.53 5.94 13.23 7.14 12.4 7.24 11.61 7.41 10.84 7.66 10.11 7.99 9.43 8.38 4.14 11.73 4.88 11.3 5.67 10.95 6.51 10.68 7.37 10.49 8.27 10.38 28.17 9.08 28.83 9.06 29.47 9.08 30.11 9.15 30.73 9.27 31.34 9.42 31.93 9.62 32.5 9.86 33.05 10.14 33.58 10.46 34.09 10.81 34.57 11.21 35.02 11.64 35.45 12.11 35.84 12.61 36.21 13.15 36.54 13.72 63.04 63.03 63.37 63.6 63.73 64.14 64.13 64.64 64.55 65.11 65.01 65.54 65.49 65.93 66 66.29 66.53 66.61 67.08 66.89 67.65 67.13 68.24 67.33 68.84 67.48 69.47 67.6 70.1 67.67 70.75 67.69 71.41 67.67 72.07 67.61 72.71 67.5 73.33 67.34 73.93 67.15 74.51 66.92 75.07 66.64 75.61 66.33 76.11 65.98 76.6 65.59 77.05 65.17 77.48 64.72 77.87 64.23 78.23 63.71 78.56 63.16 78.85 62.58 79.11 61.97 98.91 9.63 99.16 9.02 99.46 8.44 99.78 7.89 100.14 7.37 100.54 6.88 100.96 6.43 101.42 6.01 101.9 5.62 102.41 5.27 102.95 4.96 103.51 4.69 104.09 4.45 104.69 4.26 105.31 4.11 105.95 4 106.61 3.93 126.39 2.63 127.29 2.62 128.17 2.7 129.03 2.86 129.86 3.1 130.66 3.43 131.41 3.82"/><polygon class="cls-2" points="34.83 126.73 37.67 114.18 37.82 113.39 37.89 112.58 37.88 111.75 36.11 84.91 36.1 84.18 36.14 83.47 36.25 82.78 36.41 82.11 33.47 91.86 33.29 92.6 33.18 93.35 33.13 94.13 33.15 94.91 35.06 124.08 35.07 124.99 35 125.87 34.83 126.73"/><polygon class="cls-1" points="112.54 87.17 109.16 77.79 109.35 78.46 109.49 79.16 109.57 79.88 111.4 106.94 111.5 107.77 111.68 108.56 115.28 120.62 115.09 119.76 114.98 118.86 112.99 89.44 112.9 88.66 112.75 87.9 112.54 87.17"/><path class="cls-3" d="M142.76,117l-7-106.14a8.87,8.87,0,0,0-9.4-8.25l-19.78,1.3a8.69,8.69,0,0,0-7.7,5.7L79.11,62A8.85,8.85,0,0,1,63,63L36.54,13.72a8.65,8.65,0,0,0-8.37-4.64l-19.9,1.3A8.87,8.87,0,0,0,0,19.79L7,125.93a8.87,8.87,0,0,0,9.41,8.25l10.42-.69a8.86,8.86,0,0,0,8.25-9.4L33.15,94.91a8.85,8.85,0,0,1,16.69-4.64l12,23.19a8.69,8.69,0,0,0,8.44,4.77l8.92-.59a8.68,8.68,0,0,0,7.75-5.83L95.83,87A8.85,8.85,0,0,1,113,89.44l2,29.42a8.86,8.86,0,0,0,9.41,8.23l10.11-.66A8.88,8.88,0,0,0,142.76,117Z"/></g></g></svg>