<svg xmlns="http://www.w3.org/2000/svg" width="177.72" height="177.72" viewBox="0 0 177.72 177.72"><defs><style>.cls-1{fill:#00853f;}.cls-2,.cls-3{fill:#fff;}.cls-2{opacity:0.77;}</style></defs><g id="Layer_2" data-name="Layer 2"><g id="Vector_Graphics" data-name="Vector Graphics"><path class="cls-1" d="M177.72,88.61A88.86,88.86,0,1,1,88.6,0,88.86,88.86,0,0,1,177.72,88.61Z"/><path class="cls-2" d="M65.06,6.93S148.54-5.76,174.68,83.88c0,0-3.14-42.8-37.33-65.7C137.35,18.18,104.2-6,65.06,6.93Z"/><path class="cls-2" d="M19.78,139.46S66.54,183.31,119,166.21C119,166.21,65,196,19.78,139.46Z"/><path class="cls-3" d="M41.08,41.72v-4h5.69v2l.71.68h3l.66-.66v-2L50.48,37H44.4l-3.33-3.31V27.59l3.31-3.32,9.14,0,3.33,3.31v4.1H51.12V29.59l-.66-.65H47.38l-.62.65v2.08l.65.68h6.12l3.32,3.31,0,6L53.55,45l-9.14,0Zm3.48,2.81,8.84,0,3-2.94V35.75l-2.94-2.9H47.3l-1-1V29.49l1-1h3.29l1,1v1.7h4.72V27.68l-2.94-2.93-8.9,0-2.93,2.94v5.91l3,2.93H50.6l1,1V39.8l-1.06,1H47.34l-1-1V38.23H41.58V41.6Zm-2.32-3.38V38.86h3.45v1.36L47,41.5H51l1.29-1.31v-3L51,35.88H45l-2.76-2.75,0-5,2.73-2.74h8l2.76,2.78v2.34H52.28V29.12L51,27.78H46.89L45.66,29v3.19l1.27,1.3h6l2.76,2.77v4.85l-2.69,2.73H45Z"/><path class="cls-3" d="M58.56,45V40.35H59.8l3.78-11.43h-.93V24.23l11,0V28.9h-1l3.82,11.41h1.22V45h-8V40.32h.7l-.33-1h-4l-.36,1h.72V45ZM66,44.48V40.81h-.77l.47-1.93h4.87L71,40.8h-.77v3.68l7,0V40.78H76L72,28.4h1.16V24.71l-10,0v3.68h1l-4,12.41H59.06V44.5Zm-6.29-.64V41.47h.89l4.52-13.71H63.81V25.39l8.76,0v2.37H71.11l4.56,13.7h.89v2.37H70.9V41.45H72L71,38.22H65.29l-1.06,3.23h1.12v2.37ZM70.35,36.5l-2.23-6.76L65.83,36.5Zm-3.5-.59,1.27-4.13,1.25,4.13Zm2-.54-.68-2-.68,2Z"/><path class="cls-3" d="M76.24,28.89V24.2H84.6v4.68H83.9l2.32,6.92,2.29-6.93h-.67V24.18l8.57,0v4.69H94.58L90.8,40.28h1.07v4.66L80.81,45V40.3h.92L77.9,28.89Zm1.81-.51,4.24,12.4h-1v3.67l10.05,0V40.76H90.21l4.22-12.41h1.51V24.67H88.34v3.68h.77l-2.89,8.37-2.9-8.36h.77V24.69l-7.36,0v3.68Zm-.65-.62v-2.4h6.08v2.4H82.32l3.91,11.67,3.88-11.69H89V25.33h6.29v2.4H93.77L89.23,41.38h1.49v2.4l-8.78,0V41.4h1.34l-4.6-13.64Z"/><path class="cls-3" d="M98.49,44.93V40.27h1.25l0-11.42H98.46V24.16l15.25,0v5.52h-4.66v-.84H105.4v3.35h.83v-.8h4.69v6.29h-4.69v-.8h-.83v3.38h3.64v-.86h4.66v5.51Zm14.75-.54V39.88h-3.68v.83h-4.63V36.34h1.84v.84h3.68V31.88h-3.68v.84h-1.84V28.33h4.62v.83h3.67V24.63L99,24.66v3.68h1.22l0,12.4H99v3.68Zm-13.59-.62V41.39h1.22l0-13.71H99.62V25.31l13,0v3.2h-2.4v-.84l-5.88,0v5.66h3.09v-.83h2.37v4h-2.37v-.83h-3.08v5.66h5.87v-.83h2.41v3.21Z"/><path class="cls-3" d="M41.08,67.84l0-14.12,3.31-3.33h9.14l3.33,3.31,0,14.12-3.32,3.33-9.14,0Zm3.51,2.79,8.81,0,3-3,0-13.71-3-3-8.75,0-3,3.06,0,13.72Zm-2.35-3.35,0-13,2.73-2.74,8,0,2.73,2.73,0,13L53,70H45Zm4.7.32h4.11l1.27-1.28,0-11.1L51,53.91H46.89l-1.26,1.27,0,11.13ZM46.27,66l0-10.39,1-1h3.32l1,1,0,10.38-1,1H47.31Zm1.19.53h3l.66-.66,0-10.11-.65-.65h-3l-.66.66,0,10.08Z"/><path class="cls-3" d="M58.15,55.05V50.37l8.18,0V55H65.09l0,10.77.65.65h3l.68-.65,0-10.77H68.2V50.35l8.22,0V55H75.11l0,12.76-3.26,3.33H62.75l-3.33-3.31,0-12.76Zm1.72-.5,0,13.14,2.94,2.93,9,0,2.9-2.91,0-13.17h1.22V50.84H68.7v3.68H70l0,11.36-1,1H65.67l-1.06-1.07,0-11.33h1.25V50.86H58.64v3.68Zm-.57-.62V51.52h5.9v2.4H64l0,12.37,1.25,1.27h4.12l1.28-1.28,0-12.37H69.36V51.5h5.91v2.4H74l0,13.32L71.32,70l-8,0-2.77-2.76,0-13.29Z"/><path class="cls-3" d="M78.53,71.09V66.44h1.25l0-11.42H78.5V50.33l12.84,0,3.33,3.32V59L93.31,60.3l1.37,1.36V66.4h1.24v4.66H89l0-7.8-.65-.62H85.45v3.77h1.25v4.66Zm7.68-.52V66.9H85V62.15h3.62l.92.91v7.52l5.91,0V66.88H94.18v-5l-1.57-1.6,1.57-1.61V53.83l-3-3L79,50.83v3.68h1.22l0,12.4H79v3.68Zm-6.53-.64V67.56h1.21l0-13.71H79.65V51.48l11.15,0,2.71,2.72v4.18l-1.86,1.91,1.87,1.86v5.4h1.25V69.9H90.12V62.79l-1.27-1.27H84.35l0,6h1.21v2.37Zm9.15-10.81,1.27-1.3V55.09l-1.29-1.25H84.34v5.29Zm-3.89-.62v-4H88.4l1.07,1.07v1.89l-1.07,1ZM88.29,58l.68-.65V55.69l-.7-.7H85.44v3Z"/><path class="cls-3" d="M41.07,82.09V76.18l17.53,0v5.9H53.91V80.84H52.69l0,11.42h1.21v4.65l-8.18,0V92.28H47l0-11.42H45.72v1.22Zm4.15-.49V80.36h2.25l0,12.4H46.25v3.68h7.21V92.74H52.21l0-12.4h2.25v1.25h3.64V76.65l-16.53,0v4.92Zm-3-.64V77.34l15.24,0v3.62h-2.4V79.69h-3.5l0,13.71h1.22v2.38h-5.9V93.41h1.24l0-13.7H44.57V81Z"/><path class="cls-3" d="M60.29,96.91V92.25h1.25l0-11.42H60.26V76.15l12.85,0,3.32,3.32v5.34l-1.36,1.33,1.37,1.37v4.74H77.7v4.66H70.76v-7.8l-.66-.62H67.22v3.77h1.25v4.65ZM68,96.39V92.71H66.72V88h3.63l.91.91,0,7.52,5.9,0V92.69H76v-5l-1.58-1.6,1.57-1.6V79.64l-3-3-12.13,0v3.68H62l0,12.4H60.79V96.4Zm-6.52-.64V93.38h1.22l0-13.71H61.41V77.3l11.15,0L75.27,80v4.18l-1.87,1.91L75.28,88v5.4h1.25v2.37H71.89l0-7.12L70.6,87.34H66.12v6h1.22v2.37Zm9.14-10.81,1.27-1.3V80.91l-1.28-1.26H66.1v5.28Zm-3.89-.62v-4h3.47l1.07,1.06v1.9l-1.06,1Zm3.36-.51.68-.65V81.51l-.7-.7H67.2v3Z"/><path class="cls-3" d="M79.34,96.87V92.22h1.24l0-11.42H79.3V76.11l15.24,0v5.51H89.9v-.83H86.25v3.35h.83v-.8h4.69v6.29H87.09v-.8h-.83V92.2h3.65v-.86h4.65v5.52Zm14.74-.53V91.83H90.39v.83H85.77V88.29H87.6v.83h3.68l0-5.28H87.59v.83H85.75V80.28h4.63v.83h3.68V76.58l-14.24,0v3.68H81l0,12.4H79.83v3.68Zm-13.59-.63V93.34H81.7l0-13.71H80.46V77.26l13,0v3.2H91v-.83l-5.87,0v5.66h3.08v-.84h2.37v4H88.25v-.83H85.16v5.67h5.88v-.83h2.4v3.21Z"/><path class="cls-3" d="M96.87,96.84V92.18H98.1l0-11.42H96.84V76.07l15.24,0,0,5.52h-4.66v-.83h-3.65V84.1h.83v-.81h4.69v6.29h-4.68v-.8h-.83v3.39h3.65V91.3h4.65l0,5.52Zm14.74-.54V91.79h-3.68v.83H103.3V88.25h1.84v.83h3.68V83.79h-3.68v.83h-1.84V80.24h4.63v.83h3.68V76.55l-14.24,0v3.68h1.22l0,12.4H97.36v3.68ZM98,95.68V93.31h1.21l0-13.7H98V77.23l13,0v3.2h-2.41v-.83h-5.87v5.67h3.08v-.83h2.38v4h-2.37v-.83h-3.09V93.3l5.88,0v-.83H111v3.2Z"/><path class="cls-3" d="M113.77,93.48v-4l5.7,0v2l.72.68h3l.65-.66v-2l-.66-.62h-6.07l-3.34-3.32V79.36L117.06,76l9.14,0,3.33,3.32v4.09l-5.72,0V81.36l-.65-.65h-3.09l-.62.65v2.08l.65.68h6.11l3.33,3.32v6l-3.31,3.33-9.14,0Zm3.48,2.81h8.84l3-3V87.52l-2.95-2.9H120l-1-1V81.25l1-1h3.3l1,1v1.69H129V79.45l-2.94-2.93-8.9,0-2.93,2.94v5.9l2.94,2.93h6.08l1,1v2.25l-1.07,1H120l-1-1V90h-4.71v3.35Zm-2.32-3.37V90.63h3.44V92l1.26,1.27h4.06L125,92V89l-1.31-1.33h-6l-2.76-2.75v-5l2.73-2.73,8,0L128.4,80V82.3H125V80.88l-1.31-1.33h-4.07l-1.24,1.23V84l1.27,1.29h6L128.42,88V92.9l-2.69,2.72-8.1,0Z"/><path class="cls-3" d="M131.62,90.54l0-14.54h5.73l0,14.54Zm0,6.23V92.08h5.72v4.69Zm5.2-6.75,0-13.52H132.1l0,13.53Zm0,6.23V92.57h-4.72v3.68Zm-4.08-6.87,0-12.22h3.41l0,12.22Zm0,6.23v-2.4h3.41v2.4Z"/><path class="cls-3" d="M91.76,154.73v-8.67c10.44,1.23,15,.94,18.38-1.74-3.84-.91-7.65-9.29-11.48-12.59,1.28.31,5.55,0,6.83-1.77-6.38-2.41-8.51-6.6-10.2-10.19,2.13.3,2.56-.59,4.27-1.48L89.78,106.9l-9.85,11.33c1.71.9,2.13,1.8,4.27,1.51-1.72,3.58-3.86,7.75-10.27,10.13,1.28,1.79,5.54,2.1,6.82,1.81C76.9,135,73,143.31,69.2,144.2c3.4,2.7,7.92,3,18.37,1.85l-.07,8.66Z"/></g></g></svg>