<svg xmlns="http://www.w3.org/2000/svg" width="179.9" height="179.9" viewBox="0 0 179.9 179.9"><defs><style>.cls-1{fill:#231f20;stroke:#231f20;stroke-width:1.31px;}.cls-2{fill:#686868;}.cls-3{fill:none;stroke:#ec098d;stroke-width:3.94px;}.cls-4,.cls-5{fill:#ec098d;}.cls-4{fill-rule:evenodd;}</style></defs><g id="Layer_2" data-name="Layer 2"><g id="Vector_Graphics" data-name="Vector Graphics"><path class="cls-1" d="M179.24,89.7A89.29,89.29,0,1,1,89.69.66,89.29,89.29,0,0,1,179.24,89.7Z"/><path class="cls-2" d="M66,7.62S149.92-5.13,176.18,84.94c0,0-3.15-43-37.51-66C138.67,18.93,105.36-5.38,66,7.62Z"/><path class="cls-2" d="M20.53,140.79s47,44.07,99.67,26.88C120.2,167.67,66,197.65,20.53,140.79Z"/><rect class="cls-3" x="65.72" y="64.98" width="46.04" height="46.04"/><path class="cls-4" d="M118.34,77.71c-9,9.54-17.45,20.61-25.71,31.25C89,102.81,85.18,96.7,81.41,90.57S73.66,78.39,70.32,72.16h16c2.43,4.34,5,8.55,7.3,13a12.64,12.64,0,0,0,2.78-2.78c5.77-7,11.88-13.89,18.15-20.16.45-.46,1.36-.94,1.13-1.39l7.06-6.43c1.48-.34,3.36-2.56,4.66-3.65,4.58-3.84,9.66-8.09,14.75-11,.91-.52,3.83-.26,5.67-.26h15.5c.39.34-.6.52-1,.76a166.92,166.92,0,0,0-35.67,27.6c-.8.83-1.86,1.65-2,2.27"/><path class="cls-5" d="M57.67,128l6.34-.48,4.21,5.94,3.25-6.52,6.31-.49-6.36,11.3.6,7.73-5.72.45-.6-7.74Z"/><path class="cls-5" d="M79.6,126.26l15.3-1.18.31,3.94-9.58.74.23,2.94,8.88-.69.3,3.77-8.89.69.28,3.64,9.86-.76.32,4.18L81,144.74Z"/><path class="cls-5" d="M98.22,137.26l5.4-.76a4.16,4.16,0,0,0,.88,2,3,3,0,0,0,2.6.93,2.88,2.88,0,0,0,1.85-.72,1.77,1.77,0,0,0,.56-1.38,1.73,1.73,0,0,0-.74-1.24,7.2,7.2,0,0,0-3-.85,12.35,12.35,0,0,1-5.53-1.82,4.52,4.52,0,0,1-1.89-3.45,4.84,4.84,0,0,1,.62-2.75A5.46,5.46,0,0,1,101.3,125a11.76,11.76,0,0,1,4.48-1.07,9.39,9.39,0,0,1,5.51.9,5.67,5.67,0,0,1,2.53,4l-5.35.73a3,3,0,0,0-1-1.75,2.92,2.92,0,0,0-1.94-.42,2.37,2.37,0,0,0-1.46.54,1.29,1.29,0,0,0-.43,1.07,1,1,0,0,0,.48.76,4.66,4.66,0,0,0,2,.53,24.33,24.33,0,0,1,5.49,1.22,5.63,5.63,0,0,1,2.51,1.87,5.16,5.16,0,0,1,.95,2.67,5.89,5.89,0,0,1-.73,3.36,6.18,6.18,0,0,1-2.57,2.49A11.15,11.15,0,0,1,107.3,143c-3.14.25-5.37-.19-6.67-1.31A7.16,7.16,0,0,1,98.22,137.26Z"/></g></g></svg>