<svg xmlns="http://www.w3.org/2000/svg" width="178.58" height="178.58" viewBox="0 0 178.58 178.58"><defs><style>.cls-1{fill:#0194d3;}.cls-2{fill:#65c6e4;}.cls-3{fill:#ffe363;stroke:#00653b;}.cls-3,.cls-4{stroke-width:2.47px;}.cls-4{fill:#fff;stroke:#f8971d;}</style></defs><g id="Layer_2" data-name="Layer 2"><g id="Vector_Graphics" data-name="Vector Graphics"><path class="cls-1" d="M178.58,89A89.29,89.29,0,1,1,89,0,89.29,89.29,0,0,1,178.58,89Z"/><path class="cls-2" d="M65.38,7S149.26-5.78,175.53,84.29c0,0-3.15-43-37.51-66C138,18.27,104.71-6,65.38,7Z"/><path class="cls-2" d="M19.87,140.13s47,44.07,99.67,26.88C119.54,167,65.31,197,19.87,140.13Z"/><path class="cls-3" d="M90.25,156.7h0a62.62,62.62,0,1,1,44.29-18.34A62.18,62.18,0,0,1,90.24,156.7ZM59,122.47c.46.51.93,1,1.41,1.48a42.39,42.39,0,0,0,19.7,11.14v-25L59,122.47Zm41.48-12.39v25A42.39,42.39,0,0,0,120.13,124c.47-.47.94-1,1.39-1.46l-21.09-12.41Zm0-23.63,30.76,18.1a42.28,42.28,0,0,0-30.76-51.49V86.45ZM80.06,53.06a42.46,42.46,0,0,0-19.7,11.13,42.36,42.36,0,0,0-11.07,40.33l30.77-18.1V53.06Z"/><path class="cls-4" d="M131,53.3a57.66,57.66,0,1,0-40.77,98.43h0A57.66,57.66,0,0,0,131,53.3Zm6.46,40.77A47,47,0,0,1,134,112L95.46,89.29V47.13a47.24,47.24,0,0,1,42,46.94ZM56.85,60.68A47,47,0,0,1,85,47.13V89.26L46.51,111.93A47.24,47.24,0,0,1,56.85,60.68ZM51.5,121.09,85,101.36V141a47.07,47.07,0,0,1-28.18-13.55A48,48,0,0,1,51.5,121.09Zm44,19.93V101.39L129,121.11a47.64,47.64,0,0,1-5.33,6.36A47.12,47.12,0,0,1,95.46,141Z"/></g></g></svg>