<svg xmlns="http://www.w3.org/2000/svg" xmlns:xlink="http://www.w3.org/1999/xlink" width="128.07" height="131.67" viewBox="0 0 128.07 131.67"><defs><style>.cls-1{fill:#b383b9;}.cls-1,.cls-2,.cls-3{fill-rule:evenodd;}.cls-2{fill:#481759;}.cls-3{fill:url(#GradientFill_2);}</style><linearGradient id="GradientFill_2" x1="11.09" y1="65.77" x2="126.75" y2="61.73" gradientUnits="userSpaceOnUse"><stop offset="0" stop-color="#b383b9"/><stop offset="1" stop-color="#481759"/></linearGradient></defs><g id="Layer_2" data-name="Layer 2"><g id="Free_Fridge_Magnets_Vectors" data-name="Free Fridge Magnets Vectors"><polygon class="cls-1" points="97.62 2.69 80.82 16.86 80.27 17.4 79.76 18 79.31 18.65 78.93 19.33 78.62 20.06 78.37 20.81 78.2 21.6 78.11 22.41 78.1 23.24 79.53 60.93 79.53 61.59 79.48 62.24 79.38 62.88 79.24 63.5 79.04 64.09 78.81 64.67 78.53 65.23 78.2 65.76 77.84 66.27 77.43 66.74 76.99 67.18 76.51 67.59 76 67.97 75.45 68.31 91.78 58.61 92.38 58.25 92.94 57.84 93.46 57.39 93.94 56.91 94.38 56.4 94.77 55.85 95.13 55.27 95.43 54.67 95.69 54.04 95.9 53.38 96.06 52.71 96.17 52.02 96.22 51.32 96.22 50.59 94.66 9.63 94.67 8.73 94.77 7.85 94.96 6.99 95.22 6.17 95.57 5.38 95.98 4.63 96.47 3.93 97.02 3.29 97.62 2.69"/><polygon class="cls-2" points="11.58 7.17 1.66 20.98 1.22 21.63 0.84 22.31 0.52 23.04 0.27 23.79 0.1 24.58 0.01 25.39 0 26.22 3.73 123.84 3.8 124.67 3.95 125.47 4.18 126.24 4.49 126.98 4.86 127.68 5.29 128.33 5.78 128.94 6.33 129.5 6.93 130 7.57 130.45 8.26 130.83 8.98 131.15 9.74 131.39 10.53 131.56 11.34 131.66 12.17 131.67 23.07 131.25 23.9 131.18 24.7 131.02 25.47 130.79 37.46 126.53 36.62 126.78 35.75 126.95 34.85 127.03 23 127.48 22.1 127.47 21.21 127.37 20.36 127.19 19.54 126.92 18.75 126.58 18 126.16 17.3 125.68 16.65 125.13 16.06 124.52 15.52 123.86 15.05 123.15 14.65 122.39 14.32 121.59 14.07 120.75 13.9 119.88 13.82 118.98 9.77 12.87 9.78 11.97 9.88 11.09 10.07 10.23 10.34 9.41 10.68 8.62 11.1 7.88 11.58 7.17"/><polygon class="cls-1" points="45.64 69.43 33 78.26 33.55 77.92 34.13 77.62 34.74 77.36 35.37 77.16 36 77 36.64 76.89 37.27 76.84 37.9 76.83 38.52 76.88 39.14 76.97 39.75 77.11 40.34 77.29 40.92 77.53 41.48 77.81 42.02 78.13 42.54 78.5 43.03 78.91 43.49 79.37 43.93 79.87 81.03 125.77 81.35 126.14 81.69 126.5 82.04 126.82 82.4 127.13 82.78 127.4 83.17 127.66 83.57 127.89 83.98 128.09 84.41 128.27 84.85 128.42 85.29 128.55 85.75 128.65 86.22 128.72 86.69 128.77 87.18 128.79 87.67 128.79 101.01 128.28 101.83 128.2 102.64 128.05 121.33 123.55 120.46 123.72 119.56 123.8 105.07 124.35 104.53 124.36 104.01 124.34 103.49 124.28 102.98 124.2 102.48 124.09 102 123.96 101.52 123.79 101.06 123.6 100.61 123.38 100.17 123.13 99.75 122.85 99.34 122.55 98.94 122.22 98.56 121.86 98.2 121.48 97.85 121.07 57.52 71.18 57.05 70.64 56.54 70.14 56.01 69.69 55.44 69.29 54.86 68.94 54.25 68.64 53.62 68.38 52.98 68.18 52.32 68.03 51.65 67.93 50.97 67.88 50.28 67.89 49.59 67.95 48.9 68.06 48.22 68.23 47.53 68.46 46.87 68.74 46.24 69.06 45.64 69.43"/><path class="cls-3" d="M128.07,114.62,124,8.51A8.86,8.86,0,0,0,114.84,0L103.16.45a8.86,8.86,0,0,0-8.5,9.18l1.56,41A8.85,8.85,0,0,1,80.5,56.5L40,6.41a8.61,8.61,0,0,0-7.22-3.27l-14.49.55a8.88,8.88,0,0,0-8.51,9.18L13.82,119a8.86,8.86,0,0,0,9.18,8.5L34.85,127a8.86,8.86,0,0,0,8.5-9.18L41.8,77.08a8.85,8.85,0,0,1,15.72-5.9l40.33,49.89a8.58,8.58,0,0,0,7.22,3.28l14.49-.55A8.88,8.88,0,0,0,128.07,114.62Z"/></g></g></svg>