<svg xmlns="http://www.w3.org/2000/svg" xmlns:xlink="http://www.w3.org/1999/xlink" width="135.8" height="129.42" viewBox="0 0 135.8 129.42"><defs><style>.cls-1{fill:#2790cf;}.cls-1,.cls-2,.cls-3{fill-rule:evenodd;}.cls-2{fill:#9eceee;}.cls-3{fill:url(#GradientFill_5);}</style><linearGradient id="GradientFill_5" y1="66.23" x2="133.97" y2="66.23" gradientUnits="userSpaceOnUse"><stop offset="0" stop-color="#2790cf"/><stop offset="1" stop-color="#9eceee"/></linearGradient></defs><g id="Layer_2" data-name="Layer 2"><g id="Free_Fridge_Magnets_Vectors" data-name="Free Fridge Magnets Vectors"><polygon class="cls-1" points="132.66 78.98 134.6 69.85 135.12 66.92 135.5 63.93 135.73 60.89 135.8 57.8 135.73 54.73 135.5 51.7 135.12 48.74 134.6 45.83 133.94 42.98 133.13 40.19 132.2 37.48 131.13 34.83 129.93 32.25 128.6 29.75 127.16 27.33 125.59 24.99 123.91 22.73 122.11 20.56 120.21 18.49 118.2 16.51 116.08 14.62 113.86 12.83 111.55 11.15 109.14 9.57 106.65 8.11 104.06 6.75 101.39 5.51 98.64 4.38 95.81 3.38 92.91 2.5 89.93 1.75 86.89 1.13 83.78 0.64 80.61 0.29 77.38 0.07 74.09 0 70.82 0.07 67.61 0.28 64.45 0.64 61.35 1.12 58.32 1.74 55.35 2.49 52.46 3.36 49.64 4.36 40.32 7.79 43.38 6.71 46.53 5.76 49.75 4.95 53.05 4.27 56.41 3.74 59.85 3.36 63.34 3.13 66.9 3.05 70.47 3.13 73.98 3.36 77.43 3.75 80.81 4.28 84.11 4.96 87.35 5.77 90.5 6.73 93.58 7.82 96.57 9.04 99.47 10.39 102.28 11.86 105 13.46 107.61 15.17 110.13 17 112.54 18.95 114.84 21 117.02 23.15 119.09 25.41 121.05 27.76 122.88 30.21 124.58 32.76 126.15 35.39 127.59 38.11 128.89 40.91 130.05 43.79 131.07 46.74 131.94 49.77 132.66 52.87 133.23 56.03 133.64 59.26 133.89 62.54 133.97 65.88 133.89 69.24 133.64 72.54 133.23 75.79 132.66 78.98"/><polygon class="cls-2" points="97.47 83.89 102.22 74.37 101.47 75.8 100.65 77.17 99.77 78.5 98.84 79.78 97.85 81.01 96.81 82.18 95.71 83.3 94.57 84.36 93.38 85.36 92.14 86.29 90.86 87.16 89.54 87.97 88.17 88.71 86.77 89.38 85.33 89.97 83.86 90.5 82.36 90.95 80.83 91.32 79.26 91.61 77.67 91.82 76.06 91.95 74.42 91.99 72.79 91.95 71.19 91.82 69.6 91.61 68.03 91.32 66.49 90.95 64.97 90.5 63.49 89.97 62.03 89.38 60.61 88.71 59.22 87.97 57.87 87.16 56.56 86.29 55.3 85.36 54.07 84.36 52.89 83.3 51.77 82.18 50.69 81.01 49.67 79.78 48.7 78.5 47.79 77.17 46.94 75.8 46.15 74.37 45.42 72.9 44.77 71.39 44.18 69.83 43.66 68.24 43.22 66.61 42.85 64.94 42.56 63.24 42.35 61.51 42.22 59.75 42.18 57.96 42.22 56.18 42.35 54.42 42.56 52.69 42.84 51 43.21 49.34 43.65 47.72 44.16 46.14 44.74 44.59 45.4 43.09 46.12 41.63 46.9 40.22 47.74 38.86 48.65 37.54 49.61 36.28 50.63 35.06 51.7 33.91 52.83 32.81 54 31.76 55.23 30.78 56.49 29.86 57.8 29 49.19 34.58 47.76 35.51 46.39 36.51 45.06 37.58 43.78 38.71 42.56 39.91 41.4 41.17 40.29 42.48 39.24 43.86 38.26 45.29 37.34 46.77 36.49 48.31 35.71 49.89 35 51.52 34.36 53.2 33.81 54.92 33.33 56.69 32.93 58.49 32.62 60.33 32.39 62.2 32.26 64.11 32.21 66.06 32.26 68 32.4 69.92 32.62 71.8 32.94 73.64 33.34 75.45 33.82 77.23 34.38 78.96 35.02 80.65 35.74 82.29 36.52 83.89 37.38 85.44 38.3 86.94 39.29 88.39 40.35 89.78 41.46 91.11 42.63 92.38 43.85 93.6 45.13 94.75 46.46 95.83 47.84 96.85 49.27 97.8 50.73 98.67 52.24 99.48 53.79 100.2 55.37 100.85 56.98 101.42 58.63 101.91 60.31 102.31 62.01 102.63 63.74 102.86 65.48 103 67.25 103.05 69.03 103 70.79 102.86 72.52 102.63 74.21 102.31 75.88 101.91 77.52 101.42 79.12 100.85 80.68 100.2 82.2 99.48 83.68 98.67 85.12 97.8 86.51 96.85 87.86 95.83 89.15 94.75 90.4 93.6 91.58 92.38 92.72 91.11 93.79 89.78 94.81 88.39 95.76 86.94 96.65 85.44 97.47 83.89"/><path class="cls-3" d="M66.9,3.05C28.67,3.05,0,29.78,0,65.88c0,36.28,28.67,63.54,66.9,63.54C105.3,129.42,134,102,134,65.88,134,30,105.3,3.05,66.9,3.05Zm.35,26.37c19.12,0,34.34,15.75,34.34,36.64s-15.22,37-34.34,37c-18.94,0-35-16.11-35-37S48.14,29.42,67.25,29.42Z"/></g></g></svg>