<svg xmlns="http://www.w3.org/2000/svg" width="407.69" height="477.37" viewBox="0 0 407.69 477.37"><defs><style>.cls-1{fill:#f68a39;}.cls-2{fill:#f9bd8c;}.cls-3{fill:#8ab03e;}.cls-4{fill:#85542b;}</style></defs><g id="Layer_2" data-name="Layer 2"><g id="Capa_3" data-name="Capa 3"><circle class="cls-1" cx="203.85" cy="273.52" r="203.85"/><circle class="cls-2" cx="343.09" cy="300.52" r="15.97"/><circle class="cls-2" cx="351.54" cy="362.6" r="15.97"/><circle class="cls-2" cx="298" cy="408.3" r="15.97"/><circle class="cls-2" cx="298" cy="346.7" r="15.97"/><circle class="cls-2" cx="228.35" cy="433.65" r="15.97"/><circle class="cls-2" cx="359.06" cy="231.16" r="15.97"/><path class="cls-3" d="M290.61,68.6c35.44-16.76,41.56-60.95,41.56-60.95s-51.33-17-86.77-.27-41.55,61-41.55,61S255.18,85.36,290.61,68.6Z"/><path class="cls-3" d="M117.08,68.6C81.64,51.84,75.52,7.65,75.52,7.65s51.33-17,86.77-.27,41.56,61,41.56,61S152.51,85.36,117.08,68.6Z"/><rect class="cls-4" x="196.22" y="28.51" width="15.25" height="73.58" rx="7.62"/></g></g></svg>