<svg xmlns="http://www.w3.org/2000/svg" xmlns:xlink="http://www.w3.org/1999/xlink" width="110.06" height="136.8" viewBox="0 0 110.06 136.8"><defs><style>.cls-1{fill:#481759;}.cls-1,.cls-2,.cls-3{fill-rule:evenodd;}.cls-2{fill:#b383b9;}.cls-3{fill:url(#GradientFill_2);}</style><linearGradient id="GradientFill_2" x1="15.03" y1="75.59" x2="102.14" y2="61.8" gradientUnits="userSpaceOnUse"><stop offset="0" stop-color="#b383b9"/><stop offset="1" stop-color="#481759"/></linearGradient></defs><g id="Layer_2" data-name="Layer 2"><g id="Free_Fridge_Magnets_Vectors" data-name="Free Fridge Magnets Vectors"><polygon class="cls-1" points="51.94 127.8 55.92 113.36 56.11 112.59 56.23 111.81 56.28 111 56.24 110.19 56.11 109.36 52.98 93.89 52.85 93.06 52.81 92.25 52.85 91.44 52.98 90.66 53.17 89.89 48.95 102.29 48.74 103.12 48.61 103.98 48.57 104.85 48.61 105.73 48.74 106.63 52.16 123.45 52.29 124.35 52.33 125.23 52.29 126.11 52.16 126.96 51.94 127.8"/><polygon class="cls-2" points="109.91 46.42 109.24 38.5 109.02 36.16 108.68 33.77 108.24 31.34 107.73 29.05 107.13 26.84 106.45 24.72 105.69 22.68 104.85 20.72 103.93 18.85 102.94 17.07 101.86 15.37 100.71 13.76 99.49 12.23 98.19 10.79 96.82 9.44 95.37 8.18 93.86 7.01 92.27 5.93 90.61 4.93 88.89 4.03 87.09 3.21 85.23 2.49 83.3 1.86 81.31 1.31 79.25 0.87 77.13 0.51 74.95 0.25 72.71 0.08 70.4 0 68.03 0.02 65.61 0.13 63.13 0.34 60.59 0.64 57.99 1.04 55.34 1.53 14.65 9.79 13.85 9.99 13.08 10.27 12.36 10.63 11.68 11.04 3.86 16.58 4.6 16.13 5.38 15.74 6.21 15.44 7.09 15.21 51.32 6.25 54.2 5.71 57.02 5.27 59.78 4.95 62.48 4.72 65.11 4.6 67.69 4.58 70.19 4.66 72.63 4.85 75 5.13 77.31 5.52 79.54 6.01 81.71 6.6 83.8 7.28 85.83 8.07 87.78 8.96 89.65 9.94 91.45 11.02 93.18 12.2 94.83 13.47 96.4 14.85 97.89 16.31 99.3 17.88 100.63 19.53 101.88 21.28 103.05 23.13 104.13 25.07 105.13 27.1 106.04 29.23 106.87 31.45 107.61 33.76 108.25 36.16 108.81 38.65 109.3 41.29 109.66 43.88 109.91 46.42"/><polygon class="cls-1" points="79.98 55.34 81.71 46.7 81.49 47.57 81.22 48.41 80.91 49.23 80.55 50.02 80.14 50.78 79.7 51.52 79.21 52.23 78.67 52.91 78.09 53.56 77.47 54.19 76.81 54.79 76.11 55.36 75.36 55.9 74.57 56.42 73.74 56.91 72.87 57.36 71.96 57.79 71 58.19 70.01 58.56 68.98 58.9 67.91 59.22 66.8 59.5 65.66 59.75 54.8 61.95 53.98 62.07 53.17 62.11 52.36 62.07 51.58 61.95 50.81 61.75 50.07 61.49 49.37 61.15 48.69 60.75 48.06 60.29 47.48 59.77 46.94 59.19 46.47 58.56 46.05 57.88 45.7 57.16 45.41 56.4 45.21 55.59 41.23 35.96 41.1 35.14 41.06 34.32 41.11 33.52 41.23 32.73 41.42 31.97 41.69 31.23 42.02 30.52 42.43 29.85 37.28 37.02 36.84 37.75 36.48 38.52 36.19 39.33 35.98 40.16 35.84 41.01 35.8 41.89 35.84 42.77 35.98 43.67 40.3 65 40.53 65.88 40.83 66.71 41.22 67.5 41.67 68.23 42.19 68.92 42.77 69.54 43.4 70.11 44.09 70.61 44.82 71.05 45.59 71.41 46.39 71.7 47.22 71.92 48.08 72.05 48.95 72.09 49.84 72.05 50.73 71.92 62.53 69.52 63.77 69.25 64.98 68.94 66.14 68.6 67.27 68.23 68.34 67.83 69.38 67.4 70.37 66.93 71.31 66.43 72.22 65.9 73.07 65.34 73.89 64.75 74.65 64.13 75.37 63.48 76.05 62.8 76.67 62.09 77.26 61.34 77.79 60.57 78.28 59.77 78.72 58.94 79.11 58.09 79.45 57.2 79.74 56.28 79.98 55.34"/><path class="cls-3" d="M.18,25.65l21.1,104.06a8.87,8.87,0,0,0,10.43,6.92l13.53-2.75a8.87,8.87,0,0,0,6.92-10.43l-3.42-16.82A8.86,8.86,0,0,1,55.66,96.2L69,93.49c31.05-6.3,45.57-26.4,39.8-54.84C103.33,11.59,82.37,0,51.32,6.25l-44.23,9A8.87,8.87,0,0,0,.18,25.65Zm42.71,7.59,11.79-2.4c13.53-2.74,22.64,2.1,25.21,14.76,2.6,12.83-3.83,21.18-17.36,23.92l-11.8,2.4A8.88,8.88,0,0,1,40.3,65L36,43.67A8.87,8.87,0,0,1,42.89,33.24Z"/></g></g></svg>