<svg xmlns="http://www.w3.org/2000/svg" width="263.46" height="164.92" viewBox="0 0 263.46 164.92"><defs><style>.cls-1{fill:#676767;}.cls-2{fill:#f9f9fa;stroke:#b4b4b4;stroke-width:0.45px;}.cls-3,.cls-4{fill:#f4eed8;stroke:#1a1a1a;opacity:0.39;isolation:isolate;}.cls-3{stroke-width:0.29px;}.cls-4{stroke-width:0.24px;}.cls-5{fill:#a9892f;}.cls-6{fill:#fea;stroke:#ffe681;stroke-width:0.45px;}.cls-7{fill:#d3ab2a;}.cls-8{fill:#818181;stroke:#676767;}.cls-12,.cls-13,.cls-14,.cls-8{stroke-width:0.07px;}.cls-9{fill:#b4b4b4;}.cls-10{opacity:0;}.cls-11{fill:#fff;}.cls-12{fill:#f15858;stroke:#a91e22;}.cls-13{fill:#ffd42b;stroke:#d3ab2a;}.cls-14{fill:#4fb853;stroke:#0ca94b;}</style></defs><g id="Layer_2" data-name="Layer 2"><g id="Layer_1-2" data-name="Layer 1"><path id="path3697" class="cls-1" d="M11.88,9.34s5.38.07,16.25.07c4.95,0,11.27-.67,17.84-.67,5.35,0,11.26-.47,17.45-.47,5.53,0,11.27.6,17.3.6,5.63,0,11.19.09,17.12.09,5.7,0,12.06-.81,17.93-.81s11.62.79,17.43.79S145.27,8.4,151,8.4s11,.59,16.73.59c5.93,0,10.86-.65,16.49-.65,6,0,13,.88,18.55.88,6.19,0,11.62-.63,17-.63,6.56,0,12.48.24,17.43.24,10.87,0,17.21,0,17.21,0s.1,6.66.1,17.24c0,5-.25,11.41-.25,17.83,0,5.4-.07,10.59-.07,16.63,0,5.6.17,11.52.17,17.39s-.86,10.69-.86,16.42,1.21,12.18,1.21,17.78c0,6-.17,12-.17,17.4,0,6.42-.36,11.6-.36,16.59a101.5,101.5,0,0,0,1.58,18.33s-8.23-.51-19.11-.51c-5,0-10.36.35-16.92.35-5.36,0-11.26-.22-17.45-.22-5.53,0-11.22-.28-17.25-.28-5.63,0-12,.47-17.94.47-5.7,0-11-.18-16.82-.18s-11.5.14-17.31.14-12,.33-17.71.33S104,164,98.34,164c-5.93,0-12.56-.21-18.18-.21-6,0-11.35.22-16.88.22-6.19,0-11.73-.74-17.09-.74-6.56,0-13.16,1.64-18.11,1.64-10.88,0-17.13-.64-17.13-.64s.75-7.05.75-17.63c0-5-.54-11.32-.54-17.74,0-5.4.51-11,.51-17,0-5.6-.38-11.32-.38-17.19s-.14-11.29-.14-17V60.49c0-6,.11-11.76.11-17.16,0-6.43-.67-12.31-.67-17.29,0-10.58.69-17.2.69-17.2L11,8.5"/><path id="rect2854" class="cls-2" d="M11.81,8.43s5.38.06,16.25.06c4.95,0,11.27-.66,17.84-.66,5.35,0,11.26-.47,17.45-.47,5.53,0,11.27.6,17.3.6C86.28,8,91.84,8,97.77,8c5.7,0,12.06-.8,17.93-.8S127.32,8,133.13,8,145.2,7.48,151,7.48s11,.6,16.73.6c5.93,0,10.86-.65,16.49-.65,6,0,13,.88,18.55.88,6.19,0,11.62-.63,17-.63,6.56,0,12.48.24,17.43.24,10.88,0,17.22,0,17.22,0s.09,6.65.09,17.22c0,5-.25,11.4-.25,17.82,0,5.4-.07,10.58-.07,16.62,0,5.59.17,11.51.17,17.37s-.86,10.69-.86,16.41,1.21,12.18,1.21,17.77c0,6-.17,12-.17,17.39,0,6.42-.36,11.59-.36,16.57a100.83,100.83,0,0,0,1.59,18.32s-8.24-.51-19.11-.51c-5,0-10.37.35-16.93.35-5.36,0-11.26-.22-17.45-.22-5.53,0-11.22-.28-17.25-.28-5.63,0-12,.47-17.94.47-5.7,0-11-.18-16.82-.18s-11.5.14-17.31.14-11.95.33-17.71.33S104,163,98.28,163c-5.94,0-12.57-.2-18.19-.2-6,0-11.35.21-16.88.21-6.18,0-11.73-.74-17.09-.74-6.56,0-13.16,1.64-18.11,1.64-10.87,0-17.13-.64-17.13-.64s.75-7,.75-17.62c0-5-.54-11.3-.54-17.72,0-5.4.51-11,.51-17,0-5.59-.38-11.31-.38-17.17s-.14-11.29-.14-17,0-11.6,0-17.19c0-6,.12-11.75.12-17.15,0-6.42-.67-12.3-.67-17.27,0-10.58.69-17.19.69-17.19L11,7.59"/><path id="path4664" class="cls-3" d="M23.31.19.21,30.61,11.3,37.2,33.56,6.64Z"/><path id="path4666" class="cls-4" d="M263.3,22.58,241.23,1.42,234.54,11,256.82,31.4Z"/><g id="path5702"><path class="cls-5" d="M108.23,5.78c3.16.11,6.31.91,9.42.94,3.4.31,6.78-.21,10.18.09,3.43-.11,6.85,0,10.28,0,3.73-.19,7.46,0,11.2-.07,3.28-.17,6.65,0,10,.12,3-.34,5.95-.07,8.9-.12,2.46.17,5.31-2.25,5.42,1.12.1,3.15,0,8,.1,11.09s0,6.3,0,9.38c0,3.31.19,6.6,0,9.9,0,3.82,0,7.61.12,11.44-.09,3.46-.1,7,0,10.41,1.21,4.46-4,2.9-6.72,3.08-3.39,0-6.63.07-10,0-3.22.15-6.38-.13-9.61.12-3.29-.23-6.59-.12-9.87,0-3.34-.19-6.78.2-10.11-.22-2.62.47-5.37,0-8.06.27-2.69-.45-5.38.12-8.09-.16-1.85.16-4.18.27-3.06-2.29,0-3.38,0-6.74.1-10.09a79.09,79.09,0,0,1,.09-9.61c-.43-3.3-.11-6.69-.13-10-.2-3.27-.15-6.53-.06-9.83,0-3.14,0-6.12,0-9.23C108.08,10.27,108.28,7.49,108.23,5.78Z"/></g><path id="rect3544" class="cls-6" d="M108.67,5.54c3.12.1,6.24-.08,9.32,0,3.36.31,6.71-.22,10.08.09,3.4-.12,6.78,0,10.17,0,3.7-.18,7.39,0,11.09-.07,3.25-.16,6.59,0,9.86.12,2.94-.33,5.89-.07,8.82-.12,1.21.09,4-.25,5.17-.06.23,3.68.25,8.39.29,12.44-.06,3.18,0,6.39,0,9.51,0,3.36.19,6.69,0,10,0,3.87,0,7.71.12,11.59-.15,4.53,0,9.06,0,13.58-1.48.19-5.26,0-6.6.1-3.35,0-6.57.08-9.9,0-3.19.16-6.32-.13-9.52.12-3.26-.23-6.53-.12-9.77,0-3.31-.19-6.71.2-10-.22-2.59.48-5.32,0-8,.28-2.66-.47-5.32.11-8-.17-1.83.17-4.14.27-3-2.32,0-3.43,0-6.84.1-10.23a83.4,83.4,0,0,1,.09-9.74c-.43-3.35-.11-6.79-.13-10.17-.2-3.32-.15-6.62-.06-10,0-3.18,0-6.2,0-9.36C108.51,9.09,108.71,7.26,108.67,5.54Z"/><g id="path5482"><path class="cls-7" d="M125.14,7.63,125.4,10v0L131,35.71v0l0,0s.15.29.35.63a3.71,3.71,0,0,0,.7,1,3.57,3.57,0,0,0,1.43.69,4.08,4.08,0,0,0,1.68.12,3.64,3.64,0,0,0,1.7-.79,3.38,3.38,0,0,0,1-1.6,5.76,5.76,0,0,0,0-1.9c-.08-.64-.18-1.15-.18-1.15h0l-3.91-19.09-.68-.15L137,32.87s.1.51.17,1.11a6,6,0,0,1,0,1.65,3.11,3.11,0,0,1-.78,1.25,3.35,3.35,0,0,1-1.38.63,3.89,3.89,0,0,1-1.38-.11,3.5,3.5,0,0,1-1.15-.54,3.94,3.94,0,0,1-.55-.79c-.18-.31-.31-.57-.31-.58h0L126.09,10v0h0l-.26-2.38Z"/></g><path id="path3469" class="cls-8" d="M129.55,4.43a4.53,4.53,0,0,0-1.14-.16,3.13,3.13,0,0,0-2.51,1.38,3.64,3.64,0,0,0-.49,2.77c.53,2.91,1.16,5.8,1.73,8.71,1.06,5.08,2,10.19,3.16,15.24.28,1.07.41,2.2.79,3.23a3.24,3.24,0,0,0,2.13,1.87,3.49,3.49,0,0,0,3.91-.74,4.09,4.09,0,0,0,.75-3.79c-1.33-6.58-2.85-13.16-4.06-19.73a.82.82,0,0,0-.65.11s.06,0,.06,0l-.17.05.38,1.85.35,1.73c-.16-.9-.52-2.4-.67-3.29,1.24,6.38,2.78,12.65,4,19,.15,1,.48,2.15-.1,3.1a2.48,2.48,0,0,1-1.24,1.11,3.17,3.17,0,0,1-2,.1,2.76,2.76,0,0,1-1.86-1.36,33,33,0,0,1-1.13-4.29c-1.13-5.34-2.29-10.68-3.38-16-.42-2.36-1-4.69-1.27-7.08a2.89,2.89,0,0,1,.55-2.1A2.66,2.66,0,0,1,128,5.16a2.56,2.56,0,0,1,1.37,0,3.49,3.49,0,0,1,.34.15H131A2.62,2.62,0,0,0,129.55,4.43Z"/><g id="path3471"><path class="cls-9" d="M129.49,4.58a3.19,3.19,0,0,0-.93-.16,3.09,3.09,0,0,0-1.4.42,3.55,3.55,0,0,0-1.16,1A2.94,2.94,0,0,0,125.59,7a8,8,0,0,0,0,1.52c0,.53.11,1,.11,1l4.69,22.57h0l.93,3.64v0s.18.24.41.52a3.66,3.66,0,0,0,.73.74,3.92,3.92,0,0,0,1.42.45,4.44,4.44,0,0,0,1.41,0,3.12,3.12,0,0,0,1.08-.46,3.27,3.27,0,0,0,.85-.93,4.26,4.26,0,0,0,.41-1.11,3.35,3.35,0,0,0,.14-.79,9.47,9.47,0,0,0-.2-1.53c-.11-.52-.22-.94-.22-.94h0l-3.65-18.21-.21,0,3.65,18.21v0s.1.42.21.93a8.47,8.47,0,0,1,.2,1.47,3.29,3.29,0,0,1-.13.74,4.73,4.73,0,0,1-.38,1.06,3.32,3.32,0,0,1-.78.85,3,3,0,0,1-1,.42,4.25,4.25,0,0,1-1.33,0,4.2,4.2,0,0,1-1.34-.42,4.45,4.45,0,0,1-.68-.69l-.39-.51L130.66,32,126,9.45s-.07-.42-.11-.94a8.42,8.42,0,0,1,0-1.47A2.84,2.84,0,0,1,126.19,6,3.46,3.46,0,0,1,127.26,5a3.12,3.12,0,0,1,1.3-.4,3.39,3.39,0,0,1,1.66.53l.19.17h.31a2.08,2.08,0,0,0-.37-.36A3.26,3.26,0,0,0,129.49,4.58Z"/></g><g id="g3443"><g class="cls-10"><path class="cls-11" d="M129.65,4.59a4.87,4.87,0,0,0-1.23-.17A3,3,0,0,0,126,5.74a3.73,3.73,0,0,0-.49,2.77c.53,2.91,1.17,5.81,1.74,8.71,1,5.08,2,10.19,3.15,15.24.29,1.07.42,2.19.8,3.23a3.27,3.27,0,0,0,2.13,1.87,3.51,3.51,0,0,0,3.91-.73A4.1,4.1,0,0,0,138,33c-1.33-6.59-2.86-13.17-4.06-19.74a.83.83,0,0,0-.65.11c-.32-1.48-.64-3-1-4.44C131.74,6.76,131.53,5.11,129.65,4.59Zm-.25.64c1.33.36,1.67,1.64,1.91,2.95,1.49,6.87,2.86,13.77,4.27,20.65a2.22,2.22,0,0,1-1.79,2.56,1.54,1.54,0,0,1-1.76-1,40.94,40.94,0,0,1-1.46-5.53c-.71-3.34-1.45-6.67-2.13-10a.74.74,0,0,0-.62.06.82.82,0,0,0,0,.46c.84,3.92,1.62,7.85,2.5,11.76a21.16,21.16,0,0,0,1.29,4,2.47,2.47,0,0,0,3.14.7,2.75,2.75,0,0,0,1.46-2.29,25.15,25.15,0,0,0-.52-3.43c-.73-4.15-1.57-8.28-2.43-12.41,1.38,6.31,2.69,12.64,3.88,19,.15,1,.5,2.16-.1,3.09a2.78,2.78,0,0,1-1.24,1.11,3.47,3.47,0,0,1-2,.11,2.59,2.59,0,0,1-1.84-1.38,25.83,25.83,0,0,1-1.14-4.27c-1.13-5.35-2.28-10.69-3.37-16-.43-2.59-1.18-5.18-1.35-7.75A2.3,2.3,0,0,1,129,5.16,3,3,0,0,1,129.4,5.23Z"/></g><path id="path3476" class="cls-11" d="M125.5,7.7c0-.53.15.48.17.68.4,2.47.92,4.92,1.36,7.37,1,5,2.1,10.06,3.21,15.07.37,1.52.6,3.07,1.09,4.56a3.58,3.58,0,0,0,5.47,1.46,6.37,6.37,0,0,0,.95-1.06,3.32,3.32,0,0,1-1.84,1.69,3.8,3.8,0,0,1-3.28-.4,4.52,4.52,0,0,1-1.79-3.15c-.4-1.65-.72-3.32-1.1-5q-1.87-8.55-3.57-17.13C125.93,10.44,125.68,9.07,125.5,7.7Z"/><path id="path3478" class="cls-11" d="M125.64,6.49c-.16,1.57.73,3.74,1,5.27.94,4.66,1.8,9.35,2.81,14,.74,3.21,1.34,6.45,2.19,9.63a3.17,3.17,0,0,0,4.75,1.42,2.8,2.8,0,0,0,1-1.58,2.61,2.61,0,0,1-2.79,2.28,3.35,3.35,0,0,1-3.3-2.71c-1.09-4.89-2.18-9.78-3.22-14.68-.79-3.89-1.56-7.78-2.22-11.68C125.86,8,125.36,6.8,125.64,6.49Z"/><path id="path3480" class="cls-11" d="M129.44,4.69a3,3,0,0,0-3.72,1.78c0,.08,0,.14,0,.16a2.4,2.4,0,0,1,.64-1,3.09,3.09,0,0,1,3.9-.41,1.56,1.56,0,0,1,.25.17h.16A2.89,2.89,0,0,0,129.44,4.69Z"/><path id="path3482" class="cls-11" d="M126,7.11c0-.15.05-.31.09-.47a4,4,0,0,1,.21-.47,1.94,1.94,0,0,1,.21-.34c.09-.11.17-.23.27-.34s.21-.2.33-.29a1,1,0,0,1,.27-.14,2.8,2.8,0,0,1,.43-.19,2.7,2.7,0,0,1,.39-.08,1.38,1.38,0,0,1,.35,0c.15,0,.3,0,.45,0l.25,0c0,.08-.06,0-.1,0s-.35,0-.52,0a2,2,0,0,0-.49,0,2.93,2.93,0,0,0-.51.13c-.11.06-.23.09-.34.16a4.12,4.12,0,0,0-.4.33,3.31,3.31,0,0,0-.3.34,3.22,3.22,0,0,0-.25.39c-.07.14-.14.29-.2.44S126,7,126,7.12Z"/><path id="path3484" class="cls-11" d="M129.33,4.85l.08.08a3,3,0,0,1,.86.42h.11A2.6,2.6,0,0,0,129.33,4.85Z"/><path id="path3486" class="cls-11" d="M125.72,6.75c0,.07,0,.12,0,.2a1.35,1.35,0,0,0,0,.28s0,.08,0,.13l0,.13s0,0,0,0,0-.09,0-.13a1.92,1.92,0,0,1,0-.24l0-.14c0-.07,0-.14.06-.21a.33.33,0,0,1,.06-.1s0,0,.07.06S125.72,6.73,125.72,6.75Z"/><path id="path3488" class="cls-11" d="M133.39,13.27c.16,0,.15.23.19.36.32,1.62.64,3.25,1,4.87.19.88.35,1.77.56,2.64l.09.37c-.1,0-.07-.19-.12-.27-.39-1.71-.72-3.44-1.1-5.15-.2-.88-.38-1.77-.55-2.66,0-.22-.16-.12-.09.07.08.5.22,1,.31,1.49q.78,3.69,1.55,7.38c-.08,0-.08-.2-.11-.27-.59-2.89-1.22-5.77-1.8-8.66C133.29,13.37,133.23,13.31,133.39,13.27Z"/><path id="path3490" class="cls-11" d="M133.11,13.33c0-.08.13,0,.12.06q.51,2.58,1,5.17c-.08,0-.05-.12-.07-.17-.34-1.68-.67-3.38-1-5.05-.11,0,0,.12,0,.16.22,1.09.45,2.17.67,3.26-.06,0,0-.12-.06-.18-.23-1.07-.45-2.14-.67-3.21Z"/><path id="path3492" class="cls-11" d="M133.58,13.25s.07,0,.1,0h.09l.08,0h0l.35,2,.25,1.32,1.9,9,.53,2.59,1.05,5.55.06.49V35l0,.35-.08.07,0-.35v-.69l-.09-.84-.23-1.28-.35-1.79L137,29.26l-1.39-6.85-.34-1.71-.74-3.3.11,0,0-.09-.11,0,0,0h.15l0-.08h-.11l-.55-2.82-.17-1.13-.15,0Z"/><path id="path3494" class="cls-11" d="M137.51,35a1.78,1.78,0,0,0,.1-.5,3.53,3.53,0,0,0,0-.65c-.24-1.15-.4-2.31-.63-3.46-.1-.56-.21-1.12-.31-1.68-.12,0-.08.05-.07.13.2,1,.38,2,.57,2.94.15.75.26,1.5.37,2.25C137.53,34.36,137.51,34.68,137.51,35Z"/><path id="path3496" class="cls-11" d="M137.66,34.72s0-.08,0-.12a0,0,0,0,1,.07,0,.13.13,0,0,1,.09.07s0,.06,0,.09,0,.06,0,.09,0,.06,0,.09,0,.08,0,.11a.57.57,0,0,0,0,.18.25.25,0,0,1,0,.12s0,.09-.05.12,0,0,0,0a.53.53,0,0,0,0-.12s0-.07-.06-.1,0-.06,0-.08,0-.06,0-.09,0-.1,0-.15a.36.36,0,0,0,0-.11A0,0,0,0,0,137.66,34.72Z"/><path id="path3498" class="cls-11" d="M135.37,22.34a2.29,2.29,0,0,1,.07.36,1.4,1.4,0,0,0,.06.28c0,.09.06.18.08.28s0,.08,0,.1-.08-.06-.1-.11a1.23,1.23,0,0,1,0-.19,1,1,0,0,0-.06-.25.88.88,0,0,1-.06-.27.38.38,0,0,1,0-.15S135.36,22.36,135.37,22.34Z"/><path id="path3500" class="cls-11" d="M135.61,23.52c0,.05.16.44,0,.23C135.58,23.73,135.53,23.47,135.61,23.52Z"/><path id="path3502" class="cls-11" d="M135.72,24c0,.2.08.39.11.59s.09.36.13.54.11.44.14.67.1.27,0,.32c-.14-.14-.06-.39-.15-.56a6.31,6.31,0,0,1-.18-.72,4.46,4.46,0,0,1-.13-.73S135.67,23.91,135.72,24Z"/><path id="path3504" class="cls-11" d="M136.22,26.3a1.64,1.64,0,0,0,.08.41,1,1,0,0,1,0,.52c-.12-.11-.05-.32-.11-.47a1.13,1.13,0,0,1,0-.48s.08,0,0,0"/><path id="path3506" class="cls-11" d="M136.41,27.43c0,.15.08.38.11.56s.1.37.12.56,0,.18-.06,0a4.9,4.9,0,0,0-.13-.55,1.09,1.09,0,0,1-.08-.59h0Z"/><path id="path3509" class="cls-11" d="M135.23,21.57c0,.06.05.11,0,.17a.22.22,0,0,1,0,.08s0,0-.07,0,0-.06,0-.09a.29.29,0,0,1,0-.16s.06,0,.09,0"/><path id="path3511" class="cls-11" d="M135.28,21.93s0,.05,0,.07a.19.19,0,0,1,0,.1s-.07,0-.07,0l0-.11S135.25,21.9,135.28,21.93Z"/><path id="path3513" class="cls-11" d="M135.33,22.19s0,.06,0,.09,0,.08,0,.07l-.06-.06a.25.25,0,0,1,0-.12S135.32,22.19,135.33,22.19Z"/></g><path id="path5122" class="cls-12" d="M10.28,112.14a4.92,4.92,0,0,0-.35,1.1,3.11,3.11,0,0,0,.91,2.71,3.69,3.69,0,0,0,2.64,1c3,0,5.92-.12,8.88-.16,5.18-.14,10.38-.14,15.56-.4,1.1-.09,2.23,0,3.32-.21a3.25,3.25,0,0,0,2.22-1.76,3.51,3.51,0,0,0,0-4,4.09,4.09,0,0,0-3.6-1.41c-6.72.14-13.46.47-20.15.49a.88.88,0,0,0,0,.66s0-.07,0-.07l0,.17,1.89,0,1.76,0c-.91,0-2.45.09-3.36.07,6.51-.09,12.95-.49,19.4-.53,1,0,2.2-.09,3,.65a2.45,2.45,0,0,1,.87,1.42,3.09,3.09,0,0,1-.26,2,2.74,2.74,0,0,1-1.67,1.59,32.52,32.52,0,0,1-4.42.35c-5.46.17-10.92.35-16.38.48-2.4,0-4.8.15-7.2,0a2.86,2.86,0,0,1-2-.92,2.6,2.6,0,0,1-.65-1.44A2.66,2.66,0,0,1,11,112.5c.07-.11.35-.44.42-.54v-1.07A2.61,2.61,0,0,0,10.28,112.14Z"/><path id="path5359" class="cls-13" d="M10.05,99.75a4.92,4.92,0,0,0-.35,1.1,3.11,3.11,0,0,0,.9,2.71,3.73,3.73,0,0,0,2.65,1c3,0,5.91-.12,8.87-.16,5.19-.14,10.38-.14,15.57-.4,1.1-.09,2.23,0,3.32-.2A3.28,3.28,0,0,0,43.23,102a3.52,3.52,0,0,0,0-4,4.1,4.1,0,0,0-3.59-1.41c-6.72.14-13.46.47-20.15.49a.91.91,0,0,0,0,.67s0-.08,0-.07l0,.17,1.88,0,1.77,0c-.91,0-2.45.09-3.36.07,6.51-.08,13-.49,19.4-.53,1,0,2.2-.09,3,.66A2.48,2.48,0,0,1,43,99.41a3.07,3.07,0,0,1-.26,2A2.74,2.74,0,0,1,41.1,103a34.36,34.36,0,0,1-4.42.36c-5.46.16-10.92.35-16.38.47-2.4,0-4.8.16-7.2,0a2.81,2.81,0,0,1-2-.92,2.4,2.4,0,0,1-.38-2.78c.06-.12.35-.45.42-.55l0-1.06A2.62,2.62,0,0,0,10.05,99.75Z"/><path id="path5361" class="cls-14" d="M10,121.66a4.43,4.43,0,0,0-.36,1.1,3.11,3.11,0,0,0,.91,2.71,3.69,3.69,0,0,0,2.64,1c3,0,5.92-.12,8.87-.16,5.19-.14,10.38-.14,15.57-.4,1.1-.09,2.23,0,3.32-.2a3.26,3.26,0,0,0,2.22-1.76,3.51,3.51,0,0,0,0-4,4.06,4.06,0,0,0-3.59-1.41c-6.72.14-13.46.47-20.15.49a.91.91,0,0,0,0,.67s0-.08,0-.08l0,.18,1.88,0,1.77,0c-.91,0-2.45.09-3.36.07,6.51-.08,13-.49,19.41-.53,1,0,2.19-.09,3,.65a2.48,2.48,0,0,1,.87,1.42,3.09,3.09,0,0,1-.26,2A2.69,2.69,0,0,1,41,124.91a34.21,34.21,0,0,1-4.42.36c-5.46.16-10.92.35-16.38.47-2.4,0-4.8.16-7.2,0a2.81,2.81,0,0,1-2-.92,2.57,2.57,0,0,1-.65-1.44,2.68,2.68,0,0,1,.27-1.35c.07-.11.35-.44.42-.54l0-1.07A2.62,2.62,0,0,0,10,121.66Z"/></g></g></svg>