<svg xmlns="http://www.w3.org/2000/svg" width="151.03" height="146.34" viewBox="0 0 151.03 146.34"><defs><style>.cls-1,.cls-5{fill:#fff;}.cls-1{stroke:#cdcccc;stroke-width:0.75px;}.cls-2{fill:#818181;stroke:#676767;}.cls-2,.cls-6{stroke-width:0.5px;}.cls-3{fill:#b4b4b4;}.cls-4{opacity:0;}.cls-10,.cls-11,.cls-6,.cls-7,.cls-9{fill:#355dab;}.cls-10,.cls-11,.cls-6,.cls-8,.cls-9{stroke:#282a74;}.cls-8{fill:none;stroke-width:2px;}.cls-9{stroke-width:0.05px;}.cls-10{stroke-width:0.01px;}.cls-11{stroke-width:0.07px;}.cls-12,.cls-13,.cls-14{fill:#f4eed8;}.cls-12,.cls-14{stroke:#1a1a1a;opacity:0.25;isolation:isolate;}.cls-12{stroke-width:0.29px;}.cls-13{stroke:#d6d2c6;stroke-width:0.25px;}.cls-14{stroke-width:0.27px;}</style></defs><g id="Layer_2" data-name="Layer 2"><g id="Layer_1-2" data-name="Layer 1"><path id="rect5396" class="cls-1" d="M.69,13.48c6.66-.87,13.37,1.13,20-.28,7.71.69,15.55.3,23.27.4,8.71-.26,17.47-.42,26.14-.15,9.75.26,19.48-.44,29.13.29,3.57-.19,7.17-.42,10.75-.38l10.76.08c2.34-.24,5.61.43,7.37.47a186.93,186.93,0,0,1,1.17,25.47c-.27,7.64-.76,15.25,0,22.86-1.15,9.79.28,19.64-.52,29.44.92,6.73-.56,13.64.26,20.44.74,7-.44,13.86-.23,20.84.07,2.37.21,9.56-.12,12.57-9,.77-19.59.16-29.11,0-8,.62-16-.93-24,.39-9-.46-18.1-.29-27.14-.38-8.86.33-17.71-.39-26.55-.09-7.17.1-14.3.25-21.3-.14-.08-4.77.69-10.36.22-12.7.08-9.09-.69-18.18,0-27.25C.54,98.66.26,91.8,1,85.09c-.21-8.21-1-16.33.11-24.47A100.74,100.74,0,0,1,.9,44.06C.1,36.33.85,28.59.37,20.88.41,18.41.7,16,.69,13.48Z"/><g id="g3515"><path id="path2396" class="cls-2" d="M84.44,45.4a4.71,4.71,0,0,0-1.15.16,3.14,3.14,0,0,0-2.06,2,3.69,3.69,0,0,0,.26,2.8c1.28,2.66,2.66,5.29,4,7.94,2.37,4.62,4.62,9.3,7.09,13.86.56,1,1,2,1.62,2.9a3.28,3.28,0,0,0,2.55,1.24,3.49,3.49,0,0,0,3.58-1.75,4.09,4.09,0,0,0-.29-3.85c-3-6-6.24-11.93-9.15-17.95a.84.84,0,0,0-.59.28q-1.05-2-2.11-4C87.07,47,86.39,45.41,84.44,45.4Zm0,.8a2.59,2.59,0,0,1,2.08,1.25C88.82,52,93.25,60.66,96.63,67.26a2.23,2.23,0,0,1-1.06,2.95,1.53,1.53,0,0,1-1.95-.5,41.31,41.31,0,0,1-2.88-4.94c-1.57-3-3.16-6-4.71-9.09-.45,0-.82.25-.43.66,1.84,3.55,3.77,7.06,5.65,10.59a20.26,20.26,0,0,0,2.18,3.61,2.46,2.46,0,0,0,3.21-.14,2.76,2.76,0,0,0,.81-2.6A24.94,24.94,0,0,0,96,64.63c-1.94-3.75-3.89-7.53-5.63-11.32,2.89,5.83,5.94,11.47,8.77,17.27.42,1,1,2,.73,3A2.44,2.44,0,0,1,99,75a3,3,0,0,1-1.91.63,2.73,2.73,0,0,1-2.16-.82A34.62,34.62,0,0,1,92.69,71c-2.5-4.86-5-9.7-7.5-14.57-1-2.17-2.22-4.27-3.11-6.51a2.83,2.83,0,0,1,0-2.16,2.51,2.51,0,0,1,1-1.21A2.44,2.44,0,0,1,84.41,46.2Z"/><g id="path3189"><path class="cls-3" d="M84.42,45.56a3.57,3.57,0,0,0-1,.09,3.35,3.35,0,0,0-1.24.78,3.75,3.75,0,0,0-.84,1.28,3.17,3.17,0,0,0-.09,1.22,8.09,8.09,0,0,0,.44,1.46c.19.49.36.9.36.9h0l10.5,20.52h0l1.86,3.26v0h0l.53.4a3.56,3.56,0,0,0,.91.52,4.15,4.15,0,0,0,1.49.06,4.62,4.62,0,0,0,1.35-.34,3.05,3.05,0,0,0,.94-.73,3.59,3.59,0,0,0,.57-1.12,4.31,4.31,0,0,0,.09-1.18,3.1,3.1,0,0,0-.07-.8,8.46,8.46,0,0,0-.61-1.41c-.23-.47-.45-.86-.45-.86h0L90.9,53.06l-.2.1,8.35,16.6h0s.22.37.45.84a8.54,8.54,0,0,1,.59,1.37,3,3,0,0,1,.07.74,5.09,5.09,0,0,1-.09,1.12,3.25,3.25,0,0,1-.53,1,2.81,2.81,0,0,1-.86.67,4.46,4.46,0,0,1-1.28.33,4.35,4.35,0,0,1-1.4-.05,4.66,4.66,0,0,1-.84-.49c-.28-.2-.5-.38-.5-.38L92.81,71.7,82.31,51.19h0s-.18-.39-.36-.88a7.62,7.62,0,0,1-.42-1.41,3,3,0,0,1,.07-1.12,3.44,3.44,0,0,1,.79-1.19,3.14,3.14,0,0,1,1.14-.72,3.42,3.42,0,0,1,1.74.07,3.31,3.31,0,0,1,1.19,1A12.19,12.19,0,0,1,87.63,49c.35.77.61,1.43.61,1.43h0l8,15.54h0s.14.23.29.52a4.4,4.4,0,0,1,.38.83A4,4,0,0,1,97,68.58a3.66,3.66,0,0,1-.15,1,2.12,2.12,0,0,1-.47.76,1.92,1.92,0,0,1-.81.36,2.92,2.92,0,0,1-1.47-.11,2.47,2.47,0,0,1-.65-.61,16.37,16.37,0,0,1-1.07-1.73c-.34-.62-.6-1.15-.6-1.15L85.92,56l-.2.11,5.87,11.1s.26.53.61,1.16a15.26,15.26,0,0,0,1.08,1.76,2.43,2.43,0,0,0,.74.68,3.15,3.15,0,0,0,1.61.13,1.79,1.79,0,0,0,1.44-1.27,3.69,3.69,0,0,0,.17-1.08,4.57,4.57,0,0,0-.1-1.27,5.08,5.08,0,0,0-.4-.88c-.16-.29-.29-.52-.3-.52h0l-8-15.53h0s-.26-.66-.62-1.44a12.27,12.27,0,0,0-1.2-2.17,3.45,3.45,0,0,0-1.28-1A3.34,3.34,0,0,0,84.42,45.56Z"/></g><g id="g3350"><g class="cls-4"><path class="cls-5" d="M84.57,45.53a5.4,5.4,0,0,0-1.24.16,3,3,0,0,0-2,1.93,3.69,3.69,0,0,0,.26,2.8c1.28,2.66,2.66,5.29,4,7.94,2.36,4.61,4.61,9.29,7.08,13.86.56,1,1,2,1.62,2.9a3.28,3.28,0,0,0,2.55,1.24,3.51,3.51,0,0,0,3.58-1.75,4.07,4.07,0,0,0-.29-3.85c-3-6-6.24-11.94-9.15-18a.88.88,0,0,0-.59.28q-1.05-2-2.11-4C87.16,47.07,86.52,45.54,84.57,45.53Zm-.07.69c1.38,0,2,1.13,2.62,2.33,3.25,6.23,6.41,12.52,9.6,18.78a2.24,2.24,0,0,1-1.06,3,1.52,1.52,0,0,1-2-.51,40.54,40.54,0,0,1-2.88-4.94c-1.57-3-3.16-6-4.71-9.08a.74.74,0,0,0-.58.22.86.86,0,0,0,.15.44c1.84,3.55,3.64,7.13,5.52,10.67a20.24,20.24,0,0,0,2.31,3.53,2.45,2.45,0,0,0,3.21-.15,2.72,2.72,0,0,0,.8-2.6,24.73,24.73,0,0,0-1.41-3.17c-1.8-3.81-3.7-7.56-5.63-11.31Q95,61.95,99.26,70.65c.42.94,1.07,1.95.73,3a2.72,2.72,0,0,1-.91,1.4,3.47,3.47,0,0,1-1.93.65A2.64,2.64,0,0,1,95,74.87,26,26,0,0,1,92.78,71c-2.51-4.85-5-9.69-7.5-14.57-1.11-2.38-2.51-4.67-3.36-7.11a2.31,2.31,0,0,1,2.13-3.1A2.42,2.42,0,0,1,84.5,46.22Z"/></g><path id="path3153" class="cls-5" d="M81.39,49.63c-.09-.53.28.42.35.61,1,2.28,2.19,4.5,3.27,6.75,2.3,4.59,4.69,9.14,7.08,13.68.76,1.36,1.4,2.8,2.26,4.1a3.58,3.58,0,0,0,5.66,0,6.05,6.05,0,0,0,.64-1.27,3.28,3.28,0,0,1-1.32,2.11,3.8,3.8,0,0,1-3.27.49,4.52,4.52,0,0,1-2.57-2.57c-.82-1.48-1.57-3-2.38-4.5q-4.06-7.75-8-15.58C82.53,52.16,81.93,50.91,81.39,49.63Z"/><path id="path3155" class="cls-5" d="M81.73,49a17.64,17.64,0,0,0,1.82,4.3C85.7,57.5,87.76,61.79,90,66c1.56,2.89,3,5.86,4.67,8.69a3.17,3.17,0,0,0,5,.12,2.84,2.84,0,0,0,.57-1.8A2.59,2.59,0,0,1,98.09,76a3.36,3.36,0,0,1-3.9-1.73q-3.52-6.64-7-13.31c-1.8-3.53-3.57-7.08-5.25-10.67C81.82,49.85,81.54,49.33,81.73,49Z"/><path id="path2385" class="cls-5" d="M81.28,48.38a3.16,3.16,0,0,1,6-.84c2.13,4.1,4.31,8.18,6.34,12.34,1.19,2.43,2.47,4.81,3.56,7.29a2.42,2.42,0,0,1,.09,2.22A2.31,2.31,0,0,1,95,70.87a2.36,2.36,0,0,1-2.1-1.34c-2.33-3.75-4.29-7.7-6.32-11.61-.33-.67-.71-1.32-1-2,.26-.12.2.44.42.67,1.27,2.61,2.68,5.16,4,7.75,1,1.84,2,3.68,3.17,5.45a2,2,0,0,0,1.82,1,2.42,2.42,0,0,0,2.29-1.65,1.67,1.67,0,0,0,0-1.55c-.75-1.8-1.69-3.51-2.52-5.28C92.24,57.24,89.62,52.23,87,47.25a2.57,2.57,0,0,0-1.6-1.32,3.09,3.09,0,0,0-3.66,1.43,2.21,2.21,0,0,0-.34,1.17S81.3,48.47,81.28,48.38Z"/><path id="path3160" class="cls-5" d="M81.68,48.94c0-.16,0-.32,0-.48a4.46,4.46,0,0,1,.07-.51,1.68,1.68,0,0,1,.12-.38c0-.13.1-.27.16-.4a4,4,0,0,1,.25-.37c.07-.07.12-.16.21-.2a3.47,3.47,0,0,1,.37-.3,1.73,1.73,0,0,1,.36-.18,1.18,1.18,0,0,1,.33-.12c.14,0,.29-.08.44-.1l.25,0c0,.07,0,0-.09.06a4.54,4.54,0,0,0-.51.09,2.32,2.32,0,0,0-.46.18,2.4,2.4,0,0,0-.46.27,3.11,3.11,0,0,0-.28.23,4.15,4.15,0,0,0-.3.43,3.11,3.11,0,0,0-.2.41,3.19,3.19,0,0,0-.13.44,4,4,0,0,0-.08.48c0,.16,0,.31,0,.47Z"/><path id="path3163" class="cls-5" d="M84.34,45.87a2.71,2.71,0,0,1,2.54,1.49C89.69,52.6,92.34,57.92,95,63.25c.63,1.34,1.37,2.63,1.9,4,.08.37.33.78.19,1.15a7.89,7.89,0,0,0-.55-1.77c-1-2.25-2.18-4.45-3.27-6.67-1.85-3.75-3.77-7.46-5.68-11.18a8.13,8.13,0,0,0-1.44-2.29,2.79,2.79,0,0,0-1.67-.58Z"/><path id="path3166" class="cls-5" d="M97.17,67.61c0,.13.09.24.11.37a2.92,2.92,0,0,1,0,.51,2.42,2.42,0,0,1-.06.46,2.59,2.59,0,0,1-.11.37c-.06.14-.15.26-.22.39a4.19,4.19,0,0,0,.2-.49,1.71,1.71,0,0,0,.09-.45,5,5,0,0,0,0-.55C97.22,68,97.18,67.82,97.17,67.61Z"/><path id="path3169" class="cls-5" d="M97.06,68.67a1.84,1.84,0,0,1-.79,1.64,2.15,2.15,0,0,1-2.09.23,2.76,2.76,0,0,1-1.12-1.22c-1.21-2-2.45-4.08-3.49-6.22-.38-.74-.72-1.5-1.14-2.21a49.84,49.84,0,0,1-2.36-4.6c0-.13-.28-.54,0-.47.53,1.29,1.2,2.53,1.85,3.78.07.24.3.18.36.46a5.6,5.6,0,0,1,.31.79c.62,1.11,1.15,2.26,1.74,3.39.92,1.65,1.84,3.31,2.82,4.94.36.58.77,1.25,1.49,1.4a2.1,2.1,0,0,0,1.94-.69A3.18,3.18,0,0,0,97,68.74.25.25,0,0,0,97.06,68.67Z"/><path id="path3172" class="cls-5" d="M81.35,48.66a.63.63,0,0,0,0,.19,1.43,1.43,0,0,0,0,.29.57.57,0,0,1,0,.13s0,.09,0,.13,0,0-.06,0,0-.09,0-.13a1.55,1.55,0,0,1-.06-.23.57.57,0,0,1,0-.13,1.77,1.77,0,0,1,0-.23.45.45,0,0,1,0-.11s.06,0,.09,0S81.35,48.64,81.35,48.66Z"/><path id="path3175" class="cls-5" d="M90.48,52.9c.16,0,.2.19.27.3.75,1.49,1.48,3,2.24,4.45.42.79.81,1.6,1.24,2.39l.19.33c-.09.07-.12-.16-.18-.22C93.4,58.6,92.63,57,91.8,55.47c-.42-.8-.83-1.61-1.23-2.42-.09-.21-.19-.07-.07.09.21.47.47.9.7,1.36,1.14,2.23,2.3,4.46,3.45,6.7-.08,0-.13-.17-.18-.23-1.34-2.63-2.71-5.24-4-7.87C90.41,53,90.33,53,90.48,52.9Z"/><path id="path3178" class="cls-5" d="M90.22,53c0-.09.12,0,.13,0q1.19,2.36,2.38,4.71c-.08,0-.08-.1-.12-.14-.77-1.52-1.54-3.08-2.31-4.6-.11,0,0,.12,0,.17.5,1,1,2,1.5,3-.06,0-.06-.11-.1-.16l-1.5-2.92Z"/><path id="path3181" class="cls-5" d="M90.66,52.84a.19.19,0,0,1,.09-.05l.08,0h.08l.88,1.86.59,1.21L96.61,64l1.2,2.36,2.48,5.07.19.46.19.72,0,.35-.06.09-.07-.35-.19-.66-.32-.79-.56-1.17-.81-1.64-.54-1.1L95,61.14l-.78-1.55-1.59-3,.11-.05,0-.08-.11.07,0,0,.14-.05,0-.06-.11,0-1.27-2.58-.47-1-.14.06Z"/><path id="path3183" class="cls-5" d="M100.21,72.78a1.75,1.75,0,0,0,0-.51,4.91,4.91,0,0,0-.17-.63c-.54-1-1-2.12-1.53-3.17-.25-.51-.5-1-.74-1.53-.13,0-.07.07,0,.14.45.89.88,1.79,1.32,2.69.34.68.65,1.37,1,2.06C100.06,72.15,100.13,72.46,100.21,72.78Z"/><path id="path3186" class="cls-5" d="M100.28,72.46s0-.08,0-.12a0,0,0,0,1,0,0,.15.15,0,0,1,.1,0s0,.07,0,.1a.12.12,0,0,0,0,.1s0,.06,0,.09a.19.19,0,0,1,0,.1.55.55,0,0,0,0,.18.49.49,0,0,1,0,.12.51.51,0,0,1,0,.13s0,0,0,0a.48.48,0,0,0,0-.12s0-.06-.08-.09,0-.05,0-.07,0-.06,0-.09,0-.1,0-.15a.5.5,0,0,0,0-.12Z"/><path id="path3392" class="cls-5" d="M94.79,61.13a2,2,0,0,1,.16.33c0,.09.09.16.13.25s.11.16.16.25.06.07,0,.09-.09,0-.12-.08,0-.11-.07-.17a1.34,1.34,0,0,0-.13-.23,1.41,1.41,0,0,1-.13-.24.88.88,0,0,1,0-.15S94.78,61.15,94.79,61.13Z"/><path id="path3191" class="cls-5" d="M95.34,62.21s.27.37.06.22C95.36,62.41,95.24,62.18,95.34,62.21Z"/><path id="path2620" class="cls-5" d="M95.58,62.67c.09.19.18.36.26.55s.19.32.27.48.22.39.31.61.17.23.12.3c-.16-.11-.15-.36-.29-.5a5.13,5.13,0,0,1-.36-.65,4,4,0,0,1-.32-.66S95.5,62.56,95.58,62.67Z"/><path id="path2622" class="cls-5" d="M96.67,64.72a1.44,1.44,0,0,0,.18.38,1,1,0,0,1,.16.49c-.14-.07-.13-.3-.23-.43a1.44,1.44,0,0,1-.17-.45s.09,0,0,0"/><path id="path3197" class="cls-5" d="M97.15,65.77c.06.14.17.34.25.5s.19.33.26.51,0,.18,0,0a3,3,0,0,0-.27-.5c-.09-.18-.24-.34-.23-.55h0Z"/><path id="path2625" class="cls-5" d="M94.45,60.43c0,.06.08.09.09.15s0,.05,0,.08,0,0-.07,0a.15.15,0,0,1-.06-.09.35.35,0,0,1-.06-.14s.06,0,.09,0"/><path id="path3206" class="cls-5" d="M94.6,60.75s0,.06,0,.07a.41.41,0,0,1,.05.09s-.07,0-.08,0a.31.31,0,0,1,0-.1S94.56,60.73,94.6,60.75Z"/><path id="path2628" class="cls-5" d="M94.72,61s0,.06,0,.07.06.08,0,.07l-.07,0a.36.36,0,0,1,0-.11S94.7,61,94.72,61Z"/><path id="path3216" class="cls-5" d="M85.9,55.75l-.08,0h-.1s0,0,0,0,0,0,0,0l.1,0,.06,0a.08.08,0,0,0,0,0s0,0,0,0h0Z"/><path id="path3220" class="cls-5" d="M85.52,56l0,0,.78,1.69.53,1,1.46,2.77.56,1.07.39.75,1.3,2.46.26.46.1.18,0,0-.71-1.2L89.59,64l-.32-.65-1.84-3.47-.24-.5-1.28-2.52-.26-.56Z"/></g></g><g id="g4395"><path id="path4397" class="cls-2" d="M93.17,38.2a4.59,4.59,0,0,0-1.06-.47,3.16,3.16,0,0,0-2.79.64,3.63,3.63,0,0,0-1.23,2.53c-.29,2.94-.47,5.9-.72,8.85-.37,5.18-.87,10.34-1.13,15.53,0,1.1-.2,2.22-.11,3.32A3.23,3.23,0,0,0,87.66,71a3.52,3.52,0,0,0,4,.36,4.08,4.08,0,0,0,1.75-3.44c.52-6.7.85-13.44,1.49-20.1a.83.83,0,0,0-.65-.06c.09-1.52.19-3,.28-4.54C94.59,40.93,94.84,39.22,93.17,38.2Zm-.44.66A2.59,2.59,0,0,1,93.86,41c-.35,5.07-1.06,14.8-1.61,22.2a2.22,2.22,0,0,1-2.42,2,1.55,1.55,0,0,1-1.42-1.44,42,42,0,0,1,.1-5.72c.24-3.4.44-6.81.69-10.21-.38-.25-.83-.22-.71.34-.27,4-.43,8-.66,12a20.43,20.43,0,0,0,0,4.21,2.46,2.46,0,0,0,2.82,1.54,2.75,2.75,0,0,0,2-1.8,26.5,26.5,0,0,0,.43-3.44c.29-4.21.58-8.46,1.06-12.6-.55,6.48-.87,12.89-1.46,19.32-.13,1-.12,2.2-.94,2.95a2.44,2.44,0,0,1-1.5.72,3,3,0,0,1-2-.45,2.75,2.75,0,0,1-1.42-1.82A34.51,34.51,0,0,1,87,64.34c.38-5.45.73-10.9,1.14-16.35.25-2.39.32-4.8.72-7.17A2.9,2.9,0,0,1,89.93,39a2.61,2.61,0,0,1,1.5-.51A2.49,2.49,0,0,1,92.73,38.86Z"/><g id="path4399"><path class="cls-3" d="M93.07,38.32a3.37,3.37,0,0,0-.86-.41,3.13,3.13,0,0,0-1.46,0,3.71,3.71,0,0,0-1.39.66,3,3,0,0,0-.7,1,7.11,7.11,0,0,0-.38,1.47c-.1.52-.16.95-.16.95h0L86.46,65h0l-.1,3.76v0s.1.28.25.61a3.81,3.81,0,0,0,.51.92,4.18,4.18,0,0,0,1.24.82,4.35,4.35,0,0,0,1.34.41,3.09,3.09,0,0,0,1.17-.14,3.37,3.37,0,0,0,1.07-.66,4.62,4.62,0,0,0,.7-1A3.43,3.43,0,0,0,93,69.1a8.71,8.71,0,0,0,.21-1.52c0-.53.06-1,.06-1h0l1.47-18.52H94.5L93,66.6h0s0,.43,0,1A8.47,8.47,0,0,1,92.77,69a3.27,3.27,0,0,1-.33.68,4.67,4.67,0,0,1-.65.91,3.63,3.63,0,0,1-1,.61,3,3,0,0,1-1.08.12A4.33,4.33,0,0,1,88.45,71a4.09,4.09,0,0,1-1.16-.76,3.94,3.94,0,0,1-.47-.86c-.14-.32-.23-.58-.24-.59L86.69,65l1.66-23h0s.05-.43.15-.94a7.22,7.22,0,0,1,.37-1.42,2.72,2.72,0,0,1,.64-.92,3.49,3.49,0,0,1,1.29-.61,3.08,3.08,0,0,1,1.35,0,3.25,3.25,0,0,1,1.45,1,3.33,3.33,0,0,1,.52,1.43,11.56,11.56,0,0,1-.1,2.42c-.1.85-.21,1.55-.21,1.55h0L92.58,61.94h0s0,.27,0,.59a5.15,5.15,0,0,1-.11.92,4.18,4.18,0,0,1-.55,1.07,3.29,3.29,0,0,1-.65.78,2,2,0,0,1-.79.4,1.89,1.89,0,0,1-.88-.1,3,3,0,0,1-1.2-.86,2.27,2.27,0,0,1-.24-.86,14.8,14.8,0,0,1,0-2c0-.71.08-1.3.08-1.3L88.94,48h-.22L88,60.54s0,.59-.08,1.3a13.94,13.94,0,0,0,0,2.07,2.15,2.15,0,0,0,.27,1,3.06,3.06,0,0,0,1.31.94,2,2,0,0,0,1,.11,2.19,2.19,0,0,0,.89-.44,3.48,3.48,0,0,0,.7-.84,4.47,4.47,0,0,0,.58-1.13,4.55,4.55,0,0,0,.11-1c0-.32,0-.59,0-.6h0L94,44.53h0s.12-.71.22-1.55a11.3,11.3,0,0,0,.09-2.48A3.31,3.31,0,0,0,93.78,39,2.91,2.91,0,0,0,93.07,38.32Z"/></g><g id="g4401"><g class="cls-4"><path class="cls-5" d="M93.22,38.37a5.55,5.55,0,0,0-1.14-.5,3,3,0,0,0-2.72.6A3.67,3.67,0,0,0,88.13,41c-.29,3-.47,5.91-.71,8.85C87,55,86.54,60.2,86.28,65.38c0,1.11-.19,2.22-.11,3.32a3.27,3.27,0,0,0,1.53,2.38,3.5,3.5,0,0,0,4,.37A4.1,4.1,0,0,0,93.42,68c.52-6.69.86-13.44,1.49-20.09a.83.83,0,0,0-.65-.07c.09-1.51.19-3,.28-4.53C94.64,41,94.89,39.39,93.22,38.37Zm-.42.56c1.19.7,1.16,2,1,3.35-.45,7-1,14-1.53,21a2.22,2.22,0,0,1-2.43,2,1.54,1.54,0,0,1-1.42-1.44,42,42,0,0,1,.11-5.72c.23-3.4.43-6.81.68-10.21a.73.73,0,0,0-.6-.11.77.77,0,0,0-.11.45c-.27,4-.58,8-.81,12a20.53,20.53,0,0,0,.14,4.22A2.47,2.47,0,0,0,90.68,66a2.75,2.75,0,0,0,2-1.81,26.3,26.3,0,0,0,.44-3.44c.43-4.19.75-8.39,1-12.6q-.58,9.68-1.46,19.32c-.13,1-.1,2.22-.94,3a2.75,2.75,0,0,1-1.5.72,3.52,3.52,0,0,1-2-.45,2.61,2.61,0,0,1-1.39-1.83A26.12,26.12,0,0,1,87,64.45c.38-5.45.73-10.91,1.15-16.35.29-2.61.28-5.3.81-7.83a2.3,2.3,0,0,1,3.43-1.54A2.23,2.23,0,0,1,92.8,38.93Z"/></g><path id="path4405" class="cls-5" d="M88.37,40.23c.2-.5,0,.51,0,.7-.3,2.48-.47,5-.71,7.47-.41,5.12-.73,10.24-1,15.37,0,1.56-.26,3.12-.2,4.68a3.59,3.59,0,0,0,4.87,2.9,6.07,6.07,0,0,0,1.2-.76,3.3,3.3,0,0,1-2.23,1.12,3.81,3.81,0,0,1-3-1.28,4.52,4.52,0,0,1-.85-3.52c.06-1.7.21-3.39.29-5.09q.54-8.73,1.26-17.45C88,43,88.17,41.6,88.37,40.23Z"/><path id="path4407" class="cls-5" d="M89,39.83a17.42,17.42,0,0,0-.68,4.61c-.37,4.75-.82,9.49-1.12,14.24-.17,3.29-.48,6.57-.52,9.86a3.17,3.17,0,0,0,4.18,2.67A2.83,2.83,0,0,0,92.3,70,2.59,2.59,0,0,1,89,71.4a3.37,3.37,0,0,1-2.44-3.51c.29-5,.59-10,.93-15,.29-4,.62-7.91,1.05-11.85C88.63,40.64,88.66,40.05,89,39.83Z"/><path id="path4409" class="cls-5" d="M88.92,39.1a3.16,3.16,0,0,1,5.57,2.39c-.3,4.62-.55,9.24-1,13.85-.25,2.69-.39,5.39-.74,8.08a2.45,2.45,0,0,1-1.08,2,2.35,2.35,0,0,1-2.71.08,2.38,2.38,0,0,1-1.09-2.24c-.05-4.4.31-8.8.61-13.2.07-.74.07-1.5.19-2.24.28,0-.06.48,0,.79-.27,2.9-.38,5.8-.6,8.7-.1,2.1-.17,4.21-.11,6.31a2,2,0,0,0,1,1.8,2.41,2.41,0,0,0,2.81-.21,1.76,1.76,0,0,0,.77-1.36c.28-1.93.37-3.88.57-5.82.52-5.62.88-11.26,1.19-16.9a2.63,2.63,0,0,0-.68-2,3.1,3.1,0,0,0-3.87-.67,2.29,2.29,0,0,0-.9.82S88.9,39.19,88.92,39.1Z"/><path id="path4411" class="cls-5" d="M89,39.79c.07-.14.14-.29.22-.43a2.44,2.44,0,0,1,.33-.39,1.48,1.48,0,0,1,.29-.27l.35-.26c.13-.06.26-.13.4-.18a1,1,0,0,1,.29-.07,2.52,2.52,0,0,1,.47-.06,1.75,1.75,0,0,1,.4,0,1,1,0,0,1,.34.07c.15.05.3.08.44.14l.22.12c0,.08-.07,0-.11,0a3.94,3.94,0,0,0-.48-.18,2.11,2.11,0,0,0-.49-.09,3.11,3.11,0,0,0-.53,0,2.08,2.08,0,0,0-.36.06,2.55,2.55,0,0,0-.48.2c-.13.08-.26.16-.38.25a2.59,2.59,0,0,0-.35.31c-.11.11-.21.24-.31.36s-.16.28-.23.42Z"/><path id="path4413" class="cls-5" d="M92.84,38.55a2.68,2.68,0,0,1,1.4,2.59c-.31,5.93-.8,11.85-1.33,17.77-.16,1.48-.2,3-.46,4.42-.12.36-.12.83-.42,1.08a8.45,8.45,0,0,0,.44-1.8c.29-2.46.44-4.93.66-7.4.37-4.16.65-8.33.94-12.5A8,8,0,0,0,94,40a2.72,2.72,0,0,0-1.12-1.36Z"/><path id="path4415" class="cls-5" d="M92.53,63.79a2.49,2.49,0,0,1-.09.37,2.73,2.73,0,0,1-.23.45,2.48,2.48,0,0,1-.29.37,2.27,2.27,0,0,1-.28.26l-.4.22c.15-.11.3-.2.43-.31a2.72,2.72,0,0,0,.6-.81C92.37,64.16,92.44,64,92.53,63.79Z"/><path id="path4417" class="cls-5" d="M91.9,64.64a1.84,1.84,0,0,1-1.53,1,2.16,2.16,0,0,1-1.91-.88,2.79,2.79,0,0,1-.32-1.63c0-2.37,0-4.76.24-7.12.06-.83.16-1.66.17-2.48a46.76,46.76,0,0,1,.37-5.16c0-.13,0-.61.2-.43-.21,1.39-.29,2.79-.38,4.19-.06.25.17.31.07.59a5.31,5.31,0,0,1-.15.83c0,1.27-.18,2.53-.27,3.8-.06,1.89-.14,3.79-.15,5.69a2.64,2.64,0,0,0,.55,2,2.14,2.14,0,0,0,2,.42,3.15,3.15,0,0,0,1-.74Z"/><path id="path4419" class="cls-5" d="M88.85,39.38s0,.11-.08.18a2.1,2.1,0,0,0-.13.26.6.6,0,0,1-.06.11.75.75,0,0,1-.07.12s0,0,0-.06,0-.09,0-.13a1.55,1.55,0,0,1,.07-.23l.06-.12c0-.07.09-.13.13-.19l.07-.09s0,.06.06.08S88.85,39.36,88.85,39.38Z"/><path id="path4421" class="cls-5" d="M94.45,47.74c.13.09.07.27.07.4-.13,1.65-.27,3.31-.38,5-.06.9-.15,1.79-.19,2.69,0,.13,0,.25,0,.38s0-.2,0-.29c.09-1.75.25-3.5.35-5.26,0-.9.12-1.8.19-2.7,0-.23-.12-.16-.1,0-.06.5-.06,1-.11,1.52-.17,2.5-.35,5-.52,7.51-.09,0,0-.2,0-.28.22-2.94.4-5.88.64-8.82C94.32,47.81,94.28,47.74,94.45,47.74Z"/><path id="path4423" class="cls-5" d="M94.15,47.73c.07-.07.13,0,.1.08-.14,1.76-.27,3.51-.41,5.26-.07,0,0-.12,0-.18.13-1.7.28-3.43.41-5.13-.1,0-.06.11-.07.15-.09,1.1-.17,2.21-.25,3.31,0,0,0-.12,0-.18.08-1.09.16-2.19.23-3.28Z"/><path id="path4425" class="cls-5" d="M94.63,47.78h.11l.08,0,.07,0h0l-.21,2.06-.13,1.33-.64,9.22-.2,2.63-.5,5.63-.09.49-.21.71-.14.32-.1,0,.12-.33.18-.67.14-.83.13-1.29.15-1.82.11-1.23.54-7,.14-1.74L94.37,52h.12v-.09h-.13v-.06l.15,0v-.08l-.11,0L94.63,49l.14-1.13-.15,0Z"/><path id="path4427" class="cls-5" d="M92.46,69.78a1.91,1.91,0,0,0,.23-.45,3.26,3.26,0,0,0,.18-.63c.09-1.16.25-2.33.34-3.5.06-.56.11-1.13.16-1.7-.1-.08-.09,0-.1.11-.07,1-.17,2-.26,3-.06.75-.15,1.51-.25,2.26C92.66,69.16,92.55,69.47,92.46,69.78Z"/><path id="path4429" class="cls-5" d="M92.68,69.54a.19.19,0,0,1,0-.1.05.05,0,0,1,.08,0,.18.18,0,0,1,.06.09s0,.06-.06.08a.1.1,0,0,0,0,.08s-.05,0,0,.09a.23.23,0,0,1,0,.11.77.77,0,0,0-.07.16.37.37,0,0,1,0,.11s0,.08-.08.1,0,0,0,0l.07-.11s0-.08,0-.12,0-.06,0-.07,0,0,0-.08,0-.09.06-.14a.37.37,0,0,0,0-.11A0,0,0,0,0,92.68,69.54Z"/><path id="path4431" class="cls-5" d="M93.86,57a1.46,1.46,0,0,1,0,.36,1.31,1.31,0,0,0,0,.28,2.8,2.8,0,0,0,0,.29s0,.09,0,.1-.06-.08-.07-.13a1.62,1.62,0,0,1,0-.19c0-.08,0-.17,0-.26a.82.82,0,0,1,0-.27.66.66,0,0,1,0-.15A.05.05,0,0,1,93.86,57Z"/><path id="path4433" class="cls-5" d="M93.77,58.22s0,.46-.06.22C93.69,58.4,93.71,58.14,93.77,58.22Z"/><path id="path4435" class="cls-5" d="M93.74,58.74c0,.2,0,.4-.06.6s0,.37,0,.55,0,.46,0,.68,0,.3,0,.32c-.09-.17,0-.38,0-.58a4.46,4.46,0,0,1,0-.73,4.52,4.52,0,0,1,.06-.74S93.73,58.6,93.74,58.74Z"/><path id="path4437" class="cls-5" d="M93.61,61.05a1.42,1.42,0,0,0,0,.42,1,1,0,0,1-.11.51c-.09-.14,0-.33,0-.49a1.07,1.07,0,0,1,.09-.47s.07.06,0,0"/><path id="path4439" class="cls-5" d="M93.47,62.2c0,.15,0,.38,0,.56s0,.38,0,.57-.09.16-.07,0a3.63,3.63,0,0,0,0-.57,1.16,1.16,0,0,1,.08-.59h0Z"/><path id="path4441" class="cls-5" d="M93.94,56.24s0,.11,0,.17a.25.25,0,0,1,0,.07s-.05,0-.07,0a.17.17,0,0,1,0-.1.39.39,0,0,1,0-.15s.07,0,.09,0"/><path id="path4443" class="cls-5" d="M93.89,56.59s0,0,0,.08a.34.34,0,0,1,0,.1s-.06,0,0-.06V56.6S93.87,56.55,93.89,56.59Z"/><path id="path4445" class="cls-5" d="M93.87,56.86s0,.06,0,.09,0,.09,0,.07l0-.08a.2.2,0,0,1,0-.11S93.86,56.85,93.87,56.86Z"/><path id="path4447" class="cls-5" d="M89.06,47.8H89l-.1,0h-.05a.08.08,0,0,0,0,0l.09,0h.12s0,0,0,0Z"/><path id="path4449" class="cls-5" d="M88.61,47.79h0l-.2,1.85-.09,1.15-.19,3.13-.08,1.21L88,56l-.16,2.78,0,.52v.16l0-1.39L88,56.73,88,56l.23-3.92.05-.55.22-2.81.07-.62Z"/></g></g><g id="g4451"><path id="path4453" class="cls-2" d="M68.6,82.09a4.5,4.5,0,0,0-1,.61,3.18,3.18,0,0,0-1,2.68A3.66,3.66,0,0,0,68,87.81c2.27,1.89,4.62,3.7,6.93,5.56C79,96.58,83,99.89,87.14,103c.9.63,1.73,1.41,2.68,1.95a3.25,3.25,0,0,0,2.84.07A3.52,3.52,0,0,0,95.19,102a4.13,4.13,0,0,0-1.87-3.38c-5.26-4.19-10.66-8.24-15.81-12.5a.83.83,0,0,0-.42.5l-3.6-2.78C71.67,82.44,70.38,81.28,68.6,82.09Zm.31.73a2.6,2.6,0,0,1,2.41.27c4,3.14,11.66,9.18,17.48,13.78a2.23,2.23,0,0,1,.27,3.12,1.55,1.55,0,0,1-2,.36,40.91,40.91,0,0,1-4.67-3.29c-2.69-2.11-5.4-4.18-8.07-6.3-.42.18-.65.57-.12.78,3.15,2.46,6.37,4.84,9.55,7.27a20.49,20.49,0,0,0,3.49,2.38,2.46,2.46,0,0,0,2.86-1.48,2.77,2.77,0,0,0-.35-2.7,25.82,25.82,0,0,0-2.61-2.28c-3.33-2.6-6.68-5.23-9.84-8,5.06,4.09,10.18,8,15.18,12,.77.68,1.75,1.33,1.91,2.43a2.41,2.41,0,0,1-.24,1.65,3.11,3.11,0,0,1-1.47,1.37,2.75,2.75,0,0,1-2.31.15,34.63,34.63,0,0,1-3.62-2.54c-4.3-3.37-8.62-6.72-12.9-10.11-1.84-1.55-3.8-3-5.53-4.62a2.84,2.84,0,0,1-.92-2,2.5,2.5,0,0,1,.42-1.52A2.46,2.46,0,0,1,68.91,82.82Z"/><g id="path4455"><path class="cls-3" d="M68.65,82.24a3.11,3.11,0,0,0-.82.48,3.2,3.2,0,0,0-.8,1.22,3.73,3.73,0,0,0-.24,1.52,2.89,2.89,0,0,0,.44,1.14,7.15,7.15,0,0,0,1,1.14c.38.38.7.67.7.67h0l18.11,14.27h0l3.06,2.19v0h0s.29.08.65.14a3.92,3.92,0,0,0,1,.1,4.2,4.2,0,0,0,1.38-.57,4.58,4.58,0,0,0,1.09-.88,3,3,0,0,0,.54-1.05,3.29,3.29,0,0,0,0-1.25,4.27,4.27,0,0,0-.4-1.12,3.81,3.81,0,0,0-.4-.7,9.22,9.22,0,0,0-1.14-1c-.41-.33-.77-.59-.77-.59h0L77.67,86.35l-.14.17L92,98.13h0l.76.58a8.77,8.77,0,0,1,1.1,1,2.75,2.75,0,0,1,.37.65,4.48,4.48,0,0,1,.39,1,3.23,3.23,0,0,1,0,1.16,3,3,0,0,1-.5,1,4.69,4.69,0,0,1-1,.83,4.19,4.19,0,0,1-1.29.53,3.56,3.56,0,0,1-1-.09c-.34-.06-.61-.13-.62-.13l-3-2.18L69.09,88.24h0s-.32-.28-.69-.64a8,8,0,0,1-1-1.11,2.77,2.77,0,0,1-.4-1A3.24,3.24,0,0,1,67.24,84,3.15,3.15,0,0,1,68,82.89a3.45,3.45,0,0,1,1.61-.66,3.41,3.41,0,0,1,1.48.37A11.88,11.88,0,0,1,73,84c.65.56,1.16,1,1.16,1h0L87.93,95.89h0s.23.15.49.35a4.42,4.42,0,0,1,.69.6,4.13,4.13,0,0,1,.59,1.05,3.62,3.62,0,0,1,.28,1,2.16,2.16,0,0,1-.11.88,2.07,2.07,0,0,1-.58.67,2.84,2.84,0,0,1-1.39.51,2.24,2.24,0,0,1-.85-.28,14.15,14.15,0,0,1-1.69-1.13c-.57-.42-1-.79-1-.79l-10-7.65-.14.18,10,7.65s.46.36,1,.79A14.68,14.68,0,0,0,87,100.86a2.32,2.32,0,0,0,1,.31,3.14,3.14,0,0,0,1.52-.55,1.78,1.78,0,0,0,.78-1.76,3.72,3.72,0,0,0-.29-1,5.06,5.06,0,0,0-.62-1.11,5.49,5.49,0,0,0-.74-.63c-.26-.2-.48-.35-.48-.35h0L74.33,84.93h0s-.52-.49-1.16-1a12.31,12.31,0,0,0-2-1.47A3.37,3.37,0,0,0,69.57,82,3,3,0,0,0,68.65,82.24Z"/></g><g id="g4457"><g class="cls-4"><path class="cls-5" d="M68.77,82.15a5.1,5.1,0,0,0-1,.66,3,3,0,0,0-1,2.59,3.69,3.69,0,0,0,1.41,2.44c2.27,1.88,4.62,3.69,6.93,5.55,4.08,3.21,8.07,6.53,12.22,9.64.9.64,1.73,1.41,2.69,2a3.23,3.23,0,0,0,2.83.06A3.5,3.5,0,0,0,95.3,102a4.12,4.12,0,0,0-1.88-3.39c-5.25-4.18-10.65-8.24-15.8-12.5a.86.86,0,0,0-.42.5l-3.6-2.77C71.78,82.47,70.56,81.34,68.77,82.15Zm.23.65c1.25-.58,2.33.18,3.35,1,5.56,4.3,11.05,8.7,16.56,13.07a2.22,2.22,0,0,1,.27,3.11,1.55,1.55,0,0,1-2,.36,40.91,40.91,0,0,1-4.67-3.29c-2.69-2.1-5.4-4.17-8.07-6.29a.73.73,0,0,0-.44.44c0,.12.12.18.32.34,3.16,2.46,6.28,5,9.47,7.39a21,21,0,0,0,3.57,2.25,2.46,2.46,0,0,0,2.86-1.48A2.73,2.73,0,0,0,89.87,97a23.66,23.66,0,0,0-2.6-2.29C84,92,80.74,89.41,77.43,86.81q7.68,5.91,15.18,12c.77.68,1.78,1.33,1.91,2.44a2.68,2.68,0,0,1-.24,1.64,3.5,3.5,0,0,1-1.48,1.4,2.62,2.62,0,0,1-2.3.12,25.64,25.64,0,0,1-3.62-2.54C82.58,98.55,78.26,95.2,74,91.8c-2-1.71-4.23-3.21-6-5.06A2.31,2.31,0,0,1,68.61,83,2.65,2.65,0,0,1,69,82.8Z"/></g><path id="path4461" class="cls-5" d="M67.6,87.2c-.3-.44.43.27.57.41C70.06,89.25,72,90.78,74,92.38c4,3.21,8.08,6.35,12.15,9.47,1.26.93,2.43,2,3.76,2.79A3.58,3.58,0,0,0,95,102.25a6.14,6.14,0,0,0,.05-1.42,3.35,3.35,0,0,1-.32,2.47A3.83,3.83,0,0,1,92,105.1a4.52,4.52,0,0,1-3.4-1.26c-1.37-1-2.69-2.08-4-3.1Q77.58,95.4,70.75,89.91C69.69,89,68.62,88.13,67.6,87.2Z"/><path id="path4463" class="cls-5" d="M67.62,86.44a18.41,18.41,0,0,0,3.44,3.15c3.73,3,7.4,6,11.17,8.91,2.62,2,5.17,4.08,7.87,6a3.17,3.17,0,0,0,4.55-2,2.85,2.85,0,0,0-.23-1.88,2.6,2.6,0,0,1-.66,3.54,3.38,3.38,0,0,1-4.28,0c-4-3-8-6.09-11.9-9.18-3.11-2.46-6.2-5-9.22-7.51C68.08,87.22,67.61,86.86,67.62,86.44Z"/><path id="path4465" class="cls-5" d="M67,86.12a3.16,3.16,0,0,1,5.1-3.28c3.65,2.84,7.34,5.64,10.92,8.57,2.09,1.72,4.25,3.35,6.28,5.14a2.44,2.44,0,0,1,1,2,2.3,2.3,0,0,1-1.45,2.29,2.37,2.37,0,0,1-2.46-.35c-3.68-2.43-7.12-5.2-10.59-7.91-.58-.48-1.2-.9-1.74-1.41.18-.22.36.31.66.43,2.24,1.85,4.58,3.57,6.86,5.38,1.69,1.26,3.39,2.5,5.16,3.63a2,2,0,0,0,2.07.15,2.41,2.41,0,0,0,1.4-2.45,1.69,1.69,0,0,0-.7-1.39c-1.43-1.32-3-2.49-4.49-3.74-4.36-3.58-8.83-7-13.32-10.46a2.6,2.6,0,0,0-2-.53A3.08,3.08,0,0,0,66.93,85a2.18,2.18,0,0,0,.18,1.21S67,86.18,67,86.12Z"/><path id="path4467" class="cls-5" d="M67.57,86.45c-.07-.14-.16-.27-.23-.42a2.63,2.63,0,0,1-.14-.5,1.67,1.67,0,0,1-.06-.39c0-.14,0-.29,0-.43s0-.29.08-.44a.82.82,0,0,1,.11-.28,1.59,1.59,0,0,1,.21-.41,1.28,1.28,0,0,1,.24-.32A2,2,0,0,1,68,83c.13-.09.24-.19.36-.28l.23-.11c.06,0,0,.06-.06.08s-.28.21-.43.31a2.26,2.26,0,0,0-.34.35,2.61,2.61,0,0,0-.31.43c0,.11-.11.22-.15.33a3.06,3.06,0,0,0-.1.51c0,.15,0,.31,0,.46a2.44,2.44,0,0,0,.07.46,3.45,3.45,0,0,0,.12.46c.07.15.14.29.22.43Z"/><path id="path4469" class="cls-5" d="M68.71,82.56a2.68,2.68,0,0,1,2.93.29c4.73,3.59,9.37,7.31,14,11.07,1.13,1,2.34,1.82,3.4,2.85.23.3.62.57.65,1a8.42,8.42,0,0,0-1.23-1.37c-1.88-1.62-3.84-3.14-5.77-4.7-3.24-2.64-6.53-5.21-9.82-7.79a8,8,0,0,0-2.26-1.48,2.73,2.73,0,0,0-1.76.17Z"/><path id="path4471" class="cls-5" d="M89.44,97a2.26,2.26,0,0,1,.25.28,3.83,3.83,0,0,1,.25.44,2.32,2.32,0,0,1,.13.45,1.59,1.59,0,0,1,.06.38,2.28,2.28,0,0,1,0,.45,3.09,3.09,0,0,0,0-.53A1.65,1.65,0,0,0,90,98c-.07-.18-.14-.35-.22-.51S89.53,97.14,89.44,97Z"/><path id="path4473" class="cls-5" d="M89.78,98a1.82,1.82,0,0,1,0,1.82,2.17,2.17,0,0,1-1.8,1.09,2.89,2.89,0,0,1-1.53-.66c-2-1.35-3.93-2.68-5.76-4.19-.66-.51-1.29-1.06-2-1.53a50.07,50.07,0,0,1-4.06-3.2c-.09-.11-.49-.38-.25-.41,1,1,2.15,1.81,3.26,2.67.17.19.35,0,.52.27a4.89,4.89,0,0,1,.61.59c1,.75,2,1.57,3,2.35,1.53,1.12,3.06,2.25,4.63,3.32a2.6,2.6,0,0,0,1.93.65,2.14,2.14,0,0,0,1.48-1.44,3.13,3.13,0,0,0,0-1.25Z"/><path id="path4475" class="cls-5" d="M67.16,86.33c0,.07.07.1.1.17s.09.17.15.25,0,.08.06.11l.06.12s-.06,0-.07,0-.06-.07-.1-.1a1.3,1.3,0,0,1-.15-.18s0-.08-.07-.12a1.89,1.89,0,0,0-.09-.21.43.43,0,0,1,0-.11s.07,0,.1,0S67.14,86.31,67.16,86.33Z"/><path id="path4477" class="cls-5" d="M77.22,86.38c.15-.06.26.09.38.16,1.29,1,2.58,2.08,3.89,3.1.71.56,1.4,1.13,2.12,1.67l.31.22c0,.1-.18-.1-.26-.13-1.41-1.06-2.77-2.17-4.16-3.24-.72-.55-1.43-1.11-2.14-1.68-.16-.15-.19,0,0,.11.38.34.8.62,1.2.94l5.93,4.65c0,.08-.19-.09-.25-.13-2.32-1.83-4.65-3.63-7-5.47C77.21,86.53,77.12,86.52,77.22,86.38Z"/><path id="path4479" class="cls-5" d="M77,86.62c0-.09.09-.1.13,0l4.12,3.29c-.06,0-.1-.06-.16-.08l-4-3.22c-.09.06.06.11.09.15l2.6,2.06c-.06,0-.1-.07-.16-.1l-2.57-2Z"/><path id="path4481" class="cls-5" d="M77.36,86.25s0-.06.06-.08l.06-.06.07,0h0l1.57,1.33,1,.85L87.44,94l2.07,1.64,4.38,3.58.35.34.48.57.18.3,0,.11-.21-.29-.45-.52-.61-.59-1-.83-1.42-1.14-1-.78L84.77,92,83.41,90.9l-2.69-2.05.08-.09-.07-.06-.07.11,0,0,.11-.11-.08,0-.08.08-2.23-1.81-.86-.75-.1.11Z"/><path id="path4483" class="cls-5" d="M94.36,100.38a1.92,1.92,0,0,0-.25-.44,3.31,3.31,0,0,0-.41-.5c-.92-.73-1.8-1.51-2.71-2.24l-1.32-1.09c-.12,0,0,.09,0,.14.78.62,1.55,1.26,2.33,1.9.59.47,1.16,1,1.73,1.47C94,99.88,94.15,100.13,94.36,100.38Z"/><path id="path4485" class="cls-5" d="M94.28,100.07s0-.07-.06-.1a.05.05,0,0,1,0-.07.11.11,0,0,1,.11,0s0,.06,0,.09a.11.11,0,0,0,0,.09s0,.06,0,.08a.31.31,0,0,1,.09.07s0,.11.09.15a.24.24,0,0,1,.06.11.5.5,0,0,1,0,.13s-.05,0-.05,0l-.06-.11s-.07,0-.11,0a.05.05,0,0,1-.05-.06s0-.06,0-.08,0-.08-.08-.12a.36.36,0,0,0-.07-.1S94.29,100.07,94.28,100.07Z"/><path id="path4487" class="cls-5" d="M84.57,92.07a1.48,1.48,0,0,1,.29.22,1.92,1.92,0,0,0,.22.18c.08.06.17.1.24.16s.09,0,.08.07a.14.14,0,0,1-.15,0c-.06,0-.09-.09-.13-.13s-.15-.1-.22-.16l-.22-.16-.1-.11A.11.11,0,0,1,84.57,92.07Z"/><path id="path4489" class="cls-5" d="M85.52,92.82s.4.22.14.17C85.63,93,85.42,92.83,85.52,92.82Z"/><path id="path4491" class="cls-5" d="M85.94,93.14l.46.38c.15.11.3.21.44.33s.37.26.53.42.26.14.24.22c-.19,0-.29-.25-.47-.33a5,5,0,0,1-.59-.44,4.26,4.26,0,0,1-.58-.47S85.81,93.06,85.94,93.14Z"/><path id="path4493" class="cls-5" d="M87.77,94.54a1.87,1.87,0,0,0,.33.28c.13.1.3.21.35.37-.16,0-.24-.22-.39-.29s-.28-.2-.34-.34.09,0,0,0"/><path id="path4495" class="cls-5" d="M88.65,95.29l.44.36c.13.14.31.22.45.35s.08.16,0,.07a4,4,0,0,0-.46-.35c-.15-.12-.35-.2-.43-.39h0l0,0Z"/><path id="path4497" class="cls-5" d="M84,91.57s.11.05.14.09l0,.07s0,0-.05,0-.06,0-.09,0a.29.29,0,0,1-.11-.11s0-.05.07-.05"/><path id="path4499" class="cls-5" d="M84.24,91.8s0,0,.06,0a.24.24,0,0,1,.08.06s-.06,0-.08,0l-.09-.07S84.2,91.8,84.24,91.8Z"/><path id="path4501" class="cls-5" d="M84.45,92s0,0,.07,0,.08,0,0,.06h-.08s-.06,0-.08-.08S84.44,92,84.45,92Z"/><path id="path4503" class="cls-5" d="M74.25,90.88l-.06.07-.09,0s0,0,0,0,0,0,.05,0L74.2,91s0,0,0,0a.08.08,0,0,0,0,0s0,0,0,0Z"/><path id="path4505" class="cls-5" d="M74,91.24l0,0,1.41,1.21.91.71L78.82,95l1,.74.67.52L82.65,98l.42.31.17.12,0,0-1.14-.8-1-.8-.57-.45L77.35,94l-.44-.35-2.2-1.76-.48-.4Z"/></g></g><g id="g5168"><path id="path5170" class="cls-6" d="M68.41,71.17a4.71,4.71,0,0,0-1-.46,3.16,3.16,0,0,0-2.8.63,3.71,3.71,0,0,0-1.23,2.53c-.28,2.95-.47,5.91-.71,8.86-.37,5.17-.88,10.34-1.13,15.52,0,1.11-.2,2.22-.12,3.32A3.26,3.26,0,0,0,62.91,104a3.48,3.48,0,0,0,4,.37,4.1,4.1,0,0,0,1.76-3.44c.52-6.7.85-13.45,1.48-20.1a.83.83,0,0,0-.65-.07c.1-1.51.19-3,.29-4.53C69.84,73.91,70.08,72.19,68.41,71.17Zm-.43.66A2.59,2.59,0,0,1,69.11,74c-.36,5.08-1.07,14.81-1.61,22.2a2.24,2.24,0,0,1-2.43,2,1.55,1.55,0,0,1-1.41-1.45,40.32,40.32,0,0,1,.1-5.71c.23-3.41.43-6.81.69-10.22-.38-.24-.83-.21-.71.34-.27,4-.44,8-.67,12a20.52,20.52,0,0,0,0,4.22,2.46,2.46,0,0,0,2.81,1.54,2.73,2.73,0,0,0,2-1.81,24.51,24.51,0,0,0,.44-3.44c.28-4.21.58-8.46,1.06-12.6-.55,6.49-.87,12.89-1.46,19.32-.14,1-.13,2.2-.95,3a2.47,2.47,0,0,1-1.49.72,3.12,3.12,0,0,1-2-.46,2.66,2.66,0,0,1-1.41-1.82,32.61,32.61,0,0,1,.07-4.42c.37-5.45.73-10.9,1.14-16.35.25-2.39.32-4.8.72-7.17a2.8,2.8,0,0,1,1.11-1.86,2.51,2.51,0,0,1,1.49-.51A2.61,2.61,0,0,1,68,71.83Z"/><g id="path5172"><path class="cls-7" d="M68.32,71.3a3.06,3.06,0,0,0-.86-.41,3.13,3.13,0,0,0-1.46,0,3.5,3.5,0,0,0-1.39.66,3,3,0,0,0-.71,1A8.8,8.8,0,0,0,63.52,74c-.09.51-.15.95-.15.95h0L61.71,98h0l-.11,3.75v0s.1.29.25.62a3.87,3.87,0,0,0,.5.91,4.1,4.1,0,0,0,1.25.82,4.39,4.39,0,0,0,1.33.42,3.15,3.15,0,0,0,1.18-.15,3.27,3.27,0,0,0,1.07-.65,5.16,5.16,0,0,0,.69-1,3.82,3.82,0,0,0,.36-.73,8.57,8.57,0,0,0,.21-1.52c0-.52,0-1,0-1h0L70,81.07l-.22,0L68.28,99.57h0s0,.43-.06,1A8.57,8.57,0,0,1,68,102a3.46,3.46,0,0,1-.33.67,4.83,4.83,0,0,1-.66.91,3.22,3.22,0,0,1-1,.61,2.87,2.87,0,0,1-1.09.13,4.18,4.18,0,0,1-1.26-.39,3.84,3.84,0,0,1-1.17-.77,4,4,0,0,1-.47-.85c-.13-.32-.23-.58-.23-.59l.1-3.73,1.66-23h0s.06-.42.15-.93a9.43,9.43,0,0,1,.37-1.43,3,3,0,0,1,.64-.91,3.38,3.38,0,0,1,1.3-.61,2.94,2.94,0,0,1,1.35,0,3.39,3.39,0,0,1,1.45,1,3.66,3.66,0,0,1,.52,1.44,12.29,12.29,0,0,1-.1,2.42c-.1.85-.22,1.54-.22,1.54h0L67.82,94.91h0s0,.27,0,.6a5.13,5.13,0,0,1-.1.91,5,5,0,0,1-.55,1.08,3.49,3.49,0,0,1-.65.77,2.22,2.22,0,0,1-.79.41,2.09,2.09,0,0,1-.89-.1,2.9,2.9,0,0,1-1.19-.87,2.06,2.06,0,0,1-.24-.86,13.36,13.36,0,0,1,0-2c0-.71.08-1.3.08-1.3L64.19,81,64,81l-.75,12.54s0,.58-.07,1.3a14.09,14.09,0,0,0,0,2.07,2.3,2.3,0,0,0,.28,1,3.14,3.14,0,0,0,1.3,1,2.12,2.12,0,0,0,1,.11,2.18,2.18,0,0,0,.9-.45,3.68,3.68,0,0,0,.7-.83,4.68,4.68,0,0,0,.57-1.14,5.12,5.12,0,0,0,.12-1c0-.33,0-.59,0-.6h0l1.22-17.41v0s.12-.7.22-1.55a12,12,0,0,0,.1-2.48A3.52,3.52,0,0,0,69,71.92,3.27,3.27,0,0,0,68.32,71.3Z"/><path class="cls-8" d="M68.32,71.3a3.06,3.06,0,0,0-.86-.41,3.13,3.13,0,0,0-1.46,0,3.5,3.5,0,0,0-1.39.66,3,3,0,0,0-.71,1A8.8,8.8,0,0,0,63.52,74c-.09.51-.15.95-.15.95h0L61.71,98h0l-.11,3.75v0s.1.29.25.62a3.87,3.87,0,0,0,.5.91,4.1,4.1,0,0,0,1.25.82,4.39,4.39,0,0,0,1.33.42,3.15,3.15,0,0,0,1.18-.15,3.27,3.27,0,0,0,1.07-.65,5.16,5.16,0,0,0,.69-1,3.82,3.82,0,0,0,.36-.73,8.57,8.57,0,0,0,.21-1.52c0-.52,0-1,0-1h0L70,81.07l-.22,0L68.28,99.57h0s0,.43-.06,1A8.57,8.57,0,0,1,68,102a3.46,3.46,0,0,1-.33.67,4.83,4.83,0,0,1-.66.91,3.22,3.22,0,0,1-1,.61,2.87,2.87,0,0,1-1.09.13,4.18,4.18,0,0,1-1.26-.39,3.84,3.84,0,0,1-1.17-.77,4,4,0,0,1-.47-.85c-.13-.32-.23-.58-.23-.59l.1-3.73,1.66-23h0s.06-.42.15-.93a9.43,9.43,0,0,1,.37-1.43,3,3,0,0,1,.64-.91,3.38,3.38,0,0,1,1.3-.61,2.94,2.94,0,0,1,1.35,0,3.39,3.39,0,0,1,1.45,1,3.66,3.66,0,0,1,.52,1.44,12.29,12.29,0,0,1-.1,2.42c-.1.85-.22,1.54-.22,1.54h0L67.82,94.91h0s0,.27,0,.6a5.13,5.13,0,0,1-.1.91,5,5,0,0,1-.55,1.08,3.49,3.49,0,0,1-.65.77,2.22,2.22,0,0,1-.79.41,2.09,2.09,0,0,1-.89-.1,2.9,2.9,0,0,1-1.19-.87,2.06,2.06,0,0,1-.24-.86,13.36,13.36,0,0,1,0-2c0-.71.08-1.3.08-1.3L64.19,81,64,81l-.75,12.54s0,.58-.07,1.3a14.09,14.09,0,0,0,0,2.07,2.3,2.3,0,0,0,.28,1,3.14,3.14,0,0,0,1.3,1,2.12,2.12,0,0,0,1,.11,2.18,2.18,0,0,0,.9-.45,3.68,3.68,0,0,0,.7-.83,4.68,4.68,0,0,0,.57-1.14,5.12,5.12,0,0,0,.12-1c0-.33,0-.59,0-.6h0l1.22-17.41v0s.12-.7.22-1.55a12,12,0,0,0,.1-2.48A3.52,3.52,0,0,0,69,71.92,3.27,3.27,0,0,0,68.32,71.3Z"/></g><g id="g5174"><g class="cls-4"><path class="cls-7" d="M68.46,71.35a4.87,4.87,0,0,0-1.14-.5,3,3,0,0,0-2.72.6A3.67,3.67,0,0,0,63.37,74c-.28,2.94-.46,5.9-.71,8.85-.37,5.18-.88,10.34-1.13,15.53,0,1.1-.2,2.22-.11,3.32A3.23,3.23,0,0,0,63,104.06a3.52,3.52,0,0,0,4,.36A4.08,4.08,0,0,0,68.67,101c.52-6.7.85-13.44,1.49-20.1a.83.83,0,0,0-.65-.06c.09-1.52.19-3,.28-4.54C69.88,74,70.13,72.37,68.46,71.35Zm-.41.55c1.18.71,1.16,2,1,3.35-.45,7-1,14-1.54,21a2.23,2.23,0,0,1-2.43,2,1.54,1.54,0,0,1-1.41-1.44,42,42,0,0,1,.1-5.72c.24-3.4.44-6.81.69-10.21a.71.71,0,0,0-.61-.11.85.85,0,0,0-.1.45c-.27,4-.59,8-.82,12a20.42,20.42,0,0,0,.15,4.21A2.44,2.44,0,0,0,65.93,99a2.71,2.71,0,0,0,2-1.8,24.89,24.89,0,0,0,.44-3.44c.44-4.2.76-8.4,1.06-12.6-.4,6.44-.87,12.89-1.46,19.32-.14,1-.11,2.22-.94,3a2.71,2.71,0,0,1-1.5.72,3.44,3.44,0,0,1-2-.44,2.61,2.61,0,0,1-1.39-1.83,25.25,25.25,0,0,1,.07-4.43c.37-5.45.73-10.9,1.14-16.35.3-2.61.28-5.3.82-7.82a2.31,2.31,0,0,1,3.43-1.55A3.91,3.91,0,0,1,68.05,71.9Z"/></g><path id="path5178" class="cls-9" d="M63.62,73.2c.2-.49,0,.51,0,.71-.3,2.48-.46,5-.71,7.46-.41,5.12-.73,10.25-1,15.37-.06,1.56-.26,3.12-.2,4.68a3.59,3.59,0,0,0,4.86,2.91,6.42,6.42,0,0,0,1.2-.76,3.34,3.34,0,0,1-2.22,1.12,3.84,3.84,0,0,1-3-1.28,4.51,4.51,0,0,1-.86-3.53c.06-1.69.22-3.38.3-5.08q.54-8.73,1.25-17.46C63.28,76,63.42,74.58,63.62,73.2Z"/><path id="path5180" class="cls-9" d="M64.26,72.8a17.9,17.9,0,0,0-.67,4.61c-.37,4.75-.83,9.5-1.12,14.25-.18,3.28-.48,6.56-.53,9.85a3.17,3.17,0,0,0,4.18,2.67,2.88,2.88,0,0,0,1.43-1.24,2.6,2.6,0,0,1-3.3,1.43,3.35,3.35,0,0,1-2.45-3.5c.3-5,.59-10,.93-15,.3-4,.62-7.9,1.05-11.84C63.87,73.62,63.9,73,64.26,72.8Z"/><path id="path5182" class="cls-9" d="M64.17,72.08a3.15,3.15,0,0,1,5.56,2.39c-.3,4.61-.55,9.23-1,13.84-.25,2.69-.38,5.4-.73,8.08a2.47,2.47,0,0,1-1.08,2,2.31,2.31,0,0,1-2.71.08,2.36,2.36,0,0,1-1.1-2.23c0-4.41.32-8.81.62-13.21.07-.74.07-1.49.18-2.23.29,0,0,.47,0,.79-.26,2.89-.38,5.8-.59,8.7-.1,2.1-.17,4.21-.12,6.31a2,2,0,0,0,1,1.8,2.43,2.43,0,0,0,2.82-.22,1.71,1.71,0,0,0,.76-1.36c.29-1.92.38-3.87.58-5.81.52-5.63.88-11.26,1.19-16.9a2.64,2.64,0,0,0-.68-2,3.1,3.1,0,0,0-3.88-.68,2.2,2.2,0,0,0-.89.82S64.14,72.16,64.17,72.08Z"/><path id="path5184" class="cls-9" d="M64.22,72.77c.08-.14.14-.29.22-.43a3.26,3.26,0,0,1,.34-.4,1.8,1.8,0,0,1,.29-.26,2.78,2.78,0,0,1,.34-.26c.14-.06.27-.14.41-.19a.94.94,0,0,1,.29-.06,2.52,2.52,0,0,1,.47-.06,1.79,1.79,0,0,1,.4,0,2.05,2.05,0,0,1,.34.07l.43.14.22.12c0,.08-.06,0-.1,0a4.94,4.94,0,0,0-.49-.19,2.7,2.7,0,0,0-.48-.09,4.73,4.73,0,0,0-.53,0c-.12,0-.25,0-.37.06a4,4,0,0,0-.47.21c-.14.07-.26.16-.39.24a2.58,2.58,0,0,0-.34.32,3.73,3.73,0,0,0-.32.36l-.23.42Z"/><path id="path5186" class="cls-9" d="M68.09,71.52a2.69,2.69,0,0,1,1.39,2.59c-.31,5.94-.8,11.86-1.32,17.78-.16,1.47-.2,3-.46,4.41-.12.36-.12.84-.43,1.08a7.94,7.94,0,0,0,.44-1.79c.3-2.46.45-4.94.67-7.41.36-4.16.64-8.33.94-12.5a7.89,7.89,0,0,0,0-2.7,2.72,2.72,0,0,0-1.12-1.36Z"/><path id="path5188" class="cls-9" d="M67.78,96.76a3.35,3.35,0,0,1-.09.37,3.29,3.29,0,0,1-.23.46,2.54,2.54,0,0,1-.29.36,1.42,1.42,0,0,1-.29.26,3,3,0,0,1-.39.22,4.25,4.25,0,0,0,.43-.31,2.43,2.43,0,0,0,.3-.34,3.76,3.76,0,0,0,.3-.47C67.61,97.14,67.68,96.94,67.78,96.76Z"/><path id="path5190" class="cls-9" d="M67.14,97.61a1.84,1.84,0,0,1-1.53,1,2.18,2.18,0,0,1-1.91-.88,3,3,0,0,1-.32-1.63c0-2.38,0-4.76.25-7.13,0-.83.15-1.65.17-2.48a46.75,46.75,0,0,1,.37-5.15c0-.14,0-.61.19-.44-.21,1.39-.28,2.8-.37,4.2-.07.24.16.31.06.58a5.45,5.45,0,0,1-.14.84c0,1.27-.19,2.53-.27,3.79-.07,1.9-.14,3.8-.15,5.7A2.61,2.61,0,0,0,64,98a2.14,2.14,0,0,0,2,.42,3.19,3.19,0,0,0,1-.73Z"/><path id="path5192" class="cls-9" d="M64.09,72.35c0,.06,0,.12-.08.18a2.21,2.21,0,0,0-.12.27.6.6,0,0,0-.06.11l-.07.11s0,0,0,0a.7.7,0,0,0,0-.14,1,1,0,0,1,.07-.23.67.67,0,0,1,.06-.12,2,2,0,0,1,.12-.19.3.3,0,0,1,.08-.08s0,.05,0,.08S64.1,72.33,64.09,72.35Z"/><path id="path5194" class="cls-10" d="M69.69,80.72c.14.09.08.26.08.4-.13,1.65-.27,3.3-.39,5-.06.89-.14,1.79-.18,2.69,0,.12,0,.25,0,.38s0-.21,0-.29c.08-1.76.24-3.51.34-5.26.05-.9.13-1.81.2-2.71,0-.22-.12-.16-.1,0-.07.51-.07,1-.11,1.52-.18,2.51-.35,5-.53,7.52-.08,0,0-.21,0-.28.22-2.94.4-5.89.63-8.83C69.57,80.79,69.53,80.71,69.69,80.72Z"/><path id="path5196" class="cls-10" d="M69.4,80.7c.06-.06.13,0,.1.09-.14,1.75-.28,3.5-.41,5.26-.07,0,0-.13,0-.19l.42-5.13c-.11,0-.06.11-.08.15-.08,1.11-.16,2.21-.25,3.32,0,0,0-.13,0-.19l.24-3.27Z"/><path id="path5198" class="cls-10" d="M69.88,80.75a.18.18,0,0,1,.1,0l.08,0,.07,0h0l-.22,2.05L69.8,84.2l-.64,9.22L69,96.06l-.51,5.62-.08.49-.21.71-.14.32-.1,0,.12-.33.18-.67.14-.84.13-1.29.15-1.82.11-1.23.53-7,.14-1.74.2-3.37h.11v-.09h-.13v0l.15,0,0-.09-.11,0,.25-2.86L70,80.8l-.15,0Z"/><path id="path5200" class="cls-10" d="M67.71,102.76a2,2,0,0,0,.23-.46,3.38,3.38,0,0,0,.18-.62c.08-1.17.24-2.33.34-3.5.05-.57.1-1.13.16-1.7-.11-.08-.1,0-.1.1-.08,1-.18,2-.27,3,0,.76-.15,1.51-.25,2.26C67.9,102.14,67.8,102.45,67.71,102.76Z"/><path id="path5202" class="cls-10" d="M67.93,102.52s0-.07,0-.11a0,0,0,0,1,.07,0,.11.11,0,0,1,.06.09s0,.05,0,.08a.09.09,0,0,0,0,.08s-.05,0-.05.08,0,.08,0,.11a.56.56,0,0,0-.07.16.34.34,0,0,1-.06.12s0,.07-.08.1,0,0,0-.06a.53.53,0,0,0,.06-.1s0-.08,0-.12,0-.07,0-.08,0,0,0-.07a.91.91,0,0,1,.07-.14s0-.07,0-.11Z"/><path id="path5204" class="cls-10" d="M69.11,90a1.46,1.46,0,0,1,0,.36,2.83,2.83,0,0,0,0,.29c0,.09,0,.19,0,.29s0,.09,0,.1-.07-.09-.07-.14,0-.12,0-.18a1.15,1.15,0,0,0,0-.26,1.27,1.27,0,0,1,0-.28.4.4,0,0,1,0-.15Z"/><path id="path5206" class="cls-10" d="M69,91.19s0,.46-.07.22C68.94,91.38,69,91.12,69,91.19Z"/><path id="path5208" class="cls-10" d="M69,91.72c0,.2,0,.4-.06.6s0,.37,0,.55,0,.45-.05.68,0,.29,0,.32c-.09-.17,0-.39,0-.58a4.58,4.58,0,0,1,0-.74,4.51,4.51,0,0,1,.07-.73S69,91.58,69,91.72Z"/><path id="path5210" class="cls-10" d="M68.85,94a1.82,1.82,0,0,0,0,.42,1,1,0,0,1-.11.5c-.09-.13,0-.32,0-.48a1.51,1.51,0,0,1,.09-.48s.07.06,0,0"/><path id="path5212" class="cls-10" d="M68.72,95.17c0,.15,0,.39,0,.57s0,.38,0,.57-.09.16-.07,0a5.44,5.44,0,0,0,0-.57,1,1,0,0,1,.08-.58h0Z"/><path id="path5214" class="cls-10" d="M69.19,89.21c0,.06,0,.12,0,.17l0,.08s-.06,0-.07,0a.17.17,0,0,1,0-.1s0-.11,0-.15.06,0,.09,0"/><path id="path5216" class="cls-10" d="M69.14,89.56s0,0,0,.08a.17.17,0,0,1,0,.1s-.06,0-.06,0a.49.49,0,0,1,0-.12S69.12,89.53,69.14,89.56Z"/><path id="path5218" class="cls-10" d="M69.11,89.84s0,.06,0,.08,0,.1,0,.07a.12.12,0,0,1,0-.08.17.17,0,0,1,0-.11S69.1,89.83,69.11,89.84Z"/><path id="path5220" class="cls-10" d="M64.3,80.77a.14.14,0,0,1-.09,0l-.09,0s0,0-.05,0,0,0,0,0l.09,0h.12s0,0,0,0Z"/><path id="path5222" class="cls-10" d="M63.86,80.77h0l-.21,1.84-.08,1.16-.19,3.12-.08,1.21-.06.84-.16,2.78,0,.53v.16l0-1.4.09-1.3.06-.73.23-3.91,0-.56.22-2.81.07-.62Z"/></g></g><path id="path5282" class="cls-11" d="M45.48,42.65a4.29,4.29,0,0,0-1.15,0A3.13,3.13,0,0,0,42,44.25a3.7,3.7,0,0,0-.19,2.81c.84,2.83,1.78,5.64,2.66,8.47,1.6,4.94,3.06,9.92,4.77,14.82.4,1,.65,2.13,1.14,3.12a3.24,3.24,0,0,0,2.32,1.63A3.48,3.48,0,0,0,56.48,74a4.06,4.06,0,0,0,.33-3.84c-2-6.41-4.24-12.79-6.15-19.19a.83.83,0,0,0-.63.18l-1.44-4.31C47.82,44.65,47.41,43,45.48,42.65Zm-.16.78A2.61,2.61,0,0,1,47.18,45c1.57,4.84,4.56,14.13,6.83,21.19a2.23,2.23,0,0,1-1.51,2.74,1.55,1.55,0,0,1-1.85-.81,41.1,41.1,0,0,1-2-5.34c-1.06-3.24-2.15-6.48-3.19-9.73-.45-.08-.86.12-.54.59,1.25,3.8,2.6,7.57,3.89,11.36a20.1,20.1,0,0,0,1.57,3.91,2.45,2.45,0,0,0,3.19.37,2.75,2.75,0,0,0,1.21-2.44,24.66,24.66,0,0,0-.88-3.35c-1.32-4-2.64-8.06-3.75-12.07,1.92,6.21,4,12.27,5.89,18.45.26,1,.72,2.09.24,3.09a2.51,2.51,0,0,1-1.12,1.24,3.11,3.11,0,0,1-2,.31,2.74,2.74,0,0,1-2-1.16,34.22,34.22,0,0,1-1.59-4.13C47.84,64,46.12,58.83,44.46,53.63c-.67-2.31-1.51-4.57-2-6.92a2.93,2.93,0,0,1,.33-2.14,2.6,2.6,0,0,1,1.2-1A2.51,2.51,0,0,1,45.32,43.43Z"/><path id="path5390" class="cls-12" d="M112.81,52.38,150,55.07l-.07-.39.12-.37,0-.38.09-.37,0-.38.09-.37,0-.41.08-.34,0-.39.09-.37,0-.38.09-.37,0-.39.09-.36-.05-.38.1-.37,0-.39.1-.37V48c0-.1,0-.28.06-.41l0-.38.08-.37,0-.38.11-.38,0-.37.09-.38-.06-.38.11-.37,0-.38.09-.37,0-.38.1-.37-37.4-2.56.12.38-.16.37.15.38-.19.36.09.38-.13.36.15.42-.19.33.15.38-.19.36.1.33-.14.42.1.35-.14.39.12.36-.16.39.1.38-.14.36.12.38-.16.36.1.39-.14.36.1.38-.14.36.1.38-.14.37.13.38-.16.36.12.38-.16.37.09.38Z"/><path id="path5392" class="cls-13" d="M140.12,120.12l-24.41-11.54-.1.37-.22.31-.12.36-.21.33-.12.36-.2.32-.14.39-.19.29-.12.36-.2.32-.13.37-.2.32-.13.37-.19.31-.12.37-.21.32-.11.36-.21.32-.13.32a2.23,2.23,0,0,1-.2.36l-.12.36-.2.32-.12.37-.21.32-.12.36-.2.32-.11.37-.22.31-.12.36-.2.33-.12.36-.21.32L135.13,131l.06-.38.25-.3,0-.39.27-.29.08-.37.23-.3.06-.42.26-.26,0-.4.27-.28.05-.32.26-.36.07-.35.24-.33.05-.36.26-.32.09-.37.23-.31.06-.38.25-.3.08-.37.23-.3.08-.38.23-.3.08-.38.23-.3.07-.39.25-.29.06-.39.25-.29.08-.38Z"/><path id="path5394" class="cls-14" d="M15.75,4.74,27.3,34.22l.32-.21L28,34l.33-.19.37-.09.34-.18.37-.09.36-.2.34-.08.34-.18.37-.09.33-.19.37-.08.35-.2.35-.08.33-.2.38-.07.32-.2.38-.08L34,31.6a1.7,1.7,0,0,1,.38-.12l.34-.19L35,31.2l.33-.19.37-.08.34-.19.37-.09.32-.21.38-.06.33-.19.37-.09.33-.19.38-.08L26.8.22l-.3.25-.39,0-.29.28h-.4L25.11,1l-.38.05-.32.28H24l-.29.28h-.4l-.26.21-.43.07-.29.23L22,2.2l-.28.24-.41,0L21,2.71l-.38,0L20.28,3,19.9,3l-.32.23-.38.06-.31.23-.38,0-.31.23-.38.05-.3.25-.39,0-.3.26-.39,0-.31.23Z"/></g></g></svg>