<svg xmlns="http://www.w3.org/2000/svg" width="74.8" height="179.45" viewBox="0 0 74.8 179.45"><defs><style>.cls-1,.cls-22{fill:#4e4e4e;}.cls-1,.cls-2,.cls-8{stroke:#cdcccc;}.cls-1{stroke-width:0.43px;}.cls-15,.cls-2,.cls-9{fill:#f9f9fa;}.cls-2{stroke-width:4.03px;}.cls-3{fill:none;stroke:#010101;stroke-width:1.99px;}.cls-4{opacity:0.55;}.cls-17,.cls-20,.cls-4,.cls-7{isolation:isolate;}.cls-5{fill:#384649;}.cls-6{fill:#e3dedb;}.cls-16,.cls-7{fill:#cdcccc;}.cls-20,.cls-7{opacity:0.89;}.cls-8{fill:#f3f3f3;}.cls-10{fill:#fff;}.cls-11{fill:#010101;}.cls-12{fill:#e6e6e5;}.cls-13{fill:#676767;}.cls-14{fill:#818181;}.cls-15{stroke:#818181;}.cls-17{opacity:0.68;}.cls-18{fill:#b4b4b4;}.cls-19{fill:#989898;}.cls-20{fill:#333;}.cls-21{fill:#ececec;}</style></defs><g id="Layer_2" data-name="Layer 2"><g id="Layer_1-2" data-name="Layer 1"><g id="g27058"><path id="path27052" class="cls-1" d="M3.66,31.7c8.76-1.25,17.53.77,26.32.1,14.28-.43,28.56.45,42.82-.1.66,12.44-1.19,24.9.4,37.3.17,6.37-.33,12.69-.39,19.06-.22,10.94-.42,21.8.77,32.61-.55,5.47-.07,10.9-.13,16.37-.49,7.9-.45,15.82-.72,23.74.1,2.69.4,14.4.54,17.43-9.46-.1-22.08-.83-32.71-.5-10.73-1.06-16.62-.51-27.37-.79-3.81,0-7.94.89-10.15.44.13-2.52-.3-9-.21-11.2,2-8.94-1-18.8.86-27.78a230.78,230.78,0,0,1,0-23.23C3.4,100,4,84.86,3.34,69.74c.47-7.31,1.11-14.65.41-22C4.5,42.32,3.69,37.14,3.66,31.7Z"/><g id="g26581"><path id="path15831" class="cls-2" d="M2.85,31.17c8.76-1.25,17.53.76,26.33.09,14.27-.43,28.56.45,42.82-.09.65,12.41-1.2,24.85.39,37.23.17,6.35-.32,12.66-.38,19-.22,10.91-.42,21.76.77,32.55-.55,5.46-.07,10.88-.14,16.34-.48,7.89-.44,15.79-.71,23.7.1,2.69.4,14.37.54,17.4-9.46-.11-22.08-.84-32.72-.51-10.72-1.05-16.61-.5-27.36-.78-3.82,0-7.94.88-10.16.43.13-2.51-.3-8.92-.2-11.17,2-8.93-1-18.77.86-27.73a227.08,227.08,0,0,1,0-23.19c-.32-15.1.29-30.23-.38-45.32C3,61.84,3.64,54.51,3,47.21,3.69,41.76,2.88,36.59,2.85,31.17Z"/><path id="path15833" class="cls-3" d="M3,46.53H3Zm-.06,8.16h0Zm0,8.16h0Zm0,8.17h0Zm0,8.16h0Zm0,8.16h0Zm0,8.16h0Zm0,8.16h0Zm0,8.16h0Zm0,8.17h0Zm0,8.16h0Zm0,8.16h0Zm0,8.16h0Zm0,8.16h0Zm0,8.16h0Zm-1,8.17h0Z"/></g></g><g id="g6117"><g id="path4874" class="cls-4"><path class="cls-5" d="M23.9,35.49c-.2-.48-1.15-3.28-.42-4.17.89-1.11.56-2.25,1.24-3.44-.44-1.37.93-3.6,1.31-5a11.79,11.79,0,0,1,3.53-2.26,37.69,37.69,0,0,1,11.71-.22c4.14.4,3.39,3.26,9.78,2.07a19.46,19.46,0,0,1,1.61,4.11,6.37,6.37,0,0,0,1,3.87c.12,1.37.4,2.8-.34,4.13-1.25,1.56-4.88,1.61-7.54,1.92a59,59,0,0,1-17-.71C27.23,35.23,24.4,36.43,23.9,35.49Z"/></g><g id="path6691"><path class="cls-6" d="M54.06,34c0,.15,0,.82,0,1.24s.05.81.08,1.22,0,.77,0,1.14,0,.68,0,1a1.88,1.88,0,0,1-.21,1,9.26,9.26,0,0,0-.25,1c-.09.32-.18.64-.3.95s-.78.7-1.13.93a5.56,5.56,0,0,1-1.68.77,12,12,0,0,1-1.58.35c-.59.07-1.19.11-1.78.13-1.07,0-2.15.11-3.22.13-1.64,0-3.3,0-4.93.1-1.38.11-2.78.14-4.16.14l-.74,0h-.7c-.68,0-1.38-.09-2-.16-.83-.09-1.66-.11-2.49-.16s-1.42-.08-2.13-.16A5.6,5.6,0,0,1,25,43.18,3.86,3.86,0,0,1,23.69,42a2.7,2.7,0,0,1-.39-1.52,8.59,8.59,0,0,0-.07-1.24c0-.35-.1-.68-.11-1s0-.73-.05-1.09A9.53,9.53,0,0,0,22.9,36a8,8,0,0,1-.06-1c0-.29-.14-.55-.16-.86"/></g><g id="g5055"><rect id="rect4255" class="cls-7" x="24.76" y="35.88" width="27.53" height="0.99"/><g id="g3313"><path id="path2416" class="cls-8" d="M53.85,15.57a15.36,15.36,0,0,1-30.72,0h0a15.36,15.36,0,0,1,30.72,0Z"/><path id="path3188" class="cls-9" d="M52.66,15.36A13.67,13.67,0,0,1,38.76,28.8,13.68,13.68,0,0,1,24.85,15.37h0A13.68,13.68,0,0,1,38.75,1.92,13.68,13.68,0,0,1,52.66,15.36Z"/></g><path id="path3320" class="cls-10" d="M30.87,4.83a22.39,22.39,0,0,0-2.3,1.77,13.44,13.44,0,0,0-2.2,2.94,14.15,14.15,0,0,0-1.24,7.64,10.42,10.42,0,0,0,.71,2.15A17.69,17.69,0,0,0,27.66,23a12,12,0,0,0,2.93,2.67,5.82,5.82,0,0,0,2.65,1.07,1.7,1.7,0,0,0,.6-.23c.23-.12.72-.46.72-.46s0,1.58-.68,1.62l-1.73.05A8.89,8.89,0,0,1,29.49,27a7.27,7.27,0,0,1-1.44-1.92,28.12,28.12,0,0,1-2.9-4.32,13.88,13.88,0,0,1-.95-4.07,14.89,14.89,0,0,1,.51-5.2,14,14,0,0,1,3.22-5.06A14.44,14.44,0,0,1,30.87,4.83Z"/><path id="path3190" class="cls-11" d="M29,5.83c-4.36,3.53-5.26,9-3.91,14.12a22.39,22.39,0,0,0,3.29,5.73,26.43,26.43,0,0,1-3.51-5.08c-.89-3.26-1.28-7.12.17-10.28a11.94,11.94,0,0,1,2.8-4A4.07,4.07,0,0,1,29,5.83Z"/><path id="path3193" class="cls-11" d="M27.65,22.79a9,9,0,0,0,1.75,1.8A10.24,10.24,0,0,0,31.92,26a11.29,11.29,0,0,0,1.9.33l-.46.64a19.48,19.48,0,0,1-2.12-.71A12.08,12.08,0,0,1,29,24.84a8.59,8.59,0,0,1-1.49-1.58,14.43,14.43,0,0,1-1.33-2.84C25.24,17,26,20.14,27.65,22.79Z"/><g id="path3195"><path class="cls-11" d="M30.05,3.81a23.44,23.44,0,0,1,3.23-2A13.87,13.87,0,0,1,40.38,1a15.58,15.58,0,0,1,8.44,4.26c.43.47.79,1,1.18,1.53a26.1,26.1,0,0,0-2.64-2.42,19.85,19.85,0,0,0-6.18-2.8,14.32,14.32,0,0,0-8.56,1A15,15,0,0,1,30.05,3.81Z"/></g><path id="path3317" class="cls-10" d="M50.87,9.59c-.07,1.87,1,3.59.82,5.46a16.39,16.39,0,0,1-1.78,6.85A9.9,9.9,0,0,1,47,25.22c-1.15.67-2.49.94-3.56,1.75l.34.72c2.19-.62.15-.74,3.13-1l1.09-.3a13,13,0,0,1,2.4-2.88A5,5,0,0,0,52,20.77a17.36,17.36,0,0,0,.55-8.16A10.81,10.81,0,0,0,51,9.16,1.69,1.69,0,0,0,50.87,9.59Z"/><path id="path3308" class="cls-12" d="M33.5,15.14a4.83,4.83,0,0,1,1.08-2.46,6.63,6.63,0,0,1,2.55-2.38,7,7,0,0,1,2.84,0,4.39,4.39,0,0,1,3.35,3.6c.07.74.32,1.44.44,2.16s-.51,1.37-.57,2.14a5,5,0,0,0,0,1.85c.23.84-.31,1.65-.14,2.5a12.36,12.36,0,0,0,.08,2.28c.14.73.19,1.48.28,2.23-.06.75.72,1.25.91,1.82-.68.6-1.59.17-2.32-.05-.53.08-.44-.73-.78-.12a5.83,5.83,0,0,1-4.17.28c-.47-.11-1.24-1.06-1.18-.06-.43.73-1.64.53-2.26.19-.4-.68.5-1.32.34-2.08a7.54,7.54,0,0,0,.69-2.22,24.45,24.45,0,0,0-.15-2.57c0-.72.15-1.43.1-2.16A14.78,14.78,0,0,0,34,17.52C33.71,16.75,33.77,15.91,33.5,15.14Z"/><g id="path3198"><path class="cls-11" d="M30.82,4.29a10.92,10.92,0,0,1,3.29-1.85,14.44,14.44,0,0,1,6.08-.66,14.51,14.51,0,0,1,6.29,2.49,15.64,15.64,0,0,1,5.17,5.84,7.83,7.83,0,0,1,.92,3.81,14,14,0,0,0-5.46-8.69A15.09,15.09,0,0,0,44,3.32,11.67,11.67,0,0,0,37.82,2,12.77,12.77,0,0,0,32,3.63C31.63,3.85,31.3,4.27,30.82,4.29Z"/></g><path id="path3202" class="cls-11" d="M44,26.15a19.63,19.63,0,0,0,1.95-.79,12.09,12.09,0,0,0,2.32-1.69,12.91,12.91,0,0,0,1.67-2.29A19.2,19.2,0,0,0,51,19c.18-.48.49-1.61.49-1.61s-.31,1.72-.54,2.43A13.56,13.56,0,0,1,50,21.9a10,10,0,0,1-1.47,2.15,11.83,11.83,0,0,1-2,1.4c-.58.37-2,1.17-2,1.17l-.61.11Z"/><path id="path3204" class="cls-11" d="M45.31,26.65l1-.37,1.15-.73.31-.23-.34,1.33Z"/><g id="path3208"><path class="cls-13" d="M48.8,24.82a19,19,0,0,0,1.45-1.54,10,10,0,0,0,1.23-2.1,14.86,14.86,0,0,0,.81-2.81,18.44,18.44,0,0,0,.27-2.67c0-.58,0-1.15,0-1.73l.52.1A35.39,35.39,0,0,1,53,17.64a13.5,13.5,0,0,1-.76,3.41,9.16,9.16,0,0,1-1.47,2.12,9,9,0,0,1-1.23,1.38A2.31,2.31,0,0,1,48.8,24.82Z"/></g><path id="path3305" class="cls-10" d="M35.45,14.12c.14-.38.4-.7.57-1.07a2.11,2.11,0,0,1,1-1,4.67,4.67,0,0,1,2.25-.39,1.36,1.36,0,0,1,.9.62,6.63,6.63,0,0,1,1.06,1.3c.3.36.28-.28.53.11a13.82,13.82,0,0,1,.41,2.64,3.1,3.1,0,0,1-.55,1.57,3.65,3.65,0,0,1-1.36,1,3.91,3.91,0,0,1-2.07.4,3.2,3.2,0,0,1-1.41-.48,3.25,3.25,0,0,1-1-.89,3.71,3.71,0,0,1-.76-2,4.24,4.24,0,0,1,.06-1.18,1,1,0,0,1,.29-.54C35.21,14.45,35.4,14.19,35.45,14.12Z"/><path id="path3215" class="cls-11" d="M41.69,9.59a7.66,7.66,0,0,0-1.49-.74,6.24,6.24,0,0,0-1.67-.17A7,7,0,0,0,36.6,9a5,5,0,0,0-1.44.87,7.41,7.41,0,0,0-1.89,3.25,8.76,8.76,0,0,0-.12,1.33s.62-1.62.93-2.29a6.77,6.77,0,0,1,.86-1.67,5.11,5.11,0,0,1,1.8-1.16A5.68,5.68,0,0,1,38.48,9a6.35,6.35,0,0,1,1.68.22,5.57,5.57,0,0,1,1.17.52,3.64,3.64,0,0,1,.6.43,8.33,8.33,0,0,1,.81,1,9,9,0,0,1,.91,1.25,4.79,4.79,0,0,1,.46,1.43A5.49,5.49,0,0,1,44,15a4.44,4.44,0,0,1-.18.74c-.09.26-.29.57-.39.82a7.19,7.19,0,0,0-.4,1.27,19,19,0,0,0-.14,2.39c0,.82-.08,1.91,0,2.72s.12,1.84.19,2.63a11.14,11.14,0,0,0,.2,2,6.29,6.29,0,0,0,.48.94l.5,0A14,14,0,0,1,43.66,27a15.86,15.86,0,0,1-.21-2.3c-.06-.86-.11-2-.08-2.86,0-.56.15-1.3.21-1.86s.07-1.3.18-1.84a13.13,13.13,0,0,1,.5-1.73,7.85,7.85,0,0,0,.43-1,5.38,5.38,0,0,0-.15-1.74A6.55,6.55,0,0,0,44,11.87a7,7,0,0,0-1.33-1.64A5.91,5.91,0,0,0,41.69,9.59Z"/><path id="path3217" class="cls-11" d="M33.73,14.31a11,11,0,0,0,0,1.65,18.2,18.2,0,0,0,.53,1.78c.13.47.3,1.11.38,1.6a20.84,20.84,0,0,1,.23,2.38,25.37,25.37,0,0,1,0,2.89,11.23,11.23,0,0,1-.36,2,11.85,11.85,0,0,1-.62,1.34s0-.66.07-.94c.07-.52.32-1.18.4-1.7a18.08,18.08,0,0,0,.14-1.94c0-.69,0-1.62-.09-2.31a19.58,19.58,0,0,0-.23-2c-.07-.4-.24-.91-.33-1.31a14.65,14.65,0,0,1-.28-1.61,4.71,4.71,0,0,1,0-.84A8.56,8.56,0,0,1,33.73,14.31Z"/><path id="path3219" class="cls-11" d="M43.69,14.59A9.67,9.67,0,0,0,43.45,13a3.92,3.92,0,0,0-.66-1.09,6.39,6.39,0,0,0-2.72-1.73A6,6,0,0,0,38.73,10a6.37,6.37,0,0,0-1.31.09,4.49,4.49,0,0,0-1.08.39,5.26,5.26,0,0,0-1,.82,4.84,4.84,0,0,0-.64.78,3,3,0,0,0-.38.76,7.49,7.49,0,0,0-.13,1.2,7.78,7.78,0,0,1,.53-1.56,4.61,4.61,0,0,1,.91-1,6.08,6.08,0,0,1,1.28-.88,5.49,5.49,0,0,1,1.45-.29,5.55,5.55,0,0,1,1.41,0,4.2,4.2,0,0,1,.9.32,7.18,7.18,0,0,1,1.21.75,4.74,4.74,0,0,1,.9,1,4.9,4.9,0,0,1,.45,1.15c.1.35.21,1.17.21,1.17Z"/><g id="path3229"><path class="cls-14" d="M35.67,13a2.88,2.88,0,0,1,.61-1,6.59,6.59,0,0,1,.95-.69A2.85,2.85,0,0,1,38.36,11,4.59,4.59,0,0,1,40,11.3a3.73,3.73,0,0,1,1.5,1.42,2.62,2.62,0,0,1,.28,1.65c0,.21,0,.52-.29.56s-.46-.11-.32-.38c0-.26-.2-.41-.29-.64a6.43,6.43,0,0,0-.77-1,8.77,8.77,0,0,0-.63-.72,1.19,1.19,0,0,0-1.27,0,3.94,3.94,0,0,0-1.32.79,2.67,2.67,0,0,1-.9.54c-.3.11-.47-.22-.38-.47v-.1"/></g><path id="path3221" class="cls-11" d="M35.77,13.21a3.76,3.76,0,0,1,.39-.59,3.92,3.92,0,0,1,.72-.69,2.78,2.78,0,0,1,3.32-.17,6.8,6.8,0,0,1,.78.64,2.62,2.62,0,0,1,.48.8c0,.08,0,.27-.05.1a2.76,2.76,0,0,0-.79-.73A2.93,2.93,0,0,0,39.47,12,4,4,0,0,0,38,12a4.57,4.57,0,0,0-1.31.6,8.64,8.64,0,0,0-.88.61s0,.05,0,.07"/><path id="path3224" class="cls-11" d="M40.57,14.69a1.95,1.95,0,1,1-2-2A2,2,0,0,1,40.57,14.69Z"/><path id="path3234" class="cls-14" d="M36.19,15.84a2.42,2.42,0,0,0,.26.42,1.76,1.76,0,0,0,.3.31c.11.09.24.17.36.25a1.91,1.91,0,0,0,.52.19h.06a5.4,5.4,0,0,0,.58.11,1.86,1.86,0,0,0,.47,0,2.24,2.24,0,0,0,.45-.09l.36-.1a2,2,0,0,0,.33-.15,2.08,2.08,0,0,0,.6-.45,1.26,1.26,0,0,0,.24-.36c0-.08.1-.14.15-.22s.18,0,.18.09a.84.84,0,0,1-.12.31,1.44,1.44,0,0,1-.23.32,2.62,2.62,0,0,1-.22.25l-.21.17-.27.2a1.05,1.05,0,0,1-.29.17,1.83,1.83,0,0,1-.33.11l-.33.09a1.53,1.53,0,0,1-.37,0l-.38,0-.33,0-.32-.07-.31-.1a1.64,1.64,0,0,1-.3-.14l-.3-.19a1.57,1.57,0,0,1-.26-.19,2,2,0,0,1-.21-.2.72.72,0,0,1-.11-.19.74.74,0,0,1-.07-.21.44.44,0,0,1,0-.2C36.09,15.82,36.07,15.74,36.19,15.84Z"/><path id="path3236" class="cls-14" d="M42.37,15.62a4.11,4.11,0,0,1-.1,1.44,4.66,4.66,0,0,1-.65,1.26,13.22,13.22,0,0,1-1.08.8,7.54,7.54,0,0,1-1.36.39,6.79,6.79,0,0,1-1.46-.08,3.4,3.4,0,0,1-1-.43,3.58,3.58,0,0,1-.7-.65,3.94,3.94,0,0,1-.57-.77c-.13-.25-.39-.64-.28-.91,0-.09.3-.25.3-.15a3.31,3.31,0,0,0,.5,1.2,3.69,3.69,0,0,0,1,.88A3.54,3.54,0,0,0,38,19a3.89,3.89,0,0,0,2.51-.47,3.18,3.18,0,0,0,.81-.65,3.65,3.65,0,0,0,.58-1.06c.1-.28.07-.69.15-1a3.07,3.07,0,0,1,.14-.32Z"/><path id="path3238" class="cls-11" d="M36.59,14.05c0-.09-.25-.2-.39-.28a.48.48,0,0,0-.48,0,.7.7,0,0,0-.22.31c0,.1-.12.19-.17.28a1,1,0,0,0-.08.23c0,.11,0,.21,0,.32a3.06,3.06,0,0,0-.05.32c0,.12,0,.22,0,.34a1.54,1.54,0,0,0,0,.37,1.83,1.83,0,0,0,.09.39,1.51,1.51,0,0,0,.27.39.7.7,0,0,0,.26.19c.17.07,0-.37,0-.4a2.48,2.48,0,0,1-.17-.37,2.33,2.33,0,0,1-.07-.25,1.6,1.6,0,0,1-.05-.21,1,1,0,0,1,0-.3c0-.12,0-.23,0-.35s0-.26,0-.39a1,1,0,0,1,.13-.34.53.53,0,0,1,.33-.24c.09,0,.26.1.35.15s.15,0,.25,0S36.6,14.08,36.59,14.05Z"/><path id="path3240" class="cls-11" d="M41.88,16.68s.08-.23.1-.29a4.18,4.18,0,0,0,.1-.51c0-.13.09-.24.11-.37s.14.08.16.13a.48.48,0,0,1,0,.29,3.42,3.42,0,0,1-.21.43,2.14,2.14,0,0,1-.2.32s-.08,0-.09.1-.07,0,0-.06S41.85,16.69,41.88,16.68Z"/><path id="path3244" class="cls-11" d="M40.77,19.3h0l-.05.07c-.06.08-.16.15-.22.22a1.09,1.09,0,0,1-.38.21,3.17,3.17,0,0,1-.4.14c-.11,0-.23.06-.34.09a5.73,5.73,0,0,1-.58.07h-.41l-.5,0-.49,0a.88.88,0,0,0-.28,0c-.1,0,.12.16.2.23a1.2,1.2,0,0,0,.37.15,2.34,2.34,0,0,0,.46.09l.57,0a2,2,0,0,0,.34,0l.27-.05.3-.09a1,1,0,0,0,.28-.14l.28-.19a3.45,3.45,0,0,0,.32-.2,1,1,0,0,0,.17-.19.5.5,0,0,0,0-.21C40.74,19.36,40.69,19.39,40.77,19.3Z"/><path id="path3322" class="cls-11" d="M29.08,25.52c.07.07.26.19.38.29a4.15,4.15,0,0,0,.34.24,3.3,3.3,0,0,0,.41.23c.13.06.27.13.41.18l.39.19a3.2,3.2,0,0,0,.52.18l.33.11.06,0c.09,0-.19,0-.28,0l-.49,0H29.88c-.08,0-.12-.09-.15-.16a1.5,1.5,0,0,0-.18-.24,1.82,1.82,0,0,1-.15-.23,1.43,1.43,0,0,1-.15-.27l-.15-.24a1.08,1.08,0,0,1-.08-.19C29,25.51,29,25.45,29.08,25.52Z"/><path id="path3420" class="cls-15" d="M31.32,26.72c-.27,0-5.28.11-5.28.11L25,27l-.56.86.14,1.28.43.25a4.13,4.13,0,0,0-.9,1.05,10.28,10.28,0,0,0-.31,3.37,52.27,52.27,0,0,0,.2,5.46,5.17,5.17,0,0,0,.35,1.43A6,6,0,0,0,25.38,42c.44.38,1.2,1,1.64,1,6.32-.07,16,.24,22.3-.16a3.93,3.93,0,0,0,1.46-.4,5.46,5.46,0,0,0,1.2-1,6,6,0,0,0,.9-1.12,2.94,2.94,0,0,0,.5-1.27c0-2.49.06-4.56,0-8.18a4.43,4.43,0,0,0-.56-1.48L52.55,29l-.2-2s-.32-.73-.54-.69-7.8.19-7.8.19l.37.07L44.73,28l-.61,1.16-8.77.14L33,29.08l.21-2L33,26.77Z"/><g id="path3416"><path class="cls-16" d="M24.74,36.26,52.4,36.1l.17,1.32-6,0a3.67,3.67,0,0,1-.65.89,3.79,3.79,0,0,1-1.63.5,4.7,4.7,0,0,1-1.94-.15c-.27-.09-.52-.4-.77-.54a5.33,5.33,0,0,0-1.45-.68,2.68,2.68,0,0,0-1.13.06,5.61,5.61,0,0,0-1.1.54,6.4,6.4,0,0,1-1.19.72,6.9,6.9,0,0,1-1.89-.07,4.08,4.08,0,0,1-1-.37,9.17,9.17,0,0,1-.89-.61l-8.2,0Z"/></g><g id="path4949" class="cls-17"><path class="cls-14" d="M51.82,26.49a22.26,22.26,0,0,1-1.92,1.26,6.55,6.55,0,0,1-1.93.69c-.82.18-1.67.22-2.5.39-2,.4-.15.47,1,.45s2.09,0,3.14,0a6.62,6.62,0,0,0,2.1-.24c.37,0,.23-1.73.2-2S51.85,26.67,51.82,26.49Z"/></g><path id="path3382" class="cls-11" d="M24.88,27.52H33l.22,1s.64.71,1.05.69a4,4,0,0,0,.91-.23l.84-.89a6.81,6.81,0,0,0,1.52.89,4.56,4.56,0,0,0,1.84,0A5.53,5.53,0,0,0,41,28.39a4.14,4.14,0,0,0,.47-.41l.91,1,1.21.08.87-.67.26-1.1,7.3-.2,0,.51-7.3.05.23.74-.26.3,7.52.14-.09.55-8.36,0-.11-.07-10.49.14s.16.41-.2.34-8.06,0-8.06,0l.17-.61,1.68-.28h6s.29-.42,0-.4-7.9,0-7.9,0l.07-.36,7.79.09,0-.47-7.92.1Z"/><path id="path3388" class="cls-11" d="M45.46,28.09v.29l6.47,0v-.29Z"/><path id="path3418" class="cls-11" d="M29.19,38.36l19,0-.17.75-11.29-.25-7.6.19Z"/><g id="path3424"><path class="cls-18" d="M25.37,39.44,28,40.66l2.9-.54a25.47,25.47,0,0,1,3.27-.84c.21.1,2,.52,2,.52l1.12-.56.55-.45h9.43l1.65-.46,3.85-.25-.32,1.38-.87,1.28S50.6,42,49.61,42s-16.87.18-16.87.18-5-.16-5.23-.18a10.26,10.26,0,0,1-1.58-.7l-.72-1.43Z"/></g><path id="rect3426" class="cls-12" d="M24.52,32.15h28v2.68h-28Z"/><g id="path3422"><path class="cls-19" d="M25,34.7l-.46.33v.46L40,35.43l5.47,0s5.8-.09,6.1-.08.68,0,.68,0,.16-.8-.15-.77-25.71,0-26.21,0S24.86,34.76,25,34.7Z"/></g><path id="rect3479" class="cls-20" d="M24.39,32.21h28v.4h-28Z"/><g id="path3508"><path class="cls-18" d="M36.85,20.51a2.69,2.69,0,0,0,1.81.51,5.27,5.27,0,0,0,1.59-.15c.59-.21,1-.76,1.66-.83.38,0,.45.48.43.78A2.13,2.13,0,0,1,42,22a5.43,5.43,0,0,0-.31,1.45,18,18,0,0,0-.15,3.36c-.07.27-.46,1-.71.48a24.49,24.49,0,0,1-.43-2.42,10.48,10.48,0,0,1-.44-2.78c-.05-.43-.57-.45-.89-.36a3.08,3.08,0,0,0-1.77.73,2.45,2.45,0,0,0-.75,1.59A9,9,0,0,1,36.44,26c-.08.41-.07.92-.45,1.2a2.07,2.07,0,0,1-1.09.42c-.37-.29-.19-.87-.2-1.28.1-1,.82-1.46.36-3,.57-.19.7-.83,1.15-1.21s.09-.79.49-1C36.84,21,36.78,20.71,36.85,20.51Z"/></g><g id="path3671"><path class="cls-16" d="M35.33,4.05a12.93,12.93,0,0,0-4.42,2.17,11.51,11.51,0,0,0-3.27,3.14,32.09,32.09,0,0,0-1.37,2.91c-.23,1,.25,2,.17,3a31.41,31.41,0,0,0,.28,4.23,2.15,2.15,0,0,0,1.43,1.91c.79-.26.26-1.37.15-2a23.58,23.58,0,0,1-1-3.06,8.3,8.3,0,0,1,.48-3.16,23.34,23.34,0,0,1,.7-2.34c.53-.77,1.23-1.38,1.82-2.09a14.54,14.54,0,0,0,2.5-2.52c.61-.77,1-1.87,2.06-2.17A2.09,2.09,0,0,1,35.33,4.05Z"/></g><g id="path3823"><path class="cls-21" d="M51.19,14.44a9.62,9.62,0,0,1,.13,1.75c0,.49-.26.95-.32,1.44a2.74,2.74,0,0,1-.15.4c0,.2-.07.39-.1.59a6.37,6.37,0,0,1-1,1.76,12,12,0,0,1-1.05,1.67,8.65,8.65,0,0,1-1.66,1.65,9.26,9.26,0,0,1-2.28,1.11c-.63.24.79-1,1-1.22a12,12,0,0,0,1.74-1.53,9.44,9.44,0,0,0,1.07-1.71,5.35,5.35,0,0,0,.71-1.85,17,17,0,0,0,.27-2,11.08,11.08,0,0,1,.47-2.05,4.09,4.09,0,0,0,0-1.52C50,12.52,51.15,13.8,51.19,14.44Z"/></g><g id="path4754"><path class="cls-22" d="M46.59,37.18c-1.16.55-2.12,1.76-3.57,1.23-1.48.16-2-1.49-3.45-1.13-1.58-.47-2.18,1.56-3.37,1a2.62,2.62,0,0,1-3.08-.54c-.41-.54-1.12-.27-1.71-.34l-6.63,0c-.11.58.83.18,1.21.31l6.6,0c.86,1.15,2.36.67,3.6.88.94.15,1.75.11,2-.92,1.36-.56,2.48.16,3.57.79,1.08-.08,2.36.7,3.3,0,.72-.36,1.34-1.13,2.22-1h4.6c.08-.58-.84-.17-1.23-.3Z"/></g></g></g></g></g></svg>