<svg xmlns="http://www.w3.org/2000/svg" width="155.56" height="193.81" viewBox="0 0 155.56 193.81"><defs><style>.cls-1{fill:#f9f9fa;stroke:#e6e6e5;stroke-width:0.29px;}.cls-2{fill:#6f8a92;}.cls-3{fill:#a9892f;stroke:#806829;}.cls-4{fill:#f4eed8;}.cls-5{fill:#e3e2db;}.cls-6{fill:#2c2513;}.cls-10,.cls-7{fill:#483f37;}.cls-7{stroke:#010101;stroke-width:0.55px;}.cls-8{fill:#25201d;}.cls-9{fill:#6d5e54;}.cls-11{fill:#ac9d93;}</style></defs><g id="Layer_2" data-name="Layer 2"><g id="Layer_1-2" data-name="Layer 1"><g id="g26862"><path id="path26609" class="cls-1" d="M2.91,5.77V191.91H152.42V5.77ZM10.1,23.49a3.68,3.68,0,1,1-3.69,3.69A3.68,3.68,0,0,1,10.1,23.49Zm0,73.17a3.68,3.68,0,1,1-3.69,3.69A3.68,3.68,0,0,1,10.1,96.66Zm.51,73.16a3.68,3.68,0,1,1-3.67,3.67A3.68,3.68,0,0,1,10.61,169.82Z"/><path id="path26611" class="cls-2" d="M2.8,125.9v.22H152.54v-.22Z"/><path id="path26613" class="cls-2" d="M2.8,131.48v.22H152.54v-.22Z"/><path id="path26615" class="cls-2" d="M2.8,137.06v.22H152.54v-.22Z"/><path id="path26617" class="cls-2" d="M2.8,142.64v.22H152.54v-.22Z"/><path id="path26619" class="cls-2" d="M2.79,103.58v.21h6.1a4.25,4.25,0,0,1-.49-.21Zm9,0a3.89,3.89,0,0,1-.51.21H152.54v-.21Z"/><path id="path26621" class="cls-2" d="M2.8,109.16v.22H152.54v-.22Z"/><path id="path26623" class="cls-2" d="M2.8,114.74V115H152.54v-.22Z"/><path id="path26625" class="cls-2" d="M2.8,120.32v.22H152.54v-.22Z"/><path id="path26627" class="cls-2" d="M2.79,170.55v.22H8.16a3.15,3.15,0,0,1,.29-.22Zm10,0a3.3,3.3,0,0,1,.3.22H152.54v-.22Z"/><path id="path26629" class="cls-2" d="M2.79,176.11v.24H8.33a3.7,3.7,0,0,1-.29-.24Zm10.42,0-.29.24H152.54v-.24Z"/><path id="path26631" class="cls-2" d="M2.8,181.7v.22H152.54v-.22Z"/><path id="path26633" class="cls-2" d="M2.8,187.28v.22H152.54v-.22Z"/><path id="path26635" class="cls-2" d="M2.8,148.22v.22H152.54v-.22Z"/><path id="path26637" class="cls-2" d="M2.8,153.8V154H152.54v-.22Z"/><path id="path26639" class="cls-2" d="M2.8,159.38v.22H152.54v-.22Z"/><path id="path26641" class="cls-2" d="M2.8,165v.22H152.54V165Z"/><path id="path26643" class="cls-2" d="M2.8,81.26v.23H152.54v-.23Z"/><path id="path26645" class="cls-2" d="M2.8,86.84v.22H152.54v-.22Z"/><path id="path26647" class="cls-2" d="M2.8,92.42v.22H152.54v-.22Z"/><path id="path26649" class="cls-2" d="M2.79,98v.24h4.3L7.28,98Zm10.13,0,.17.24H152.54V98Z"/><path id="path26651" class="cls-2" d="M2.8,58.94v.23H152.54v-.23Z"/><path id="path26653" class="cls-2" d="M2.8,64.52v.23H152.54v-.23Z"/><path id="path26655" class="cls-2" d="M2.8,70.1v.23H152.54V70.1Z"/><path id="path26657" class="cls-2" d="M2.8,75.68v.23H152.54v-.23Z"/><path id="path26659" class="cls-2" d="M2.8,47.78V48H152.54v-.23Z"/><path id="path26661" class="cls-2" d="M2.8,53.36v.23H152.54v-.23Z"/><path id="path26663" class="cls-2" d="M2.79,25.46v.22h4a1.47,1.47,0,0,1,.1-.22Zm10.54,0c0,.07.06.14.1.22H152.54v-.22Z"/><path id="path26665" class="cls-2" d="M2.8,31v.23H152.54V31Z"/><path id="path26667" class="cls-2" d="M2.8,36.62v.23H152.54v-.23Z"/><path id="path26669" class="cls-2" d="M2.8,42.2v.23H152.54V42.2Z"/></g><g id="g26895"><path id="path26897" class="cls-1" d="M1.82,6.43V192.57H151.33V6.43ZM9,24.15a3.68,3.68,0,1,1-3.68,3.69A3.68,3.68,0,0,1,9,24.15ZM9,97.31A3.68,3.68,0,1,1,5.32,101,3.68,3.68,0,0,1,9,97.31Zm.52,73.17a3.68,3.68,0,1,1-3.67,3.66A3.67,3.67,0,0,1,9.52,170.48Z"/><path id="path26899" class="cls-2" d="M1.7,126.56v.22H151.45v-.22Z"/><path id="path26901" class="cls-2" d="M1.7,132.14v.22H151.45v-.22Z"/><path id="path26903" class="cls-2" d="M1.7,137.72v.22H151.45v-.22Z"/><path id="path26905" class="cls-2" d="M1.7,143.29v.23H151.45v-.23Z"/><path id="path26907" class="cls-2" d="M1.7,104.23v.22H7.79a3.51,3.51,0,0,1-.48-.22Zm9,0a3.16,3.16,0,0,1-.5.22H151.45v-.22Z"/><path id="path26909" class="cls-2" d="M1.7,109.82V110H151.45v-.22Z"/><path id="path26911" class="cls-2" d="M1.7,115.4v.22H151.45v-.22Z"/><path id="path26913" class="cls-2" d="M1.7,121v.22H151.45V121Z"/><path id="path26915" class="cls-2" d="M1.7,171.21v.21H7.06a3.21,3.21,0,0,1,.3-.21Zm10,0a3.06,3.06,0,0,1,.29.21H151.45v-.21Z"/><path id="path26917" class="cls-2" d="M1.7,176.76V177H7.23c-.09-.08-.2-.16-.29-.25Zm10.41,0a3.47,3.47,0,0,1-.29.25H151.45v-.25Z"/><path id="path26919" class="cls-2" d="M1.7,182.35v.23H151.45v-.23Z"/><path id="path26921" class="cls-2" d="M1.7,187.93v.23H151.45v-.23Z"/><path id="path26923" class="cls-2" d="M1.7,148.87v.23H151.45v-.23Z"/><path id="path26925" class="cls-2" d="M1.7,154.46v.22H151.45v-.22Z"/><path id="path26927" class="cls-2" d="M1.7,160v.23H151.45V160Z"/><path id="path26929" class="cls-2" d="M1.7,165.61v.23H151.45v-.23Z"/><path id="path26931" class="cls-2" d="M1.7,81.92v.22H151.45v-.22Z"/><path id="path26933" class="cls-2" d="M1.7,87.5v.22H151.45V87.5Z"/><path id="path26935" class="cls-2" d="M1.7,93.08v.22H151.45v-.22Z"/><path id="path26937" class="cls-2" d="M1.7,98.65v.24H6l.2-.24Zm10.12,0c.06.07.11.16.17.24H151.45v-.24Z"/><path id="path26939" class="cls-2" d="M1.7,59.6v.22H151.45V59.6Z"/><path id="path26941" class="cls-2" d="M1.7,65.18v.22H151.45v-.22Z"/><path id="path26943" class="cls-2" d="M1.7,70.76V71H151.45v-.22Z"/><path id="path26945" class="cls-2" d="M1.7,76.34v.22H151.45v-.22Z"/><path id="path26947" class="cls-2" d="M1.7,48.44v.22H151.45v-.22Z"/><path id="path26949" class="cls-2" d="M1.7,54v.22H151.45V54Z"/><path id="path26951" class="cls-2" d="M1.7,26.12v.21h4l.09-.21Zm10.53,0a2,2,0,0,1,.1.21H151.45v-.21Z"/><path id="path26953" class="cls-2" d="M1.7,31.7v.22H151.45V31.7Z"/><path id="path26955" class="cls-2" d="M1.7,37.28v.22H151.45v-.22Z"/><path id="path26957" class="cls-2" d="M1.7,42.86v.22H151.45v-.22Z"/></g><g id="g26959"><path id="path26961" class="cls-1" d="M.15,7.61,6,193.66,155.41,189l-5.83-186ZM7.89,25.1a3.68,3.68,0,1,1-3.58,3.8A3.68,3.68,0,0,1,7.89,25.1Zm2.29,73.12A3.68,3.68,0,1,1,6.6,102,3.72,3.72,0,0,1,10.18,98.22ZM13,171.34a3.68,3.68,0,0,1,3.81,3.54,3.72,3.72,0,0,1-3.58,3.81,3.68,3.68,0,0,1-3.77-3.58A3.64,3.64,0,0,1,13,171.34Z"/><path id="path26963" class="cls-2" d="M3.79,127.68v.22l149.67-4.68V123Z"/><path id="path26965" class="cls-2" d="M4,133.26v.22l149.67-4.68v-.23Z"/><path id="path26967" class="cls-2" d="M4.14,138.84v.22l149.67-4.69v-.22Z"/><path id="path26969" class="cls-2" d="M4.32,144.41v.22L154,140v-.22Z"/><path id="path26971" class="cls-2" d="M3.09,105.37v.22l6.09-.19a3.75,3.75,0,0,1-.5-.21Zm9-.29a3.27,3.27,0,0,1-.5.24l141.18-4.42v-.22Z"/><path id="path26973" class="cls-2" d="M3.27,111v.22L153,106.49v-.23Z"/><path id="path26975" class="cls-2" d="M3.44,116.53v.22l149.67-4.68v-.23Z"/><path id="path26977" class="cls-2" d="M3.62,122.1v.23l149.67-4.69v-.22Z"/><path id="path26979" class="cls-2" d="M5.18,172.31v.22l5.36-.17.29-.23Zm10-.31.3.2,139.39-4.36v-.22Z"/><path id="path26981" class="cls-2" d="M5.36,177.87v.24l5.53-.18a3.4,3.4,0,0,1-.3-.23Zm10.41-.33a3.47,3.47,0,0,1-.29.25L155,173.42v-.24Z"/><path id="path26983" class="cls-2" d="M5.54,183.45v.22L155.21,179v-.22Z"/><path id="path26985" class="cls-2" d="M5.71,189v.22l149.67-4.68v-.23Z"/><path id="path26987" class="cls-2" d="M4.49,150v.22l149.67-4.68v-.23Z"/><path id="path26989" class="cls-2" d="M4.67,155.57v.22l149.67-4.69v-.22Z"/><path id="path26991" class="cls-2" d="M4.84,161.14v.23l149.67-4.69v-.22Z"/><path id="path26993" class="cls-2" d="M5,166.72v.22l149.67-4.68V162Z"/><path id="path26995" class="cls-2" d="M2.4,83.07v.22L152.07,78.6v-.22Z"/><path id="path26997" class="cls-2" d="M2.57,88.64v.23l149.67-4.69V84Z"/><path id="path26999" class="cls-2" d="M2.74,94.22v.22l149.67-4.68v-.23Z"/><path id="path27001" class="cls-2" d="M2.91,99.79V100l4.3-.13a2.27,2.27,0,0,1,.18-.25ZM13,99.47a2.15,2.15,0,0,1,.18.24L152.6,95.34V95.1Z"/><path id="path27003" class="cls-2" d="M1.7,60.76V61L151.37,56.3v-.23Z"/><path id="path27005" class="cls-2" d="M1.87,66.33v.23l149.67-4.69v-.22Z"/><path id="path27007" class="cls-2" d="M2.05,71.91v.23l149.67-4.69v-.22Z"/><path id="path27009" class="cls-2" d="M2.22,77.49v.22L151.9,73V72.8Z"/><path id="path27011" class="cls-2" d="M1.35,49.6v.23L151,45.14v-.22Z"/><path id="path27013" class="cls-2" d="M1.52,55.18v.22L151.2,50.72V50.5Z"/><path id="path27015" class="cls-2" d="M.64,27.29v.22l4-.13a2,2,0,0,1,.09-.22ZM11.17,27c0,.07.07.14.11.22l139.05-4.36V22.6Z"/><path id="path27017" class="cls-2" d="M.83,32.87v.23L150.5,28.41v-.22Z"/><path id="path27019" class="cls-2" d="M1,38.45v.22L150.68,34v-.23Z"/><path id="path27021" class="cls-2" d="M1.17,44v.22l149.67-4.68v-.23Z"/></g><g id="g5880"><g id="g3303"><path id="path4350" class="cls-3" d="M92.72,25.65C90.62,36.16,88.4,47,86.3,57.52c1,3.73,5.26,5.75,5.66,9.7-.58,4.83-7,6.73-11.21,7s-9.25-1-11.73-4.8c-1.48-2.19.41-4.31,1.64-6.05,1-1.82,3.77-3.69,4-5.79C74.74,55,73.26,53,72.89,50.5q-2.44-12.69-5-25.34c.58-.33,1.56-2,1.83-1.3,2.51,11.19,5.22,22.34,7.4,33.59.52,2.3-.86,4.17-2.25,5.83C73.58,65,69.61,68.51,73.24,70c3.62,2.18,7.67,2.54,13.12.2,1.53-.78,3-1.63,3.28-3.22C87.69,64,85,61,84.13,57.43c2.42-10.83,4.32-21.8,6.43-32.7.19-1.5.41-2.84,1-.85C91.94,24.58,92.39,25,92.72,25.65Z"/><g id="path3203"><path class="cls-4" d="M70.91,71.21c2.6,1.91,5.91,2.35,9,2.66a20.41,20.41,0,0,0,10-3.25c1.65-1.62.61-4.11-.21-5.88-1.41-1.89-3.23-3.55-3.86-5.91C85.08,56,86.79,53,87,50.1c1.58-8.29,3.17-16.58,4.7-24.87-1.46,1.84-.86,4.52-1.67,6.66-1.69,8.86-4.32,17.6-4.93,26.63.55,3.57,4.94,5.18,5,8.93.76,3-2.88,4.21-5.09,4.83-2,.69-4,1.45-6.2,1.06-3.13-.4-6.85-.94-8.71-3.81-1.81-2.43.43-4.88,2.08-6.6,1.63-2.15,4.38-4.6,3.09-7.57L68.87,25.2c-.68,1.92.93,4.84,1.08,7.12q2.64,12.41,5.29,24.79c-.92,3.61-4.65,5.4-6,8.77C68.15,67.83,69.9,69.69,70.91,71.21Z"/></g><g id="path3205"><path class="cls-5" d="M73.28,71.24a16.12,16.12,0,0,0,5.18,1.39c.4.1,1.58.07,1-.13-2.92-.61-6-1-7.68-2.89-2-2.07.53-4.89,1.84-6.5a7.38,7.38,0,0,0,2.89-6,5.83,5.83,0,0,0-.41-2.54c-.49.22.17,1.48.1,2a7.16,7.16,0,0,1-.64,3.14,22.5,22.5,0,0,1-1.78,2.56,15.73,15.73,0,0,0-3.16,4.28C69.64,68.78,71.48,70.32,73.28,71.24Z"/></g><g id="path4354"><path class="cls-6" d="M71.26,70.88c2.6,1.91,5.91,2.35,9,2.66,5.65-.79,13.39-4.12,9.82-9.13-1.4-1.89-3.22-3.56-3.85-5.92-.84-2.85.87-5.82,1.06-8.73C88.91,41.48,90.5,33.19,92,24.89c-1.45,1.85-.85,4.52-1.66,6.66-1.7,8.87-4.33,17.61-4.93,26.64.55,3.57,4.94,5.18,5,8.93,0,3.57-7.4,6.06-11.29,5.88-3.13-.39-6.85-.93-8.71-3.8-1.81-2.43.43-4.88,2.08-6.6,1.63-2.15,4.38-4.6,3.09-7.57L69.22,24.87c-.68,1.91.93,4.84,1.08,7.12q2.64,12.39,5.29,24.79c-.92,3.6-4.65,5.4-6,8.76C68.5,67.49,70.25,69.36,71.26,70.88Z"/></g></g><path id="path3277" class="cls-7" d="M100.55,25.33a14.39,14.39,0,0,0,.61-2.31L101,19.57s-.67.59-.29-.77S100.46.49,100.46.49L59,.83,59.78,20l-.43,2.27L59.67,26l7.86-.2L69.72,23l2.43,2.64,16.12-.68,2.11-2.07,2.29,2.63Z"/><path id="path3289" class="cls-8" d="M100.57,24.35c-.76.17-8.67.06-8.67.06l.83.88,7.69-.09Z"/><path id="path3293" class="cls-8" d="M67.42,26.07,60,26.12l-.24-1.51,8.46,0Z"/><g id="path3295"><path class="cls-8" d="M70.07,19.9c-.49,0-10.18.15-10.18.15l-.11,3.23,9.53-.62.2-1.81Z"/></g><g id="path3291"><path class="cls-8" d="M90.43,22.6c-.2.37-2.29,2.66-2.29,2.66s-16,.49-16,0-2.89-2.75-2.51-2.75,3-.23,3-.23l1.56-2.24,12.21-.26,1.15,2.91Z"/></g><g id="path3297"><polygon class="cls-8" points="90.51 19.38 100.6 19.15 101 22.91 90.95 22.88 90.51 19.38"/></g><g id="path3299"><path class="cls-9" d="M72.91,24.75A8.9,8.9,0,0,0,74,22.84l12.1-.41,1.51,2.23Z"/></g><path id="path3301" class="cls-8" d="M59.6,1.7,100,1.4l.8,18.73.44.38L100.56,0,58.89.65l.64,19.85.69-.9Z"/><g id="path3360"><polygon class="cls-9" points="59.74 24.41 59.83 23.33 69.13 22.77 68.26 24.41 59.74 24.41"/></g><g id="path3362"><path class="cls-9" d="M100.7,24.34c-.74.33-7.63-.15-7.91-.16-.85,0-2.24-1.33-2.24-1.33l10.25.09Z"/></g><g id="g3382"><g id="path3337"><path class="cls-10" d="M73.66,23.93c4.08-.47,8.25-.52,12.37-.68,0-.28.13-.06.11-.35-3.16.17-6.33.34-9.5.37-.55,0-2.11.25-2.65.16C73.9,23.69,73.79,23.68,73.66,23.93Z"/></g><g id="path3380"><path class="cls-11" d="M74.27,24.47c.56-.6-1.53.41,12.22-.58.3-.49-9.23.35-12.4.37C73.6,24.08,73.25,24.65,74.27,24.47Z"/></g></g><g id="path4369"><path class="cls-10" d="M92,23.79a79.57,79.57,0,0,1,8.46-.07c0-.29.09-.06.08-.35-2.16,0-4.32,0-6.48-.09a20.13,20.13,0,0,1-2.33,0C91.67,23.58,92.12,23.55,92,23.79Z"/></g><g id="path3390"><path class="cls-11" d="M92.08,24.21c0-.57-.53.34,8.09-.08C98.55,23.63,92.18,24.2,92.08,24.21Z"/></g><g id="path3394"><path class="cls-10" d="M60.14,24a66.76,66.76,0,0,1,7.75-.28c0-.28.09-.06.08-.34-2,.06-4,.14-5.95.06a11.61,11.61,0,0,1-1.66.08C60.3,23.77,60.23,23.75,60.14,24Z"/></g><g id="path3396"><path class="cls-11" d="M60.64,24.26c.35-.57-1,.36,7.65-.19.19-.48-5.78.05-7.77,0C60.22,23.86,60,24.4,60.64,24.26Z"/></g></g></g></g></svg>