<svg xmlns="http://www.w3.org/2000/svg" width="149.9" height="186.53" viewBox="0 0 149.9 186.53"><defs><style>.cls-1{fill:#f9f9fa;stroke:#e6e6e5;stroke-width:0.38px;}.cls-2{fill:#6f8a92;}.cls-3{fill:#333;}.cls-3,.cls-31,.cls-32,.cls-33,.cls-34,.cls-4{stroke:#010101;}.cls-3,.cls-31{stroke-width:4.38px;}.cls-4,.cls-5{fill:#fff;}.cls-6{fill:#818181;}.cls-7{fill:#b4b4b4;}.cls-8{fill:#dfcd87;}.cls-9{fill:#192753;}.cls-10{fill:#243c7b;}.cls-11{fill:#52b848;}.cls-12{fill:#1a4ba0;}.cls-13{fill:#355dab;}.cls-14{fill:#d8ecd5;}.cls-15{fill:#cdcccc;}.cls-16{fill:#d3ab2a;}.cls-17{fill:#fedd56;}.cls-18{fill:#ffe681;}.cls-19{fill:#dcb726;}.cls-20{fill:#a91e22;}.cls-21{fill:#ed2224;}.cls-22{fill:#f37f81;}.cls-23{fill:#ef3733;}.cls-24{fill:#f15858;}.cls-25{fill:#21592c;}.cls-26{fill:#236f38;}.cls-27{fill:#2d9b47;}.cls-28{fill:#225127;}.cls-29{fill:#27793c;}.cls-30{fill:#2fa148;}.cls-31{fill:#ffcd05;}.cls-32{fill:#fea;}.cls-33{fill:#204579;stroke-width:0.05px;}.cls-34{fill:#628dc9;}.cls-35{fill:#2c5ba1;}.cls-36{fill:#4270b7;}</style></defs><g id="Layer_2" data-name="Layer 2"><g id="Layer_1-2" data-name="Layer 1"><g id="g4374"><path id="rect2383" class="cls-1" d="M.19.19H149.71V186.33H.19Z"/><path id="path2410" class="cls-2" d="M.08,120.33v.22H149.82v-.22Z"/><path id="path2412" class="cls-2" d="M.08,125.91v.22H149.82v-.22Z"/><path id="path2414" class="cls-2" d="M.08,131.49v.22H149.82v-.22Z"/><path id="path2998" class="cls-2" d="M.08,137.07v.22H149.82v-.22Z"/><path id="path2418" class="cls-2" d="M.08,98v.22H149.82V98Z"/><path id="path2420" class="cls-2" d="M.08,103.59v.22H149.82v-.22Z"/><path id="path2422" class="cls-2" d="M.08,109.17v.22H149.82v-.22Z"/><path id="path2424" class="cls-2" d="M.08,114.75V115H149.82v-.22Z"/><path id="path2426" class="cls-2" d="M.08,165v.22H149.82V165Z"/><path id="path2428" class="cls-2" d="M.08,170.55v.22H149.82v-.22Z"/><path id="path2430" class="cls-2" d="M.08,176.13v.22H149.82v-.22Z"/><path id="path2432" class="cls-2" d="M.08,181.71v.22H149.82v-.22Z"/><path id="path2434" class="cls-2" d="M.08,142.65v.22H149.82v-.22Z"/><path id="path2436" class="cls-2" d="M.08,148.23v.22H149.82v-.22Z"/><path id="path2438" class="cls-2" d="M.08,153.81V154H149.82v-.22Z"/><path id="path2440" class="cls-2" d="M.08,159.39v.22H149.82v-.22Z"/><path id="path3012" class="cls-2" d="M.08,75.69v.23H149.82v-.23Z"/><path id="path2444" class="cls-2" d="M.08,81.27v.22H149.82v-.22Z"/><path id="path2446" class="cls-2" d="M.08,86.85v.22H149.82v-.22Z"/><path id="path3016" class="cls-2" d="M.08,92.43v.22H149.82v-.22Z"/><path id="path2450" class="cls-2" d="M.08,53.37v.23H149.82v-.23Z"/><path id="path2452" class="cls-2" d="M.08,59v.23H149.82V59Z"/><path id="path2454" class="cls-2" d="M.08,64.53v.23H149.82v-.23Z"/><path id="path2456" class="cls-2" d="M.08,70.11v.23H149.82v-.23Z"/><path id="path2458" class="cls-2" d="M.08,42.21v.23H149.82v-.23Z"/><path id="path2460" class="cls-2" d="M.08,47.79V48H149.82v-.23Z"/><path id="path2462" class="cls-2" d="M.08,19.9v.22H149.82V19.9Z"/><path id="path2464" class="cls-2" d="M.08,25.47v.23H149.82v-.23Z"/><path id="path2466" class="cls-2" d="M.08,31.05v.23H149.82v-.23Z"/><path id="path2468" class="cls-2" d="M.08,36.63v.23H149.82v-.23Z"/></g><g id="g4312"><path id="path2437" class="cls-3" d="M127.41,14a3.46,3.46,0,1,1-6.92,0h0a3.46,3.46,0,1,1,6.92,0Z"/><path id="path3788" class="cls-4" d="M124,10.62a2.88,2.88,0,0,0-.59.06,3.24,3.24,0,0,0-.75.29,2.79,2.79,0,0,0-.82.71,5.72,5.72,0,0,0-.37.49,2.5,2.5,0,0,1,.38-.15c.22-.1.42.07.63.09s.42.1.46-.11a4.9,4.9,0,0,0,.65.11c.22,0-.09-.13.08-.16a1.66,1.66,0,0,1,.58.08c.1,0,.47.17.38,0s.22-.11.31-.08c.24,0,.49.21.73.12a.53.53,0,0,1,.5-.08c.14,0,.43.18.47,0a1.4,1.4,0,0,0-.53-.6,3.49,3.49,0,0,0-.54-.41,3.57,3.57,0,0,0-1.21-.33Zm2.79,5.08a.9.9,0,0,0-.21.08c-.15.1-.22.28-.36.39s-.27-.2-.36,0-.21.34-.39.41,0-.21,0-.32-.32.2-.51.22a.19.19,0,0,0-.29-.07c-.17.09-.37.28-.56.13a4.28,4.28,0,0,1-.72-.07.44.44,0,0,0-.49,0,1.06,1.06,0,0,1-.71-.21c-.21-.16-.5-.11-.71-.26h-.06a2.88,2.88,0,0,1,.37.31c.2.13.26.37.47.48s.55.38.89.43a2.58,2.58,0,0,0,1.58,0,2.82,2.82,0,0,0,1.15-.46c.23-.13.39-.34.61-.48a.66.66,0,0,0,.37-.55Z"/><g id="path2448"><path class="cls-5" d="M124.53,13a1.31,1.31,0,0,0-.4,0s0,.13,0,.13a3.33,3.33,0,0,0,.38,0,.9.9,0,0,1,.28.08,1.71,1.71,0,0,1,.27.2l.14.13,0,0,.05.06s0-.08,0-.11a1.43,1.43,0,0,0-.46-.41A1,1,0,0,0,124.53,13Z"/></g><g id="path2445"><path class="cls-6" d="M120.62,13.31c0-.22.24-.37.31-.59s.36,0,.5.11c.28-.06.52-.38.82-.26a1.49,1.49,0,0,0,.71.17.61.61,0,0,0,.72-.26,2.14,2.14,0,0,1,.67,0,1.76,1.76,0,0,1,.87.22c.22.32.36-.28.62-.08s.46,0,.67-.13a.43.43,0,0,1,.57.34,2.24,2.24,0,0,1,.15.77c.06.27-.24.38-.44.29a.62.62,0,0,0-.59,0c-.28.16-.55-.18-.84-.09s-.1-.41-.28-.56a1.09,1.09,0,0,0-.64-.34.8.8,0,0,0-.78.23c-.26.25-.29.68-.59.9-.24.06-.42-.2-.65-.23a.54.54,0,0,0-.61.21c-.25.09-.52-.06-.78,0s-.42-.2-.4-.44C120.63,13.42,120.62,13.37,120.62,13.31Z"/></g><g id="path2442"><path class="cls-7" d="M126.67,12.19c0,.08.36.51.07.47s-.39-.1-.59-.09c-.14.33-.34.48-.57.31s-.64-.15-.93-.42c-.18,0-.07.59-.29.36s-.43-.3-.76-.16a1.71,1.71,0,0,1-.87.34c-.21-.1-.39-.59-.61-.2-.18.2-.41,0-.58.26s-.38,0-.54-.11c-.13-.36.15-.59.26-.81a8.6,8.6,0,0,1,.84-.76c.16-.33-.07.25-.17.35-.12.4,0,.3.08.25s.46-.35.71-.25.33.24.5.23.43-.3.65-.41a.59.59,0,0,1,.56,0,1.33,1.33,0,0,0,.62.36c.26.15.51-.05.76-.13s.41-.46.59-.12A1.35,1.35,0,0,1,126.67,12.19Z"/></g></g><g id="g5952"><g id="g5387"><g id="path2666"><path class="cls-8" d="M53.8,14.09c-1.11,2.48,2.45,1.71,4.27,2.55.82-.11,1.53.2,1.39-.91.35-.51,1.36-1.31,1.45-1.91s-.69-2-1.23-2.15c-.8-.17-1.14,1-2,1.1a13.66,13.66,0,0,0-3.59,1.14c-.09.05-1,.54-.41.38"/></g><g id="g2770"><path id="path2670" class="cls-9" d="M53.46,12.2a3.44,3.44,0,1,0,6.88,0h0a3.44,3.44,0,1,0-6.88,0Z"/><g id="path2672"><path class="cls-10" d="M53.88,12.25a3.05,3.05,0,1,0,6.1,0h0a3.05,3.05,0,1,0-6.1,0Z"/></g><g id="path2674"><path class="cls-10" d="M54.24,12.21a2.69,2.69,0,1,0,5.37,0h0a2.69,2.69,0,1,0-5.37,0Z"/></g><g id="path2676"><path class="cls-11" d="M54.71,12.2a1.84,1.84,0,0,0,2.42,1.63c1.08-.37,2.16-.67,1.62-1.76S58.2,9.91,57,9.91A2.27,2.27,0,0,0,54.71,12.2Z"/></g><path id="path2686" class="cls-9" d="M54,11.66A2.68,2.68,0,1,0,56.66,9,2.68,2.68,0,0,0,54,11.66Z"/><g id="path2688"><path class="cls-12" d="M54.21,11.64a2.4,2.4,0,1,0,2.4-2.41,2.4,2.4,0,0,0-2.4,2.41Z"/></g><g id="path2690"><path class="cls-13" d="M54.49,11.74a2,2,0,1,0,2-2,2,2,0,0,0-2,2Z"/></g><path id="path2692" class="cls-14" d="M55.48,9.49a3.19,3.19,0,0,0-.55.35,2.08,2.08,0,0,0-.27.32c-.08.12-.23.42-.23.42A3.79,3.79,0,0,1,56,9.39l.08-.05C55.87,9.28,55.65,9.42,55.48,9.49Z"/><path id="path2694" class="cls-14" d="M58.76,14.58a.65.65,0,0,0,.3-.09.86.86,0,0,0,.4-.42.43.43,0,0,0,.07-.23C59.49,14.17,58.67,14.6,58.76,14.58Z"/></g></g></g><g id="path10276"><path class="cls-15" d="M6.17,8.82a3.44,3.44,0,1,0,6.88,0h0a3.44,3.44,0,1,0-6.88,0Z"/></g><g id="g10263"><path id="path10207" class="cls-16" d="M5.77,8.53a3.44,3.44,0,1,0,6.88,0h0a3.44,3.44,0,1,0-6.88,0Z"/><g id="path10209"><path class="cls-17" d="M6.18,8.58a3.05,3.05,0,1,0,6.1,0h0a3.05,3.05,0,1,0-6.1,0Z"/></g><g id="path10211"><path class="cls-18" d="M6.54,8.53a2.69,2.69,0,1,0,5.38,0h0a2.69,2.69,0,1,0-5.38,0Z"/></g><g id="path10213"><path class="cls-11" d="M7,8.53a1.84,1.84,0,0,0,2.43,1.63c1.08-.38,2.15-.67,1.61-1.76s-.54-2.16-1.79-2.16A2.27,2.27,0,0,0,7,8.53Z"/></g><path id="path10215" class="cls-19" d="M6.28,8A2.68,2.68,0,1,0,9,5.3,2.68,2.68,0,0,0,6.28,8Z"/><g id="path10217"><path class="cls-17" d="M6.51,8a2.4,2.4,0,1,0,2.4-2.4A2.4,2.4,0,0,0,6.51,8Z"/></g><g id="path10219"><path class="cls-18" d="M6.79,8.07a2,2,0,1,0,2-2,2,2,0,0,0-2,2Z"/></g><path id="path10221" class="cls-14" d="M7.78,5.82a2.38,2.38,0,0,0-.54.35A1.69,1.69,0,0,0,7,6.49c-.08.12-.23.42-.23.42A3.75,3.75,0,0,1,8.28,5.72l.07,0C8.17,5.61,8,5.75,7.78,5.82Z"/><path id="path10223" class="cls-14" d="M11.07,10.91a.58.58,0,0,0,.29-.09.88.88,0,0,0,.41-.42.53.53,0,0,0,.06-.23C11.79,10.5,11,10.93,11.07,10.91Z"/></g><g id="g5966"><g id="path10303"><path class="cls-15" d="M68.56,12.19a3.44,3.44,0,1,0,6.69,1.61h0a3.44,3.44,0,1,0-6.69-1.6Z"/></g><g id="g10252"><path id="path10234" class="cls-20" d="M68.42,12a3.44,3.44,0,1,0,6.69,1.6h0A3.44,3.44,0,1,0,68.42,12Z"/><g id="path10236"><path class="cls-21" d="M68.81,12.12a3.05,3.05,0,1,0,5.94,1.42h0a3.05,3.05,0,1,0-5.93-1.43Z"/></g><g id="path10238"><path class="cls-22" d="M69.18,12.16a2.69,2.69,0,1,0,5.22,1.26h0a2.68,2.68,0,1,0-5.22-1.25Z"/></g><g id="path10240"><path class="cls-11" d="M69.63,12.27a1.84,1.84,0,0,0,2,2.15c1.14-.12,2.25-.15,2-1.34s0-2.22-1.23-2.51A2.28,2.28,0,0,0,69.63,12.27Z"/></g><path id="path10242" class="cls-20" d="M69.05,11.57a2.68,2.68,0,1,0,3.23-2,2.68,2.68,0,0,0-3.23,2Z"/><g id="path10244"><path class="cls-23" d="M69.28,11.6a2.4,2.4,0,1,0,2.89-1.78,2.4,2.4,0,0,0-2.89,1.78Z"/></g><g id="path10246"><path class="cls-24" d="M69.53,11.77A2,2,0,1,0,72,10.26a2,2,0,0,0-2.45,1.51Z"/></g><path id="path10248" class="cls-14" d="M71,9.81a2.83,2.83,0,0,0-.62.21,2.7,2.7,0,0,0-.34.25c-.11.1-.32.35-.32.35a3.79,3.79,0,0,1,1.78-.79l.08,0C71.44,9.7,71.2,9.78,71,9.81Z"/><path id="path10250" class="cls-14" d="M73,15.53a1,1,0,0,0,.8-.34.38.38,0,0,0,.12-.21C73.82,15.29,72.93,15.52,73,15.53Z"/></g></g><g id="g4341"><g id="g6159"><g id="path6161"><path class="cls-8" d="M33.92,18.85a3,3,0,0,0-.29,1.71c.25.74,1,.88,1.73,1a10.34,10.34,0,0,0,2.83.07c.81-.11,1.53.22,1.38-1,.36-.55,1.37-1.41,1.45-2.05s-.68-2.19-1.23-2.31c-.79-.19-1.13,1.06-1.94,1.19a12.39,12.39,0,0,0-3.59,1.22c-.1.05-1,.58-.41.41"/></g><g id="g6163"><path id="path6165" class="cls-25" d="M33.11,17.42a3.44,3.44,0,1,0,6.88,0h0a3.44,3.44,0,1,0-6.88,0Z"/><g id="path6167"><path class="cls-26" d="M33.52,17.46a3.05,3.05,0,1,0,6.1,0h0a3.05,3.05,0,1,0-6.1,0Z"/></g><g id="path6169"><path class="cls-27" d="M33.88,17.42a2.69,2.69,0,1,0,5.38,0h0a2.69,2.69,0,1,0-5.38,0Z"/></g><g id="path6171"><path class="cls-11" d="M34.35,17.42a1.84,1.84,0,0,0,2.43,1.63c1.08-.38,2.15-.67,1.61-1.76s-.54-2.16-1.79-2.16A2.27,2.27,0,0,0,34.35,17.42Z"/></g><g id="path6173"><path class="cls-28" d="M37.49,15.58a2,2,0,0,1,.35,2.5,2.09,2.09,0,0,1-2.52.59l-2.08-1.38c-.57-.37-.55-1.37,0-2.23s1.55-1.23,2.13-.86Z"/></g><g id="path6175"><path class="cls-29" d="M37.16,15.5a1.91,1.91,0,0,1,.33,2.41,2,2,0,0,1-2.39.57l-2-1.33c-.54-.36-.52-1.33,0-2.15s1.47-1.19,2-.82Z"/></g><g id="path6177"><path class="cls-30" d="M36.92,15.5a1.75,1.75,0,0,1,.29,2.18,1.71,1.71,0,0,1-2.11.52L33.37,17c-.48-.33-.46-1.2,0-1.95s1.3-1.08,1.77-.74Z"/></g><g id="g6179"><path id="path6181" class="cls-28" d="M32.42,15.92a2.68,2.68,0,1,0,2.68-2.69,2.68,2.68,0,0,0-2.68,2.69Z"/><g id="path6183"><path class="cls-30" d="M32.65,15.9A2.4,2.4,0,1,0,35,13.49a2.4,2.4,0,0,0-2.39,2.41Z"/></g><g id="path6185"><path class="cls-11" d="M32.93,16a2,2,0,1,0,2-2,2,2,0,0,0-2,2Z"/></g><path id="path6187" class="cls-14" d="M33.92,13.75a3.19,3.19,0,0,0-.55.35,2.08,2.08,0,0,0-.27.32c-.08.12-.23.42-.23.42a3.79,3.79,0,0,1,1.54-1.19l.08-.05C34.31,13.54,34.09,13.68,33.92,13.75Z"/></g><path id="path6189" class="cls-14" d="M38.41,19.8a.63.63,0,0,0,.29-.1.86.86,0,0,0,.41-.41.57.57,0,0,0,.06-.24C39.13,19.39,38.31,19.82,38.41,19.8Z"/></g></g></g><g id="g5987"><g id="g5979"><g id="g5945"><path id="path5402" class="cls-31" d="M116.26,10a3.46,3.46,0,1,1-3.46-3.47A3.46,3.46,0,0,1,116.26,10Z"/><path id="path5404" class="cls-32" d="M112.83,6.66a3,3,0,0,0-.6.06,3.35,3.35,0,0,0-.74.29,2.74,2.74,0,0,0-.83.72,3.34,3.34,0,0,0-.36.48,2.35,2.35,0,0,1,.37-.14c.22-.1.42.06.64.09s.41.09.45-.12a4.94,4.94,0,0,0,.65.12c.23,0-.09-.13.08-.16a1.88,1.88,0,0,1,.58.07c.1,0,.47.17.38,0s.23-.11.32-.08c.24,0,.48.21.72.12A.54.54,0,0,1,115,8c.13,0,.42.19.46,0s-.33-.42-.53-.6a4.09,4.09,0,0,0-.53-.4,3.64,3.64,0,0,0-1.21-.34Zm2.78,5.08-.21.08c-.15.1-.21.29-.36.39s-.27-.2-.35,0-.21.34-.4.41,0-.21-.05-.32-.32.2-.51.22a.21.21,0,0,0-.29-.07c-.17.09-.36.28-.56.13a4.28,4.28,0,0,1-.72-.06.39.39,0,0,0-.48,0,1.15,1.15,0,0,1-.72-.21c-.21-.16-.49-.11-.7-.27h-.07c.08,0,.26.22.38.3s.26.38.46.49.56.37.9.42a2.5,2.5,0,0,0,1.58,0,2.81,2.81,0,0,0,1.14-.45c.23-.14.4-.35.62-.48a.69.69,0,0,0,.36-.56Z"/><g id="path5406"><path class="cls-5" d="M113.39,9a1,1,0,0,0-.4,0s-.06.12,0,.13.26-.06.38-.05a.64.64,0,0,1,.28.07,1.86,1.86,0,0,1,.28.21l.13.12,0,0,0,.06,0-.11a1.51,1.51,0,0,0-.46-.4A.91.91,0,0,0,113.39,9Z"/></g><g id="path5408"><path class="cls-17" d="M109.47,9.36c0-.23.24-.38.31-.59s.37,0,.51.11c.28-.06.51-.39.82-.27a1.46,1.46,0,0,0,.71.17.61.61,0,0,0,.72-.25,2.08,2.08,0,0,1,.66,0,1.77,1.77,0,0,1,.87.23c.22.31.36-.29.62-.09s.47,0,.67-.13a.43.43,0,0,1,.57.34,2.24,2.24,0,0,1,.15.77c.06.27-.24.38-.43.29a.59.59,0,0,0-.59,0c-.29.16-.56-.19-.84-.1s-.1-.41-.29-.56a1.21,1.21,0,0,0-.64-.34.82.82,0,0,0-.77.23c-.27.25-.3.69-.6.9-.24.06-.42-.2-.64-.23a.55.55,0,0,0-.61.21c-.26.09-.53-.06-.79,0s-.41-.21-.39-.45A1,1,0,0,1,109.47,9.36Z"/></g><g id="path5410"><path class="cls-18" d="M115.53,8.23c0,.09.35.52.06.48a4,4,0,0,0-.59-.1c-.13.34-.34.49-.56.31s-.64-.15-.94-.41c-.17,0-.07.58-.29.35s-.42-.29-.76-.16a1.63,1.63,0,0,1-.87.34c-.21-.09-.39-.59-.61-.2-.18.2-.41,0-.58.26a.41.41,0,0,1-.54-.11c-.13-.36.15-.58.27-.8a10,10,0,0,1,.83-.77c.17-.33-.07.26-.17.35-.12.41,0,.31.09.25s.45-.34.7-.25.33.25.51.23.42-.3.64-.41a.59.59,0,0,1,.56,0,1.44,1.44,0,0,0,.62.37c.26.14.51-.06.76-.13s.41-.47.59-.12A1.45,1.45,0,0,1,115.53,8.23Z"/></g></g></g></g><g id="g5938"><path id="path5927" class="cls-33" d="M138.7,12.07a3.46,3.46,0,1,1-3.45-3.47A3.45,3.45,0,0,1,138.7,12.07Z"/><path id="path5929" class="cls-34" d="M135.27,8.69a3.05,3.05,0,0,0-.6.06,3.35,3.35,0,0,0-.74.29,2.7,2.7,0,0,0-.82.72,3.41,3.41,0,0,0-.37.48,2.46,2.46,0,0,1,.38-.14c.22-.1.42.06.63.09s.42.09.46-.12a4.66,4.66,0,0,0,.65.12c.22,0-.09-.13.08-.16a1.92,1.92,0,0,1,.58.07c.1,0,.46.17.38,0s.22-.11.31-.08.49.21.73.12a.53.53,0,0,1,.5-.08c.14,0,.43.18.47,0s-.33-.42-.53-.6a3.43,3.43,0,0,0-.54-.4,3.64,3.64,0,0,0-1.21-.34Zm2.79,5.08-.21.08c-.15.1-.22.28-.36.39s-.27-.2-.36,0-.21.34-.4.41,0-.21,0-.32-.32.2-.51.22a.2.2,0,0,0-.29-.07c-.18.09-.37.28-.57.13a4.25,4.25,0,0,1-.71-.06.41.41,0,0,0-.49,0,1.12,1.12,0,0,1-.71-.21c-.21-.16-.5-.11-.71-.27h-.06c.08,0,.25.22.37.3s.26.38.47.49.55.37.89.42a2.51,2.51,0,0,0,1.58,0,2.8,2.8,0,0,0,1.15-.45c.22-.14.39-.35.61-.48a.71.71,0,0,0,.37-.56Z"/><g id="path5931"><path class="cls-5" d="M135.83,11a1.05,1.05,0,0,0-.4,0s-.05.12,0,.13.25-.06.38,0a.72.72,0,0,1,.28.07,1.78,1.78,0,0,1,.27.21l.14.12s0,0,0,0l.05.06s0-.07,0-.11a1.31,1.31,0,0,0-.46-.4A.8.8,0,0,0,135.83,11Z"/></g><g id="path5934"><path class="cls-35" d="M131.91,11.38c.06-.22.25-.37.32-.58s.36,0,.5.11c.28-.06.52-.39.82-.27a1.49,1.49,0,0,0,.71.17.61.61,0,0,0,.72-.25,2.14,2.14,0,0,1,.67,0,1.77,1.77,0,0,1,.87.23c.22.31.36-.29.62-.09s.46,0,.66-.13a.42.42,0,0,1,.57.34,2,2,0,0,1,.16.77c.06.27-.25.38-.44.29a.59.59,0,0,0-.59,0c-.28.16-.55-.19-.84-.1s-.1-.41-.28-.56a1.21,1.21,0,0,0-.64-.34.81.81,0,0,0-.78.23c-.26.25-.29.69-.6.9s-.41-.2-.64-.23a.56.56,0,0,0-.61.21c-.25.09-.52-.06-.78,0s-.42-.21-.4-.45A1.11,1.11,0,0,0,131.91,11.38Z"/></g><g id="path5936"><path class="cls-36" d="M138,10.26c0,.08.36.52.07.48a4,4,0,0,0-.59-.1c-.14.34-.34.49-.57.31s-.64-.15-.93-.41c-.18,0-.07.58-.29.35s-.43-.29-.76-.16a1.66,1.66,0,0,1-.87.34c-.21-.09-.39-.59-.61-.2-.18.2-.42,0-.59.26s-.37,0-.53-.11c-.13-.36.15-.58.26-.8a8.71,8.71,0,0,1,.84-.77c.16-.33-.07.26-.17.35-.12.41,0,.31.08.25s.46-.34.71-.25.33.24.5.23.43-.3.65-.41a.59.59,0,0,1,.56,0,1.44,1.44,0,0,0,.62.37c.26.14.51-.06.76-.13s.41-.47.59-.12A1.31,1.31,0,0,1,138,10.26Z"/></g></g></g></g></svg>