<svg xmlns="http://www.w3.org/2000/svg" width="155.92" height="114.65" viewBox="0 0 155.92 114.65"><defs><style>.cls-1{fill:#d3bc5f;}.cls-2,.cls-3{fill:#f4eed8;}.cls-2,.cls-4{stroke:#e8ddaf;}.cls-4{fill:none;}.cls-5{opacity:0.64;isolation:isolate;}.cls-6{fill:#e8ddaf;}.cls-7{fill:#dfcd87;}.cls-8{fill:#cdcccc;}.cls-9{fill:#e3e2db;}.cls-10{fill:#676767;}.cls-11{fill:#f9f9fa;}.cls-12{fill:#333;}.cls-13{fill:#c8c4b7;}.cls-14,.cls-17{fill:#989898;}.cls-15{fill:#fff;}.cls-16{fill:#4e4e4e;}.cls-17{stroke:#818181;}.cls-18{fill:#1a1a1a;}</style></defs><g id="Layer_2" data-name="Layer 2"><g id="Layer_1-2" data-name="Layer 1"><g id="g26599"><g id="path4016"><path class="cls-1" d="M3.35,36.93s.27-.53,1.57-.53c.55,0,1.3,0,2.07,0,.6,0,1,.11,1.72.11s1.61.13,2.31.13,1.36-.1,2.05-.1,1.16,0,1.85,0l2,0,2.22,0c.65,0,1.22-.24,1.9-.24s.62.24,1.29.24,2.16.06,2.83.06,1.93.17,2.61.17,1.15.05,1.82.05,1.12-.09,1.79-.09,1-.16,1.63-.16,1.32-.12,2-.12,1.17.5,1.84.5,1.57-.38,2.24-.38,1.56.54,2.23.54.79-.56,1.45-.56,1.71-.11,2.38-.11,1.15.15,1.82.15,1.36-.84,2-.84,1.32.63,2,.63,1,.22,1.67.22,1.88-.34,2.54-.34,1.26.22,1.92.22,1.82-.09,2.48-.09,1.16.19,1.83.19.26-.2.92-.2.79-.12,1.45-.12l3.21,0c.66,0,1.67.38,2.34.38s.79.57,1.46.57,1.6-.82,2.26-.82,1.25.88,1.91.88,1.35-.37,2-.37,1.19-.23,1.86-.23,1.73.35,2.4.35,1.57-.43,2.23-.43.38-.15,1.05-.15,1,.13,1.66.13,2-.3,2.68-.3,1.05.3,1.71.3,1.22.85,1.88.85,2-1.14,2.62-1.14,1.67.56,2.34.56.81-.11,1.48-.11.9-.47,1.56-.47.79.38,1.45.38,2.11-.08,2.77-.08,2.43-.25,3.09-.25.3.27,1,.27,1.5-.41,2.16-.41,1.82.55,2.48.55,1.36.82,2,.82.37-1.35,1-1.35,1.62.13,2.28.13l2.7,0c.67,0,.77.28,1.43.28h1.89c.67,0,1.72.54,2.37.54s1-.36,1.69-.36,1.27-.21,1.92-.21l2.32,0c.67,0,.9.06,1.55.06s.38.46,1,.46,2.31-.47,2.95-.47,1.72.26,2.37.26,1.1-.67,1.75-.67.73.3,1.36.3,3.27.29,3.9.29.5-.61,1.12-.61.8.3,1.41.3c.77,0,1.7.2,2.26.2a9.13,9.13,0,0,0,1.92-.15s0,.41,0,1.43c0,.44.54.77.54,1.38s-.55,1.4-.55,2,.15,1.61.15,2.17-.12.42-.12,1,.54.61.54,1.15-.8.21-.8.76-.39,2.44-.39,3-.1,1.25-.1,1.79.59.6.59,1.14-1.27,1.85-1.27,2.39,1.3,1,1.3,1.57.15.15.15.69.57,1.18.57,1.72-.49,1-.49,1.52-.22,1.14-.22,1.67,0,1.22,0,1.75-.09,1-.09,1.57.23.93.23,1.46.13,1,.13,1.49-.46,1.11-.46,1.64.29.83.29,1.36-.44.79-.44,1.31.46,1.49.46,2,.1.48.1,1-.24,1.84-.24,2.36.17.7.17,1.23-.09.83-.09,1.36-.23,1.87-.23,2.39-.46.65-.46,1.17.65,1.5.65,2,0,1.09,0,1.61.57,1.15.57,1.67-.48.49-.48,1,.22,1.2.22,1.72-.56.94-.56,1.46.36,1.21.32,1.74.51,1,.45,1.5-1.46,1.38-.85,1.58c1.6.52.38,1.31.26,1.84s-.37.76-.48,1.29,0,1-.06,1.51.63,1.34.53,1.87-.1,1-.2,1.5-.19,1.46-.27,2-.3,1.09-.36,1.63-.19,1.41-.23,2,.18.87.18,1.4c-.67,0-2.92-.6-3.53-.61s-1-.08-1.6-.09-1.68-.4-2.3-.41-1,.33-1.65.31-1.55.13-2.21.12-.89-.08-1.56-.08-1.76.26-2.44.26-1.06-.16-1.74-.16-1.2-.08-1.88-.08H133c-.65,0-1.68.2-2.35.2s-1.76.58-2.43.58-1.44-.67-2.11-.67-1-.49-1.66-.49-.92.33-1.59.33-1.07-.4-1.74-.4-1.42.25-2.09.25-1.88-.8-2.55-.8-1,.88-1.7.88-1.24.17-1.91.17-1.51.08-2.18.08-1.82.17-2.49.17-.78-.28-1.45-.28-1.26-.07-1.93-.07-1.46.54-2.13.54-.87-.82-1.54-.82-1.63.17-2.3.17-1.2.21-1.87.21-1.87.2-2.54.2-1.53-.87-2.2-.87-.77-.15-1.44-.15-2,1.24-2.7,1.24-.6-.85-1.26-.85-1.2.66-1.86.66-1.53-.57-2.2-.57-1.21.12-1.87.12-1.1.52-1.76.52-1.58-.36-2.24-.36-1.13-.37-1.8-.37-1.51.34-2.18.34-1.08,0-1.74,0-1.66-.53-2.32-.53-1.23.62-1.89.62-.64.19-1.31.19l-2.95,0c-.67,0-.72-1.24-1.38-1.24s-1.22,1-1.88,1-2,0-2.67,0-1-.1-1.71-.1-1.58-.1-2.25-.1-1.12,0-1.78,0-1.55.52-2.21.52-1.42-.68-2.08-.68-1.3.42-2,.42-1.1-.36-1.76-.36-1.31.31-2,.31H38.69c-.68,0-1.27-.12-1.93-.12s-1.55.86-2.21.86-1.17-1.18-1.82-1.18-1,.53-1.68.53H29.41c-.67,0-1.8.23-2.45.23s-1-.15-1.67-.15-1.29-.21-1.94-.21-1.88-.16-2.53-.16-1.61-.16-2.26-.16-1.12.56-1.77.56l-1.37,0c-.69,0-1.75-.17-2.39-.17s-1.4-.11-2-.11-1.18.81-1.81.81-.74-.67-1.34-.67H4.79a3.82,3.82,0,0,1-1.69-.23s0-.56,0-1.58c0-.44.08-.63.08-1.24S3,108.51,3,107.94s-.16-1.1-.16-1.66.27-1.43.27-2,.49-.25.49-.79S3.2,102,3.2,101.43s-.32-.91-.32-1.45.28-1.18.28-1.72S3.08,97,3.08,96.44s-.55-.38-.55-.91.4-1.35.4-1.88.56-1.15.56-1.68S3,90.81,3,90.28s.49-.35.49-.88-.27-1.06-.27-1.6.3-1.61.3-2.14-.61-1.07-.61-1.6.17-1.1.17-1.63V80.71c0-.52,0-.88,0-1.4s-.68-1.4-.68-1.93.53-.8.53-1.33-.8-1.15-.8-1.68S3.32,73.49,3.32,73s-.67-2.13-.67-2.66.51,0,.51-.51-.48-1-.48-1.53.15-1,.15-1.55,0-.87,0-1.39.89-1.45.89-2-.18-1.26-.18-1.78-.7-1.45-.7-2,.65-.86.65-1.39.15-.45.15-1-.73-1.37-.73-1.89.31-.66.31-1.18-.07-1.25-.07-1.77,1.06-1,1.06-1.56-1.34-1.07-1.34-1.58.26-1.19.26-1.7,0-.31,0-.82.08-2,.08-2.53.2-.37.2-.87-.51-1.1-.51-1.6.88-.92.88-1.4-.62-2.09-.62-2.53a3.56,3.56,0,0,0-.24-1.49l1.46-.13"/></g><g id="g4018"><path id="rect2867" class="cls-2" d="M1.66,36.39s.28-.54,1.59-.54c.56,0,1.32,0,2.1,0,.61,0,1,.11,1.74.11s1.63.13,2.34.13,1.37-.1,2.08-.1,1.17,0,1.86,0l2,0,2.25,0c.66,0,1.24-.24,1.93-.24s.61.24,1.3.24,2.18.06,2.87.06,1.95.18,2.63.18,1.17.05,1.85.05,1.13-.09,1.81-.09,1-.17,1.65-.17S33,36,33.71,36s1.19.51,1.87.51,1.58-.39,2.26-.39,1.58.55,2.26.55.79-.57,1.47-.57S43.3,36,44,36s1.17.15,1.85.15,1.37-.85,2-.85,1.34.64,2,.64,1,.22,1.69.22,1.9-.34,2.57-.34,1.27.22,2,.22,1.83-.1,2.51-.1,1.17.21,1.85.21.26-.21.93-.21.8-.12,1.47-.12l3.24,0c.67,0,1.7.39,2.37.39s.8.59,1.48.59,1.62-.84,2.29-.84,1.26.89,1.93.89,1.37-.37,2-.37,1.21-.24,1.89-.24,1.76.36,2.43.36,1.58-.43,2.26-.43.39-.16,1.06-.16,1,.13,1.68.13,2-.31,2.72-.31,1,.31,1.72.31,1.23.86,1.9.86,2-1.16,2.66-1.16,1.69.58,2.36.58.83-.11,1.5-.11.92-.48,1.59-.48.79.38,1.46.38,2.14-.08,2.81-.08,2.45-.25,3.12-.25.3.27,1,.27,1.53-.42,2.2-.42,1.84.57,2.51.57,1.37.83,2,.83.37-1.37,1-1.37,1.64.13,2.31.13l2.73,0c.68,0,.78.28,1.44.28h1.92c.68,0,1.74.54,2.4.54s1-.36,1.71-.36,1.28-.22,2-.22l2.34,0c.68,0,.92.06,1.58.06s.37.47,1,.47,2.34-.47,3-.47,1.73.25,2.39.25,1.12-.68,1.77-.68.74.31,1.38.31,3.31.3,3.94.3.51-.62,1.14-.62.81.3,1.42.3c.78,0,1.73.21,2.29.21,1.32,0,.55.79.55.79s.76.37.07,1.24c-.52.65.44,1.05.44,1.67s.85.42.85,1,.16,1.63.16,2.2-.12.44-.12,1,.55.61.55,1.17-.81.21-.81.76-.4,2.48-.4,3-.1,1.28-.1,1.82.6.62.6,1.16-1.29,1.89-1.29,2.43,1.32,1.06,1.32,1.61.15.15.15.69.58,1.21.58,1.75-.5,1-.5,1.55-.22,1.16-.22,1.7,0,1.23,0,1.77-.09,1.07-.09,1.61.24.94.24,1.48.13,1,.13,1.51-.46,1.13-.46,1.67.29.85.29,1.38-.45.8-.45,1.34.47,1.51.47,2,.1.5.1,1-.25,1.87-.25,2.41.18.71.18,1.24-.09.85-.09,1.39-.24,1.9-.24,2.43-.46.66-.46,1.19.65,1.53.65,2.06.06,1.11.06,1.64.57,1.17.57,1.7-.48.5-.48,1,.22,1.21.22,1.75-.56.95-.56,1.48.35,1.23.32,1.77.52,1,.45,1.52-.78,1.07-.86,1.61.36,1.34.26,1.88-.37.76-.48,1.3-.56,1-.66,1.5.52,1.36.42,1.89-.54.77-.64,1.31-1.09,1.38-1.17,1.92.58,1,.52,1.59.32,1.52.28,2.07-1,.49-1,1c-.68,0-1.09.13-1.7.13s-1-.09-1.62-.1-1.71-.4-2.34-.41-1,.33-1.66.31-1.58.13-2.24.12-.91-.08-1.58-.08-1.79.26-2.47.26-1.07-.16-1.76-.16-1.22-.08-1.91-.08h-1.76c-.66,0-1.69.21-2.38.21s-1.77.59-2.46.59-1.45-.69-2.13-.69-1-.5-1.68-.5-.93.34-1.61.34-1.08-.41-1.76-.41-1.44.26-2.12.26-1.9-.82-2.58-.82-1,.9-1.72.9-1.26.17-1.94.17-1.52.08-2.2.08-1.85.17-2.52.17-.79-.27-1.47-.27-1.27-.08-2-.08-1.48.55-2.16.55-.88-.83-1.56-.83-1.65.16-2.32.16-1.23.22-1.9.22-1.89.21-2.57.21-1.55-.89-2.23-.89-.78-.15-1.45-.15-2.07,1.26-2.74,1.26-.6-.87-1.27-.87-1.22.67-1.89.67S82.7,113,82,113s-1.23.12-1.9.12-1.11.53-1.78.53-1.59-.37-2.27-.37-1.14-.37-1.81-.37-1.54.34-2.21.34-1.09,0-1.76,0-1.68-.53-2.36-.53-1.24.62-1.91.62-.65.2-1.32.2h-3c-.67,0-.73-1.25-1.4-1.25s-1.23,1.05-1.9,1.05l-2.7,0c-.67,0-1.06-.1-1.73-.1s-1.61-.1-2.28-.1-1.13.05-1.8.05-1.57.53-2.24.53-1.44-.69-2.1-.69-1.32.43-2,.43-1.11-.38-1.78-.38-1.33.32-2,.32H37.43c-.68,0-1.28-.12-2-.12s-1.57.88-2.23.88S32.06,113,31.4,113s-1,.54-1.7.54l-1.66,0c-.68,0-1.82.24-2.48.24s-1-.15-1.69-.15-1.3-.22-2-.22-1.91-.16-2.57-.16-1.62-.16-2.28-.16-1.13.57-1.79.57l-1.39,0c-.7,0-1.77-.18-2.42-.18s-1.41-.11-2.05-.11-1.2.83-1.83.83-.75-.68-1.36-.68H3.12a3.79,3.79,0,0,1-1.71-.24s0-.57,0-1.61c0-.45.08-.64.08-1.26s-.1-1.14-.1-1.72-.17-1.12-.17-1.69.27-1.45.27-2,.49-.25.49-.8-.44-1.56-.44-2.11-.32-.94-.32-1.48.28-1.2.28-1.75-.08-1.31-.08-1.85S.83,96.52.83,96s.41-1.36.41-1.91.57-1.17.57-1.71-.47-1.17-.47-1.72.5-.35.5-.89-.28-1.08-.28-1.62.31-1.64.31-2.18-.62-1.09-.62-1.63.17-1.11.17-1.65V80.91c0-.54.05-.9.05-1.43s-.69-1.42-.69-2,.53-.82.53-1.36S.5,75,.5,74.46s1.13-.9,1.13-1.43S1,70.86,1,70.32s.51,0,.51-.52S1,68.78,1,68.25s.15-1,.15-1.58,0-.88,0-1.42.89-1.46.89-2S1.81,62,1.81,61.44s-.7-1.47-.7-2,.66-.88.66-1.41.15-.46.15-1-.74-1.39-.74-1.92.31-.68.31-1.21-.06-1.26-.06-1.79,1.06-1.06,1.06-1.59-1.35-1.08-1.35-1.61.26-1.2.26-1.72,0-.32,0-.84.08-2,.08-2.57.2-.38.2-.89-.51-1.12-.51-1.62S2,40.35,2,39.86s-.63-2.13-.63-2.58a3.61,3.61,0,0,0-.24-1.51l1.48-.14"/><g id="path2982"><polyline class="cls-3" points="153.9 95.77 147.23 105.89 143.8 112.29 143.04 112.92 151.7 113.07 150.49 107.91 152.99 100.23 153.47 95.5 154.29 95.19"/><polyline class="cls-4" points="153.9 95.77 147.23 105.89 143.8 112.29 143.04 112.92 151.7 113.07 150.49 107.91 152.99 100.23 153.47 95.5 154.29 95.19"/></g></g><g id="path4050" class="cls-5"><path class="cls-6" d="M152.53,36.81c-.3.29-1,.25-1.08.69a9.8,9.8,0,0,1-.52,1.21,1.32,1.32,0,0,0,0,.9c.13.28.53.43.58.75.51,1.33.87,2.7,1.38,4,.11.13,0-.34,0-.43-.1-.47-.23-.93-.33-1.4.3.23.49.63.79.89a1.09,1.09,0,0,0,1.12.22c.52-.06.26-.52.24-.8a26.32,26.32,0,0,0-.68-2.57c-.31-.17-.62-.41-.93-.61-.13-.31,0-.67-.16-1,.18-.24.9-.67.22-.8a9.3,9.3,0,0,1-1.29-.3c-.1-.28.1-.62.18-.91s.64-.19.64-.55c0-.14.25-.51.15-.15S152.62,36.54,152.53,36.81Z"/></g><g id="path4141"><path class="cls-7" d="M151,38.33l-.4.09a.58.58,0,0,0,.05.14,4.13,4.13,0,0,1,.12.63,2.91,2.91,0,0,0,.17.66,2,2,0,0,0,.31.55l.08.1a2.58,2.58,0,0,1,.24.37s0,.17.08.32.07.22.1.31a2.18,2.18,0,0,1,.09.29.26.26,0,0,0,.07.14A.76.76,0,0,0,152,42l.14.16c.07.11.15.18.19.24l.36-.16c-.07-.11-.15-.19-.19-.25l-.15-.19-.06-.08s0,0,0,0a2,2,0,0,0-.1-.32c0-.12-.07-.23-.11-.33a1.17,1.17,0,0,0-.09-.35,4.32,4.32,0,0,0-.27-.42,1,1,0,0,1-.08-.11,1.69,1.69,0,0,1-.27-.47,2.56,2.56,0,0,1-.15-.59,4,4,0,0,0-.13-.67Z"/></g></g><g id="g5904"><path id="path11769" class="cls-8" d="M109.58.12l.48,0a6.94,6.94,0,0,1,2.52.61,12.28,12.28,0,0,1,4.16,3.48,7.84,7.84,0,0,1,1,6.55,40.85,40.85,0,0,0-1.31,9.46,29.66,29.66,0,0,0,1.17,7.23l15.56.31a6.5,6.5,0,0,1,0,1.33c1.53.63,3.37,3,3.19,5A84.66,84.66,0,0,1,136.2,43a4.1,4.1,0,0,1-3.08,3q-11.62-.23-23.25-.36h-1.13l-1.11,0h0c-7.76-.15-15.51-.3-23.27-.41a4.1,4.1,0,0,1-3-3.12,85.26,85.26,0,0,1,.15-8.89c-.12-2,1.81-4.33,3.35-4.91A6.7,6.7,0,0,1,85,27l15.55.21A30,30,0,0,0,101.92,20a41.06,41.06,0,0,0-1-9.5A7.83,7.83,0,0,1,102.12,4,11.72,11.72,0,0,1,106.39.69h0A7.32,7.32,0,0,1,109.58.12Zm-.33,6.64a2.48,2.48,0,0,0-2.59,2.35,2.56,2.56,0,0,0,5.1.09A2.47,2.47,0,0,0,109.25,6.76Z"/><g id="path11772"><path class="cls-9" d="M110.24,2.34a4.26,4.26,0,0,1,.76.26,8.73,8.73,0,0,1,2.2,1.21A11.58,11.58,0,0,1,115,5.42a1.92,1.92,0,0,1,.08,1.21,9.07,9.07,0,0,0,0,2.21,12.53,12.53,0,0,1,.17,2.59c-.15,1.08-.22,1.36-.33,2.44-.05.46.2,1.82.16,2.28a11.41,11.41,0,0,0-1.78-3.21c-.45-.59.35-1.6.68-2.31A1.82,1.82,0,0,0,114,8.88a12,12,0,0,0,0-1.34,5,5,0,0,0-.89-2.29,4.07,4.07,0,0,0-2.85-1.74c-.87,0-.52-.75-.15-1.18Z"/></g><path id="path11774" class="cls-10" d="M114.26,29.59a8.34,8.34,0,0,1-.91-1.5c0-.22-.61-3.6-.61-3.6l-.31-4.36a7.5,7.5,0,0,0,.08-1.65c-.11-.23.36-1.65-.74-1.67l-2.76,0h-2.87a6,6,0,0,0-.41,1.54c0,.55-.67,4-.67,4l-.4,3.86-1,3.4s5.29.25,5.84.26S114.15,29.59,114.26,29.59Z"/><g id="path11776"><path class="cls-9" d="M115.87,29.89a14,14,0,0,1-1.29-3.66,35.16,35.16,0,0,1-.46-6.24c0-1,.06-2,0-3,0-.5-1-.75-.78,0,0,1.8,0,3.6.06,5.39a28.22,28.22,0,0,0,1,5.23c.17.59.31,1.19.5,1.76l.6.69Z"/></g><g id="path11778"><path class="cls-8" d="M105.81,30.31a8,8,0,0,0-1.45-.83,3.1,3.1,0,0,0,.46-.95,10.38,10.38,0,0,0,.52-1.89c.26-1.58.56-3.17.72-4.77,0-1.42.11-2.84.17-4.27-.33-1.23.38-.69.82-.58,1.1,0,2.21.05,3.32.1.58.09,1.35-.24,1.93-.15-.11.24-.45.89-.54,1.14.09,1.44.16,2.87.19,4.31,0,1,.25,1.93.34,2.9a9.45,9.45,0,0,0,.58,2.4,8,8,0,0,1,.7,2.13c0,.56-1,.16-1.37.27a11.24,11.24,0,0,0-2.32.06,15,15,0,0,1-3.66.18Z"/></g><path id="path11780" class="cls-10" d="M109.87,22.83c-.08-.1-.71-.55-.86-.4a3.9,3.9,0,0,0-.42,1.71,11,11,0,0,0-.12,2.57c0,.29.25.52.32.81a21.77,21.77,0,0,0,.58,2.38.78.78,0,0,0,.57.44,2,2,0,0,0,1.38-.37c.22-.18,0-.59-.06-.87-.31-1.9-.77-3.79-1.13-5.68A2.57,2.57,0,0,0,109.87,22.83Z"/><path id="path11782" class="cls-11" d="M105.59,30a31,31,0,0,0,1.1-4.57c.14-.94.31-1.88.38-2.83a2.54,2.54,0,0,1,.44-1.7c.32-.31.51-.78.94-.95a1.58,1.58,0,0,1,1.71.92,1.65,1.65,0,0,1-.42,1.91c-.41,0-.86.17-.82.68a9.94,9.94,0,0,1,0,2c-.23,1.36-.55,2.71-.69,4.09a.66.66,0,0,1-.63.8c-.63-.06-1.26-.13-1.9-.17Z"/><path id="path11784" class="cls-12" d="M115.31,30a11.05,11.05,0,0,0-1.72-.09c-.59,0-1.23,0-1.82,0-.18-.86-.43-1.7-.62-2.56s-.38-1.71-.55-2.57a9.39,9.39,0,0,1-.19-1.67c0-.82.09-1.65,0-2.46a1.89,1.89,0,0,0-.15-1,1.42,1.42,0,0,0-.88-.46c-.21-.05-.41-.2-.62-.17a1.61,1.61,0,0,0-.74.14,1.69,1.69,0,0,0-.5,1.46c.07.13.33.07.31-.17a.28.28,0,0,1,.28-.32c.32-.05.92-.14.94.36,0,.29-.25.45-.35.64s.07.38.27.23.25-.45.47-.52.44.1.51.36c.12.42-.18.78-.32,1.15a2.29,2.29,0,0,0,0,1.22c.37,1.89.74,3.79,1.18,5.66.1.94.56.84,1.24.87h3C115.61,30.22,115.32,30.21,115.31,30Z"/><path id="path11786" class="cls-11" d="M112.75,2.85c.57.52.31,1.95,1.3,2-.17.62.58.75.84.87s.81,1.64,1.06,1.71c.93-.57,1.59-1.84.67-2.36-.05-.23-.68,0-.57-.27s-.2-1,0-1.08-.12-.33-.2-.46c-.3-.29-.62-.55-.91-.85a1.29,1.29,0,0,0-.85-.38c-.49,0-2.23.09-2.51.5a6.46,6.46,0,0,0,1.19.36S112.74,2.84,112.75,2.85Z"/><path id="path11788" class="cls-11" d="M108.41,2.79a5.62,5.62,0,0,0-1.66.46,10.5,10.5,0,0,0-1.48.88,11.59,11.59,0,0,0-1.77,2.45,2.77,2.77,0,0,0-.36,1.24,8,8,0,0,1-.69.95c-.24,0-.46-.07-.22-.32a1.67,1.67,0,0,0,.36-1.33,2.13,2.13,0,0,0-.37-1.46c-.28-.07-.87,0-1-.16a21.17,21.17,0,0,1,1.55-2.11A7.8,7.8,0,0,1,104.29,2,23.26,23.26,0,0,1,106.61.67c.15.33,0,.85.25,1.17a1.57,1.57,0,0,0,.94.66c.2.14.72-.06.73.15A.81.81,0,0,0,108.41,2.79Z"/><path id="path11790" class="cls-12" d="M115.83,9c-.49-.32-.46-1.35-.85-1.95a8.12,8.12,0,0,0-1-1.51,12.64,12.64,0,0,0-1.06-1.13,7.4,7.4,0,0,0-1.3-.94,6.25,6.25,0,0,0-3.39-.49,4.73,4.73,0,0,0-1.5.54,7.42,7.42,0,0,0-1.55,1.11,14.36,14.36,0,0,0-1.28,1.61,7.84,7.84,0,0,0-.47,1.18c0,.36-.23.08-.39,0s.17-.38.22-.56c.29-.51.54-1.06.86-1.54a10.64,10.64,0,0,1,1.31-1.37,4.18,4.18,0,0,1,1.16-.67,6,6,0,0,1,1-.49c.32-.06.78.17,1,0s-.21-.23-.42-.24-.61.14-.78,0A4.78,4.78,0,0,1,106.51,1c-.09-.22-.05-.39.23-.43.43-.07.84-.34,1.27-.37a11,11,0,0,1,2.3,0A10.09,10.09,0,0,1,112,.6a9.09,9.09,0,0,1,1.56.78,3.15,3.15,0,0,1,.82.63c.18.2-.28.14-.43.15a4.4,4.4,0,0,0-.89,0c-.2.07-.53.19-.56.35s.22.53.46.72a4.18,4.18,0,0,1,.93,1c.23.37.42.87.8,1,.19.08.42,0,.47.24a2.55,2.55,0,0,0,.25,1c.12.14.54.08.74-.14s.43-.22.47-.41a1.19,1.19,0,0,0,0-.74c-.16-.29-.28,0-.3.25a.77.77,0,0,1-.33.48.35.35,0,0,1-.51-.12,1.54,1.54,0,0,1,0-.85c.1-.42,0-1.21.25-1.28s.6.58.83.94a3.24,3.24,0,0,1,.49.94,9.14,9.14,0,0,1,.38,1.26,4.87,4.87,0,0,0,0,1.09c0,.17.49.09.45.34C118.36,9.42,116.56,9.22,115.83,9Z"/><path id="path11792" class="cls-12" d="M109.78,4.56a1.87,1.87,0,0,1,.7.15,5.69,5.69,0,0,1,1,.65c.29.18.4.51.61.77a1.59,1.59,0,0,1,0,1.91c-.1.14-.33.11-.29.34s.29.22.43.22a1,1,0,0,1,.53.23,1,1,0,0,1,.35.56l.22-.08c.39-.28.66,0,.81.4l.11.2a.13.13,0,0,1,.06,0c.2-.07.43-.09.51.05a1.59,1.59,0,0,1,0,.73,6.1,6.1,0,0,1-.11,1.35,5.93,5.93,0,0,1-.38,1.07,8.64,8.64,0,0,1-.59,1c-.22.35-.67.36-1,.57a3.51,3.51,0,0,1-1.79.27c-1,.07-1.94.15-2.91.14-.48,0-.87-.45-1.38-.33a2,2,0,0,1-1.61-.2,3,3,0,0,1-1-1.46c-.05-.17.25-.36.42-.48s-.1-.34-.22-.17-.36.4-.4.3a6.78,6.78,0,0,1-.33-2.14,2.14,2.14,0,0,1,.34-1c.13-.22.47-.29.7-.43A7.35,7.35,0,0,0,105.8,8a9,9,0,0,0,.71-.92c.13-.18.08-.38.12-.58s.26-.44.36-.67.34-.36.53-.52a3.57,3.57,0,0,1,1.16-.64A3.64,3.64,0,0,1,109.78,4.56Zm1.16,1.79c-.16,0-.3.05-.32.18s.39.55.38.66-.1.08-.22.08a2.67,2.67,0,0,0-1.53-.51,2.54,2.54,0,0,0-2.46,1.63h0s-.1,0-.19,0,0-.34,0-.48a1.67,1.67,0,0,1,.44-.72c.29-.27.88-.49.93-.77s-.34,0-.49.06a1.87,1.87,0,0,0-.71.66c-.19.31-.45.58-.61.9a1.88,1.88,0,0,0-.1.94,1.82,1.82,0,0,0,.09.84,1.56,1.56,0,0,1,.17.5l.22.27a3.17,3.17,0,0,0,1.39,1,4.86,4.86,0,0,0,.94.16.66.66,0,0,1,.27-.06,2.35,2.35,0,0,1,.45,0,3.35,3.35,0,0,0,.91-.2A5.26,5.26,0,0,0,112.58,10l0,0a.69.69,0,0,0-.27-.37,1.61,1.61,0,0,1-.58-.58,1.86,1.86,0,0,0-.11-.52.54.54,0,0,0-.22-.48h0a1.81,1.81,0,0,0-.32-.41.5.5,0,0,0,0-.12c0-.27.28-.12.4-.21a.44.44,0,0,0,.18-.52c-.09-.17-.37-.21-.54-.31A.53.53,0,0,0,110.94,6.35Z"/><path id="path11794" class="cls-12" d="M115.91,15.25a4.4,4.4,0,0,0-.48,1.62c-.19,1.34-.18,2.72-.34,4.07a16,16,0,0,0,0,3.24c.13,1.32.33,2.64.48,4,.42.29,1.27,0,1.06.72-.24,0-.66.05-.63.39s0,.68.15.91c.35.18.6-.23.9-.36.25-.32.68-.61.68-1-.36-1.55-.77-3.09-1-4.66a29.55,29.55,0,0,1-.36-3.63c0-2.18.37-4.34.57-6.51C117.43,12.89,116.07,15,115.91,15.25Z"/><path id="path11796" class="cls-12" d="M112.59,26.45c.13.67.24,1.34.39,2,0,.26.19.89.24,1.15a4.62,4.62,0,0,0,1,0c-.14-.53-.36-1.21-.55-1.73a5.58,5.58,0,0,1-.27-.88,1.41,1.41,0,0,0-.31-.69.33.33,0,0,0-.41,0C112.67,26.3,112.58,26.36,112.59,26.45Z"/><path id="path11798" class="cls-12" d="M106.18,29.46c.14-.46.29-.92.4-1.39a22.42,22.42,0,0,0,.5-2.3c.12-.79.16-1.6.28-2.4a8.55,8.55,0,0,1,.17-1.55c.08-.26.63-.17.77,0a1,1,0,0,1,.17.67,23.26,23.26,0,0,1-.08,2.36c-.06.57-.1,1.16-.21,1.72s-.19,1.09-.35,1.61-.45,1.18-.64,1.78C106.84,30.74,105.93,30.53,106.18,29.46Z"/><path id="path11800" class="cls-12" d="M111.9,18a.64.64,0,0,0,.39-.14.88.88,0,0,0,.13-.59c0-.17.06-.38,0-.53a1.2,1.2,0,0,0-.5-.47,2.58,2.58,0,0,0-.87-.21c-1.34-.05-2.7-.06-4,0a1,1,0,0,0-.58.2,1.64,1.64,0,0,0-.44.64c0,.18,0,.4,0,.6a.56.56,0,0,1-.14.3c-.13.14-.36.26-.38.45-.12,1.15,0,2.37-.07,3.54,0,.25.19.56.3.25s-.06-.62.05-.89a4.06,4.06,0,0,0,.21-.85c.11-.58.21-1.16.27-1.74a9.51,9.51,0,0,1,.06-1.34c0-.1.24-.12.35-.09a3.89,3.89,0,0,0,1,.31,23,23,0,0,0,3.21,0c.28-.05.47-.37.79-.34s.61.2.31.5a1,1,0,0,0-.25.34S111.84,18.05,111.9,18Z"/><path id="path11802" class="cls-12" d="M101,29.63a7.63,7.63,0,0,0,1-1.75,22.73,22.73,0,0,0,.88-3.71A25.29,25.29,0,0,0,103,20.8a9.44,9.44,0,0,0-.37-3c-.1-.51-1-.4-.73.17a20.82,20.82,0,0,1-.14,4.32,15.58,15.58,0,0,1-.71,3.57,8.6,8.6,0,0,1-.84,2.25c-.22.38-.39,1,.06,1.25C100.5,29.48,100.73,29.88,101,29.63Z"/><path id="path11804" class="cls-12" d="M100.71,8.54a.76.76,0,0,0,.48.15,1.45,1.45,0,0,0,.8,0,1.18,1.18,0,0,0,.54-.78,2.69,2.69,0,0,0,0-1.38,4.68,4.68,0,0,0-.17-.53c-.1-.12-.28,0-.41,0s-.12.19-.15.29a.33.33,0,0,1-.17.31.69.69,0,0,1-.42.07c-.1-.09,0-.25,0-.36a1.89,1.89,0,0,0,.13-.57c0-.08-.25-.08-.25,0a16.39,16.39,0,0,0-.37,2.4A.55.55,0,0,0,100.71,8.54Z"/><g id="path11806"><path class="cls-12" d="M109.77,27.23a5.21,5.21,0,0,0,.35,1.12,4.53,4.53,0,0,1,.33,1.34v.08a.91.91,0,0,1-.44.66,1.45,1.45,0,0,1-.71.16,11.2,11.2,0,0,0-1.37,0l-.08-.48a8.42,8.42,0,0,1,1.44,0,1.31,1.31,0,0,0,.48-.09.39.39,0,0,0,.19-.31,4,4,0,0,0-.27-1.15h0a6.23,6.23,0,0,1-.38-1.23c0-.16-.07-.31-.11-.47C109.26,26.5,109.63,26.76,109.77,27.23Z"/></g><path id="path11808" class="cls-12" d="M132.89,29.36l-14.3-.06a4.78,4.78,0,0,1-.42.86,1.36,1.36,0,0,1-.43.36,2.61,2.61,0,0,1-.68.08H100.39a3.43,3.43,0,0,1-.88-.29,1.29,1.29,0,0,1-.36-.47,1.36,1.36,0,0,1-.18-.58c0-.19,0-.37,0-.37l-14.64-.12-.09,6,48.63.28Z"/><path id="path11810" class="cls-12" d="M132.65,36.75,83.8,35.94l.26-.29.07-.23-.23-.07-.33.29-.21.49.09.5.06.33a2.88,2.88,0,0,0,.52.47c.17.07-.15,1.28-.08,1.42s.35.56.35.56l.52.34,1.28.32,2.74.08,20.8.24,21.76.15.61-.06.4-.27.44-.67L133,39v-.78l.13-.1s.52-.53.52-.63.05-.87.05-.87l-.07-.32-.26-.35-.3-.23-.13.2.08.27.32.17s0,.16,0,.29a1.92,1.92,0,0,1-.13.46l-.31.12s-.16,0-.18-.12a3.83,3.83,0,0,1-.05-.49"/><path id="path11812" class="cls-11" d="M113.45,8.8c.44,0,.56.42.63.76a2.06,2.06,0,0,1,0,1.7c-.24.36-.39.8-.82,1a2.18,2.18,0,0,0-.91,1,2,2,0,0,1-1,1,8.66,8.66,0,0,1-1.37.5c-.3,0-.92.12-.92-.29a.57.57,0,0,1,.72-.47c.55,0,.22-.67.31-1-.09-.34.13-.95-.33-1.06a3.26,3.26,0,0,0-1.67,0c-.35.23-.45.77-.91.86a2.36,2.36,0,0,1-1.46-.11c-.44-.24-.42-.82-.5-1.25s.38-.74.8-.59.68,0,.62-.39c0-.19.16-.72.27-.3a2.63,2.63,0,0,0,2.62,1.49,2.73,2.73,0,0,0,2.24-1.56c.31-.23.73.15,1-.15s.64-.5.39-.88S113.22,8.78,113.45,8.8Z"/><path id="path11814" class="cls-11" d="M111.65,6.85a.68.68,0,0,0-.34-.35.82.82,0,0,0-.43-.12.18.18,0,0,0-.16.14.57.57,0,0,0,.06.36.54.54,0,0,0,.31.21l.41.1a.16.16,0,0,0,.17-.06A.39.39,0,0,0,111.65,6.85Z"/><path id="path11816" class="cls-11" d="M100.8,29.83a22.83,22.83,0,0,1,.91-2.24,8.4,8.4,0,0,0,.69-2.07c.15-.95.56-1.87.65-2.83.18-2.05.17-4.12.2-6.18,0-.17-.08-.41.19-.38s.53-.18.58,0a5.61,5.61,0,0,1,0,2c-.12,1.43-.19,2.87-.34,4.3-.09.8-.09,1.62-.25,2.4a33.2,33.2,0,0,1-.93,3.69,4.5,4.5,0,0,1-.83,1.76c-.19.17-.69,0-.92-.13C100.73,30.07,100.77,29.92,100.8,29.83Z"/><g id="path11818"><polygon class="cls-9" points="103.25 16.27 103.2 14.76 102.92 12.45 102.56 10.13 102.58 8.7 102.98 8.31 103.28 9.43 103.88 11.67 104.58 12.71 104.47 14.3 104.13 16.2 104.14 16.93 103.25 16.27"/></g><path id="path11820" class="cls-9" d="M111.54,17.71l.24,0a32.18,32.18,0,0,0,0,4.5,26.56,26.56,0,0,0,1.35,6.64v0a1.14,1.14,0,0,1,.08.7v.05h0a.25.25,0,0,1,0,.17.2.2,0,0,1-.17.07h-.24l-.65,0H112l0-.09a30.92,30.92,0,0,1-1.15-4.67h0c-.08-.66-.13-1.32-.18-2h.24c0,.66.1,1.31.18,2a30,30,0,0,0,1.1,4.54h.8v0a1,1,0,0,0-.06-.63h0a27,27,0,0,1-1.37-6.72A32.61,32.61,0,0,1,111.54,17.71Z"/><path id="path11822" class="cls-12" d="M98.69,28.6a1.31,1.31,0,0,1,.44.07,1,1,0,0,1,.35.26.87.87,0,0,1,.13.16s0,0,0,0,.29.3.5.51a4.1,4.1,0,0,0,.66.56,1.73,1.73,0,0,0,.72.21,9.39,9.39,0,0,0,2-.8c.08,0,.21-.11.35-.18a.91.91,0,0,1,.53-.14,1,1,0,0,1,.53.31,3,3,0,0,0,.31.28,3.71,3.71,0,0,0,1,.43,3.63,3.63,0,0,0,.81,0,3.35,3.35,0,0,0,.6-.12,2.39,2.39,0,0,1,.64-.22,4.73,4.73,0,0,1,.75-.15,5.34,5.34,0,0,1,.79,0l.48.05-.22.08s0,.37-.3.35a5.85,5.85,0,0,0-.69,0,5.59,5.59,0,0,0-.69.12,3.51,3.51,0,0,0-.52.18,1.92,1.92,0,0,1-.79.18,3.22,3.22,0,0,1-.93,0,3.42,3.42,0,0,1-1.15-.49,2.06,2.06,0,0,1-.41-.34.73.73,0,0,0-.25-.18.71.71,0,0,0-.25.08c-.12.06-.25.15-.4.21a7.29,7.29,0,0,1-2.19.83,2,2,0,0,1-1-.27A3.79,3.79,0,0,1,99.8,30c-.24-.24-.45-.47-.51-.52v0h0l-.13-.15L99,29.13a2.37,2.37,0,0,0-.7,0c-.28,0-.51.06-.51.06l-.08-.47a4.75,4.75,0,0,1,.55-.07A3.62,3.62,0,0,1,98.69,28.6Z"/><path id="path11824" class="cls-13" d="M132.89,31.51v.33l-48.64-.47,0-.31Z"/><path id="path11826" class="cls-9" d="M132.65,39.06l-48.28-.35.6.52a.78.78,0,0,0,.7.46l2.52.05c.31,0,1.62.2,1.75,0,.78-1,3.75-.78,4-.05l4.44,0c1.91-1.09,3.07-.52,4.29-.08l4.09,0a4.59,4.59,0,0,1,4.29.07l4.14.07a3.51,3.51,0,0,1,3.94.06l4.5,0a4.1,4.1,0,0,1,4,.06l4.24.07.41-.24.2-.25Z"/><path id="path11828" class="cls-11" d="M127.59,39.49l2.2.07,2.32.06v.24l-2.33-.06-2.19-.07Z"/><path id="path11830" class="cls-11" d="M123.49,39.42v.24l-4.41-.07v-.24Z"/><path id="path11832" class="cls-11" d="M115.11,39.28v.24l-4.54,0v-.24Z"/><path id="path11834" class="cls-11" d="M107.07,39.13v.24h-4.67v-.24Z"/><path id="path11836" class="cls-11" d="M98.37,39.22v.24l-4.51,0v-.24Z"/><path id="path11838" class="cls-11" d="M89.79,39.26v.24l-4.29,0v-.24Z"/><path id="path11840" class="cls-11" d="M117.3,33.7c-2.08,0-22.26-.15-32.51-.06-.15,0-1.92.44-.1.47l16.87.19c3.23,0,7.54.07,10.77.08a24.88,24.88,0,0,0,5.92-.29Z"/><path id="path11842" class="cls-14" d="M109.59,0l.48,0a7.2,7.2,0,0,1,2.56.61h0a12.42,12.42,0,0,1,4.2,3.52,7.94,7.94,0,0,1,1,6.65,40.68,40.68,0,0,0-1.31,9.43,28.77,28.77,0,0,0,1.15,7.11l15.46.31h.1l0,.09a6.1,6.1,0,0,1,0,1.29,5.7,5.7,0,0,1,2.21,2,4.91,4.91,0,0,1,1,3.1h0a85,85,0,0,1-.14,8.89,4.21,4.21,0,0,1-3.16,3.12h0Q121.56,46,110,45.82h-.12l-1.12,0h-1.23c-7.72-.15-15.44-.3-23.15-.41h0a4.17,4.17,0,0,1-3-3.22,85.17,85.17,0,0,1,.15-8.89h0a4.92,4.92,0,0,1,1.07-3.06,5.77,5.77,0,0,1,2.28-1.92A6.53,6.53,0,0,1,84.83,27l0-.09H85l15.47.2A29.52,29.52,0,0,0,101.8,20a41.36,41.36,0,0,0-1-9.47A7.92,7.92,0,0,1,102,3.93a12,12,0,0,1,4.3-3.34l.18-.08v0A7.24,7.24,0,0,1,109.59,0Zm0,.23a7.21,7.21,0,0,0-3.14.57l-.13,0,0,0a11.64,11.64,0,0,0-4,3.19A7.75,7.75,0,0,0,101,10.5,41.18,41.18,0,0,1,102,20a30.58,30.58,0,0,1-1.42,7.22l0,.09h-.09l-15.44-.2a8.36,8.36,0,0,0,0,1.22v.08l-.08,0a5.32,5.32,0,0,0-2.24,1.87,4.71,4.71,0,0,0-1,2.92h0a85,85,0,0,0-.15,8.87,4,4,0,0,0,2.88,3c7.74.11,15.49.26,23.24.41h.12l1,0h1.13q11.61.15,23.23.36a4,4,0,0,0,3-2.93,84.3,84.3,0,0,0,.14-8.87h0a4.69,4.69,0,0,0-.93-2.95,5.46,5.46,0,0,0-2.18-2l-.08,0v-.08a8.14,8.14,0,0,0,0-1.22l-15.44-.3h-.09l0-.09a29.76,29.76,0,0,1-1.18-7.26,41.11,41.11,0,0,1,1.31-9.49,7.72,7.72,0,0,0-1-6.45A12.14,12.14,0,0,0,112.53.87a6.82,6.82,0,0,0-2.48-.59Zm-.33,6.4a2.6,2.6,0,0,1,2.63,2.56,2.68,2.68,0,0,1-5.34-.09A2.6,2.6,0,0,1,109.25,6.64Zm0,.24a2.36,2.36,0,0,0-2.47,2.24,2.44,2.44,0,0,0,4.86.08A2.35,2.35,0,0,0,109.25,6.88Z"/></g><g id="g5018"><path id="path4173" class="cls-12" d="M50.78,6.13a6,6,0,0,0-6.36,5.62A5.28,5.28,0,0,0,44.87,14c.74,4.07,1,8.12-1.17,12.11l-11-.25c-2.59-.28-3.41,1.16-3.43,2.49l-.49,14.07a2.11,2.11,0,0,0,2.34,2.11l39,.56c1.34,0,1.87-1.29,1.89-2.63L71.6,29.15a2.36,2.36,0,0,0-2.32-2.44l-12.12-.27a21.54,21.54,0,0,1-.69-12.56,5.22,5.22,0,0,0,.37-1.81A6,6,0,0,0,50.78,6.13ZM50.6,9.3a2.65,2.65,0,0,1,2.64,2.63,2.71,2.71,0,0,1-5.42-.13A2.65,2.65,0,0,1,50.6,9.3Z"/><path id="path6403" class="cls-14" d="M50.85,6.88a5.26,5.26,0,0,0-5.49,5,5,5,0,0,0,.27,1.74c.86,4.55-.09,8.48-1.07,12.73l11.87.43C55.19,22.29,55.15,18.47,56,13,56.62,9.53,53.91,7.44,50.85,6.88ZM50.6,9.3a2.65,2.65,0,0,1,2.64,2.63,2.71,2.71,0,0,1-5.42-.13A2.65,2.65,0,0,1,50.6,9.3Z"/><path id="path6423" class="cls-12" d="M50.09,8.22H50c-.28,0-.23.47-.48.56s-.81-.15-1,0a3.83,3.83,0,0,0-1.93,3.12,4.21,4.21,0,0,0,8.38.22,3.83,3.83,0,0,0-1.76-3.22c-.22-.15-.82.18-1.07.07s-.14-.63-.41-.68-.56.08-.85.07S50.33,8.22,50.09,8.22ZM50.6,9.3a2.65,2.65,0,0,1,2.64,2.63,2.71,2.71,0,0,1-5.42-.13A2.65,2.65,0,0,1,50.6,9.3Z"/><path id="path6412" class="cls-15" d="M49.1,9c-.16.65-2.07,2.06-2.24,1.05C47,9.31,49.28,7.24,49.1,9Z"/><path id="path6417" class="cls-12" d="M46,26.53c1-2.84,1-6.09.95-9.58.87-.54.6-.62,1.61-.57a45.38,45.38,0,0,0,4.72.13,1.51,1.51,0,0,0,1.19.6,30.62,30.62,0,0,0,1.12,9.77Z"/><path id="path6415" class="cls-14" d="M46.47,26.37A22.7,22.7,0,0,0,47.69,17a6,6,0,0,0,5.5.1,36.57,36.57,0,0,0,1.06,9.53Z"/><path id="path6419" class="cls-16" d="M47.68,26.44l5.56.21a18.09,18.09,0,0,1-1-6.47C52,18.08,49,18.41,49,20.06A16.86,16.86,0,0,1,47.68,26.44Z"/><path id="path4695" class="cls-12" d="M51.14,18.8c1.17.83.63,2.12.8,3.29,0,1.32.72,2.54.94,3.79-.23,0-.45.05-.49-.23-.93-1.81-.73-3.91-1-5.86a.61.61,0,0,0-.77-.39,4,4,0,0,0-.88.26c-.29-.24-.48-.41-.2-.63A2,2,0,0,1,51.14,18.8Z"/><path id="path6421" class="cls-14" d="M48.92,26.54l3.49,0a11.13,11.13,0,0,1-1.19-5.94c.3-1.24-1.44-1.44-1.24,0C50.08,22.66,49.51,26.54,48.92,26.54Z"/><path id="path6426" class="cls-15" d="M47.33,16.33a.55.55,0,0,0-.59.52c.06.62.86.11,1.11.71a.27.27,0,0,0,.29-.26C47.43,17,47.89,16.3,47.33,16.33Z"/><path id="path6433" class="cls-15" d="M51.27,16.41s.14,0,.21,0,.29,0,.42,0l.49-.08a2.32,2.32,0,0,1,.47-.06.57.57,0,0,1,.24,0c.06,0,0,.09-.05.13a.79.79,0,0,1-.29.05H52c-.13,0-.26,0-.39,0a.77.77,0,0,1-.27,0S51.25,16.42,51.27,16.41Z"/><path id="path6436" class="cls-15" d="M52.18,17.53c.14-.07.26-.18.4-.25a.68.68,0,0,1,.37-.16.26.26,0,0,1,.24.23.25.25,0,0,1-.1.24,1.32,1.32,0,0,1-.35.15,1.76,1.76,0,0,1-.68.1l-.5,0C51.2,17.63,52,17.58,52.18,17.53Z"/><path id="path6440" class="cls-15" d="M45.11,26.43c1-1.84,1.24-3.94,1.78-6.27.28,1-.36,4-.85,6.26A4.13,4.13,0,0,1,45.11,26.43Z"/><path id="path6443" class="cls-15" d="M46.42,26.47c.3-1,.63-2,.85-3.09a16.11,16.11,0,0,0,.33-2.51,15.64,15.64,0,0,1-.05,2.37,19.39,19.39,0,0,1-.43,2.25c-.08.33-.16.59-.25.92A1.74,1.74,0,0,0,46.42,26.47Z"/><path id="path2475" class="cls-17" d="M69.28,26.71l-8.52-.18-3.6-.09-13.46-.3L38.58,26l-5.84-.13c-2.59-.28-3.41,1.16-3.43,2.49l-.49,14.07a2.11,2.11,0,0,0,2.34,2.11l39,.56c1.34,0,1.87-1.29,1.89-2.63L71.6,29.15A2.36,2.36,0,0,0,69.28,26.71Z"/><path id="path4691" class="cls-12" d="M43.76,26c4.72.21,8.54.23,13.29.38A20,20,0,0,1,43.76,26Z"/><path id="path4693" class="cls-16" d="M32.17,26.26l.3-.63,36.44.58c1.11,4,.86,8.74.42,12.29a1.41,1.41,0,0,1-1,.84L32.7,38.78c-.48-.1-1-.05-1.16-1.1A57.72,57.72,0,0,1,32.17,26.26Z"/><path id="path4727" class="cls-12" d="M31.52,36l38,.55s.09.71-.11.86S31.54,37,31.54,37Z"/><path id="path4716" class="cls-12" d="M31.91,27.82c2.12,0,37.36.31,37.36.31a6.79,6.79,0,0,1,.2,1.68c-.22.17-37.68-.67-37.68-.67Z"/><path id="path4700" class="cls-18" d="M69.29,28.06,31.91,27.8V28l37.41.27Z"/><path id="path4704" class="cls-14" d="M69.51,30.11l-37.73-.7a18.16,18.16,0,0,0-.16,2.64l38.05.75A13.2,13.2,0,0,0,69.51,30.11Z"/><path id="path4718" class="cls-14" d="M31.57,37.27c1.37,0,37.88.28,37.88.28-.09.36.25,1-1,1H66.59l-3,0c-1.06-.7-1.47-.22-2.06-.05l-2.91-.08a1.84,1.84,0,0,0-2,0l-2.74-.07a2,2,0,0,0-2.06,0l-3,0a1.67,1.67,0,0,0-1.86,0H44.1a1.71,1.71,0,0,0-2.06,0l-3-.07a1.71,1.71,0,0,0-1.8,0l-2.92,0a1.55,1.55,0,0,0-2,0C31.35,38.44,31.47,37.7,31.57,37.27Z"/><path id="path4720" class="cls-15" d="M32.42,38.05a.35.35,0,0,1-.32.38c-.17,0-.55-.28-.55-.5a.27.27,0,0,1,.31-.28C32,37.65,32.43,37.84,32.42,38.05Z"/><path id="path4723" class="cls-15" d="M68,39.35c-.06,0-.14-.08-.12-.16.35-.32.72-.66,1.11-1,.74-.17.34.47,0,.73A1.43,1.43,0,0,1,68,39.35Z"/><path id="path4945" class="cls-15" d="M55.44,31.05c-.08,0-.15.15-.15.33,0,.37.24.44.38.1S55.67,31.06,55.44,31.05ZM49.79,31a.07.07,0,0,0-.06,0,.44.44,0,0,0-.18.34c0,.14.07.2.16.15a.48.48,0,0,0,.18-.35C49.89,31,49.85,31,49.79,31Zm4,.2c-.06,0-.11,0-.11.16s-.11.11-.25.05-.24,0-.24.06-.17.15-.37.14a.37.37,0,0,0-.43.23c-.07.32.46.35.67,0s.45-.25.44,0,.25.34.41.1.21-.11.41,0,.59,0,.41-.33c-.07-.12-.17-.12-.32,0s-.24.09-.32-.17S53.86,31.17,53.76,31.17Zm-4.87-.1c-.15,0-.31.18-.22.33s.15.11.27,0,.14-.22.08-.27A.13.13,0,0,0,48.89,31.07Zm20.74.55s-.1.08-.15.2a.54.54,0,0,1-.83.07c-.05-.08-.33-.13-.63-.1a9.71,9.71,0,0,1-2.93,0c-.17-.09-.31-.09-.38,0s-.28.18-1.95.13c-.62,0-.77,0-.7.22s-.16.32-.32.06-.23-.1-.49.07-.43.17-.49.07-.21-.11-.41,0c-.45.22-.63.18-.71-.15s-.06-.27-.09,0-.88.38-1.21,0c-.18-.18-.28-.19-.42-.05a.92.92,0,0,1-.49.19l-.73,0c-.3,0-.45.11-.46.29s.12.25.65.2.66,0,.65.15.13.19.37.14a8.6,8.6,0,0,1,3.26.14.3.3,0,0,0,.34.12,3.88,3.88,0,0,1,1.7,0,27.09,27.09,0,0,0,3.14.2c1.67.05,3.08.13,3.12.17.24.26.2,0,.23-1C69.72,32,69.77,31.59,69.63,31.62ZM52,31.22a.39.39,0,0,0-.15,0c-.18,0-.33.14-.33.22s.14.15.32.15.33-.09.33-.22S52.12,31.22,52,31.22Zm-1,.06s-.08,0-.15.1a.4.4,0,0,1-.42.08c-.26-.1-.59.24-.45.46s.71.17.72-.09.08-.24.17-.24a.2.2,0,0,0,.17-.2C51,31.32,51,31.28,51,31.28Zm5.07.28a.35.35,0,0,0-.34.22c-.12.29-.06.35.36.36.21,0,.34-.09.35-.28S56.25,31.56,56.06,31.56Zm.7,0a.17.17,0,0,0-.17.16.16.16,0,0,0,.16.16.15.15,0,0,0,.17-.15A.16.16,0,0,0,56.76,31.58ZM51.3,31.5s-.07,0-.13.12c-.15.24,0,.51.17.39s.11-.2.06-.34S51.33,31.51,51.3,31.5Zm3.76.1c-.06,0-.11.11-.11.25s.07.34.15.34.17-.1.17-.23a.41.41,0,0,0-.15-.34A.07.07,0,0,0,55.06,31.6Zm-9.94-.16c-.09,0-.16.11-.17.24s.07.25.16.25.17-.1.17-.24S45.21,31.45,45.12,31.44Zm4.16.17-.06,0a.32.32,0,0,0-.17.25.15.15,0,0,0,.16.16c.09,0,.16-.11.17-.25S49.34,31.61,49.28,31.61Zm-2.77-.06a.24.24,0,0,0-.15,0c-.2.19-.09.37.22.38s.34-.06.34-.14S46.68,31.56,46.51,31.55Zm-.9.07a.17.17,0,0,0-.17.16.17.17,0,0,0,.16.17.17.17,0,1,0,0-.33Zm2.29.06c-.09,0-.16.1-.17.24s.07.25.16.25.17-.11.17-.24S48,31.68,47.9,31.68Zm6.11.71-.06,0a.43.43,0,0,0-.17.34c0,.14.07.2.16.15a.43.43,0,0,0,.17-.34C54.12,32.45,54.07,32.39,54,32.39Zm1.09.13a.17.17,0,0,0-.17.16.17.17,0,1,0,.33,0A.17.17,0,0,0,55.1,32.52Zm-2.27-.05c-.11,0-.17.05-.11.15a.19.19,0,0,0,.25.08c.09-.05.21,0,.26.2s.13.23.19.08a.34.34,0,0,0-.15-.36A.77.77,0,0,0,52.83,32.47ZM51,33.89c-.09,0-.13.07-.07.16s.13.17.17.17.07-.07.07-.16A.17.17,0,0,0,51,33.89Z"/><path id="path4706" class="cls-12" d="M68.91,26.12l-36.43-.58h-.06l0,.05-.3.63h0a58,58,0,0,0-.63,11.44h0a1.24,1.24,0,0,0,.5,1,2,2,0,0,0,.73.21h0l35.59.56h0a1.48,1.48,0,0,0,1.11-.88h0v0c.44-3.55.7-8.32-.42-12.33l0-.05Zm-.06.17c1.09,3.95.83,8.66.4,12.19a1.32,1.32,0,0,1-1,.77h0L32.72,38.7h0a2.19,2.19,0,0,1-.67-.18,1.09,1.09,0,0,1-.41-.84h0a58.18,58.18,0,0,1,.62-11.39h0l.28-.57Z"/><path id="path4729" class="cls-12" d="M31.5,34.28c.78,0,35.78.45,35.78.45L31.53,35Z"/><path id="path4731" class="cls-15" d="M71.7,34.29c-.11-.16-.22-.14-.33,0,.08,2.89.23,6,.23,8.66h0a2.24,2.24,0,0,1-.83,1.57,6.84,6.84,0,0,1-1.64.24c0,.1-.22.2.07.32A6.36,6.36,0,0,0,71,44.81,3,3,0,0,0,71.92,43h0v0C71.93,40.34,71.78,37.19,71.7,34.29Z"/></g></g></g></svg>