<svg xmlns="http://www.w3.org/2000/svg" width="162.53" height="274.7" viewBox="0 0 162.53 274.7"><defs><style>.cls-1{fill:#bf9c70;stroke-width:0.52px;}.cls-1,.cls-4,.cls-5{stroke:#6d5e54;}.cls-2{fill:#fff7d5;stroke:#dfcd87;stroke-width:0.38px;}.cls-3{fill:#6f8a92;}.cls-4{fill:#25201d;stroke-width:2.03px;}.cls-5{fill:#927c70;stroke-width:0.65px;}.cls-6,.cls-7{fill:#322c27;}.cls-7{stroke:#c47373;stroke-width:0.05px;}.cls-8{fill:#968375;}.cls-9{fill:#fff;}.cls-10,.cls-12{fill:#2c2513;}.cls-10{stroke:#010101;stroke-width:0.02px;}.cls-11{fill:#928a70;stroke:#494638;}.cls-13{fill:#e3e2db;}.cls-14{fill:#e8ddaf;}.cls-15{fill:#010101;}</style></defs><g id="Layer_2" data-name="Layer 2"><g id="Layer_1-2" data-name="Layer 1"><path id="path4712" class="cls-1" d="M156.58,35.09A7.39,7.39,0,0,0,147.91,28H10C4.33,28.8-.4,35.47.55,41c-1.2,75,1.72,149.24,2,224.27,0,3.69,3.75,8.15,6.07,8.72,18.44.36,36.62.66,55.07.41,30.5-.79,61-2.53,91.5-3.32,4.49-1.26,7.32-4.75,7.1-9.6-1.27-72.92-2-145.87-4.87-218.75C157.13,40.18,157.3,37.52,156.58,35.09Z"/><g id="g5289"><g id="g4360"><path id="path3025" class="cls-2" d="M6.82,49.55v3.38a7.57,7.57,0,0,0,.78-.17A1.89,1.89,0,0,1,9.43,51.3a1.9,1.9,0,1,1-1.74,2.63c-.28.07-.57.14-.87.19V58l.91-.18a2,2,0,0,1,.36-.5,2,2,0,0,1,.61-.42,1.94,1.94,0,0,1,.73-.14,1.8,1.8,0,0,1,.86.22,2,2,0,0,1,.49.34,1.87,1.87,0,0,1,.51,1,2.21,2.21,0,0,1,0,.37,1.58,1.58,0,0,1,0,.38,1.89,1.89,0,0,1-1.66,1.5l-.2,0-.18,0a1.85,1.85,0,0,1-.77-.26l-.11-.05A3.22,3.22,0,0,1,8.09,60a1.67,1.67,0,0,1-.34-.48l-.08-.12c0-.12-.08-.23-.11-.35l-.74.16v4.17a8,8,0,0,1,.91-.07,1.87,1.87,0,0,1,1.7-1.08,1.89,1.89,0,1,1-1.85,2.24c-.21,0-.48.08-.76.11V69l.84-.11a.22.22,0,0,1,0-.08,1.88,1.88,0,0,1,.42-.58,1.85,1.85,0,0,1,.61-.42,1.77,1.77,0,0,1,.73-.15,1.91,1.91,0,0,1,.86.2,2.18,2.18,0,0,1,.49.37,1.81,1.81,0,0,1,.51,1,2.33,2.33,0,0,1,0,.38,1.55,1.55,0,0,1,0,.37,1.94,1.94,0,0,1-.8,1.2,1.82,1.82,0,0,1-.86.31l-.2,0-.18,0a1.84,1.84,0,0,1-.77-.25.39.39,0,0,1-.11-.06,2,2,0,0,1-.28-.23,2.1,2.1,0,0,1-.34-.5s-.06-.06-.08-.11a1.42,1.42,0,0,1-.07-.22l-.78.09v3.9c.4,0,.7,0,1-.06A1.9,1.9,0,1,1,9.43,76.9a1.89,1.89,0,0,1-1.88-1.72l-.73,0v4.59l.85,0a1.86,1.86,0,0,1,1.76-1.24A1.89,1.89,0,1,1,7.62,81l-.8,0v5.06h.73a.77.77,0,0,1,0-.15,2.34,2.34,0,0,1,0-.38v0c0-.12.07-.23.11-.35a1.88,1.88,0,0,1,.42-.58,1.85,1.85,0,0,1,.61-.42A1.77,1.77,0,0,1,9.43,84a1.91,1.91,0,0,1,.86.2,2.18,2.18,0,0,1,.49.37,1.81,1.81,0,0,1,.51,1,2.33,2.33,0,0,1,0,.38,1.55,1.55,0,0,1,0,.37,1.94,1.94,0,0,1-.8,1.2,1.82,1.82,0,0,1-.86.31l-.2,0-.18,0a2,2,0,0,1-.77-.25l-.11-.06a1.55,1.55,0,0,1-.28-.24H6.82v3.94l.74,0a1.88,1.88,0,0,1,1.87-1.68,1.9,1.9,0,1,1,0,3.79,1.87,1.87,0,0,1-1.63-.95l-1,0v5.08a3.82,3.82,0,0,0,.73-.4,1.64,1.64,0,0,1,0-.22,2.22,2.22,0,0,1,0-.37h0a2.89,2.89,0,0,1,.11-.35,2.14,2.14,0,0,1,.42-.61A2,2,0,0,1,8.7,95a1.77,1.77,0,0,1,.73-.15,1.92,1.92,0,0,1,.86.22,2,2,0,0,1,.49.34,1.87,1.87,0,0,1,.51,1,2.21,2.21,0,0,1,0,.37,1.58,1.58,0,0,1,0,.38,1.89,1.89,0,0,1-.8,1.19,1.84,1.84,0,0,1-.86.33,1.34,1.34,0,0,1-.2,0H9.25a1.85,1.85,0,0,1-.77-.26l-.11-.07-.28-.22a.12.12,0,0,0-.05,0,3.33,3.33,0,0,1-1.22.56v3.6h.71a1.9,1.9,0,1,1,1.9,1.9A1.88,1.88,0,0,1,8,103.42H6.82v3.85l.8,0a1.88,1.88,0,0,1,1.81-1.43,1.9,1.9,0,1,1-1.76,2.6l-.85.07v5.34l.18-.06s0,0,.11-.11a3.79,3.79,0,0,0,.25-.55,4.87,4.87,0,0,1,.28-.56l0-.11a2.14,2.14,0,0,1,.42-.61,2.21,2.21,0,0,1,.61-.42,1.87,1.87,0,0,1,1.59.08,2,2,0,0,1,.49.34,1.87,1.87,0,0,1,.51,1,2.21,2.21,0,0,1,0,.37,1.58,1.58,0,0,1,0,.38,1.89,1.89,0,0,1-.8,1.19,1.82,1.82,0,0,1-.86.31l-.2,0-.18,0a2,2,0,0,1-.77-.24l-.11-.07-.28-.22L8,114.36a1.23,1.23,0,0,1-.71.51l-.45.13v4.42a9.9,9.9,0,0,0,.58-.86c.07-.11.12-.2.18-.31v0a1.93,1.93,0,0,1,.64-1.08l.07-.07.08-.06a1.92,1.92,0,0,1,3,1.59A1.91,1.91,0,0,1,8,119.82a3.59,3.59,0,0,1-1.15,1.26s0,0,0,0v3.58c.29,0,.56,0,.82,0a1.74,1.74,0,0,1-.11-.61,2.43,2.43,0,0,1,0-.38c0-.12.07-.25.11-.37a1.88,1.88,0,0,1,.42-.58,1.85,1.85,0,0,1,.61-.42,1.77,1.77,0,0,1,.73-.15,1.91,1.91,0,0,1,.86.2,2.52,2.52,0,0,1,.49.37,1.81,1.81,0,0,1,.51,1,2.45,2.45,0,0,1,0,.38,1.72,1.72,0,0,1,0,.39,1.89,1.89,0,0,1-.8,1.18,1.83,1.83,0,0,1-.86.32H9.25a2.24,2.24,0,0,1-.59-.17c-.22,0-.44,0-.68.06s-.76,0-1.16,0v3.51l.73,0a1.89,1.89,0,0,1,1.88-1.73,1.9,1.9,0,0,1,0,3.8,1.87,1.87,0,0,1-1.59-.9l-1,0v4l.78,0a1.89,1.89,0,0,1,3.73.4,1.91,1.91,0,0,1-1.9,1.9,1.86,1.86,0,0,1-1.72-1.13l-.89,0v4.55l.74-.22s0,0,0,0v0c0-.12.07-.23.11-.35a1.88,1.88,0,0,1,.42-.58,1.85,1.85,0,0,1,.61-.42,1.77,1.77,0,0,1,.73-.15,1.91,1.91,0,0,1,.86.2,2.52,2.52,0,0,1,.49.37,1.81,1.81,0,0,1,.51.95,2.45,2.45,0,0,1,0,.38,1.5,1.5,0,0,1,0,.37,1.94,1.94,0,0,1-.8,1.2,1.82,1.82,0,0,1-.86.31l-.2,0-.18,0a1.84,1.84,0,0,1-.77-.25.39.39,0,0,1-.11-.06,2,2,0,0,1-.28-.23,2.1,2.1,0,0,1-.34-.5h0l-.91.27v4.09l.74,0a1.92,1.92,0,1,1,.21,1.17l-.95,0v4l.78,0c0-.07.05-.13.07-.2a2,2,0,0,1,.42-.6,1.8,1.8,0,0,1,.61-.4,1.77,1.77,0,0,1,.73-.15,1.91,1.91,0,0,1,.86.2,2.09,2.09,0,0,1,.49.35,1.8,1.8,0,0,1,.51,1,2.33,2.33,0,0,1,0,.37,1.58,1.58,0,0,1,0,.38,1.89,1.89,0,0,1-.8,1.19,1.84,1.84,0,0,1-.86.33H9.25a1.85,1.85,0,0,1-.77-.26l-.11-.07a1.42,1.42,0,0,1-.28-.22,1.87,1.87,0,0,1-.34-.49L7.67,152l0-.09-.82,0v4.69l.51-.14.25-.08a1.88,1.88,0,0,1,1.85-1.57,1.9,1.9,0,1,1,0,3.8,1.89,1.89,0,0,1-1.68-1.06l-.08,0-.85.26v3.76l.82,0a1.89,1.89,0,0,1,1.79-1.31,1.9,1.9,0,0,1,0,3.8,1.87,1.87,0,0,1-1.77-1.32l-.84,0v4.57c.27,0,.47,0,.73,0,0,0,0-.06,0-.1h0a2.89,2.89,0,0,1,.11-.35,2,2,0,0,1,.42-.6,1.85,1.85,0,0,1,.61-.42,1.77,1.77,0,0,1,.73-.15,1.92,1.92,0,0,1,.86.22,2.09,2.09,0,0,1,.49.35,1.8,1.8,0,0,1,.51,1,2.21,2.21,0,0,1,0,.37,1.58,1.58,0,0,1,0,.38,1.89,1.89,0,0,1-.8,1.19,1.84,1.84,0,0,1-.86.33H9.25a1.85,1.85,0,0,1-.77-.26l-.11-.07L8.09,169a1.71,1.71,0,0,1-.32-.44l-.95,0v4a1.08,1.08,0,0,0,.18,0h.64a1.87,1.87,0,0,1,1.79-1.34,1.91,1.91,0,0,1,1.9,1.9A1.89,1.89,0,0,1,9.43,175a1.85,1.85,0,0,1-1.77-1.28l-.61,0-.23,0v4.37h.76a2.29,2.29,0,0,1,.09-.31,1.92,1.92,0,0,1,.42-.59,2,2,0,0,1,.61-.42,1.94,1.94,0,0,1,.73-.14,1.79,1.79,0,0,1,.86.2,2.13,2.13,0,0,1,.49.36,1.81,1.81,0,0,1,.51,1,2.45,2.45,0,0,1,0,.39,1.58,1.58,0,0,1,0,.38,1.89,1.89,0,0,1-1.66,1.5l-.2,0-.18,0a2,2,0,0,1-.77-.26l-.11,0a3.22,3.22,0,0,1-.28-.24,1.82,1.82,0,0,1-.34-.48l-.08-.12H6.82v4.87l.73-.07a.29.29,0,0,1,0-.09,1.9,1.9,0,1,1,1.9,1.9A1.88,1.88,0,0,1,8,185.2l-.2,0-1,.11v3.47h.84a1.87,1.87,0,0,1,1.77-1.26,1.91,1.91,0,0,1,1.9,1.9,1.89,1.89,0,0,1-1.9,1.88A1.86,1.86,0,0,1,7.64,190H6.82v5l.71,0h0a1.9,1.9,0,1,1,1.9,1.9A1.85,1.85,0,0,1,8,196.05l-.26,0-.89,0v3.94c.25,0,.48,0,.74,0a1.9,1.9,0,1,1,1.87,2.21,1.87,1.87,0,0,1-1.68-1l-.93,0v6.2a1.82,1.82,0,0,0,.67-.41,2.3,2.3,0,0,0,.26-.4,1.84,1.84,0,0,1-.22-.84,1.9,1.9,0,1,1,1.9,1.9,1.74,1.74,0,0,1-.82-.2,3.25,3.25,0,0,1-.3.37,3.44,3.44,0,0,1-1.49.84v2.72c.27-.11.52-.22.73-.33a1.87,1.87,0,1,1,.27,1.17,7.21,7.21,0,0,1-.79.33l-.21.07v3.65l.78,0a1.89,1.89,0,0,1,1.83-1.46,1.9,1.9,0,1,1-1.74,2.63l-.87.05v4.59a6.83,6.83,0,0,0,.74-.26h0a1.88,1.88,0,0,1,1.85-1.57,1.9,1.9,0,0,1,0,3.8,1.87,1.87,0,0,1-1.68-1c-.29.11-.61.2-.93.29V228l.76,0a2,2,0,0,1,0-.35A1.93,1.93,0,1,1,8.22,229a13.75,13.75,0,0,1-1.4.11v4.09l.71-.26a1.9,1.9,0,1,1,1.9,2,1.88,1.88,0,0,1-1.55-.82l-.79.27-.27.07v1.32h148.4V49.55Z"/><path id="path3027" class="cls-3" d="M6.71,171.28v.21H155.34v-.21Z"/><path id="path3029" class="cls-3" d="M6.71,176.73V177H155.34v-.22Z"/><path id="path3031" class="cls-3" d="M6.71,182.18v.22H155.34v-.22Z"/><path id="path3033" class="cls-3" d="M6.71,187.63v.22H155.34v-.22Z"/><path id="path3035" class="cls-3" d="M6.71,149.47v.21H155.34v-.21Z"/><path id="path3037" class="cls-3" d="M6.71,154.92v.22H155.34v-.22Z"/><path id="path3039" class="cls-3" d="M6.71,160.37v.22H155.34v-.22Z"/><path id="path3041" class="cls-3" d="M6.71,165.82V166H155.34v-.22Z"/><path id="path3043" class="cls-3" d="M6.71,214.9v.21H155.34v-.21Z"/><path id="path3045" class="cls-3" d="M6.71,220.35v.22H155.34v-.22Z"/><path id="path3047" class="cls-3" d="M6.71,225.8V226H155.34v-.22Z"/><path id="path3049" class="cls-3" d="M6.71,231.25v.22H155.34v-.22Z"/><path id="path3051" class="cls-3" d="M6.71,193.09v.21H155.34v-.21Z"/><path id="path3053" class="cls-3" d="M6.71,198.54v.22H155.34v-.22Z"/><path id="path3055" class="cls-3" d="M6.71,204v.22H155.34V204Z"/><path id="path3057" class="cls-3" d="M6.71,209.44v.22H155.34v-.22Z"/><path id="path3059" class="cls-3" d="M6.71,127.66v.21H155.34v-.21Z"/><path id="path3061" class="cls-3" d="M6.71,133.11v.22H155.34v-.22Z"/><path id="path3063" class="cls-3" d="M6.71,138.56v.22H155.34v-.22Z"/><path id="path3065" class="cls-3" d="M6.71,144v.22H155.34V144Z"/><path id="path3067" class="cls-3" d="M6.71,105.85v.21H155.34v-.21Z"/><path id="path3069" class="cls-3" d="M6.71,111.3v.22H155.34v-.22Z"/><path id="path3071" class="cls-3" d="M6.71,116.75V117H155.34v-.22Z"/><path id="path3073" class="cls-3" d="M6.71,122.2v.22H155.34v-.22Z"/><path id="path3075" class="cls-3" d="M6.71,94.94v.22H155.34v-.22Z"/><path id="path3077" class="cls-3" d="M6.71,100.39v.22H155.34v-.22Z"/><path id="path3079" class="cls-3" d="M6.71,73.13v.22H155.34v-.22Z"/><path id="path3081" class="cls-3" d="M6.71,78.58v.22H155.34v-.22Z"/><path id="path3083" class="cls-3" d="M6.71,84v.21H155.34V84Z"/><path id="path3085" class="cls-3" d="M6.71,89.49v.22H155.34v-.22Z"/></g><g id="g5097"><path id="path5099" class="cls-2" d="M8.52,48.21l-.06,3.38a7.43,7.43,0,0,0,.79-.15,1.89,1.89,0,1,1,.07,1.17c-.28.06-.57.13-.88.17l-.07,3.87.92-.17A1.72,1.72,0,0,1,9.66,56a1.93,1.93,0,0,1,.61-.41,1.88,1.88,0,0,1,1.59.1,2.13,2.13,0,0,1,.49.36,1.91,1.91,0,0,1,.49,1,2.22,2.22,0,0,1,0,.37,2.33,2.33,0,0,1,0,.38A1.93,1.93,0,0,1,12,59a1.91,1.91,0,0,1-.86.29.67.67,0,0,1-.2,0l-.19,0A1.87,1.87,0,0,1,10,59l-.11-.05a3.08,3.08,0,0,1-.27-.25,1.67,1.67,0,0,1-.34-.48s0-.08-.07-.13a1.79,1.79,0,0,1-.1-.35l-.75.16L8.27,62c.34,0,.64-.05.92-.06a1.85,1.85,0,0,1,1.71-1,1.89,1.89,0,1,1-.06,3.78A1.88,1.88,0,0,1,9,63.13l-.77.09-.08,4.43.84-.1s0,0,0-.07a1.76,1.76,0,0,1,.43-.58,2.25,2.25,0,0,1,.61-.41,1.8,1.8,0,0,1,.74-.13,1.88,1.88,0,0,1,.85.22,2,2,0,0,1,.49.37,1.88,1.88,0,0,1,.49,1,2.43,2.43,0,0,1,0,.38,1.5,1.5,0,0,1,0,.37,2,2,0,0,1-.83,1.19,1.7,1.7,0,0,1-.86.29l-.2,0-.19,0a2.23,2.23,0,0,1-.76-.27l-.11-.06-.27-.24a1.81,1.81,0,0,1-.33-.5S9,69,9,69l-.06-.22-.79.07L8.08,72.7l1,0a1.9,1.9,0,1,1,1.56,2.93,1.89,1.89,0,0,1-1.85-1.75l-.73,0L8,78.48h.86a1.88,1.88,0,0,1,3.64.71A1.9,1.9,0,0,1,10.54,81a1.87,1.87,0,0,1-1.79-1.4H8l-.09,5,.73,0s0-.1,0-.15a2.32,2.32,0,0,1,0-.38v0a1.93,1.93,0,0,1,.11-.34,1.91,1.91,0,0,1,.43-.58,2,2,0,0,1,.61-.41,2,2,0,0,1,1.59.08,2.29,2.29,0,0,1,.49.38,1.77,1.77,0,0,1,.49,1,1.58,1.58,0,0,1,0,.38,1.55,1.55,0,0,1,0,.37,2,2,0,0,1-.83,1.19,1.91,1.91,0,0,1-.86.29l-.2,0-.18,0a1.87,1.87,0,0,1-.77-.27l-.11,0a2,2,0,0,1-.26-.25h0l-1.26,0-.07,3.95.75,0a1.88,1.88,0,0,1,1.89-1.65A1.9,1.9,0,1,1,8.73,91l-1,0-.09,5.08a4.08,4.08,0,0,0,.74-.39.83.83,0,0,1,0-.22,1.5,1.5,0,0,1,0-.37v0a1.38,1.38,0,0,1,.12-.34,1.84,1.84,0,0,1,.43-.6,2.18,2.18,0,0,1,.61-.41,2,2,0,0,1,.73-.13,1.86,1.86,0,0,1,.85.24,1.9,1.9,0,0,1,.49.35,2,2,0,0,1,.5,1,1.51,1.51,0,0,1,0,.37,1.58,1.58,0,0,1,0,.38,1.91,1.91,0,0,1-.82,1.17,1.79,1.79,0,0,1-.87.31,1.34,1.34,0,0,1-.2,0,1.08,1.08,0,0,1-.18,0,2,2,0,0,1-.77-.27L9.19,97a2,2,0,0,1-.27-.22l-.06-.06a3.36,3.36,0,0,1-1.23.55l-.07,3.6h.72a1.92,1.92,0,1,1,.39,1.17l-1.13,0-.07,3.86.81,0a1.86,1.86,0,0,1,1.83-1.39,1.9,1.9,0,1,1-1.8,2.56l-.86.06-.1,5.33.19,0s0,0,.11-.11a3,3,0,0,0,.26-.54,5.12,5.12,0,0,1,.29-.57.42.42,0,0,1,0-.1,2.07,2.07,0,0,1,1-1,1.79,1.79,0,0,1,.73-.13,1.93,1.93,0,0,1,.86.23,2.15,2.15,0,0,1,.48.36,2,2,0,0,1,.5,1,2.19,2.19,0,0,1,0,.36,1.74,1.74,0,0,1-.05.39,1.9,1.9,0,0,1-.82,1.17,1.88,1.88,0,0,1-.87.29l-.2,0-.18,0a2,2,0,0,1-.76-.26l-.11-.07a2,2,0,0,1-.27-.22L8.51,113a1.23,1.23,0,0,1-.72.49l-.46.12-.08,4.42a9,9,0,0,0,.6-.84c.07-.12.13-.2.19-.31v0a1.91,1.91,0,0,1,.66-1.06.44.44,0,0,1,.07-.08l.08,0a1.82,1.82,0,0,1,1.06-.29,1.89,1.89,0,1,1-1.5,3.1,3.87,3.87,0,0,1-1.17,1.24h0l-.06,3.58c.28,0,.56,0,.82,0a2,2,0,0,1-.1-.6,2.45,2.45,0,0,1,0-.39A2.17,2.17,0,0,1,8,122a1.76,1.76,0,0,1,.43-.58,2,2,0,0,1,.61-.4,1.79,1.79,0,0,1,.73-.14,1.92,1.92,0,0,1,1.84,1.55,2.47,2.47,0,0,1,0,.39,1.58,1.58,0,0,1,0,.38,1.87,1.87,0,0,1-.82,1.17,1.85,1.85,0,0,1-.86.3H9.74l-.18,0a1.94,1.94,0,0,1-.58-.17l-.68,0c-.37,0-.76,0-1.17,0L7.07,128H7.8a1.92,1.92,0,1,1,.27,1.17h-1l-.07,4h.78a1.87,1.87,0,0,1,1.85-1.44,1.89,1.89,0,1,1-1.76,2.61H7l-.08,4.54.75-.2s0,0,0,0v0a1.35,1.35,0,0,1,.11-.34,1.76,1.76,0,0,1,.43-.58,2.25,2.25,0,0,1,.61-.41,1.92,1.92,0,0,1,1.59.09,2,2,0,0,1,.49.37,1.88,1.88,0,0,1,.49,1,2.43,2.43,0,0,1,0,.38,2.21,2.21,0,0,1,0,.37,2,2,0,0,1-.83,1.19,1.8,1.8,0,0,1-.86.29l-.2,0-.19,0a2.23,2.23,0,0,1-.76-.27l-.11-.06-.27-.24a2.1,2.1,0,0,1-.34-.5s0,0,0,0l-.92.26-.08,4.09h.75a1.89,1.89,0,1,1,.18,1.18h-1l-.07,4h.79a1.59,1.59,0,0,1,.07-.2,2,2,0,0,1,.43-.59,2,2,0,0,1,.61-.39,1.81,1.81,0,0,1,.74-.14,1.85,1.85,0,0,1,.85.22,1.72,1.72,0,0,1,.49.36,1.91,1.91,0,0,1,.49,1,2.22,2.22,0,0,1,0,.37,1.58,1.58,0,0,1,0,.38,1.89,1.89,0,0,1-.83,1.17,1.83,1.83,0,0,1-.86.32H9.06a1.87,1.87,0,0,1-.76-.27l-.11-.07a2.76,2.76,0,0,1-.27-.23,1.74,1.74,0,0,1-.33-.5.54.54,0,0,1-.07-.13.36.36,0,0,1,0-.09H6.66l-.09,4.7.52-.14.25-.07a1.91,1.91,0,1,1,.15,1.17l-.08,0c-.25.08-.56.16-.86.24l-.07,3.76H7.3a1.94,1.94,0,1,1,0,1.17H6.46L6.38,166h.73a.29.29,0,0,1,0-.09v0a1.93,1.93,0,0,1,.11-.34,2,2,0,0,1,.44-.6,2.18,2.18,0,0,1,.61-.41,1.93,1.93,0,0,1,.73-.13,1.86,1.86,0,0,1,.85.24,1.9,1.9,0,0,1,.49.35,1.87,1.87,0,0,1,.49,1,1.14,1.14,0,0,1,0,.37,1.58,1.58,0,0,1,0,.38,1.91,1.91,0,0,1-.82,1.17,1.79,1.79,0,0,1-.87.31H8.77A2,2,0,0,1,8,168l-.1-.08a2,2,0,0,1-.27-.22,1.6,1.6,0,0,1-.32-.45l-.95,0-.08,4h.83a1.88,1.88,0,0,1,1.81-1.3,1.9,1.9,0,0,1,1.86,1.94,1.89,1.89,0,0,1-3.68.53H6.26l-.08,4.37H7a1.86,1.86,0,0,1,.1-.31,2.19,2.19,0,0,1,1-1,1.79,1.79,0,0,1,.73-.13,1.92,1.92,0,0,1,.86.21,2.17,2.17,0,0,1,.48.38,1.86,1.86,0,0,1,.5,1,1.83,1.83,0,0,1,0,.76,2,2,0,0,1-.82,1.18,2,2,0,0,1-.87.29.66.66,0,0,1-.2,0l-.18,0a1.77,1.77,0,0,1-.76-.27l-.11-.05a1.6,1.6,0,0,1-.27-.25,1.67,1.67,0,0,1-.34-.48s0-.08-.07-.13H6.16l-.09,4.87.73-.05s0-.07,0-.1a1.9,1.9,0,1,1,1.86,1.94,1.85,1.85,0,0,1-1.43-.71l-.2,0-1,.09L6,187.44h.84a1.87,1.87,0,0,1,1.79-1.23A1.89,1.89,0,1,1,8.55,190a1.87,1.87,0,0,1-1.76-1.38H6l-.09,5,.71,0v0a1.9,1.9,0,1,1,1.86,1.93A1.87,1.87,0,0,1,7,194.71l-.26,0-.9,0-.07,3.94.75,0a1.9,1.9,0,1,1,1.82,2.24,1.85,1.85,0,0,1-1.66-1.07l-.93,0-.11,6.19a1.79,1.79,0,0,0,.68-.39,2.12,2.12,0,0,0,.26-.39,2,2,0,1,1,.85.87,2.49,2.49,0,0,1-.3.36,3.32,3.32,0,0,1-1.51.81l0,2.73c.27-.11.52-.21.73-.32a1.9,1.9,0,0,1,3.78.23,1.9,1.9,0,0,1-3.53.94,6.49,6.49,0,0,1-.79.32l-.22.07-.06,3.65.78,0a1.89,1.89,0,1,1,.07,1.17l-.88,0-.08,4.58a5.14,5.14,0,0,0,.75-.24h0A1.89,1.89,0,1,1,8,222.7a1.85,1.85,0,0,1-1.66-1.07c-.29.11-.61.19-.94.28l-.09,4.69c.28,0,.53,0,.77,0a2,2,0,0,1,0-.35,1.9,1.9,0,1,1,1.87,1.93,1.83,1.83,0,0,1-1.2-.47c-.42.05-.9.07-1.41.08l-.07,4.09c.25-.07.49-.16.71-.24a1.9,1.9,0,1,1,1.87,2,1.89,1.89,0,0,1-1.54-.85l-.79.26-.28.06,0,1.32,148.38,2.7L156.9,50.92Z"/><path id="path5101" class="cls-3" d="M6.2,169.92v.22l148.61,2.7v-.21Z"/><path id="path5103" class="cls-3" d="M6.1,175.37v.22L154.7,178.3v-.22Z"/><path id="path5105" class="cls-3" d="M6,180.82V181l148.6,2.71v-.22Z"/><path id="path5107" class="cls-3" d="M5.9,186.27v.22l148.6,2.71V189Z"/><path id="path5109" class="cls-3" d="M6.6,148.11v.22L155.2,151v-.22Z"/><path id="path5111" class="cls-3" d="M6.5,153.56v.22l148.61,2.71v-.22Z"/><path id="path5113" class="cls-3" d="M6.4,159v.22L155,161.94v-.22Z"/><path id="path5115" class="cls-3" d="M6.3,164.47v.21l148.61,2.71v-.22Z"/><path id="path5117" class="cls-3" d="M5.4,213.53v.22L154,216.46v-.22Z"/><path id="path5119" class="cls-3" d="M5.3,219v.22l148.61,2.71v-.22Z"/><path id="path5121" class="cls-3" d="M5.2,224.43v.22l148.61,2.71v-.22Z"/><path id="path5123" class="cls-3" d="M5.11,229.88v.22l148.61,2.71v-.22Z"/><path id="path5125" class="cls-3" d="M5.8,191.72v.22l148.6,2.71v-.22Z"/><path id="path5127" class="cls-3" d="M5.7,197.17v.22l148.6,2.71v-.22Z"/><path id="path5129" class="cls-3" d="M5.6,202.63v.21l148.6,2.71v-.22Z"/><path id="path5131" class="cls-3" d="M5.5,208.08v.22L154.11,211v-.21Z"/><path id="path5133" class="cls-3" d="M7,126.3v.22l148.61,2.71V129Z"/><path id="path5135" class="cls-3" d="M6.89,131.76V132l148.61,2.71v-.22Z"/><path id="path5137" class="cls-3" d="M6.79,137.21v.22l148.61,2.7v-.21Z"/><path id="path5139" class="cls-3" d="M6.69,142.66v.22l148.61,2.71v-.22Z"/><path id="path5141" class="cls-3" d="M7.39,104.5v.22L156,107.43v-.22Z"/><path id="path5143" class="cls-3" d="M7.29,110v.22l148.6,2.71v-.22Z"/><path id="path5145" class="cls-3" d="M7.19,115.4v.22l148.6,2.71v-.22Z"/><path id="path5147" class="cls-3" d="M7.09,120.85v.22l148.6,2.71v-.22Z"/><path id="path5149" class="cls-3" d="M7.59,93.6v.21l148.61,2.71V96.3Z"/><path id="path5151" class="cls-3" d="M7.49,99.05v.22L156.09,102v-.21Z"/><path id="path5153" class="cls-3" d="M8,71.79V72l148.61,2.71V74.5Z"/><path id="path5155" class="cls-3" d="M7.89,77.24v.22l148.61,2.71V80Z"/><path id="path5157" class="cls-3" d="M7.79,82.69v.22l148.61,2.71V85.4Z"/><path id="path5159" class="cls-3" d="M7.69,88.14v.22l148.61,2.71v-.22Z"/></g><g id="g5161"><path id="path5163" class="cls-2" d="M12.53,49l-.1,3.37a5.88,5.88,0,0,0,.79-.14,1.87,1.87,0,0,1,1.87-1.4,1.9,1.9,0,1,1-1.82,2.57,7.65,7.65,0,0,1-.88.16l-.11,3.87.91-.15a2.15,2.15,0,0,1,1-.89,1.78,1.78,0,0,1,.73-.12,1.94,1.94,0,0,1,.86.24,2.12,2.12,0,0,1,.48.37,1.85,1.85,0,0,1,.48,1,2.22,2.22,0,0,1,0,.37,2.32,2.32,0,0,1-.05.38,1.92,1.92,0,0,1-.84,1.16,1.86,1.86,0,0,1-.87.28l-.2,0-.18,0a1.79,1.79,0,0,1-.76-.28l-.11,0a2.11,2.11,0,0,1-.27-.25,2.27,2.27,0,0,1-.33-.48s-.05-.09-.07-.13a2.3,2.3,0,0,1-.1-.35l-.75.14-.13,4.16c.35,0,.65,0,.92,0A1.9,1.9,0,1,1,12.85,64c-.22,0-.49.06-.77.09l-.14,4.41.85-.08s0-.05,0-.07a1.65,1.65,0,0,1,.44-.57,1.82,1.82,0,0,1,.61-.41,1.8,1.8,0,0,1,.74-.12,1.86,1.86,0,0,1,1.33.61,1.79,1.79,0,0,1,.48,1,2.47,2.47,0,0,1,0,.39,2.08,2.08,0,0,1-.05.36,2,2,0,0,1-.84,1.18,2,2,0,0,1-.87.29h-.2l-.18,0a2,2,0,0,1-.76-.27l-.11-.06a2,2,0,0,1-.26-.25,1.92,1.92,0,0,1-.34-.5l-.07-.11-.06-.22-.79.06-.12,3.89c.41,0,.7,0,1,0a1.89,1.89,0,0,1,3.47,1.11,1.89,1.89,0,0,1-3.78.07l-.73,0-.14,4.58h.86a1.86,1.86,0,0,1,1.79-1.19,1.89,1.89,0,1,1-1.88,2.36h-.81l-.15,5.06.73,0s0-.09,0-.15a1.65,1.65,0,0,1,0-.38,0,0,0,0,1,0,0,1.38,1.38,0,0,1,.12-.34,1.72,1.72,0,0,1,.43-.57,1.88,1.88,0,0,1,1.35-.53,1.85,1.85,0,0,1,1.34.61,1.79,1.79,0,0,1,.48,1,1.67,1.67,0,0,1,0,.39,1.42,1.42,0,0,1,0,.36A2,2,0,0,1,15.06,87a1.88,1.88,0,0,1-.87.29H14l-.18,0a1.93,1.93,0,0,1-.76-.28L12.94,87a1.6,1.6,0,0,1-.27-.25v0l-1.26,0-.12,3.94H12a1.88,1.88,0,0,1,3.75.33,1.91,1.91,0,0,1-2,1.84,1.89,1.89,0,0,1-1.59-1h-1l-.15,5.08a4.34,4.34,0,0,0,.74-.38c0-.08,0-.15,0-.22a1.5,1.5,0,0,1,0-.37v0a2,2,0,0,1,.12-.34,1.82,1.82,0,0,1,.44-.59,2,2,0,0,1,.61-.4,2,2,0,0,1,.74-.13,2,2,0,0,1,.85.25,2.41,2.41,0,0,1,.48.36,1.89,1.89,0,0,1,.48,1,2.22,2.22,0,0,1,0,.37,2.32,2.32,0,0,1,0,.38,2,2,0,0,1-.84,1.17,2,2,0,0,1-.87.3h-.38a1.93,1.93,0,0,1-.76-.28l-.11-.08a1.86,1.86,0,0,1-.26-.23l-.06,0a3.45,3.45,0,0,1-1.24.53l-.11,3.59.71,0a1.9,1.9,0,1,1,1.85,2,1.87,1.87,0,0,1-1.46-.77l-1.13,0-.12,3.85.81,0a1.87,1.87,0,0,1,1.85-1.36,1.9,1.9,0,1,1-.12,3.79,1.88,1.88,0,0,1-1.71-1.25l-.86,0-.17,5.33.19,0s0,0,.11-.1a3.82,3.82,0,0,0,.27-.54,3.42,3.42,0,0,1,.3-.56l0-.11a2.07,2.07,0,0,1,1.06-1,1.78,1.78,0,0,1,.73-.12,1.86,1.86,0,0,1,.85.24,2.21,2.21,0,0,1,.49.36,2,2,0,0,1,.48,1,2.19,2.19,0,0,1,0,.36,2.32,2.32,0,0,1-.05.38,1.94,1.94,0,0,1-.84,1.17,1.86,1.86,0,0,1-.87.28.67.67,0,0,1-.2,0l-.18,0a1.91,1.91,0,0,1-.76-.26l-.11-.08a2,2,0,0,1-.27-.22.71.71,0,0,1-.1-.14,1.29,1.29,0,0,1-.73.49l-.46.12-.13,4.42c.2-.25.42-.55.61-.84l.19-.31v0a1.89,1.89,0,0,1,.67-1.06l.08-.07a.22.22,0,0,1,.07-.06,1.86,1.86,0,0,1,1.07-.27,1.89,1.89,0,1,1-1.54,3.07,3.69,3.69,0,0,1-1.19,1.23h0l-.11,3.58c.29,0,.56,0,.82,0a1.71,1.71,0,0,1-.09-.6,1.58,1.58,0,0,1,.05-.38,2.29,2.29,0,0,1,.12-.37,1.83,1.83,0,0,1,.43-.57,2.13,2.13,0,0,1,.62-.4,1.8,1.8,0,0,1,.74-.12,1.92,1.92,0,0,1,.85.22,2.51,2.51,0,0,1,.48.38,1.86,1.86,0,0,1,.48,1,2.43,2.43,0,0,1,0,.38,2.6,2.6,0,0,1-.05.39,1.92,1.92,0,0,1-.84,1.16,1.86,1.86,0,0,1-.87.28.67.67,0,0,1-.2,0l-.18,0a1.79,1.79,0,0,1-.58-.18c-.22,0-.44,0-.68,0s-.77,0-1.17,0l-.1,3.5h.73a1.92,1.92,0,1,1,.25,1.17h-1L10,134h.79a1.86,1.86,0,0,1,1.87-1.42,1.89,1.89,0,1,1-1.8,2.59h-.9L9.8,139.7l.75-.2s0,0,0,0v0a2,2,0,0,1,.12-.34,1.94,1.94,0,0,1,.44-.58,2.13,2.13,0,0,1,.62-.4,1.78,1.78,0,0,1,.73-.12,1.86,1.86,0,0,1,.85.23,1.8,1.8,0,0,1,.49.38,2,2,0,0,1,.48,1,1.67,1.67,0,0,1,0,.39,1.42,1.42,0,0,1,0,.36,2,2,0,0,1-.84,1.18,1.86,1.86,0,0,1-.87.28l-.2,0-.18,0a1.79,1.79,0,0,1-.76-.28l-.11-.05a1.6,1.6,0,0,1-.27-.25,2.06,2.06,0,0,1-.33-.5l0,0-.92.24L9.64,145h.75a1.89,1.89,0,1,1,.16,1.17h-1l-.12,4h.79a1.19,1.19,0,0,1,.08-.2,1.83,1.83,0,0,1,.43-.59,1.91,1.91,0,0,1,.62-.39,1.78,1.78,0,0,1,.73-.12,1.93,1.93,0,0,1,.86.23,1.83,1.83,0,0,1,.48.36,1.85,1.85,0,0,1,.48,1,2.22,2.22,0,0,1,0,.37,2.32,2.32,0,0,1-.05.38,1.92,1.92,0,0,1-.84,1.16,1.9,1.9,0,0,1-.87.31h-.38a1.92,1.92,0,0,1-.76-.27l-.11-.08a1.49,1.49,0,0,1-.27-.23,2.06,2.06,0,0,1-.33-.5l-.07-.13,0-.09H9.45l-.15,4.69.52-.13.26-.06A1.87,1.87,0,0,1,12,154.35a1.9,1.9,0,1,1-.12,3.8A1.87,1.87,0,0,1,10.21,157l-.08,0-.86.23-.12,3.76H10a1.93,1.93,0,1,1,0,1.17H9.12L9,166.78l.73,0a.29.29,0,0,0,0-.09v0a2,2,0,0,1,.12-.34,2,2,0,0,1,.44-.59,2.13,2.13,0,0,1,.62-.4,2,2,0,0,1,.73-.13,1.87,1.87,0,0,1,.85.25,1.94,1.94,0,0,1,.49.36,2.06,2.06,0,0,1,.48,1,1.51,1.51,0,0,1,0,.37,1.58,1.58,0,0,1-.05.38,1.87,1.87,0,0,1-.83,1.16,1.79,1.79,0,0,1-.87.31h-.39a1.94,1.94,0,0,1-.75-.28l-.11-.08a1.49,1.49,0,0,1-.27-.23A1.8,1.8,0,0,1,9.9,168l-1,0-.13,4h.83a1.88,1.88,0,0,1,1.83-1.28,1.89,1.89,0,1,1-.12,3.78,1.85,1.85,0,0,1-1.73-1.33H8.79l-.13,4.37h.77a1.24,1.24,0,0,1,.1-.31,1.83,1.83,0,0,1,.43-.57,2.13,2.13,0,0,1,.62-.4,2,2,0,0,1,.73-.13,1.93,1.93,0,0,1,.86.23,2.51,2.51,0,0,1,.48.38,1.9,1.9,0,0,1,.48,1,1.83,1.83,0,0,1,0,.76,2,2,0,0,1-.84,1.17,1.86,1.86,0,0,1-.87.28h-.2l-.18,0a1.93,1.93,0,0,1-.76-.28l-.11-.06a2.1,2.1,0,0,1-.27-.24,2,2,0,0,1-.33-.49l-.07-.13H9.13l-.51,0-.14,4.88.73-.05s0-.06,0-.09a1.9,1.9,0,1,1,1.85,2,1.84,1.84,0,0,1-1.43-.72l-.2,0-1,.08-.1,3.47h.25l.59,0A1.87,1.87,0,0,1,11,187a1.92,1.92,0,0,1,1.85,2,1.88,1.88,0,0,1-2,1.82,1.86,1.86,0,0,1-1.75-1.4l-.56,0H8.3l-.15,5h.71v0a1.9,1.9,0,1,1,1.85,2,1.85,1.85,0,0,1-1.44-.77H8.12L8,199.46h.75a1.89,1.89,0,1,1,.14,1.17H8l-.18,6.19a1.92,1.92,0,0,0,.68-.38,2,2,0,0,0,.27-.39,1.93,1.93,0,1,1,.83.88,2.38,2.38,0,0,1-.3.36,3.37,3.37,0,0,1-1.52.79l-.08,2.72a6.67,6.67,0,0,0,.74-.3,1.89,1.89,0,0,1,3.77.27,1.9,1.9,0,0,1-3.54.9,7.23,7.23,0,0,1-.79.31l-.22.06-.11,3.66.78,0a1.89,1.89,0,0,1,3.72.55,1.89,1.89,0,0,1-3.66.62l-.88,0-.14,4.58a5.75,5.75,0,0,0,.76-.24h0A1.88,1.88,0,0,1,10,219.7a1.9,1.9,0,0,1-.11,3.8,1.88,1.88,0,0,1-1.65-1.09c-.29.1-.61.18-.94.26l-.14,4.69h.76c0-.11,0-.23,0-.35a2,2,0,1,1,.65,1.46,10.31,10.31,0,0,1-1.41.07L7,232.62l.72-.23A1.92,1.92,0,1,1,8,233.53l-.79.25-.28.07,0,1.31,148.34,4.47L160.87,53.5Z"/><path id="path5165" class="cls-3" d="M8.75,170.69v.22l148.56,4.48v-.22Z"/><path id="path5167" class="cls-3" d="M8.59,176.14v.22l148.57,4.48v-.22Z"/><path id="path5169" class="cls-3" d="M8.43,181.6v.21L157,186.29v-.22Z"/><path id="path5171" class="cls-3" d="M8.26,187.05v.21l148.56,4.48v-.22Z"/><path id="path5173" class="cls-3" d="M9.41,148.89v.22L158,153.59v-.22Z"/><path id="path5175" class="cls-3" d="M9.25,154.35v.21L157.81,159v-.22Z"/><path id="path5177" class="cls-3" d="M9.08,159.8V160l148.56,4.48v-.22Z"/><path id="path5179" class="cls-3" d="M8.92,165.24v.22l148.57,4.48v-.22Z"/><path id="path5181" class="cls-3" d="M7.44,214.29v.22L156,219v-.22Z"/><path id="path5183" class="cls-3" d="M7.28,219.74V220l148.56,4.48v-.22Z"/><path id="path5185" class="cls-3" d="M7.11,225.19v.22l148.56,4.48v-.22Z"/><path id="path5187" class="cls-3" d="M7,230.64v.22l148.57,4.48v-.22Z"/><path id="path5189" class="cls-3" d="M8.1,192.49v.22l148.56,4.48V197Z"/><path id="path5191" class="cls-3" d="M7.93,197.94v.22l148.56,4.48v-.22Z"/><path id="path5193" class="cls-3" d="M7.77,203.39v.22l148.57,4.48v-.22Z"/><path id="path5195" class="cls-3" d="M7.61,208.84v.22l148.56,4.48v-.22Z"/><path id="path5197" class="cls-3" d="M10.07,127.1v.21l148.57,4.48v-.22Z"/><path id="path5199" class="cls-3" d="M9.9,132.55v.21l148.56,4.48V137Z"/><path id="path5201" class="cls-3" d="M9.74,138v.22l148.57,4.48v-.22Z"/><path id="path5203" class="cls-3" d="M9.58,143.45v.21l148.56,4.48v-.22Z"/><path id="path5205" class="cls-3" d="M10.73,105.3v.21L159.28,110v-.22Z"/><path id="path5207" class="cls-3" d="M10.56,110.74V111l148.56,4.48v-.22Z"/><path id="path5209" class="cls-3" d="M10.4,116.2v.21L159,120.89v-.22Z"/><path id="path5211" class="cls-3" d="M10.23,121.64v.22l148.56,4.48v-.22Z"/><path id="path5213" class="cls-3" d="M11.05,94.4v.21l148.56,4.48v-.22Z"/><path id="path5215" class="cls-3" d="M10.89,99.85v.21l148.57,4.48v-.22Z"/><path id="path5217" class="cls-3" d="M11.71,72.6v.21l148.57,4.48v-.22Z"/><path id="path5219" class="cls-3" d="M11.55,78.05v.21L160.1,82.74v-.22Z"/><path id="path5221" class="cls-3" d="M11.38,83.5v.21l148.56,4.48V88Z"/><path id="path5223" class="cls-3" d="M11.22,89v.21l148.57,4.48v-.22Z"/></g></g><g id="g3509"><path id="path4717" class="cls-4" d="M81.78,1c-3.89,0-7.32,2.75-9,6.25-1.26,3.6-2.32,7.6-5.53,10-1.74,2-4.48,2.42-6.49,4-1,1.94-.34,4.33-.6,6.46L45.52,37.16c-1.88-.79-4.32-.94-5.77.77-.39,1.71.29,3.58.79,5.24C44,43.39,47.54,43,51,43l-5.34,1.13C41.05,45.19,35.91,45.6,32.2,49c-3.24,2.75-5.89,6.7-6.27,11.09,0,.54.41.48.82.58l78.39.27c10.21,0,20.44.2,30.63,0,0-6.08-4.27-11.59-9.51-14.16-5.37-1.69-11-2.56-16.41-3.91l10.54.28A20.09,20.09,0,0,0,122.06,38a5.73,5.73,0,0,0-6.26-.7l-11.22-7.19c-1.86-.53-1.86-2.14-1.71-3.82-.3-1.65.73-4.06-1-5.07-4.92-1.4-8.61-5.71-10-10.65-.59-4.77-4.46-9.31-9.32-9.49C82.31,1,82,1,81.78,1Zm0,7.22a4.14,4.14,0,0,1,3.89,4.36,3.92,3.92,0,1,1-7.79,0A4.15,4.15,0,0,1,81.82,8.23Z"/><path id="path4808" class="cls-5" d="M81.51.83C77.6.81,74.15,3.52,72.43,7c-1.26,3.53-2.32,7.46-5.55,9.76-1.74,2-4.5,2.37-6.52,3.88-1,1.91-.33,4.25-.6,6.34L45.1,36.27c-1.89-.77-4.34-.92-5.8.76-.39,1.68.3,3.5.79,5.13,3.47.22,7-.17,10.54-.18l-5.36,1.11c-4.66,1.06-9.82,1.46-13.55,4.78-3.25,2.69-5.91,6.56-6.29,10.86,0,.54.41.48.81.58l78.72.26c10.24,0,20.52.19,30.75,0,0-6-4.29-11.37-9.54-13.89-5.39-1.65-11-2.5-16.48-3.83l10.57.28a19.18,19.18,0,0,0,1.68-5.06,5.85,5.85,0,0,0-6.28-.69l-11.26-7c-1.87-.52-1.87-2.1-1.72-3.75-.3-1.62.73-4-1-5a15,15,0,0,1-10-10.45C91.06,5.5,87.18,1.05,82.29.87,82,.85,81.77.83,81.51.83Zm0,7.08a4.1,4.1,0,0,1,3.91,4.27,3.93,3.93,0,1,1-7.82,0A4.1,4.1,0,0,1,81.54,7.91Z"/><path id="path4583" class="cls-6" d="M57.88,29.28l1.75.48.29.62-.05,1.45s.09.44,0,.53a.87.87,0,0,1-.87.37c-.14,0-1,.25-1.22.28-.37.08-.65-.92-.66-1.06,0-.39-.14-1.34,0-1.45s.23-.55.36-.69S58,29.14,57.88,29.28Z"/><path id="path4811" class="cls-7" d="M81.4,1.57c-.3,0-.61,0-.91.06-2,.36-4.18,1-5.52,2.71A12.15,12.15,0,0,0,71.48,11c-1,2.44-2,5.05-4.34,6.48A32.54,32.54,0,0,1,60.65,21c-.51,2.1-.23,4.34-.36,6.51q.09,4.54,0,9.08l.22.38-.38-.26s-.08-3.06-.15-6.17c0-1.57-.07-3.14-.1-4.36s0-2.07,0-2.19h-.1c0,.13,0,1,0,2.19s.06,2.8.1,4.36c.08,3.13.15,6.2.15,6.2v0l0,0,.55.38h0c1,2.24-.17,4.53-2.91,4-7.16,1.4-14.49,2.22-21.45,4.4-2.7,1.39-5.46,2.91-7.26,5.43-.61.61-1.61,2.06-.46,2.58,2.28,1.64,5.63.18,8.31.5,12.16-.29,24.32-.33,36.48-.77,3.26-.13,6.57.17,9.8,0,2.17-1.32-3.17-.93-4.08-1.4-2.13-.07-2.55-1.64-.08-1.35,3.84,1.57,3.9-3,6.39-4.46,1.86-2.28,3.18-5.13,2.39-8.12,0-4.13-1-8.16-1.55-12.23-3.31,1.34-1.07,5.57-1.61,8.25-.29,2.47.8,5.31-.33,7.55-.35,1.32-1.71,1.06-2.78,1.27s-5.75.52-6.81,0c-5-1-5.39-1.45-6.75-3.46C66.78,36.39,66.86,28.58,69.46,26c1.17-1.45,7-4,9.4-3.95,0,5.74-.26,11.53,0,17.23a2.9,2.9,0,0,0,2.38,2.54c1,.3,2.78-.25,2.58-1.61.29-4.57,0-9.17.13-13.75V21.63a9.74,9.74,0,0,0,4.15-3.56c1.51-1.44,2.26-2.18,2.21.16,1.44,1.81,3.54,3,5.25,4.51,1.75,1.08,3.63,2.54,5.82,2,1.37-.81.79-3.26-.64-3.77a15.1,15.1,0,0,1-4.53-2.62,12.78,12.78,0,0,1-3.84-4.49c-1.6-2.61-1-6.17-3.3-8.45A9.43,9.43,0,0,0,81.4,1.57Zm.14,6.34a4.1,4.1,0,0,1,3.91,4.27,3.93,3.93,0,1,1-7.82,0A4.1,4.1,0,0,1,81.54,7.91Z"/><path id="path4813" class="cls-8" d="M83.2,1.6l-.51.22L80.94,2l-2,.37-2,1.09a22.42,22.42,0,0,0-2.78,2.34c-.22.44-1.09,2-1.09,2l.22.44V9.26l-.81,2.41L70.58,14a14.49,14.49,0,0,0-1.68,2.49c0,.27-.08.34-.12.35l.85-.21s1.46-2,1.83-2S72.55,12,72.55,12l.88-2,.44-1.53.5-1.17.81-1.31.51.43S78,3.93,78.46,3.93s4.09-.58,4.09-.58l2.92,1.17.23.15a1.39,1.39,0,0,0-.31.1,10.81,10.81,0,0,1,2.09,2.29,8.62,8.62,0,0,1,1.35,2.65,25.24,25.24,0,0,1,.69,4c-.22.51-.72.91-1,1.41A19.76,19.76,0,0,1,86,18.28a6.61,6.61,0,0,1-2.65,1.56,2.75,2.75,0,0,0-2.09,1.78c0,5.85,0,11.69,0,17.53.38.7.56,0,.79-.43q0-7.71,0-15.42c.06-.91-.26-2.24.86-2.49a1.25,1.25,0,0,0-.15.61c.07.17.27.37.45.24a1,1,0,0,1,.06-.25l.07.06a5.15,5.15,0,0,0,.1.73c0,5.77-.17,11.55-.22,17.31,0,.8-1.24.84-1.44.19-.57-.64-1.26.15-1.6.67-.39.69.21.92.81,1a4.17,4.17,0,0,0,2-.14c.66-.06.58-1,.9-1.49,0-6.07-.07-12.13,0-18.19.65.12,1.16-.31,1.72-.57a6.75,6.75,0,0,0,2.15-1.6,18.69,18.69,0,0,0,2.54-3.06,8.67,8.67,0,0,0,0-1.53,15,15,0,0,1,1.82,2.15,20.27,20.27,0,0,0,2.54,2.77,25.54,25.54,0,0,0,3.94,2.72,2.86,2.86,0,0,0,1.76.53.6.6,0,0,0-.1-1.08C99,21,97.53,20.26,96.12,19.46A5.79,5.79,0,0,1,94.22,18,12.58,12.58,0,0,1,92,15.25a45.71,45.71,0,0,1-2.47-6,7.71,7.71,0,0,0-1-2.26A12,12,0,0,1,91,11.67l.37.22L90.79,9l-.65-2.48L87.87,3.93,85.54,2.47ZM81.63,4.27A10.68,10.68,0,0,0,79,4.6c-.69.48-1.4.94-2.07,1.44A12.11,12.11,0,0,0,75,8.9,19.54,19.54,0,0,0,74,12a12.74,12.74,0,0,0,.73,2.79,3.43,3.43,0,0,0,.92,1.69c.44.53.88,1.06,1.35,1.57a10.33,10.33,0,0,0,2.27,1.1,25.43,25.43,0,0,0,2.74.2,6,6,0,0,0,2.42-.61,6.94,6.94,0,0,0,2.15-1.48c.47-.34.7-.71.35-1.24.23-.88.87-1.65,1.1-2.54a12,12,0,0,0,0-2.61c-.69.24-.15,1.23-.35,1.79a3.74,3.74,0,0,1-1,2.39c-.62.68-1.25,1.36-1.93,2a6.24,6.24,0,0,1-2.22.87,3.64,3.64,0,0,1-3.09-.73A10.16,10.16,0,0,1,76.89,15a8.94,8.94,0,0,1-.69-2.33,4.66,4.66,0,0,1,.37-2.5A4.12,4.12,0,0,1,78,7.86a3.82,3.82,0,0,1,1.92-1c.76-.3,1.56-.46,2.32-.75.44-.34,1.19-.75,1.5,0,.3.43.24,1,.88.63a1.67,1.67,0,0,0,1.37,0A5.71,5.71,0,0,0,84.07,5C83.26,4.77,82.45,4.49,81.63,4.27Zm9.84,12.89a.19.19,0,0,0-.16.08c-.07.45.61.51.71.92s.25.92-.25.83S91,18,90.4,17.81c-.3.37.37.73.55,1a27.15,27.15,0,0,0,4.63,3.77A13.71,13.71,0,0,0,98,24.1c.36.11.73.53,1.08.38a.94.94,0,0,0,.22-1.2,5.84,5.84,0,0,0-2.08-1.2,23.51,23.51,0,0,1-2.48-1.74c-1.21-.91-2-2.26-3.2-3.16A.15.15,0,0,0,91.47,17.16Zm-17.93.14-.32.39a10.49,10.49,0,0,0,1.1,1.62,11.59,11.59,0,0,0,1.33,1.1,12.91,12.91,0,0,0,2.27,1.19,2.68,2.68,0,0,0,1.45.15c.31-.12.38-.52.36-.81a1.13,1.13,0,0,0-.67-1c-.47-.19-1-.25-1.45-.47L76.37,19l-.63-.64c0,.11-.09.22-.13.32.17.22.34.44.52.65L75.8,20a5.29,5.29,0,0,1-1.12-.82A8.25,8.25,0,0,0,74,18.06C73.83,17.81,73.69,17.55,73.54,17.3Zm6.9,4.63-.3.37v2.64l-.6,1.81v1.66l.3,2.41v3.09c0,.45-.38,4.07-.38,4.44s.23.23.23.23h.53l.15-2.34s.22-13,.37-13.48A.86.86,0,0,0,80.44,21.93Z"/><path id="path4815" class="cls-9" d="M65.42,55.5h67.76l.94-.18.58-.29.29.5.14.65a1.44,1.44,0,0,1-.36,0,11.22,11.22,0,0,0-2.2.11c-.33.14-9-.18-9-.18L78,55.81,65.5,55.67Z"/><path id="path3174" class="cls-9" d="M74.69,7.43a10.08,10.08,0,0,1,1-1.75A13.46,13.46,0,0,1,78,3.82a13.41,13.41,0,0,1,2.31-.88c.58-.08,1.16-.12,1.75-.15s.95.32,1.47.24a6.58,6.58,0,0,1,1.72.43,5.8,5.8,0,0,1,1.93,1.4,4.38,4.38,0,0,1,1.19,1.67c0,.2.16.81-.16.37a12.27,12.27,0,0,0-2.7-2.07,8.37,8.37,0,0,0-2-.79,2.41,2.41,0,0,0-1.56-.43,7.27,7.27,0,0,0-2,.07,4.48,4.48,0,0,0-2,.66c-.52.38-.84,1-1.38,1.34C75.89,6.22,75.32,6.86,74.69,7.43Z"/><path id="path4818" class="cls-9" d="M80.26,4.7a6.26,6.26,0,0,0-1.11.19,6,6,0,0,0-1.29.76,7.76,7.76,0,0,0-1,.86,5.73,5.73,0,0,0-.78,1,6.43,6.43,0,0,0-.32.92l0,.62L76,8.8a11.33,11.33,0,0,0,.67-1.08,3.86,3.86,0,0,1,.68-1,5.62,5.62,0,0,1,1.1-.84A11.51,11.51,0,0,1,80,5.21c.13-.06.44-.12.44-.18S80.33,4.68,80.26,4.7Z"/><path id="path3180" class="cls-9" d="M76.36,13.08a7,7,0,0,0,.79,2,7.58,7.58,0,0,0,1,1.32,5.5,5.5,0,0,0,1.36.89,4.77,4.77,0,0,0,1.24.42c.45-.07.59.66.07.4A4.66,4.66,0,0,1,79,17.53a5.78,5.78,0,0,1-1.38-1.08,14,14,0,0,1-1.06-1.83,3.21,3.21,0,0,1-.33-1.22Z"/><path id="path3182" class="cls-9" d="M75.61,15c.32.44.6.91,1,1.31s.79.75,1.23,1.07a12.82,12.82,0,0,0,2,1.09,5.12,5.12,0,0,0,1.4.28,8.14,8.14,0,0,0,1.56,0c.5-.07,1-.34,1.45-.43.25-.06,1-.76.85-.2-.4.51-1.09.56-1.62.89a13.74,13.74,0,0,1-1.42.29,16.31,16.31,0,0,1-2.41-.19,5.54,5.54,0,0,1-2.22-.84,5.21,5.21,0,0,1-1-.9,5.37,5.37,0,0,1-.88-1.24,6.44,6.44,0,0,1-.18-.85C75.41,15.06,75.37,14.75,75.61,15Z"/><path id="path3184" class="cls-9" d="M86.79,15.41a7.08,7.08,0,0,1-1,1.1,2,2,0,0,1-.66.6c-.23.17-.46.34-.7.5-.18-.16-.33-.32,0-.42a6.55,6.55,0,0,0,1.21-1c.28-.34.66-1,1.14-.82Z"/><path id="path4823" class="cls-9" d="M87.71,15.36c-.19.83-.89,1.37-1.34,2.05-.2.33-.49-.22-.24-.35a12,12,0,0,0,1.33-1.68C87.47,15.06,87.71,15.13,87.71,15.36Z"/><path id="path4825" class="cls-9" d="M89.69,15.08a2.12,2.12,0,0,0-.65.75c-.1.19-.28.37-.05.53s.32-.15.47-.21a3.71,3.71,0,0,0,.43-.68C89.91,15.26,90,15.1,89.69,15.08Z"/><path id="path3218" class="cls-9" d="M102,40.47l1,.61,2.24.46,12.27,2.57,3.55.7,2.47.56,1.26.37,1.4.52,1.12.56,1.21.74,1.22.89-1.5-1.35-2-1.17-2.61-.84-3.92-1-5.55-1.17L108,41.73l-4.2-.89-1.59-.46Z"/><path id="path3389" class="cls-10" d="M103.27,40.74c.13,0,5,1,5.34,1h3.77l7.9.24s1.36-3.33,1.42-3.5a4.52,4.52,0,0,0,0-.8s-.36-.49-.49-.53-.89-.47-.89-.47l-.74-.32s-1-.08-1.3-.08l-1.31,0-1.23.44s-.7.28-.8.53-.68,1.78-.68,1.78L114,40l-.44.3-.66.32-.55.21-7.78-.17h-.95Z"/><g id="g3353"><path id="path3263" class="cls-11" d="M108.12,35.7a2.22,2.22,0,1,1-2.22-2.1A2.16,2.16,0,0,1,108.12,35.7Z"/><g id="path3340"><path class="cls-12" d="M106.67,35.53a1.25,1.25,0,0,0-.28-.37,1.52,1.52,0,0,0-.55-.35.47.47,0,0,0-.35,0,1.12,1.12,0,0,0-.4.28.73.73,0,0,0-.18.32.19.19,0,0,0,.16.1c.08,0,.12,0,.17-.09s.18-.25.32-.32a.43.43,0,0,1,.36.07,1,1,0,0,1,.3.21c.08.08.15.19.27.19s.16,0,.18,0Z"/></g><g id="path3330"><polygon class="cls-12" points="105.95 35.96 106.6 36.5 106.35 36.64 105.59 36.03 105.95 35.96"/></g><g id="path4833"><path class="cls-13" d="M105.08,35.4a.79.79,0,0,1,.3-.35.67.67,0,0,1,.51-.13.89.89,0,0,1,.44.3l.13.14a.53.53,0,0,1,0,.25c0,.08-.1.12-.16.18a1.33,1.33,0,0,0-.29.29c0,.06,0,.18-.08.19a.52.52,0,0,1-.22-.07c-.13-.13-.27-.24-.39-.37a1.13,1.13,0,0,1-.22-.27A.3.3,0,0,1,105.08,35.4Z"/></g><g id="path3259"><path class="cls-12" d="M105.28,34.49l.65,0,.58.33.38.39.26.32.34-.08s-.24-.53-.31-.62a11,11,0,0,0-.92-.63l-.86.1Z"/></g><g id="path3261"><path class="cls-12" d="M103.67,35.35l.08.57a4.94,4.94,0,0,0,.17.74l.42.49.57.38.64.19h.72l.69-.16.59-.48a2.72,2.72,0,0,0,.56-.95,5.1,5.1,0,0,0-.18-1.25l-.7.17.12.38s.3.19.28.33-.18.75-.18.75l-.62.6-.34.12a3.38,3.38,0,0,1-.89-.1,5.61,5.61,0,0,1-1.21-.78c0-.14-.52-1.11-.52-1.11Z"/></g><g id="path3228"><path class="cls-14" d="M105.14,33.85a1.62,1.62,0,0,0-.88.69,1.4,1.4,0,0,0-.28.78,2,2,0,0,0,.38,1.09,2.37,2.37,0,0,0,1.12.93,2.84,2.84,0,0,0,.92,0,.21.21,0,0,0,.06-.4c-.2,0-.4,0-.6,0s-.37-.14-.56-.2a2,2,0,0,1-.67-.56,1.06,1.06,0,0,1,0-1.2,1.07,1.07,0,0,1,.58-.44,1.83,1.83,0,0,1,.87-.16,2,2,0,0,1,1,.54.42.42,0,0,1,.15.6c-.12.2-.19.42-.29.62s-.36.26-.37.46a.26.26,0,0,0,.46,0,3.36,3.36,0,0,0,.47-.85c.1-.17.15.17,0,.22a2,2,0,0,1-.53.84c-.17,0-.42.09-.23.28a.44.44,0,0,0,.52-.08c.17-.2.25-.45.41-.66a1.45,1.45,0,0,0,.06-.92,2,2,0,0,0-.34-.82,1.49,1.49,0,0,0-1-.57,2.48,2.48,0,0,0-.94,0,3.56,3.56,0,0,0-.85.65c-.14,0-.16.29-.27.26-.09-.24.17-.38.29-.54a1.85,1.85,0,0,1,.55-.49c.11,0,.42-.12.24-.24S105.24,33.85,105.14,33.85Z"/></g><g id="path3232"><path class="cls-9" d="M106.39,36.19a.22.22,0,0,0-.14.06.13.13,0,0,0-.07.14s0,.09.09.1l.2,0C106.77,36.48,106.58,36.26,106.39,36.19Z"/></g><g id="path3324"><path class="cls-9" d="M106.17,35.1c.08.17-.24.39-.29.57a2.76,2.76,0,0,0,0,.51s-.21-.27-.29-.4-.34-.39-.28-.57.23-.2.36-.22S106.1,35,106.17,35.1Z"/></g></g><path id="path3364" class="cls-14" d="M103.49,40.52l9,.17a4.22,4.22,0,0,1,1-.52,1.08,1.08,0,0,0,.47-.52c.25-.48.25-1,.5-1.52a2.39,2.39,0,0,1,.75-1.2c.5-.17.87-.59,1.4-.68a3.57,3.57,0,0,1,1.24-.26c.15,0,.5-.11.49.09-.35.46-1.12.07-1.52.55a1.27,1.27,0,0,0-1,.16c-.22.13-.5.18-.61.43a3,3,0,0,0-.51.92c-.27.65-.43,1.34-.66,2-.22.12-.42.34-.7.31s-.51.47-.76.46c-2.2,0-4.4,0-6.6-.09-.8,0-1.6,0-2.39-.15A.58.58,0,0,1,103.49,40.52Z"/><path id="path3367" class="cls-14" d="M118.46,36.16l.6,0,.46,0a1.63,1.63,0,0,1,.19.09.59.59,0,0,1,0,.13c0,.07-.06,0-.1.06a2.51,2.51,0,0,1-.27,0h-.82l-.18-.08v-.14Z"/><path id="path3370" class="cls-14" d="M58.45,40.28l-5.07.1-5.49.1v.4l5.5-.1,5.07-.1Z"/><path id="path3372" class="cls-14" d="M60.51,39.81a.47.47,0,0,0-.15.26.43.43,0,0,0,0,.12h0a.72.72,0,0,1-.25,0,2.21,2.21,0,0,0-.37,0L59,40.4l-2.35.45-6.85,1.36-9.75,2h0l-1.09.33-.79.23-.28.07-.12,0a.71.71,0,0,0-.21,0l-.3.09-.8.29-1.09.4h0l-2.49,1.43h0l-1.58,1.22h0l-1.47,1.52h0L28.3,51.67l.31.25L30,50.16h0l1.46-1.5h0L33,47.45h0L35.5,46h0l1.06-.4.79-.27.28-.09c.07,0,.15,0,.1,0a.78.78,0,0,0,.21,0l.3-.07.79-.23,1.1-.33,9.73-2,6.84-1.36,2.36-.44.71-.13.3,0a1,1,0,0,0,.42-.07.43.43,0,0,0,.22-.24.45.45,0,0,0,0-.17s0,0,0,0Z"/><path id="path4581" class="cls-10" d="M40.12,42.13c0-.48-1-3.84-1-3.84s.07-.86.07-1,.89-.9.89-.9l1-.44,1.58-.21,1.79.31,1.13.59.69.65.07.55L46.68,40l.34.11.42.58.27.24L58,40.45s-4.19,1.27-4.36,1.27-2.86.17-2.86.17Z"/><path id="path4845" class="cls-14" d="M40.45,36.34c.16.07.34,0,.5.06a2.28,2.28,0,0,0,.78-.18.87.87,0,0,1,1,.05.41.41,0,0,0,.32.1h.76c0-.17-.19-.21-.31-.25s-.38,0-.56-.06c-.25-.37-.63-.26-1-.27a4.34,4.34,0,0,0-1.25.36C40.6,36.2,40.41,36.21,40.45,36.34Z"/><path id="path3387" class="cls-15" d="M120.31,41.85c-1.2,0-12.16-.29-12.16-.29s1.48.49,1.64.34,10.4.22,10.4.22Z"/><path id="path3391" class="cls-12" d="M102.9,28.35c0,.28-.13,10-.13,10l-.2.16-.41.25-.25.44,0,.63.25.44.3.19-.66-.58v-.63l.33-.63s.33,0,.33-.27V34.74l.11-7.18,0-.14.36,1"/><path id="path3393" class="cls-12" d="M135.1,57.32V58.4s0,.21-.54.21S102.12,58,102.12,58H70.75s-13.8.33-14.34.33S42,59,42,59l-9.05.22H26.66l-1,0c-.41-.33-.21-.76-.14-1.18,0,0-.16.14.81-.08s27.6-.43,30.19-.43,12.61.11,12.61.11l27.06-.11s11.64.11,13.26,0,9.27-.1,11.42-.21S133,57.21,133,57.21Z"/><path id="path3397" class="cls-9" d="M93.22,17l2,1.95,2.55,1.67,1.94.91.56.4,0,.28-.2.2-1-.32L97.2,21l-1.55-1.12L94.54,18.8l-1.12-1.23-.16-.28Z"/><path id="path3399" class="cls-9" d="M100.5,23a3.31,3.31,0,0,1-.62.09.33.33,0,0,0-.26.22s-.05.08,0,.1l.54.31.56-.2C100.63,23.32,100.57,23.15,100.5,23Z"/><path id="path3401" class="cls-9" d="M101,24l-.36.28-.36.12h-.4l-.2.16.08.27.68.08.52-.24.27-.35Z"/><path id="path3417" class="cls-9" d="M78.66,6.21A1.79,1.79,0,0,0,78.1,7c0,.22,0,.3.21.31s.33-.17.47-.32a6.13,6.13,0,0,1,.81-.88,1.83,1.83,0,0,0,.18-.3c0-.13-.13-.12-.21-.11A1.29,1.29,0,0,0,78.66,6.21Z"/><path id="path4854" class="cls-9" d="M85.42,14.06c-.16.32-.3.66-.47,1a11.67,11.67,0,0,1-1.37,1.16c-.19.07-.44,0-.58.19s-.25.22-.38.29c-.37,0-.74.09-1.11.1s-.6,0-.89-.11-.61-.16-.9-.28a7.63,7.63,0,0,1-.68-.48,9.48,9.48,0,0,1-.87-1,2.16,2.16,0,0,1-.34-.61,4.56,4.56,0,0,1-.37-1.19c0-.42,0-.85,0-1.27.22-.15.09.39.15.53,0,.38,0,.77.11,1.14s.3.69.49,1,.33.52.53.76.52.46.8.67.56.28.84.4a5.45,5.45,0,0,0,1.55.2,3,3,0,0,0,1-.3,2.52,2.52,0,0,0,.83-.43c.32-.17.47-.48.7-.73a2.76,2.76,0,0,0,.67-.92C85.23,13.92,85.32,13.78,85.42,14.06Z"/><path id="path3429" class="cls-9" d="M81.73,39.61a.47.47,0,0,0-.39.13.56.56,0,0,0,0,.22c0,.07,0,.15.11.14a1.38,1.38,0,0,0,.29,0,.41.41,0,0,0,.22-.33c0-.09-.1-.14-.17-.15h-.12"/><path id="path3431" class="cls-9" d="M82.46,40.27a.38.38,0,0,0-.32.26.45.45,0,0,1-.37.2.91.91,0,0,0-.4.1.2.2,0,0,0,0,.33,1.75,1.75,0,0,0,.33.06.5.5,0,0,0,.48-.23c.11-.13.3-.19.37-.36a.53.53,0,0,0,0-.33A.07.07,0,0,0,82.46,40.27Z"/><g id="g3452"><path id="path3454" class="cls-11" d="M56.47,36.18a2.22,2.22,0,1,1-2.21-2.1A2.16,2.16,0,0,1,56.47,36.18Z"/><g id="path3456"><path class="cls-12" d="M55,36a1.25,1.25,0,0,0-.28-.37,1.44,1.44,0,0,0-.55-.35.47.47,0,0,0-.35,0,1.12,1.12,0,0,0-.4.28.71.71,0,0,0-.17.32c0,.07.1.09.16.1s.12,0,.16-.09.18-.25.32-.32a.43.43,0,0,1,.36.07.81.81,0,0,1,.3.21c.08.08.15.19.27.19s.16,0,.18-.05Z"/></g><g id="path3458"><polygon class="cls-12" points="54.31 36.44 54.95 36.98 54.7 37.12 53.95 36.51 54.31 36.44"/></g><g id="path3460"><path class="cls-13" d="M53.43,35.88a.85.85,0,0,1,.3-.35.7.7,0,0,1,.52-.13.91.91,0,0,1,.43.3.64.64,0,0,1,.13.15c0,.08,0,.16-.05.24s-.1.12-.16.18a1.59,1.59,0,0,0-.29.29c0,.06,0,.18-.08.18a.43.43,0,0,1-.22-.06c-.13-.13-.27-.24-.39-.37a.9.9,0,0,1-.21-.27A.23.23,0,0,1,53.43,35.88Z"/></g><g id="path3462"><path class="cls-12" d="M53.63,35l.65.05.58.33.38.39.27.32.33-.08s-.24-.53-.31-.62a9.59,9.59,0,0,0-.91-.63l-.87.1Z"/></g><g id="path3464"><path class="cls-12" d="M52,35.83l.07.57a4.94,4.94,0,0,0,.17.74l.42.49.57.38.64.19h.72l.69-.16.6-.48a2.86,2.86,0,0,0,.55-1,5.6,5.6,0,0,0-.17-1.25l-.71.17.13.38s.29.18.27.33-.17.75-.17.75l-.62.6-.35.11a3.74,3.74,0,0,1-.89-.09,5.87,5.87,0,0,1-1.21-.78c-.05-.14-.52-1.11-.52-1.11Z"/></g><g id="path3466"><path class="cls-14" d="M53.49,34.33a1.6,1.6,0,0,0-.87.69,1.41,1.41,0,0,0-.29.78,2.14,2.14,0,0,0,.38,1.09,2.37,2.37,0,0,0,1.12.93,2.85,2.85,0,0,0,.92,0,.2.2,0,0,0,.06-.4h-.6c-.2,0-.37-.14-.56-.2A2,2,0,0,1,53,36.7a1,1,0,0,1,0-1.2,1,1,0,0,1,.57-.44,1.87,1.87,0,0,1,.87-.16c.41,0,.7.32,1,.54a.41.41,0,0,1,.14.6c-.11.2-.18.42-.29.62s-.36.25-.37.46a.26.26,0,0,0,.46,0,3.07,3.07,0,0,0,.47-.85c.1-.17.16.17.06.22a2.13,2.13,0,0,1-.54.84c-.16,0-.42.08-.23.28s.41.09.53-.08.25-.45.41-.66A1.38,1.38,0,0,0,56.1,36a1.9,1.9,0,0,0-.33-.82,1.51,1.51,0,0,0-1-.57,2.48,2.48,0,0,0-.94.05,3.56,3.56,0,0,0-.85.65c-.14,0-.15.29-.27.26-.09-.24.18-.38.29-.54a2,2,0,0,1,.55-.49c.11,0,.42-.12.24-.24S53.59,34.33,53.49,34.33Z"/></g><g id="path3468"><path class="cls-9" d="M54.74,36.67a.25.25,0,0,0-.14.06.12.12,0,0,0-.06.14.14.14,0,0,0,.08.1l.2,0C55.12,37,54.94,36.74,54.74,36.67Z"/></g><g id="path3470"><path class="cls-9" d="M54.52,35.58c.09.17-.24.39-.29.57a2.76,2.76,0,0,0,0,.51,4.39,4.39,0,0,1-.28-.4c-.1-.16-.34-.39-.29-.57s.24-.2.36-.22S54.46,35.44,54.52,35.58Z"/></g></g><path id="path3472" class="cls-15" d="M104.12,29.25a4.11,4.11,0,0,1-.78.07,3,3,0,0,0-.52,0c-.13,0-.26.07-.22.22-.08,1.13,0,2.27-.06,3.4a4.39,4.39,0,0,1,.89.06,3.78,3.78,0,0,0,.56.08c.13,0,.32,0,.34-.15s.2-.43.28-.65c.06-.44.12-.88.17-1.32l-.24-1.37Zm-.06.21c.1.11.27.17.3.31.08.41.15.82.22,1.23s-.11.84-.17,1.26c-.09.21-.15.08-.24.29-.13,0-.3.14-.43.1a4.92,4.92,0,0,0-1,.1c0-1,0-2,.05-3.06-.05-.23.24-.16.37-.17a5.29,5.29,0,0,0,.8,0Z"/><path id="path4869" class="cls-15" d="M58.11,29.14c-.21,0-.34.16-.49.27a1.9,1.9,0,0,0-.26.37c-.08.16-.18.31-.26.47a8.49,8.49,0,0,0-.14.88c0,.29,0,.59,0,.88l.4.93.5.37c.22-.08.44-.16.67-.22.47-.1,1.2-.18,1.67-.3,0-.93,0-2.05-.06-3,.07-.19-.39-.16-.55-.2l-1.3-.45A1.52,1.52,0,0,0,58.11,29.14Zm0,.1a3.38,3.38,0,0,1,.75.22l.8.28c.16.05.4.1.4.23,0,.88,0,1.76,0,2.64-.46.11-1.1.29-1.56.39l-.57.19-.44-.32L57.08,32c0-.3,0-.61,0-.91s.08-.54.14-.8l.42-.7C57.77,29.44,57.9,29.24,58.1,29.24Z"/><path id="path4871" class="cls-14" d="M57.88,29.6l.79.19a1.76,1.76,0,0,1,.59.18,1.26,1.26,0,0,0,.4.11s.14-.25,0-.25a3.5,3.5,0,0,1-.59-.21l-.53-.06s-.11-.22-.22-.22H58s-.17.06-.17.11S57.92,29.63,57.88,29.6Z"/><path id="path4873" class="cls-14" d="M57.78,32.51l.14.18s.19,0,.18.15-.18.11-.18.11-.28-.18-.28-.25,0-.26,0-.26Z"/><path id="path4875" class="cls-9" d="M73,15.69l-.38.15c-.2.07-1.42,1.34-1.52,1.36s-2.28,2.44-2.28,2.44l-2.47,1.74L64,22.65s-.64.1-.74.13-.18.49-.18.49.18.18.13.35a2.22,2.22,0,0,0,.07.68l.62.07,2.44-1.1s2.49-1.41,2.57-1.54S70.67,20,70.67,20s2.07-2.06,2.12-2.21.2-.7.2-.7l-.4.27-.72.85h-.33l0-.37.59-.8.73-.75.32-.29Z"/><path id="path4877" class="cls-9" d="M71.52,14.49c-.15.28-.92,1.35-1,1.52S69.06,17.73,69,17.78s-1,1-1,1,.1.49.22.4a5,5,0,0,0,.68-.63c.1-.15,1.51-1.54,1.51-1.54a8.19,8.19,0,0,0,.9-1.19,7.16,7.16,0,0,1,.52-1.07s.1-.28,0-.28S71.54,14.54,71.52,14.49Z"/><path id="path4879" class="cls-9" d="M68.38,16.68l-.62.72s-1,.9-1.19,1l-1.57,1-1.49.75-1.74.59-.18.35a.21.21,0,0,0-.2-.12c-.15,0-.27.32-.27.32l-.2.57-.1.55.08.37a.22.22,0,0,0,.14-.2,4.86,4.86,0,0,1,0-.54c0-.13.4-.35.4-.5v-.35l.18.52v.65l.3,0v-1a4,4,0,0,0,.49-.37,11.84,11.84,0,0,1,1.69-.72,19.43,19.43,0,0,0,2.27-1.22c.54-.42,1.27-1,1.49-1.19a3.76,3.76,0,0,0,.6-.85Z"/><path id="path4881" class="cls-9" d="M67.51,19.32s.18.3.08.37-2.09,1-2.09,1a6.06,6.06,0,0,1-1.47.79c-.32,0-.72-.07-.87.25a4.11,4.11,0,0,0-.22.6l-.43-.15-.07-.47s.92-.42,1.14-.57a17,17,0,0,0,1.82-.85A10.06,10.06,0,0,1,67,19.49Z"/><path id="path4883" class="cls-9" d="M69.55,14.89c0,.13-.79,1.29-.79,1.29l-1.35,1.2-1.49,1.09-1.59,1a20.07,20.07,0,0,1-2.27,1,2.64,2.64,0,0,0-.87.35,2.58,2.58,0,0,0-.47.45l-.25.69-.17,0a.92.92,0,0,1,0-.48c.07-.15.27-.64.44-.72s.33-.37.33-.37a2.62,2.62,0,0,1,.72-.37c.27-.05,1.62-.65,1.62-.65s1.66-.85,1.79-.9,1.71-1.17,1.71-1.17a15.54,15.54,0,0,0,1.65-1.44,12.51,12.51,0,0,1,.82-1.19s.22-.05.22,0S69.6,14.92,69.55,14.89Z"/><path id="path4622" class="cls-14" d="M103,29.6l.73-.09h.39l-.3.47-.65.05Z"/><path id="path4624" class="cls-14" d="M103.11,32.34h.6l.34-.25.13.17-.17.38-.77.09-.18-.13Z"/><path id="path4641" class="cls-6" d="M60.38,21.59a2,2,0,0,0-.17.28,1.19,1.19,0,0,0-.17.56c0,.09,0,1,0,2.37s0,3.13.06,4.89c0,3.53.1,7,.1,7v0h0l.45,1.4h0L60.75,40l-.12.31.18.07.14-.32v0l-.06-1.88v0h0l-.45-1.41s0-3.49-.1-7c0-1.77,0-3.54-.06-4.9s0-2.29,0-2.36a1.17,1.17,0,0,1,.15-.47,2.68,2.68,0,0,1,.15-.25Z"/></g></g></g></svg>