<svg xmlns="http://www.w3.org/2000/svg" xmlns:xlink="http://www.w3.org/1999/xlink" width="109.52" height="113.39" viewBox="0 0 109.52 113.39"><defs><style>.cls-1{isolation:isolate;}.cls-2{fill:url(#linear-gradient);}.cls-3{fill:url(#linear-gradient-2);}.cls-4{mix-blend-mode:multiply;fill:url(#linear-gradient-3);}</style><linearGradient id="linear-gradient" x1="3.03" y1="10.91" x2="114.65" y2="114.7" gradientUnits="userSpaceOnUse"><stop offset="0" stop-color="#924198"/><stop offset="0.52" stop-color="#95469a"/><stop offset="1" stop-color="#8f3d96"/></linearGradient><linearGradient id="linear-gradient-2" x1="3.33" y1="10.61" x2="114.95" y2="114.39" gradientUnits="userSpaceOnUse"><stop offset="0" stop-color="#8b4888"/><stop offset="0.52" stop-color="#a95ca3"/><stop offset="1" stop-color="#8c488a"/></linearGradient><linearGradient id="linear-gradient-3" x1="0.74" y1="6.53" x2="99.73" y2="6.53" gradientUnits="userSpaceOnUse"><stop offset="0" stop-color="#a457a1"/><stop offset="1" stop-color="#a355a0"/></linearGradient></defs><g class="cls-1"><g id="Layer_2" data-name="Layer 2"><g id="Vector_Graphics" data-name="Vector Graphics"><path class="cls-2" d="M.54.3.84,0,99.43.3s-4.05,61.88,10.09,105.93l-.3.3C80.33,110,42.64,113.39,5.44,113.39-2.4,65.9.54,36.53.54.3Z"/><path class="cls-3" d="M.84,0H99.73s-4.41,62.17,9.79,106.23c-28.88,3.43-66.58,6.85-103.78,6.85C-2.09,65.6.84,36.23.84,0Z"/><path class="cls-4" d="M.74,13.05H99.19c.19-8.1.54-13,.54-13H.84C.84,4.44.8,8.77.74,13.05Z"/></g></g></g></svg>