<svg xmlns="http://www.w3.org/2000/svg" xmlns:xlink="http://www.w3.org/1999/xlink" width="113.41" height="109.36" viewBox="0 0 113.41 109.36"><defs><style>.cls-1{isolation:isolate;}.cls-2{fill:url(#linear-gradient);}.cls-3{fill:url(#linear-gradient-2);}.cls-4{fill:#337dc0;mix-blend-mode:multiply;}.cls-5{fill:#262a68;}</style><linearGradient id="linear-gradient" x1="20.31" y1="20.34" x2="113.92" y2="107.38" gradientTransform="translate(-4.81 5.53) rotate(-5.19)" gradientUnits="userSpaceOnUse"><stop offset="0" stop-color="#f0adbf"/><stop offset="0.52" stop-color="#f8c4ce"/><stop offset="1" stop-color="#eaadbc"/></linearGradient><linearGradient id="linear-gradient-2" x1="20.56" y1="20.09" x2="114.17" y2="107.12" gradientTransform="translate(-4.81 5.53) rotate(-5.19)" gradientUnits="userSpaceOnUse"><stop offset="0" stop-color="#f49ab6"/><stop offset="0.52" stop-color="#f8c4ce"/><stop offset="1" stop-color="#f38daf"/></linearGradient></defs><g class="cls-1"><g id="Layer_2" data-name="Layer 2"><g id="Vector_Graphics" data-name="Vector Graphics"><path class="cls-2" d="M14.37,15.28,14.6,15,97,7.79s1.31,52,16.45,87.7l-.22.28c-23.87,5-55.09,10.77-86.16,13.59C16.89,70.29,17.11,45.54,14.37,15.28Z"/><path class="cls-3" d="M14.6,15l82.59-7.5s1,52.26,16.22,88c-23.86,5.05-55.08,10.77-86.15,13.59C17.12,70,17.35,45.26,14.6,15Z"/><path class="cls-4" d="M30.12.39l-.94,1.16c.07-.09-.62.77.2-.24L28.15,2.82,26.44,4.94,25.36,6.27l-.85,1.05c-1,1.26,2.12-2.62.41-.5-1.11,1.36-1.53,1.89-1.62,2l-10,12.31-2.11,2.61-2,2.44c-.16.2-.2.26-1.62,2L5.78,30.46c-.14.17.7-.87-1.06,1.3l-1.62,2L1.39,35.88c.4-.49-1.07,1.33,0,0-1.12,1.4.22-.26-.61.76-1.38,2.6-.7,2.62.57,1.89C1,39.78,3,38.19,2.39,39.66c1.59-1.2.78.54,1.59.25-.21,1-.15,1.56,1.19.55,1,.1.77,1.48,1.78,1.22,1.85-1.79,1.84-1.32,1.46-.43-.11.56.75-.13-.45,1.7-.49,2.18,6.17-5.52,5.59-4.81.56-.69.33-.41-.07.08-.72.9.58-.71-1.27,1.58l1.86-2.3L15.31,36l.87-1.07,1.43-1.77L21.77,28l9.65-11.92,1.87-2.3c-.23.27,1.88-2.32,1.86-2.3.2-.25,1.35-1.67.12-.15l1.26-1.56c.48-.59,3.42-5.2.73-2.36.17-.7.32-1.38-.88-.37.49-1.1-1.43.79-.6-.72a7.12,7.12,0,0,1,.91-1.85c.39-.73.48-1.08-.13-.57a16.56,16.56,0,0,1,1.53-2.61c.19-.48-.49.13-.62,0a7.66,7.66,0,0,0-1.93.94c0-.95-1.67.16-1.77-.67S33,.65,32.19.67C32.33-.45,30.34.11,30.12.39Z"/><path class="cls-5" d="M7,41.92c1-1,1.5-1.3,1.63-1.21.09-.45-.24-.4-1.65,1-1,.26-.82-1.12-1.78-1.22-.83.63-1.17.64-1.26.32,0,.53.28.68,1.28-.08C6.15,40.79,6,42.17,7,41.92Z"/><path class="cls-5" d="M3.93,40.17a2.38,2.38,0,0,1,0-.26c-.78.28-.06-1.32-1.43-.37h0l0,0h0l-.11.09,0,.23C4,38.74,3.25,40.33,3.93,40.17Z"/><path class="cls-5" d="M0,38.81c0,.59.49.45,1.27,0a.69.69,0,0,1,0-.27C.66,38.94.15,39.12,0,38.81Z"/><path class="cls-5" d="M2.48,39.33c.11-.72-.95,0-1.15-.39C1.24,39.67,2.28,39,2.48,39.33Z"/><path class="cls-5" d="M13.32,38.79l0,0S13.33,38.78,13.32,38.79Zm25-32.29a.55.55,0,0,1,0,.27,18.58,18.58,0,0,1-1.8,3c-.66.83-.78,1-.88,1.09l-.5.62-1.87,2.31-1.86,2.3L21.77,28c-1.47,1.83-2.87,3.56-4.17,5.15l-1.45,1.8-.84,1c-.87,1.07-1.86,2.3-1.24,1.54-2.3,2.83-1,1.23-1.86,2.29.73-.91,1-1.2,1-1.28h0l.24-.3.12-.15,0,.06c.52-.64-4.8,5.5-5.53,5.19-.24,1.79,6.18-5.62,5.61-4.92l0-.06.08-.1-.08.1-.12.15a3.89,3.89,0,0,1-.25.3h0l-1,1.28,1.85-2.29,1.25-1.54.84-1c-.11.14-.13.16,0,0s.1-.12,0,0l1.45-1.8c1.3-1.59,2.7-3.32,4.17-5.15L31.5,16.33,33.36,14l1.87-2.3.5-.62,0,0,.16-.2a1.5,1.5,0,0,1-.14.18L36.61,10c.35-.43,2-3,1.83-3.25C38.44,6.77,38.41,6.52,38.37,6.5ZM13.77,38.24,14,38Z"/><path class="cls-5" d="M37.34,6.58a.61.61,0,0,1,0,.22,4.22,4.22,0,0,1-.11.59l.17-.18a.88.88,0,0,0,0-.32A2.5,2.5,0,0,0,37.34,6.58Z"/><path class="cls-5" d="M37,3.67a.42.42,0,0,1,0,.21c-.05.14-.15.33-.27.57a7.12,7.12,0,0,0-.91,1.85c-.24.44-.25.59-.15.61a2.54,2.54,0,0,1,.17-.38,7.9,7.9,0,0,1,.91-1.84A3.15,3.15,0,0,0,37,4h0A.54.54,0,0,0,37,3.67Z"/><path class="cls-5" d="M38.12,1.12a1,1,0,0,1-.07.21,16.23,16.23,0,0,0-1.49,2.55l.22-.16a17.78,17.78,0,0,1,1.33-2.21l0-.11A1.28,1.28,0,0,0,38.12,1.12Z"/><path class="cls-4" d="M106.14,2.46l-1.48.2.3,0L103,2.89l-2.7.37-1.7.24-1.34.19.64-.09L95.39,4,79.7,6.13l-3.32.46L73.27,7l-2.56.36-2.89.4L66.16,8l-2.56.36-2.69.37c.62-.09-1.69.24,0,0l-1,.13c-2.79.95-2.31,1.44-.88,1.77-1.07.68,1.42.84,0,1.53,2,.21.2.93,1,1.27-.82.56-1.18,1,.49,1.22.63.72-.45,1.6.46,2.1,2.58,0,2.25.3,1.37.69-.47.33.63.42-1.5.93-1.84,1.25,8.29.18,7.38.31.88-.12.51-.07-.11,0l-2,.28,2.92-.4,2-.27c.64-.09,1.92-.27,1.37-.2l2.25-.31,6.56-.91,15.19-2.11,2.93-.41,2.94-.4c.31-.05,2.13-.3.19,0l2-.28c.76-.1,6-1.46,2.14-1.23.61-.39,1.18-.78-.39-.87,1.11-.46-1.58-.4.06-.93a7.07,7.07,0,0,1,1.93-.73c.78-.26,1.09-.46.29-.5a15.89,15.89,0,0,1,2.9-.87c.47-.21-.44-.24-.48-.39a7.58,7.58,0,0,0-2.05-.63c.65-.7-1.33-1-.84-1.7s.06-1.22-.52-1.74C108.33,3.36,106.49,2.41,106.14,2.46Z"/><path class="cls-5" d="M60.86,17c1.45,0,2,.07,2,.23.38-.26.1-.45-1.87-.42-.91-.5.17-1.38-.46-2.1-1-.11-1.29-.34-1.14-.63-.36.38-.25.69,1,.82C61,15.58,60,16.46,60.86,17Z"/><path class="cls-5" d="M59.84,13.61a1.16,1.16,0,0,1,.21-.16c-.77-.33.85-1-.79-1.25H59.2l-.14,0-.15.19C60.83,12.58,59.23,13.25,59.84,13.61Z"/><path class="cls-5" d="M57.92,10c-.44.4,0,.66.91.87a1,1,0,0,1,.21-.17C58.28,10.47,57.79,10.25,57.92,10Z"/><path class="cls-5" d="M59.35,12c.57-.45-.69-.66-.58-1.07C58.21,11.4,59.44,11.62,59.35,12Z"/><path class="cls-5" d="M67.64,19h0ZM108,12.56a.54.54,0,0,1-.21.16,18.65,18.65,0,0,1-3.35.95l-1.39.2-.78.11-2.94.41-2.93.4L81.19,16.9l-6.57.92-2.29.31L71,18.32l-2,.27-2.92.4,1.63-.22h0l.38-.05.19,0h-.08c.82-.11-7.26.74-7.59,0-1.39,1.15,8.36.12,7.47.24h.07l.14,0-.14,0L68,19l-.39.05h0L66,19.24l2.93-.4,1.95-.27,1.32-.19c-.17,0-.19,0,0,0s.15,0,0,0l2.3-.32,6.56-.91L96.25,15l2.93-.41,2.94-.4.78-.11h0l.25,0-.23,0,1.39-.2c.55-.07,3.52-.82,3.57-1.12C107.86,12.8,108,12.6,108,12.56ZM68.33,18.92l.31,0Z"/><path class="cls-5" d="M107.18,11.91a.65.65,0,0,1-.13.18,3.7,3.7,0,0,1-.49.35h.26a.92.92,0,0,0,.22-.23A1.82,1.82,0,0,0,107.18,11.91Z"/><path class="cls-5" d="M108.91,9.55c0,.08-.12.09-.16.13a6.17,6.17,0,0,1-.59.23,7.07,7.07,0,0,0-1.93.73c-.48.15-.59.26-.53.34l.39-.15A7,7,0,0,1,108,10.1a3.25,3.25,0,0,0,.7-.29h0A.52.52,0,0,0,108.91,9.55Z"/><path class="cls-5" d="M111.48,8.46a.91.91,0,0,1-.2.1,15.58,15.58,0,0,0-2.83.85,1,1,0,0,1,.27,0,16.9,16.9,0,0,1,2.49-.7l.09-.06A1.06,1.06,0,0,0,111.48,8.46Z"/></g></g></g></svg>