<svg xmlns="http://www.w3.org/2000/svg" xmlns:xlink="http://www.w3.org/1999/xlink" width="188.31" height="192.13" viewBox="0 0 188.31 192.13"><defs><style>.cls-1{fill:url(#linear-gradient);}.cls-2{fill:url(#linear-gradient-2);}.cls-3{fill:#1a1a1a;}.cls-4{fill:url(#linear-gradient-3);}.cls-5{fill:url(#linear-gradient-4);}</style><linearGradient id="linear-gradient" x1="41.27" y1="-18.95" x2="210.38" y2="138.29" gradientTransform="matrix(0.99, -0.16, 0.16, 0.99, -31.51, 64.61)" gradientUnits="userSpaceOnUse"><stop offset="0" stop-color="#f8ee5f"/><stop offset="0.52" stop-color="#979435"/><stop offset="1" stop-color="#f8ed51"/></linearGradient><linearGradient id="linear-gradient-2" x1="41.73" y1="-19.41" x2="210.82" y2="137.81" gradientTransform="matrix(0.99, -0.16, 0.16, 0.99, -31.51, 64.61)" gradientUnits="userSpaceOnUse"><stop offset="0" stop-color="#f7ee69"/><stop offset="0.52" stop-color="#fbf290"/><stop offset="1" stop-color="#f8ed58"/></linearGradient><linearGradient id="linear-gradient-3" x1="-17.2" y1="56.63" x2="8.05" y2="72.89" gradientTransform="translate(24.29 -28.72) rotate(0.15)" gradientUnits="userSpaceOnUse"><stop offset="0" stop-color="#fff"/><stop offset="0.35" stop-color="#242424"/><stop offset="0.74" stop-color="#c5c5c5"/><stop offset="1" stop-color="#3e3e3e"/></linearGradient><linearGradient id="linear-gradient-4" x1="-15.56" y1="57.69" x2="6.44" y2="71.85" gradientTransform="translate(24.29 -28.72) rotate(0.15)" gradientUnits="userSpaceOnUse"><stop offset="0" stop-color="#fff"/><stop offset="0.51" stop-color="#616161"/><stop offset="0.99" stop-color="#3e3e3e"/></linearGradient></defs><g id="Layer_2" data-name="Layer 2"><g id="Vector_Graphics" data-name="Vector Graphics"><path class="cls-1" d="M0,24.12l.38-.53L147.94.53s8.7,93.53,40.37,156.06l-.38.52c-42.39,12-98,26.14-153.63,35C11.25,123,8.64,78.31,0,24.12Z"/><path class="cls-2" d="M.38,23.59,148.32,0s8.24,94.06,40,156.59c-42.39,12-98,26.13-153.63,35C11.64,122.43,9,77.79.38,23.59Z"/><path class="cls-3" d="M28.56,36.63a9.3,9.3,0,1,1-9.27-9.33A9.3,9.3,0,0,1,28.56,36.63Z"/><path class="cls-4" d="M29,36.13a9.31,9.31,0,1,1-9.28-9.33A9.3,9.3,0,0,1,29,36.13Z"/><path class="cls-5" d="M19.69,28a8.1,8.1,0,1,0,8.08,8.12A8.1,8.1,0,0,0,19.69,28Zm0,15.8a7.7,7.7,0,1,1,7.72-7.68A7.69,7.69,0,0,1,19.65,43.8Z"/></g></g></svg>