<svg xmlns="http://www.w3.org/2000/svg" xmlns:xlink="http://www.w3.org/1999/xlink" width="101.83" height="113.39" viewBox="0 0 101.83 113.39"><defs><style>.cls-1{fill:url(#linear-gradient);}.cls-2{fill:url(#linear-gradient-2);}.cls-3{fill:#ce802e;}.cls-4{fill:#6e4104;}</style><linearGradient id="linear-gradient" x1="2.82" y1="18.1" x2="106.61" y2="114.61" gradientUnits="userSpaceOnUse"><stop offset="0" stop-color="#b1732a"/><stop offset="0.52" stop-color="#bb842e"/><stop offset="1" stop-color="#ab7128"/></linearGradient><linearGradient id="linear-gradient-2" x1="3.1" y1="17.82" x2="106.88" y2="114.32" gradientUnits="userSpaceOnUse"><stop offset="0" stop-color="#ed983c"/><stop offset="0.52" stop-color="#faaf40"/><stop offset="1" stop-color="#e8983b"/></linearGradient></defs><g id="Layer_2" data-name="Layer 2"><g id="Vector_Graphics" data-name="Vector Graphics"><path class="cls-1" d="M.5,8.24.78,8l91.67.28s-3.76,57.53,9.38,98.49l-.28.28c-26.85,3.19-61.9,6.38-96.5,6.38C-2.23,69.23.5,41.92.5,8.24Z"/><path class="cls-2" d="M.78,8h92s-4.1,57.81,9.1,98.77c-26.85,3.19-61.9,6.37-96.5,6.37C-1.95,69,.78,41.64.78,8Z"/><path class="cls-3" d="M81.73,1.38l-2.12,0H80l-2.75-.06-3.85-.08L71,1.16l-1.92,0,.92,0-3.65-.08L43.92.59,39.17.49,34.72.4,31.07.32,26.93.24l-2.38,0L20.9.11,17.05,0c.89,0-2.42,0,0,0L15.63,0C11.52.71,12.08,1.49,14,2.28c-1.65.71,1.8,1.5-.33,2.14,2.73.75.07,1.35,1.11,2-1.27.61-1.88,1.2.41,1.81.73,1.16-1,2.15.18,3,3.62.52,3.08.92,1.75,1.27-.72.36.79.73-2.3,1C12,14.85,26.38,15.63,25.08,15.61c1.26,0,.73,0-.16,0l-2.86-.06,4.17.09,2.8.06,1.95,0,3.22.07,9.39.19,21.71.46,4.2.09c-.5,0,4.24.08,4.2.08.44,0,3,.07.27,0l2.84.06c1.08,0,8.79-.69,3.27-1.24.93-.42,1.82-.83-.35-1.31,1.65-.4-2.12-.91.29-1.29a10.7,10.7,0,0,1,2.86-.59c1.16-.19,1.62-.4.52-.64a23.63,23.63,0,0,1,4.25-.55c.71-.2-.57-.44-.58-.66a10.41,10.41,0,0,0-2.73-1.34c1.07-.83-1.62-1.74-.79-2.57,1-.83.36-1.69-.34-2.55C84.59,3.13,82.22,1.4,81.73,1.38Z"/><path class="cls-4" d="M15.13,11.52c2,.29,2.76.54,2.76.77.59-.28.25-.61-2.51-1-1.17-.9.55-1.89-.18-3-1.42-.38-1.72-.75-1.45-1.12-.6.45-.51.89,1.2,1.36C15.68,9.62,14,10.61,15.13,11.52Z"/><path class="cls-4" d="M14.45,6.59l.34-.17c-1-.62,1.42-1.21-.83-1.92h-.08l-.2-.06-.24.23C16.07,5.38,13.68,6,14.45,6.59Z"/><path class="cls-4" d="M12.59,1c-.7.47-.08,1,1.09,1.43A1.2,1.2,0,0,1,14,2.28C13,1.86,12.35,1.45,12.59,1Z"/><path class="cls-4" d="M14.13,4.24c.91-.5-.81-1.08-.56-1.63C12.67,3.15,14.35,3.72,14.13,4.24Z"/><path class="cls-4" d="M24.15,15.91h0Zm57.89,0a.84.84,0,0,1-.33.18,27.86,27.86,0,0,1-4.9.58l-2,0-1.13,0-4.2-.08-4.19-.09L43.58,16,34.2,15.8l-3.28-.07-1.89,0-2.8-.06-4.18-.09,2.33.05h.69c1.17,0-10.32-.6-10.61-1.7-2.21,1.3,11.66,2,10.38,2h-.69l-2.33-.05L26,16l2.8.06,1.89,0c-.25,0-.28,0,.06,0h-.06l3.27.07,9.39.19,21.72.46,4.19.09,4.2.09,1.12,0h0l2,0c.79,0,5.11-.36,5.24-.78C81.81,16.23,82.05,16,82,15.93Zm-56.9,0h0Z"/><path class="cls-4" d="M81.06,14.85a.73.73,0,0,1-.22.21,5.3,5.3,0,0,1-.76.39l.36,0a1.06,1.06,0,0,0,.35-.27A3.45,3.45,0,0,0,81.06,14.85Z"/><path class="cls-4" d="M84,11.92a.62.62,0,0,1-.27.15,7.15,7.15,0,0,1-.87.19,10.7,10.7,0,0,0-2.86.59c-.7.11-.88.23-.82.36a3,3,0,0,1,.58-.13,10.49,10.49,0,0,1,2.85-.59,4.19,4.19,0,0,0,1-.25h0A.82.82,0,0,0,84,11.92Z"/><path class="cls-4" d="M87.85,11a1.14,1.14,0,0,1-.3.1,23.23,23.23,0,0,0-4.15.54,3.09,3.09,0,0,1,.38.11,25.41,25.41,0,0,1,3.63-.43.38.38,0,0,0,.14-.05A1.81,1.81,0,0,0,87.85,11Z"/></g></g></svg>