<svg xmlns="http://www.w3.org/2000/svg" xmlns:xlink="http://www.w3.org/1999/xlink" width="156.04" height="145.03" viewBox="0 0 156.04 145.03"><defs><style>.cls-1{fill:#f6911e;}.cls-1,.cls-2,.cls-3{fill-rule:evenodd;}.cls-2{fill:#f0ad56;}.cls-3{fill:url(#GradientFill_8);}</style><linearGradient id="GradientFill_8" x1="8.96" y1="72.17" x2="155.23" y2="72.17" gradientUnits="userSpaceOnUse"><stop offset="0" stop-color="#f7973a"/><stop offset="1" stop-color="#f0ad56"/></linearGradient></defs><g id="Layer_2" data-name="Layer 2"><g id="Free_Fridge_Magnets_Vectors" data-name="Free Fridge Magnets Vectors"><polygon class="cls-1" points="141.4 109.56 127.68 113.03 126.93 113.27 126.2 113.57 125.49 113.96 124.82 114.41 124.19 114.94 124.03 115.09 123.88 115.23 123.72 115.38 123.56 115.52 123.41 115.66 123.25 115.79 123.1 115.93 122.94 116.07 122.33 116.55 121.68 116.97 121.01 117.32 120.32 117.6 119.61 117.81 132.63 114.76 133.4 114.53 134.15 114.22 134.88 113.84 135.58 113.39 136.25 112.87 136.42 112.72 136.59 112.57 136.76 112.42 136.93 112.27 137.1 112.11 137.27 111.96 137.44 111.8 137.61 111.64 138.3 111.07 139.02 110.57 139.79 110.15 140.58 109.82 141.4 109.56"/><polygon class="cls-2" points="5.75 44.58 2.88 53.25 2.05 55.94 1.35 58.68 0.8 61.47 0.39 64.3 0.12 67.17 0 70.07 0.03 73 0.21 75.96 0.55 78.95 1.04 81.95 1.7 84.97 2.45 87.78 3.32 90.52 4.31 93.19 5.41 95.77 6.61 98.27 7.93 100.69 9.34 103.02 10.86 105.26 12.47 107.42 14.17 109.49 15.96 111.46 17.84 113.34 19.81 115.13 21.85 116.82 23.97 118.41 26.17 119.89 28.43 121.28 30.77 122.56 33.17 123.73 35.63 124.8 38.15 125.76 40.72 126.6 43.35 127.33 46.02 127.95 48.74 128.45 51.51 128.84 54.31 129.1 57.15 129.24 60.02 129.25 62.93 129.14 65.86 128.91 68.81 128.54 69.32 128.48 69.82 128.45 70.31 128.45 70.8 128.48 71.28 128.53 71.75 128.62 72.21 128.74 72.67 128.88 73.11 129.05 73.55 129.25 73.97 129.47 74.38 129.72 74.78 130 75.17 130.31 75.54 130.64 75.9 131 76.92 132.05 77.95 133.05 79 134.02 80.07 134.96 81.15 135.85 82.26 136.7 83.37 137.52 84.51 138.29 85.65 139.03 86.82 139.73 87.99 140.38 89.18 140.99 90.38 141.56 91.59 142.09 92.81 142.58 94.05 143.03 95.29 143.43 96.55 143.78 97.81 144.1 99.07 144.37 100.35 144.59 101.64 144.77 102.92 144.9 104.22 144.99 105.52 145.03 106.83 145.02 108.14 144.97 120.16 144.28 118.73 144.34 117.31 144.34 115.9 144.3 114.49 144.21 113.09 144.06 111.69 143.87 110.31 143.63 108.93 143.33 107.56 142.99 106.19 142.6 104.84 142.17 103.5 141.68 102.17 141.16 100.86 140.58 99.55 139.96 98.26 139.29 96.98 138.58 95.72 137.82 94.47 137.03 93.24 136.18 92.03 135.3 90.83 134.37 89.65 133.4 88.49 132.38 87.34 131.33 86.22 130.23 85.12 129.1 84.73 128.71 84.32 128.34 83.9 128.01 83.47 127.71 83.02 127.43 82.56 127.19 82.09 126.97 81.6 126.79 81.11 126.63 80.6 126.51 80.09 126.42 79.57 126.35 79.04 126.32 78.5 126.32 77.96 126.36 77.41 126.42 74.2 126.82 71.02 127.08 67.86 127.2 64.74 127.18 61.65 127.03 58.6 126.74 55.6 126.33 52.64 125.78 49.73 125.11 46.88 124.32 44.08 123.4 41.34 122.36 38.67 121.2 36.06 119.92 33.52 118.53 31.06 117.02 28.68 115.41 26.37 113.68 24.15 111.84 22.01 109.91 19.97 107.86 18.02 105.71 16.17 103.47 14.42 101.12 12.77 98.68 11.23 96.15 9.81 93.52 8.5 90.8 7.3 87.99 6.23 85.1 5.28 82.12 4.46 79.06 3.75 75.78 3.22 72.52 2.85 69.27 2.65 66.06 2.62 62.87 2.75 59.72 3.04 56.6 3.49 53.52 4.09 50.49 4.85 47.51 5.75 44.58"/><polygon class="cls-1" points="40.6 42.33 34.95 51.17 35.84 49.88 36.8 48.64 37.81 47.44 38.88 46.3 40 45.21 41.18 44.18 42.41 43.2 43.69 42.29 45.02 41.44 46.39 40.65 47.81 39.93 49.27 39.28 50.78 38.71 52.32 38.2 53.91 37.77 55.51 37.43 57.11 37.17 58.7 36.99 60.29 36.9 61.87 36.9 63.43 36.97 64.98 37.12 66.52 37.35 68.03 37.66 69.53 38.04 71 38.5 72.45 39.03 73.87 39.63 75.26 40.31 76.62 41.05 77.94 41.87 79.23 42.74 80.47 43.69 81.68 44.7 82.84 45.77 83.96 46.9 85.03 48.09 86.04 49.35 87.01 50.66 87.92 52.03 88.77 53.45 89.56 54.92 90.3 56.45 90.96 58.03 91.56 59.67 92.09 61.34 92.56 63.07 92.94 64.82 93.24 66.56 93.45 68.29 93.58 70 93.64 71.7 93.61 73.39 93.51 75.05 93.33 76.7 93.08 78.31 92.75 79.91 92.35 81.47 91.88 83 91.35 84.5 90.74 85.97 90.07 87.39 89.33 88.78 88.53 90.12 87.67 91.42 86.75 92.67 85.77 93.87 84.73 95.02 83.63 96.12 82.48 97.16 81.28 98.14 80.02 99.06 78.72 99.91 77.36 100.7 75.96 101.43 85.18 96.95 86.71 96.17 88.18 95.31 89.6 94.38 90.97 93.38 92.27 92.31 93.52 91.18 94.71 89.99 95.84 88.74 96.91 87.43 97.91 86.07 98.85 84.66 99.72 83.2 100.52 81.7 101.25 80.15 101.91 78.56 102.49 76.93 103 75.26 103.43 73.56 103.79 71.83 104.06 70.07 104.26 68.28 104.37 66.47 104.4 64.64 104.34 62.8 104.19 60.93 103.96 59.05 103.64 57.16 103.22 55.26 102.72 53.38 102.14 51.56 101.49 49.79 100.76 48.07 99.97 46.41 99.11 44.8 98.18 43.25 97.19 41.77 96.14 40.34 95.04 38.98 93.88 37.69 92.66 36.45 91.4 35.29 90.09 34.19 88.73 33.17 87.33 32.21 85.9 31.33 84.42 30.52 82.91 29.79 81.37 29.13 79.8 28.55 78.19 28.05 76.57 27.64 74.92 27.3 73.25 27.05 71.56 26.89 69.86 26.81 68.15 26.82 66.42 26.92 64.69 27.11 62.95 27.39 61.21 27.76 59.49 28.23 57.81 28.78 56.18 29.4 54.59 30.11 53.04 30.89 51.55 31.75 50.1 32.67 48.72 33.67 47.38 34.73 46.1 35.85 44.88 37.03 43.71 38.27 42.61 39.57 41.57 40.92 40.6 42.33"/><path class="cls-3" d="M137.61,111.65c-.45.42-.91.82-1.36,1.22a8.85,8.85,0,0,1-12.77-12.14,61.74,61.74,0,0,0,11.17-53.28C126.17,12.53,92-6.84,54.65,2.22,17.5,11.24-4.06,44,4.46,79.06c8,33.09,38.58,52.36,73,47.36a8.61,8.61,0,0,1,7.71,2.68c11.65,12.33,26.89,17.82,42.19,14.1a57,57,0,0,0,26.17-15.1,8.84,8.84,0,0,0,.13-12.31L150.06,112a8.85,8.85,0,0,0-12.45-.39Zm-101.8-40c-4.93-20.29,6.83-39.36,25.4-43.87s37.08,7.21,42,27.5S97.16,94.8,78.59,99.31C60.18,103.78,40.73,91.93,35.81,71.63Z"/></g></g></svg>