<svg xmlns="http://www.w3.org/2000/svg" xmlns:xlink="http://www.w3.org/1999/xlink" width="110.04" height="126.93" viewBox="0 0 110.04 126.93"><defs><style>.cls-1{fill:#231f20;}.cls-1,.cls-2{fill-rule:evenodd;}.cls-2{fill:url(#GradientFill_6);}</style><linearGradient id="GradientFill_6" x1="0.3" y1="63.47" x2="109.51" y2="63.47" gradientUnits="userSpaceOnUse"><stop offset="0" stop-color="#e31c44"/><stop offset="1" stop-color="#f05651"/></linearGradient></defs><g id="Layer_2" data-name="Layer 2"><g id="Free_Fridge_Magnets_Vectors" data-name="Free Fridge Magnets Vectors"><polygon class="cls-1" points="109.93 110.97 108.45 102.7 108.35 102.18 108.2 101.67 108.03 101.16 107.81 100.66 107.56 100.17 107.28 99.69 106.96 99.22 94.19 81.83 93.76 81.17 93.4 80.49 93.1 79.79 92.88 79.08 92.72 78.34 92.63 77.61 92.61 76.87 92.71 82.89 92.73 83.69 92.83 84.5 93 85.29 93.24 86.07 93.56 86.83 93.96 87.57 94.43 88.28 108.3 107.19 108.65 107.69 108.96 108.21 109.23 108.75 109.46 109.29 109.66 109.84 109.81 110.41 109.93 110.97"/><polygon class="cls-1" points="91.62 7.69 91.61 7.68 89.89 6.64 89.75 6.55 91.62 7.69"/><polygon class="cls-1" points="37.7 120.86 42.01 111.8 42.3 111.06 42.52 110.3 42.67 109.51 42.74 108.7 42.73 107.86 41.69 92.11 41.67 91.27 41.74 90.46 41.89 89.67 42.11 88.91 42.41 88.17 42.77 87.48 38.54 94.42 38.14 95.18 37.82 95.97 37.58 96.81 37.41 97.66 37.34 98.55 37.35 99.45 38.49 116.58 38.5 117.49 38.43 118.37 38.27 119.23 38.02 120.06 37.7 120.86"/><polygon class="cls-1" points="78.3 51.66 79.36 48.13 79.06 49 78.73 49.83 78.35 50.63 77.93 51.4 77.47 52.13 76.97 52.83 76.44 53.5 75.86 54.14 75.24 54.75 74.58 55.32 73.89 55.85 73.16 56.36 72.39 56.83 71.58 57.27 70.74 57.68 69.86 58.05 68.95 58.38 68 58.69 67.01 58.96 65.99 59.19 64.94 59.39 63.85 59.55 62.72 59.69 61.57 59.78 47.76 60.7 46.93 60.71 46.11 60.64 45.32 60.49 44.56 60.27 43.83 59.97 43.13 59.61 42.47 59.18 41.86 58.7 41.3 58.15 40.79 57.56 40.33 56.92 39.94 56.23 39.62 55.5 39.37 54.74 39.19 53.94 39.09 53.12 37.77 33.13 37.75 32.3 37.82 31.49 37.97 30.7 38.2 29.93 38.49 29.2 38.86 28.5 39.28 27.85 39.77 27.23 40.31 26.67 40.91 26.16 41.55 25.71 42.24 25.32 42.97 25 38.74 26.51 37.95 26.86 37.21 27.28 36.51 27.77 35.86 28.33 35.27 28.94 34.74 29.61 34.28 30.32 33.88 31.08 33.56 31.87 33.32 32.7 33.16 33.56 33.08 34.45 33.09 35.35 34.54 57.07 34.64 57.97 34.84 58.84 35.11 59.67 35.46 60.46 35.88 61.2 36.38 61.9 36.93 62.55 37.54 63.14 38.21 63.67 38.92 64.13 39.68 64.53 40.48 64.85 41.31 65.09 42.17 65.25 43.05 65.33 43.95 65.31 58.96 64.32 60.22 64.21 61.44 64.07 62.63 63.89 63.77 63.67 64.88 63.42 65.95 63.13 66.99 62.8 67.98 62.43 68.94 62.03 69.85 61.59 70.73 61.11 71.56 60.6 72.36 60.05 73.11 59.46 73.83 58.84 74.5 58.19 75.13 57.49 75.71 56.77 76.25 56 76.75 55.2 77.21 54.37 77.62 53.5 77.98 52.6 78.3 51.66"/><path class="cls-2" d="M87.49,122.2l14.26-1a8.85,8.85,0,0,0,6.55-14.07L94.43,88.28A8.83,8.83,0,0,1,95.72,76.4C105.33,68,110,55.56,109,39.89,107.13,12.34,87.38-1.95,54.71.22L8.26,3.3A8.87,8.87,0,0,0,0,12.72l7,106a8.86,8.86,0,0,0,9.41,8.24L30.25,126a8.88,8.88,0,0,0,8.24-9.42L37.35,99.45A8.86,8.86,0,0,1,45.6,90l10.57-.71a8.68,8.68,0,0,1,8.12,4.19L79.37,118a8.67,8.67,0,0,0,8.12,4.19ZM34.54,57.07,33.09,35.35a8.88,8.88,0,0,1,8.25-9.42l15-1c13.6-.91,22,5.1,22.83,18C80.05,56,72.56,63.41,59,64.32l-15,1A8.86,8.86,0,0,1,34.54,57.07Z"/></g></g></svg>