<svg xmlns="http://www.w3.org/2000/svg" xmlns:xlink="http://www.w3.org/1999/xlink" width="103.78" height="132.58" viewBox="0 0 103.78 132.58"><defs><style>.cls-1{fill:#228749;}.cls-1,.cls-2,.cls-3{fill-rule:evenodd;}.cls-2{fill:#86c446;}.cls-3{fill:url(#GradientFill_4);}</style><linearGradient id="GradientFill_4" x1="-19.99" y1="69.4" x2="125.28" y2="69.4" gradientUnits="userSpaceOnUse"><stop offset="0" stop-color="#86c446"/><stop offset="1" stop-color="#228749"/></linearGradient></defs><g id="Layer_2" data-name="Layer 2"><g id="Free_Fridge_Magnets_Vectors" data-name="Free Fridge Magnets Vectors"><polygon class="cls-1" points="99.07 18.49 93.68 11.29 93.19 10.67 92.65 10.1 92.04 9.58 91.37 9.11 90.65 8.71 89.62 8.21 88.57 7.73 87.51 7.25 86.44 6.79 85.35 6.35 84.25 5.91 83.13 5.49 82 5.08 80.87 4.69 79.72 4.31 78.56 3.95 77.39 3.6 76.21 3.26 75.02 2.94 73.83 2.63 72.63 2.34 71.42 2.07 70.2 1.81 68.97 1.57 67.75 1.34 66.51 1.13 65.27 0.94 64.03 0.77 62.78 0.61 61.54 0.47 60.28 0.34 59.03 0.24 57.78 0.15 56.52 0.09 55.26 0.04 54.01 0.01 52.75 0 50.22 0.04 47.74 0.15 45.31 0.35 42.95 0.61 40.64 0.96 38.4 1.37 36.23 1.86 34.12 2.42 32.07 3.04 30.1 3.74 28.19 4.5 26.36 5.33 24.6 6.23 22.92 7.19 21.31 8.21 19.78 9.3 18.33 10.45 16.97 11.66 15.69 12.93 14.49 14.26 13.38 15.64 12.35 17.08 11.42 18.58 10.58 20.13 9.83 21.73 9.17 23.39 8.62 25.09 8.16 26.85 6.11 35.4 6.61 33.49 7.21 31.64 7.93 29.84 8.74 28.1 9.66 26.41 10.67 24.79 11.78 23.22 12.99 21.71 14.29 20.27 15.69 18.89 17.17 17.58 18.75 16.33 20.41 15.15 22.15 14.04 23.98 12.99 25.89 12.02 27.89 11.11 29.96 10.28 32.1 9.53 34.33 8.85 36.62 8.24 38.99 7.71 41.42 7.26 43.92 6.89 46.5 6.6 49.13 6.39 51.83 6.26 54.58 6.22 55.95 6.23 57.31 6.26 58.68 6.32 60.04 6.39 61.41 6.48 62.77 6.59 64.13 6.73 65.49 6.88 66.84 7.05 68.19 7.24 69.54 7.45 70.88 7.68 72.22 7.92 73.54 8.19 74.87 8.47 76.18 8.77 77.49 9.08 78.79 9.41 80.08 9.76 81.36 10.13 82.63 10.51 83.89 10.91 85.14 11.32 86.38 11.75 87.6 12.19 88.81 12.65 90.01 13.12 91.19 13.61 92.36 14.11 93.52 14.62 94.65 15.15 95.77 15.69 96.56 16.13 97.28 16.63 97.95 17.2 98.54 17.82 99.07 18.49"/><polygon class="cls-1" points="70.5 94.34 67.4 81.08 67.57 82.88 67.55 83.48 67.5 84.06 67.42 84.63 67.31 85.17 67.16 85.7 66.98 86.21 66.78 86.7 66.54 87.18 66.27 87.63 65.97 88.06 65.64 88.48 65.29 88.88 64.9 89.26 64.49 89.62 64.05 89.96 63.58 90.28 63.09 90.59 62.57 90.87 62.02 91.14 61.45 91.38 60.85 91.61 60.23 91.81 59.58 92 58.91 92.17 58.22 92.32 57.51 92.45 56.77 92.56 56.01 92.65 55.23 92.72 54.42 92.77 53.6 92.8 52.75 92.81 51.84 92.8 50.91 92.76 49.96 92.69 48.99 92.6 48 92.49 47 92.35 45.98 92.19 44.95 92 43.91 91.79 42.85 91.56 41.78 91.3 40.71 91.02 39.62 90.72 38.53 90.4 37.43 90.05 36.33 89.69 35.22 89.3 34.11 88.9 33 88.47 31.89 88.02 30.78 87.56 29.67 87.07 28.56 86.56 27.45 86.04 26.36 85.5 25.26 84.94 24.18 84.36 23.1 83.77 22.03 83.16 20.98 82.53 19.93 81.89 18.9 81.23 18.52 81 18.13 80.78 17.74 80.6 17.35 80.43 16.95 80.28 16.55 80.16 16.14 80.06 15.73 79.99 15.32 79.93 14.9 79.9 14.48 79.89 14.06 79.91 13.63 79.95 13.2 80.01 12.77 80.09 12.34 80.19 11.91 80.32 11.49 80.47 11.09 80.63 10.71 80.81 10.33 81.02 9.97 81.23 9.63 81.47 9.3 81.72 8.98 82 8.68 82.29 8.39 82.6 8.12 82.92 7.87 83.26 7.63 83.62 7.4 84 7.19 84.39 3.42 91.88 3.1 92.59 2.86 93.3 2.68 94.03 0.16 108.42 0.35 107.64 0.61 106.86 0.96 106.09 5.06 97.95 5.29 97.52 5.53 97.11 5.79 96.72 6.07 96.35 6.37 96 6.68 95.66 7.01 95.35 7.35 95.05 7.71 94.77 8.08 94.52 8.47 94.28 8.88 94.06 9.3 93.86 9.74 93.69 10.19 93.53 10.65 93.39 11.12 93.27 11.59 93.18 12.06 93.12 12.52 93.08 12.98 93.06 13.44 93.07 13.89 93.11 14.34 93.16 14.79 93.25 15.23 93.36 15.67 93.49 16.1 93.64 16.53 93.82 16.95 94.03 17.37 94.26 17.78 94.51 18.91 95.23 20.04 95.93 21.19 96.61 22.35 97.28 23.52 97.92 24.7 98.55 25.89 99.16 27.08 99.74 28.29 100.31 29.49 100.86 30.7 101.39 31.9 101.9 33.11 102.38 34.32 102.85 35.53 103.29 36.73 103.71 37.93 104.11 39.13 104.48 40.31 104.83 41.49 105.16 42.66 105.46 43.82 105.74 44.97 105.99 46.1 106.22 47.23 106.42 48.33 106.6 49.42 106.75 50.5 106.88 51.55 106.97 52.58 107.04 53.59 107.08 54.58 107.1 55.5 107.09 56.4 107.06 57.27 107 58.12 106.92 58.95 106.83 59.75 106.71 60.53 106.57 61.28 106.41 62.01 106.22 62.71 106.02 63.39 105.8 64.03 105.55 64.66 105.28 65.25 104.99 65.82 104.69 66.35 104.36 66.86 104 67.34 103.63 67.79 103.24 68.21 102.83 68.59 102.4 68.95 101.94 69.27 101.47 69.57 100.98 69.83 100.46 70.05 99.93 70.25 99.37 70.4 98.8 70.53 98.2 70.62 97.59 70.67 96.96 70.69 96.3 70.5 94.34"/><polygon class="cls-2" points="100.97 80.41 95.43 68.26 94.06 65.62 92.46 63.22 90.63 61.03 88.6 59.04 86.4 57.24 84.04 55.61 81.56 54.13 78.96 52.79 76.27 51.58 73.51 50.47 70.72 49.45 67.89 48.52 65.08 47.65 62.28 46.83 59.52 46.03 56.84 45.26 54.23 44.49 51.75 43.7 49.39 42.89 47.19 42.03 45.16 41.11 43.33 40.12 41.73 39.04 40.36 37.85 39.26 36.54 38.45 35.1 37.95 33.51 37.77 31.75 38.3 40.73 38.49 42.64 39.04 44.37 39.92 45.94 41.12 47.36 42.6 48.65 44.34 49.83 46.33 50.91 48.53 51.9 50.93 52.84 53.49 53.72 56.2 54.58 59.02 55.41 61.94 56.26 64.94 57.12 67.98 58.01 71.04 58.96 74.11 59.98 77.15 61.08 80.14 62.28 83.06 63.6 85.89 65.06 88.6 66.66 91.16 68.44 93.55 70.4 95.75 72.56 97.74 74.94 99.49 77.55 100.97 80.41"/><path class="cls-3" d="M54.58,6.22C24.85,6.22,5.21,20.73,5.21,43.56c0,43.89,65.48,30.8,65.48,52.74,0,7.08-6.2,10.8-16.11,10.8-10.43,0-24.9-4.85-36.8-12.59a8.56,8.56,0,0,0-7.13-1.12A8.56,8.56,0,0,0,5.06,98L1,106.09a8.82,8.82,0,0,0,3,11.37,93.58,93.58,0,0,0,50.25,15.12c27.61,0,49.55-13.09,49.55-37.87,0-44.78-65.48-32.56-65.48-54,0-6,5.49-9,13.63-9s20.51,3.48,31.86,8.84a8.86,8.86,0,0,0,11.75-4.16l4.3-8.92a8.85,8.85,0,0,0-4.07-11.78A95.73,95.73,0,0,0,54.58,6.22Z"/></g></g></svg>