<svg xmlns="http://www.w3.org/2000/svg" xmlns:xlink="http://www.w3.org/1999/xlink" width="105.69" height="141.66" viewBox="0 0 105.69 141.66"><defs><style>.cls-1{fill:#f8df45;}.cls-1,.cls-2,.cls-3{fill-rule:evenodd;}.cls-2{fill:#f1ee86;}.cls-3{fill:url(#GradientFill_7);}</style><linearGradient id="GradientFill_7" x1="-94.4" y1="90.52" x2="213.53" y2="47.25" gradientUnits="userSpaceOnUse"><stop offset="0" stop-color="#f1ee86"/><stop offset="1" stop-color="#f8df45"/></linearGradient></defs><g id="Layer_2" data-name="Layer 2"><g id="Free_Fridge_Magnets_Vectors" data-name="Free Fridge Magnets Vectors"><polygon class="cls-1" points="2.17 36.8 10.05 54.17 10.4 54.9 10.81 55.58 11.29 56.21 11.81 56.79 12.4 57.32 13.02 57.78 13.69 58.19 14.4 58.53 15.13 58.8 15.9 59 16.68 59.13 17.49 59.17 18.3 59.14 19.13 59.02 36.55 55.62 37.37 55.5 38.18 55.47 38.99 55.52 39.77 55.64 40.54 55.84 41.27 56.12 41.98 56.46 42.65 56.86 43.27 57.33 43.86 57.85 44.39 58.44 44.86 59.07 45.27 59.75 45.62 60.48 45.9 61.24 41.13 44.49 40.84 43.65 40.46 42.86 40.01 42.12 39.49 41.44 38.92 40.8 38.29 40.23 37.61 39.73 36.88 39.29 36.11 38.92 35.31 38.62 34.48 38.4 33.63 38.27 32.75 38.21 31.87 38.25 30.97 38.38 12.04 42.08 11.14 42.2 10.26 42.24 9.38 42.19 8.53 42.05 7.7 41.83 6.9 41.54 6.13 41.17 5.41 40.73 4.72 40.22 4.09 39.65 3.52 39.02 3 38.33 2.55 37.59 2.17 36.8"/><polygon class="cls-1" points="57.08 125.62 60.56 135.88 60.84 136.65 61.19 137.38 61.6 138.06 62.07 138.69 62.6 139.27 63.18 139.8 63.81 140.26 64.48 140.67 65.19 141.01 65.92 141.28 66.69 141.48 67.47 141.61 68.28 141.66 69.09 141.63 69.91 141.51 82.38 139.07 83.19 138.87 83.95 138.59 84.68 138.25 85.36 137.84 85.99 137.36 86.57 136.83 87.1 136.25 87.57 135.62 87.97 134.96 88.31 134.25 88.58 133.51 88.78 132.75 88.91 131.96 88.96 131.16 88.92 130.34 87.91 119.6 87.94 120.48 87.89 121.36 87.75 122.21 87.54 123.04 87.24 123.84 86.87 124.61 86.43 125.34 85.92 126.02 85.35 126.65 84.72 127.23 84.03 127.74 83.29 128.19 82.5 128.57 81.67 128.87 80.79 129.09 67.24 131.73 66.35 131.86 65.46 131.9 64.59 131.84 63.73 131.71 62.9 131.49 62.1 131.19 61.34 130.82 60.61 130.38 59.93 129.88 59.3 129.3 58.72 128.67 58.21 127.98 57.76 127.25 57.38 126.46 57.08 125.62"/><polygon class="cls-2" points="72.14 38.43 74.42 55.67 74.39 54.85 74.44 54.05 74.56 53.26 74.76 52.5 75.04 51.76 75.38 51.06 75.78 50.39 76.25 49.76 76.77 49.18 77.35 48.65 77.99 48.18 78.67 47.77 79.39 47.42 80.16 47.14 80.97 46.94 98.71 43.48 99.51 43.28 100.28 43 101.01 42.65 101.69 42.24 102.32 41.77 102.9 41.24 103.43 40.66 103.89 40.03 104.3 39.36 104.64 38.66 104.91 37.92 105.11 37.15 105.24 36.37 105.29 35.56 105.69 16.58 105.64 17.45 105.5 18.3 105.28 19.13 104.99 19.93 104.62 20.7 104.18 21.43 103.67 22.11 103.1 22.74 102.47 23.32 101.78 23.83 101.04 24.28 100.25 24.66 99.42 24.96 98.54 25.18 79.26 28.94 78.38 29.16 77.55 29.46 76.76 29.84 76.02 30.29 75.33 30.8 74.7 31.38 74.13 32.01 73.62 32.69 73.18 33.42 72.81 34.18 72.51 34.98 72.3 35.82 72.16 36.67 72.11 37.54 72.14 38.43"/><path class="cls-3" d="M105.53,14.8,104,7.15a8.87,8.87,0,0,0-10.38-7L7.15,17.06a8.88,8.88,0,0,0-7,10.39l1.5,7.64a8.87,8.87,0,0,0,10.38,7L31,38.38a8.85,8.85,0,0,1,10.38,7l15.51,79.38a8.86,8.86,0,0,0,10.38,7l13.55-2.65a8.87,8.87,0,0,0,7-10.38L72.27,39.32a8.88,8.88,0,0,1,7-10.38l19.28-3.76A8.88,8.88,0,0,0,105.53,14.8Z"/></g></g></svg>