<svg xmlns="http://www.w3.org/2000/svg" xmlns:xlink="http://www.w3.org/1999/xlink" width="127.36" height="140.47" viewBox="0 0 127.36 140.47"><defs><style>.cls-1{fill:#e31c44;}.cls-1,.cls-2,.cls-3{fill-rule:evenodd;}.cls-2{fill:#f05651;}.cls-3{fill:url(#GradientFill_6);}</style><linearGradient id="GradientFill_6" x1="16.74" y1="67.23" x2="106.42" y2="87.93" gradientUnits="userSpaceOnUse"><stop offset="0" stop-color="#e31c44"/><stop offset="1" stop-color="#f05651"/></linearGradient></defs><g id="Layer_2" data-name="Layer 2"><g id="Free_Fridge_Magnets_Vectors" data-name="Free Fridge Magnets Vectors"><polygon class="cls-1" points="125.58 31 120.23 24.03 119.73 23.43 119.18 22.88 118.57 22.37 117.91 21.93 117.19 21.55 116.44 21.24 115.64 21 103.46 18.05 102.64 17.9 101.83 17.83 101.02 17.84 100.23 17.93 99.46 18.1 98.71 18.34 97.99 18.64 97.31 19.02 96.66 19.46 96.05 19.96 95.5 20.51 95 21.12 94.56 21.79 94.18 22.5 93.87 23.25 93.63 24.05 79.98 80.38 79.62 81.77 79.21 83.11 78.76 84.39 78.27 85.64 77.74 86.83 77.17 87.97 76.56 89.07 75.91 90.11 75.23 91.11 74.51 92.05 73.75 92.94 72.97 93.79 72.15 94.58 71.3 95.31 70.42 96 69.51 96.63 68.57 97.21 67.61 97.73 66.62 98.2 65.6 98.62 64.56 98.98 63.49 99.28 62.41 99.53 61.3 99.72 60.17 99.86 59.03 99.94 57.86 99.96 56.68 99.92 55.48 99.83 54.27 99.67 53.04 99.46 51.8 99.19 50.56 98.86 49.35 98.48 48.18 98.06 47.05 97.59 45.96 97.07 44.91 96.51 43.89 95.91 42.92 95.27 42 94.58 41.11 93.86 40.27 93.09 39.48 92.29 38.73 91.44 38.03 90.56 37.38 89.65 36.77 88.7 36.22 87.71 35.72 86.69 35.27 85.64 34.87 84.56 34.53 83.44 34.24 82.3 34.01 81.12 33.83 79.92 33.71 78.69 33.65 77.43 33.65 76.15 33.71 74.84 33.83 73.51 34.01 72.15 34.26 70.78 32.13 81.8 31.86 83.3 31.66 84.77 31.53 86.22 31.47 87.64 31.47 89.04 31.54 90.4 31.67 91.74 31.86 93.05 32.11 94.33 32.42 95.57 32.8 96.78 33.23 97.96 33.72 99.1 34.27 100.21 34.87 101.28 35.52 102.32 36.23 103.31 36.99 104.27 37.8 105.19 38.67 106.06 39.58 106.89 40.54 107.68 41.55 108.42 42.6 109.13 43.7 109.78 44.85 110.39 46.04 110.94 47.27 111.45 48.54 111.92 49.85 112.33 51.2 112.69 52.55 112.98 53.88 113.21 55.2 113.38 56.5 113.48 57.79 113.52 59.05 113.5 60.3 113.41 61.52 113.27 62.73 113.06 63.91 112.78 65.07 112.45 66.2 112.06 67.3 111.61 68.38 111.1 69.43 110.53 70.45 109.9 71.44 109.22 72.39 108.47 73.32 107.67 74.21 106.81 75.06 105.9 75.88 104.93 76.66 103.9 77.41 102.82 78.11 101.69 78.77 100.5 79.39 99.25 79.97 97.96 80.5 96.61 80.99 95.2 81.43 93.75 81.83 92.24 96.67 31.01 96.92 30.14 97.26 29.32 97.67 28.55 98.15 27.83 98.7 27.17 99.3 26.57 99.96 26.02 100.66 25.55 101.41 25.14 102.19 24.8 103 24.54 103.84 24.36 104.7 24.26 105.58 24.25 106.46 24.33 107.35 24.5 120.59 27.7 121.46 27.96 122.28 28.3 123.05 28.71 123.77 29.19 124.44 29.74 125.04 30.34 125.58 31"/><polygon class="cls-2" points="47.47 18.16 48.37 12.23 48.44 11.41 48.43 10.61 48.34 9.82 48.17 9.05 47.93 8.3 47.62 7.58 47.25 6.89 46.81 6.24 46.31 5.64 45.75 5.08 45.14 4.58 44.48 4.14 43.77 3.76 43.02 3.45 42.22 3.21 29.88 0.22 29.06 0.07 28.25 0 27.44 0.01 26.65 0.1 25.88 0.27 25.13 0.51 24.41 0.82 23.72 1.19 23.08 1.63 22.47 2.13 21.92 2.69 21.42 3.3 20.97 3.96 17.69 9.17 18.17 8.46 18.72 7.79 19.32 7.19 19.98 6.64 20.68 6.17 21.43 5.76 22.21 5.42 23.02 5.17 23.86 4.98 24.72 4.89 25.6 4.87 26.48 4.95 27.37 5.12 40.79 8.37 41.65 8.62 42.47 8.96 43.24 9.37 43.96 9.85 44.63 10.4 45.23 11 45.77 11.66 46.25 12.36 46.66 13.11 46.99 13.89 47.25 14.71 47.43 15.54 47.53 16.4 47.55 17.28 47.47 18.16"/><path class="cls-3" d="M120.59,27.7l-13.24-3.2A8.85,8.85,0,0,0,96.67,31L81.83,92.24c-4,16.34-16.18,23.94-30.63,20.44-14.62-3.54-22.69-16.06-18.73-32.4L47.3,19.05A8.86,8.86,0,0,0,40.79,8.37L27.37,5.12a8.86,8.86,0,0,0-10.68,6.51L1.85,72.87c-7.71,31.82,9.09,57.19,43,65.4,33.71,8.17,59.74-6.83,67.45-38.65l14.84-61.23A8.87,8.87,0,0,0,120.59,27.7Z"/></g></g></svg>