<svg xmlns="http://www.w3.org/2000/svg" xmlns:xlink="http://www.w3.org/1999/xlink" width="184.73" height="146.25" viewBox="0 0 184.73 146.25"><defs><style>.cls-1{fill:#86c446;}.cls-1,.cls-2,.cls-3{fill-rule:evenodd;}.cls-2{fill:#228749;}.cls-3{fill:url(#GradientFill_4);}</style><linearGradient id="GradientFill_4" x1="17.36" y1="84.29" x2="183.78" y2="57.93" gradientUnits="userSpaceOnUse"><stop offset="0" stop-color="#86c446"/><stop offset="1" stop-color="#228749"/></linearGradient></defs><g id="Layer_2" data-name="Layer 2"><g id="Free_Fridge_Magnets_Vectors" data-name="Free Fridge Magnets Vectors"><polygon class="cls-1" points="155.26 5.86 144.81 23.2 144.49 23.79 144.22 24.39 143.99 25.03 143.82 25.7 143.7 26.38 137.16 75.53 137.04 76.21 136.87 76.88 136.65 77.51 136.37 78.12 136.06 78.7 135.69 79.25 145.35 66.78 145.75 66.18 146.09 65.55 146.39 64.89 146.63 64.2 146.82 63.48 146.95 62.73 154.06 9.31 154.19 8.57 154.38 7.85 154.62 7.15 154.91 6.49 155.26 5.86"/><polygon class="cls-2" points="75.87 18.35 71.77 34.69 71.65 35.38 65.22 84.37 65.1 85.06 64.93 85.72 68.44 73.81 68.63 73.09 68.75 72.34 75.74 19.1 75.87 18.35"/><polygon class="cls-2" points="0.1 30.93 2.06 46.27 2.14 46.74 2.25 47.2 2.4 47.67 2.57 48.13 2.77 48.59 46.58 141.57 46.88 142.16 47.23 142.72 47.61 143.24 48.03 143.72 48.48 144.17 48.96 144.57 49.47 144.94 50 145.26 50.56 145.54 51.14 145.77 51.74 145.96 52.35 146.1 52.98 146.2 53.63 146.25 54.28 146.24 54.95 146.18 72.65 143.98 73.33 143.86 73.99 143.7 74.63 143.48 75.23 143.22 75.81 142.91 76.36 142.55 76.88 142.16 77.36 141.72 77.81 141.25 78.21 140.74 78.57 140.2 83.27 133.03 82.87 133.62 82.43 134.17 81.95 134.68 81.43 135.16 80.87 135.59 80.27 135.97 79.64 136.31 78.98 136.6 78.29 136.83 77.57 137.01 76.83 137.13 57.59 139.53 56.87 139.59 56.16 139.6 55.45 139.55 54.77 139.45 54.1 139.29 53.45 139.09 52.82 138.83 52.21 138.53 51.63 138.18 51.08 137.78 50.55 137.34 50.06 136.86 49.61 136.33 49.2 135.77 48.82 135.16 48.49 134.52 0.87 33.45 0.66 32.95 0.47 32.45 0.31 31.95 0.19 31.44 0.1 30.93"/><polygon class="cls-1" points="92.36 77.97 86.94 89.55 87.26 88.97 87.62 88.43 88.03 87.92 88.47 87.44 88.96 87.01 89.47 86.61 90.03 86.26 90.61 85.95 91.22 85.69 91.85 85.47 92.51 85.31 93.2 85.2 93.89 85.14 94.57 85.14 95.24 85.19 95.89 85.3 96.53 85.46 97.15 85.67 97.75 85.93 98.33 86.23 98.87 86.59 99.39 86.98 99.87 87.42 100.33 87.9 100.74 88.42 101.11 88.98 101.44 89.58 101.73 90.21 118.8 132.15 119.08 132.78 119.42 133.37 119.79 133.93 120.2 134.45 120.66 134.93 121.14 135.37 121.66 135.77 122.21 136.12 122.78 136.43 123.38 136.69 124 136.89 124.64 137.05 125.3 137.16 125.97 137.22 126.65 137.21 127.34 137.16 144.87 134.97 145.53 134.86 146.16 134.71 146.78 134.51 147.37 134.26 147.93 133.97 148.46 133.64 159.23 125.9 158.65 126.26 158.04 126.57 157.4 126.84 156.74 127.06 156.05 127.23 155.34 127.34 136.28 129.72 135.53 129.78 134.79 129.78 134.06 129.72 133.34 129.61 132.65 129.44 131.97 129.21 131.32 128.93 130.7 128.59 130.1 128.21 129.54 127.78 129.01 127.3 128.52 126.78 128.07 126.22 127.66 125.61 127.3 124.96 126.99 124.27 108.44 78.69 108.13 78 107.77 77.36 107.36 76.75 106.91 76.18 106.42 75.66 105.89 75.19 105.33 74.75 104.74 74.37 104.11 74.04 103.46 73.76 102.79 73.53 102.09 73.36 101.38 73.24 100.66 73.18 99.91 73.18 99.16 73.24 98.42 73.36 97.7 73.54 97.01 73.78 96.35 74.06 95.72 74.4 95.12 74.78 94.55 75.21 94.03 75.69 93.55 76.2 93.11 76.75 92.71 77.34 92.36 77.97"/><path class="cls-3" d="M162.92,120.27l21.63-109.7a8.63,8.63,0,0,0-2.2-7.75A8.63,8.63,0,0,0,174.78.07L161.73,1.7a8.76,8.76,0,0,0-7.67,7.62L147,62.73a8.85,8.85,0,0,1-17,2.15L109.74,14.81a8.76,8.76,0,0,0-9.3-5.47l-17,2.13a8.75,8.75,0,0,0-7.68,7.63l-7,53.25a8.85,8.85,0,0,1-17,2.16L31.59,24.56a8.74,8.74,0,0,0-9.3-5.47L7.78,20.9A8.85,8.85,0,0,0,.87,33.45L48.49,134.52a8.73,8.73,0,0,0,9.1,5l19.24-2.4a8.75,8.75,0,0,0,7.66-7.52l7-48.84a8.85,8.85,0,0,1,17-2.08L127,124.27a8.75,8.75,0,0,0,9.29,5.45l19.06-2.38A8.71,8.71,0,0,0,162.92,120.27Z"/></g></g></svg>