<svg xmlns="http://www.w3.org/2000/svg" xmlns:xlink="http://www.w3.org/1999/xlink" width="123.13" height="132.31" viewBox="0 0 123.13 132.31"><defs><style>.cls-1{fill:#f1ee86;}.cls-1,.cls-2,.cls-3{fill-rule:evenodd;}.cls-2{fill:#f8df45;}.cls-3{fill:url(#GradientFill_7);}</style><linearGradient id="GradientFill_7" x1="-77.16" y1="51.53" x2="199.58" y2="80.62" gradientUnits="userSpaceOnUse"><stop offset="0" stop-color="#f1ee86"/><stop offset="1" stop-color="#f8df45"/></linearGradient></defs><g id="Layer_2" data-name="Layer 2"><g id="Free_Fridge_Magnets_Vectors" data-name="Free Fridge Magnets Vectors"><polygon class="cls-1" points="104.02 132.18 110.19 131.04 110.72 130.93 111.25 130.78 111.76 130.6 112.25 130.39 112.73 130.14 113.19 129.85 113.64 129.54 114.06 129.19 114.46 128.81 114.84 128.4 115.2 127.96 115.53 127.49 115.83 127 116.1 126.5 116.33 125.99 116.52 125.47 116.67 124.94 116.78 124.41 116.86 123.87 116.9 123.34 116.9 122.8 116.87 122.26 116.8 121.72 116.68 121.18 116.54 120.65 116.35 120.12 116.13 119.6 115.87 119.08 91.17 74.23 90.89 73.66 90.64 73.08 90.45 72.49 90.3 71.9 90.2 71.3 90.15 70.69 90.14 70.09 90.17 69.5 90.26 68.9 90.39 68.31 90.56 67.73 90.78 67.17 91.04 66.61 91.35 66.07 91.7 65.55 92.09 65.05 121.17 30.72 121.53 30.27 121.85 29.8 122.14 29.32 122.39 28.83 122.61 28.32 122.78 27.81 122.93 27.29 123.03 26.75 123.1 26.22 123.13 25.68 123.12 25.13 123.07 24.59 122.99 24.04 122.87 23.49 122.71 22.95 122.51 22.4 122.27 21.88 122.01 21.37 116.86 12.98 117.15 13.53 117.4 14.1 117.62 14.69 117.8 15.28 117.93 15.88 118.02 16.47 118.07 17.06 118.08 17.66 118.05 18.25 117.97 18.83 117.86 19.41 117.71 19.98 117.51 20.53 117.28 21.08 117.01 21.62 116.7 22.14 116.34 22.65 115.95 23.14 84.35 60.45 83.92 61 83.53 61.56 83.2 62.15 82.92 62.75 82.68 63.37 82.49 64 82.35 64.64 82.26 65.28 82.22 65.94 82.23 66.59 82.29 67.24 82.4 67.9 82.56 68.54 82.77 69.19 83.03 69.82 83.35 70.44 110.19 119.19 110.47 119.75 110.71 120.31 110.92 120.89 111.08 121.47 111.2 122.05 111.28 122.64 111.31 123.22 111.31 123.81 111.27 124.39 111.18 124.98 111.06 125.55 110.89 126.13 110.69 126.69 110.44 127.25 110.15 127.79 109.82 128.32 109.46 128.84 109.07 129.31 108.66 129.76 108.22 130.17 107.76 130.55 107.28 130.89 106.78 131.2 106.26 131.47 105.72 131.71 105.17 131.9 104.6 132.06 104.02 132.18"/><polygon class="cls-2" points="59.37 31.67 69.11 38.56 68.72 38.28 68.33 37.97 67.97 37.63 67.63 37.27 67.31 36.89 67.01 36.48 66.73 36.05 66.47 35.59 55.64 15.13 55.38 14.67 55.1 14.24 54.8 13.83 54.48 13.44 54.14 13.08 53.77 12.75 42.7 3.6 43.09 3.97 43.46 4.36 43.81 4.78 44.14 5.22 44.44 5.69 44.72 6.19 56.49 28.43 56.78 28.93 57.08 29.4 57.41 29.84 57.76 30.26 58.13 30.65 58.52 31.02 58.94 31.36 59.37 31.67"/><polygon class="cls-2" points="24.02 124.59 36.6 124.05 37.1 124.03 37.59 123.97 38.08 123.89 38.55 123.78 39.02 123.64 39.47 123.47 39.91 123.27 40.34 123.04 40.76 122.79 41.16 122.5 41.55 122.2 41.93 121.86 42.29 121.5 42.63 121.11 60.2 99.95 60.54 99.56 60.9 99.2 61.28 98.86 61.67 98.55 62.07 98.27 62.49 98.02 62.92 97.79 63.36 97.59 63.81 97.42 64.28 97.28 64.75 97.17 65.24 97.08 65.73 97.03 66.23 97 66.74 97.01 67.26 97.05 67.77 97.11 57.91 95.31 57.35 95.23 56.79 95.19 56.24 95.19 55.69 95.22 55.16 95.27 54.63 95.36 54.11 95.49 53.61 95.64 53.11 95.83 52.63 96.04 52.16 96.29 51.71 96.56 51.27 96.87 50.85 97.21 50.44 97.57 50.05 97.97 49.68 98.39 30.58 121.39 30.21 121.81 29.82 122.2 29.41 122.57 28.99 122.91 28.55 123.21 28.1 123.49 27.63 123.73 27.15 123.95 26.66 124.14 26.15 124.29 25.63 124.41 25.11 124.5 24.57 124.56 24.02 124.59"/><path class="cls-3" d="M84.35,60.45,116,23.14a8.65,8.65,0,0,0,1.44-9,8.63,8.63,0,0,0-7.33-5.48L94.79,7.12a8.62,8.62,0,0,0-7.73,3.22L71.18,29.87A8.84,8.84,0,0,1,56.5,28.43L44.72,6.19a8.61,8.61,0,0,0-6.95-4.67L22.74.05A8.67,8.67,0,0,0,14.48,4a8.64,8.64,0,0,0-.36,9.13L38.4,57.33a8.7,8.7,0,0,1-1,10L2.15,108.52a8.65,8.65,0,0,0-1.48,9.06A8.65,8.65,0,0,0,8,123.08l14.9,1.46a8.59,8.59,0,0,0,7.67-3.15l19.1-23a8.85,8.85,0,0,1,14.59,1.43L78.53,126.1a8.65,8.65,0,0,0,6.91,4.58l16.13,1.58a8.85,8.85,0,0,0,8.62-13.07L83.35,70.44A8.7,8.7,0,0,1,84.35,60.45Z"/></g></g></svg>