<svg xmlns="http://www.w3.org/2000/svg" xmlns:xlink="http://www.w3.org/1999/xlink" width="110.92" height="132.64" viewBox="0 0 110.92 132.64"><defs><style>.cls-1{fill:#2790cf;}.cls-1,.cls-2,.cls-3{fill-rule:evenodd;}.cls-2{fill:#9eceee;}.cls-3{fill:url(#GradientFill_5);}</style><linearGradient id="GradientFill_5" x1="-20.87" y1="84.96" x2="147.18" y2="55.33" gradientUnits="userSpaceOnUse"><stop offset="0" stop-color="#2790cf"/><stop offset="1" stop-color="#9eceee"/></linearGradient></defs><g id="Layer_2" data-name="Layer 2"><g id="Free_Fridge_Magnets_Vectors" data-name="Free Fridge Magnets Vectors"><polygon class="cls-1" points="87.21 129 91.67 127.15 92.39 126.79 93.06 126.37 93.69 125.88 94.25 125.34 94.77 124.75 95.22 124.11 95.61 123.43 95.94 122.72 96.2 121.98 96.38 121.21 96.49 120.42 96.52 119.62 96.47 118.8 96.34 117.98 90.7 91.97 90.6 91.47 90.54 90.97 90.51 90.47 90.51 89.98 90.54 89.5 90.6 89.01 90.7 88.51 90.83 88.01 110.59 18.86 110.72 18.33 110.83 17.8 110.89 17.28 110.92 16.75 110.92 16.23 110.88 15.72 110.81 15.21 110.7 14.71 110.57 14.21 110.4 13.73 107.56 5.71 107.75 6.24 107.9 6.78 108.01 7.32 108.08 7.87 108.13 8.44 108.13 9 108.09 9.57 108.03 10.14 107.92 10.72 107.77 11.29 86.29 86.46 86.15 87 86.04 87.54 85.97 88.07 85.94 88.6 85.94 89.13 85.98 89.67 86.05 90.21 86.15 90.76 92.28 119.03 92.43 119.92 92.48 120.81 92.45 121.68 92.33 122.54 92.13 123.38 91.85 124.18 91.49 124.96 91.07 125.69 90.57 126.39 90.02 127.03 89.4 127.62 88.72 128.15 87.99 128.61 87.21 129"/><polygon class="cls-2" points="55.6 52.45 62.59 56.72 62.14 56.44 61.69 56.12 61.27 55.77 60.86 55.39 60.47 54.97 36.02 27.06 35.63 26.65 35.23 26.27 34.8 25.92 25.39 18.96 25.85 19.34 26.29 19.76 26.71 20.21 53.3 50.54 53.72 50.99 54.16 51.41 54.62 51.79 55.1 52.14 55.6 52.45"/><path class="cls-3" d="M86.29,86.46,107.77,11.3a8.64,8.64,0,0,0-2-8.49A8.67,8.67,0,0,0,97.39.21L86.2,2.64a8.66,8.66,0,0,0-6.62,6.18L68.45,47.18A8.84,8.84,0,0,1,53.3,50.54L26.71,20.21a8.63,8.63,0,0,0-8.53-2.82L7,19.82A8.84,8.84,0,0,0,2.16,34.23L53.79,94.4a8.39,8.39,0,0,1,1.94,3.88l5.94,27.39a8.86,8.86,0,0,0,10.52,6.77l13.32-2.89A8.86,8.86,0,0,0,92.28,119L86.15,90.76A8.47,8.47,0,0,1,86.29,86.46Z"/></g></g></svg>