<svg xmlns="http://www.w3.org/2000/svg" xmlns:xlink="http://www.w3.org/1999/xlink" width="126.06" height="130.92" viewBox="0 0 126.06 130.92"><defs><style>.cls-1{fill:#b383b9;}.cls-1,.cls-2,.cls-3{fill-rule:evenodd;}.cls-2{fill:#481759;}.cls-3{fill:url(#GradientFill_2);}</style><linearGradient id="GradientFill_2" x1="-95.23" y1="51.88" x2="213.5" y2="78.89" gradientUnits="userSpaceOnUse"><stop offset="0" stop-color="#b383b9"/><stop offset="1" stop-color="#481759"/></linearGradient></defs><g id="Layer_2" data-name="Layer 2"><g id="Free_Fridge_Magnets_Vectors" data-name="Free Fridge Magnets Vectors"><polygon class="cls-1" points="61.62 102.68 75.3 104.73 74.72 104.62 74.16 104.48 73.61 104.29 73.08 104.07 72.58 103.81 72.09 103.52 71.63 103.19 71.19 102.84 70.78 102.45 70.4 102.03 70.04 101.58 69.72 101.1 69.43 100.59 69.17 100.06 68.94 99.51 68.75 98.94 68.6 98.36 68.5 97.78 68.44 97.21 68.41 96.64 68.43 96.07 68.49 95.51 68.59 94.95 68.73 94.41 68.91 93.87 69.13 93.34 69.39 92.83 69.68 92.34 70.02 91.86 70.39 91.4 70.8 90.96 123.08 38.3 123.34 38.03 123.58 37.76 123.8 37.48 124.02 37.19 124.21 36.9 124.39 36.6 124.56 36.29 124.71 35.98 124.85 35.66 124.98 35.34 125.08 35.01 125.18 34.67 125.26 34.32 125.33 33.97 125.38 33.61 125.42 33.24 126.03 25.81 126.06 24.98 126 24.16 125.87 23.37 125.66 22.6 125.37 21.86 125.02 21.16 124.61 20.5 124.13 19.88 123.6 19.31 114.11 9.83 114.69 10.45 115.21 11.12 115.66 11.84 116.04 12.61 116.35 13.41 116.58 14.24 116.73 15.11 116.79 15.99 116.76 16.89 116.09 24.97 116.05 25.37 115.99 25.76 115.92 26.15 115.83 26.52 115.73 26.89 115.61 27.25 115.48 27.61 115.33 27.95 115.16 28.29 114.98 28.62 114.78 28.95 114.57 29.27 114.34 29.58 114.09 29.88 113.83 30.18 113.55 30.47 56.72 87.71 56.28 88.19 55.87 88.69 55.51 89.21 55.19 89.75 54.91 90.3 54.67 90.87 54.48 91.46 54.33 92.05 54.22 92.66 54.15 93.27 54.13 93.88 54.15 94.5 54.22 95.13 54.34 95.75 54.49 96.38 54.7 97 54.95 97.61 55.23 98.18 55.55 98.73 55.9 99.25 56.29 99.74 56.7 100.2 57.15 100.62 57.63 101.01 58.13 101.36 58.65 101.68 59.2 101.96 59.78 102.2 60.37 102.4 60.99 102.56 61.62 102.68"/><polygon class="cls-2" points="15.23 23.92 32.63 32.27 33.35 32.61 34.11 32.87 34.9 33.06 35.73 33.17 68.91 35.93 69.5 36 70.09 36.11 70.65 36.26 71.2 36.44 71.73 36.66 72.23 36.92 58.28 28.98 57.73 28.7 57.16 28.45 56.56 28.25 55.95 28.09 55.31 27.97 54.66 27.89 18.6 24.9 17.7 24.78 16.84 24.57 16.02 24.28 15.23 23.92"/><polygon class="cls-1" points="100.38 130.92 110.96 130.71 111.78 130.66 112.57 130.52 113.34 130.31 114.08 130.03 114.78 129.67 115.44 129.26 116.06 128.78 116.63 128.25 117.16 127.66 117.62 127.03 118.02 126.35 118.35 125.62 118.62 124.86 118.81 124.07 118.92 123.25 119.47 116.59 119.5 115.76 119.44 114.95 119.31 114.16 119.09 113.39 118.81 112.65 118.46 111.95 118.04 111.28 117.57 110.66 117.03 110.09 116.45 109.57 115.81 109.11 115.13 108.71 114.41 108.37 113.65 108.11 112.86 107.92 102.44 106.14 103.3 106.35 104.13 106.64 104.91 107 105.65 107.44 106.34 107.94 106.98 108.5 107.56 109.13 108.08 109.8 108.53 110.52 108.91 111.28 109.22 112.09 109.45 112.92 109.6 113.78 109.66 114.67 109.63 115.57 109.03 122.8 108.91 123.7 108.7 124.56 108.41 125.39 108.05 126.17 107.61 126.91 107.11 127.6 106.54 128.24 105.92 128.82 105.25 129.34 104.53 129.79 103.76 130.17 102.96 130.48 102.13 130.71 101.27 130.86 100.38 130.92"/><path class="cls-3" d="M116.09,25l.67-8.08a8.88,8.88,0,0,0-8.08-9.55L20.67,0a8.88,8.88,0,0,0-9.56,8.09l-.6,7.23A8.86,8.86,0,0,0,18.6,24.9l36.06,3A8.85,8.85,0,0,1,60.2,43L3.25,100.17A8.5,8.5,0,0,0,.7,105.68L0,113.75a8.86,8.86,0,0,0,8.09,9.55l91.36,7.59A8.88,8.88,0,0,0,109,122.8l.6-7.23a8.88,8.88,0,0,0-8.09-9.55l-39.27-3.26a8.85,8.85,0,0,1-5.55-15.05l56.83-57.24A8.51,8.51,0,0,0,116.09,25Z"/></g></g></svg>